<?xml version="1.0" encoding="utf-8"?>
<!-- Generator: Adobe Illustrator 21.1.0, SVG Export Plug-In . SVG Version: 6.00 Build 0)  -->
<svg version="1.1" id="Layer_1" xmlns="http://www.w3.org/2000/svg" xmlns:xlink="http://www.w3.org/1999/xlink" x="0px" y="0px"
	 width="496.2px" height="496.2px" viewBox="0 0 496.2 496.2" enable-background="new 0 0 496.2 496.2" xml:space="preserve">
<g>
	<ellipse opacity="0.28" fill="#898989" enable-background="new    " cx="254.6" cy="384.5" rx="88.4" ry="26.2"/>
	<g>
		<path fill="#2E5B70" d="M314.4,346.5c-5.8,9.6-20.9,21-59.8,21c-38.9,0-54-11.4-59.8-21c0.3-2.7,1-5.4,1.9-8.1l16.8-47.8
			c1.2-3.4,1.8-7.1,1.8-10.7c0-0.8,0-1.6-0.1-2.5c-0.1-1.3-0.3-2.5-0.5-3.8c11,6.3,24.1,10.2,39.8,10.2c7.9,0,15.1-1,21.7-2.7
			c6.6-1.7,12.6-4.3,18.1-7.5c-0.2,1.3-0.4,2.5-0.5,3.8c-0.3,4.4,0.2,8.9,1.7,13.2l16.8,47.8C313.4,341.1,314,343.8,314.4,346.5z"/>
		<ellipse fill="#E5D6AD" cx="254.6" cy="140.3" rx="91.6" ry="21.7"/>
		<path fill="#F4E9D0" d="M174.5,140.3c0-11.5,37.9-20.9,85.9-21.6c-1.9,0-3.8,0-5.7,0c-50.6,0-91.6,9.7-91.6,21.7
			s41,21.7,91.6,21.7c1.9,0,3.8,0,5.7,0C212.5,161.2,174.5,151.8,174.5,140.3z"/>
		<ellipse fill="#D3C39B" cx="254.6" cy="140.3" rx="71.2" ry="16.8"/>
		<path fill="#BCAA7E" d="M348.1,144.6l-1.9-4.3c0,12-41,21.7-91.6,21.7s-91.6-9.7-91.6-21.7l-1.9,4.3c-1.3,1.4-1.9,2.9-1.9,4.3
			c0,12,42.7,21.7,95.4,21.7S350,160.9,350,149C350,147.5,349.4,146,348.1,144.6z"/>
		<path fill="#926E4E" d="M350,149.3c-0.1,5.6-2.8,84.8-47.5,119l0,0c-0.5,0.4-1,0.7-1.5,1.1c-0.5,0.4-1.1,0.8-1.6,1.2
			c-0.5,0.3-0.9,0.6-1.4,0.9c-0.4,0.3-0.8,0.5-1.2,0.8c-0.3,0.2-0.6,0.4-0.9,0.6c-0.4,0.3-0.8,0.5-1.2,0.7c-0.3,0.2-0.6,0.4-0.9,0.5
			c-0.3,0.2-0.7,0.4-1,0.6c-0.5,0.3-1,0.5-1.5,0.8c-4,2.1-8.3,3.8-12.9,5.2c-1,0.3-2,0.6-2.9,0.8c-0.8,0.2-1.6,0.4-2.5,0.6l0,0
			c-3.2,0.7-6.5,1.2-9.9,1.5c-0.4,0-0.8,0.1-1.2,0.1c-1.2,0.1-2.4,0.2-3.7,0.2c-0.1,0-0.2,0-0.4,0c-0.5,0-1,0-1.5,0s-1,0-1.5,0
			s-1,0-1.5,0c-0.6,0-1.1,0-1.7,0c-0.1,0-0.2,0-0.2,0c-1.3,0-2.5-0.1-3.7-0.2c-0.4,0-0.8-0.1-1.2-0.1c-3.4-0.3-6.8-0.8-10-1.5l0,0
			c-0.8-0.2-1.7-0.4-2.5-0.6c-0.9-0.2-1.8-0.5-2.7-0.7c-4.6-1.3-9-3.1-13-5.1c-0.5-0.2-0.9-0.5-1.4-0.7c-0.1,0-0.1-0.1-0.2-0.1
			c-0.5-0.3-0.9-0.5-1.4-0.8c-0.4-0.2-0.9-0.5-1.3-0.7c-0.2-0.1-0.3-0.2-0.5-0.3c-0.4-0.2-0.8-0.5-1.1-0.7c-0.5-0.3-0.9-0.6-1.4-0.9
			c-1.4-0.9-2.7-1.9-4.1-2.9l0,0c-44.8-34.2-47.5-113.5-47.6-119.1c0.2,3.2,3.6,6.3,9.4,9.1c0.9,0.4,1.8,0.8,2.8,1.2
			c4.9,2,11.2,3.8,18.5,5.3c0.9,0.2,1.9,0.4,2.9,0.6c7.7,1.5,16.5,2.7,26,3.6c1,0.1,2,0.2,2.9,0.3c9.8,0.8,20.3,1.3,31.3,1.3
			c0.5,0,1,0,1.5,0s1,0,1.5,0c11,0,21.6-0.5,31.3-1.3c1-0.1,2-0.2,2.9-0.3c9.5-0.9,18.3-2.1,26-3.6c1-0.2,2-0.4,2.9-0.6
			c7.3-1.5,13.6-3.3,18.5-5.3c1-0.4,1.9-0.8,2.8-1.2C346.5,155.6,349.8,152.5,350,149.3z"/>
		<path fill="#352418" d="M294.4,273.7c-0.2,1.3-0.4,2.5-0.5,3.8c-0.1,0-0.1,0.1-0.2,0.1c-0.3,0.2-0.7,0.4-1,0.6
			c-0.5,0.3-1,0.5-1.5,0.8c-4,2.1-8.3,3.8-12.9,5.2c-1,0.3-2,0.6-2.9,0.8c-0.8,0.2-1.6,0.4-2.5,0.6l0,0c-3.2,0.7-6.5,1.2-9.9,1.5
			c-0.4,0-0.8,0.1-1.2,0.1c-1.2,0.1-2.4,0.2-3.7,0.2c-0.1,0-0.2,0-0.4,0c-0.5,0-1,0-1.5,0s-1,0-1.5,0s-1,0-1.5,0c-0.6,0-1.1,0-1.7,0
			c-0.1,0-0.2,0-0.2,0c-1.3,0-2.5-0.1-3.7-0.2c-0.4,0-0.8-0.1-1.2-0.1c-3.4-0.3-6.8-0.8-10-1.5l0,0c-0.8-0.2-1.7-0.4-2.5-0.6
			c-0.9-0.2-1.8-0.5-2.7-0.7c-4.6-1.3-9-3.1-13-5.1c-0.5-0.2-0.9-0.5-1.4-0.7c-0.1,0-0.1-0.1-0.2-0.1c-0.4-0.2-0.9-0.5-1.3-0.7
			c-0.1-1.3-0.3-2.5-0.5-3.8c11,6.3,24.1,10.2,39.8,10.2c7.9,0,15.1-1,21.7-2.7C282.9,279.5,289,276.9,294.4,273.7z"/>
		<g>
			<g>
				<path fill="#352418" d="M256.1,170.6v113.3c-0.5,0-1,0-1.5,0s-1,0-1.5,0V170.6c0-0.8,0.7-1.5,1.5-1.5
					C255.4,169.2,256.1,169.8,256.1,170.6z"/>
			</g>
		</g>
		<path fill="#201C1D" d="M314.1,358.7c-0.2,1.1-0.4,2.2-0.7,3.3c-3.4,12.8-13,23.6-26.6,27.6c-8.3,2.5-18.9,4-32.2,4
			s-23.9-1.6-32.2-4c-13.9-4.1-23.6-15.4-26.8-28.5c-0.2-0.8-0.4-1.6-0.5-2.5c-0.7-4-0.8-8-0.2-12.1c5.8,9.6,20.9,21,59.8,21
			c38.9,0,54-11.4,59.8-21C314.9,350.6,314.8,354.7,314.1,358.7z"/>
		<path fill="#CABBA8" d="M314.1,358.7c-5.9,9.3-21.1,20.6-59.5,20.6c-38.5,0-53.6-11.3-59.5-20.7c-0.7-4-0.8-8-0.2-12.1
			c5.8,9.6,20.9,21,59.8,21c38.9,0,54-11.4,59.8-21C314.9,350.6,314.8,354.7,314.1,358.7z"/>
		<path fill="#352418" d="M251.2,283.4l0.3,0.5c-0.1,0-0.2,0-0.2,0c-1.3,0-2.5-0.1-3.7-0.2c-0.4,0-0.8-0.1-1.2-0.1
			c-3.4-0.3-6.8-0.8-10-1.5l0,0c-0.8-0.2-1.7-0.4-2.5-0.6c-0.9-0.2-1.8-0.5-2.7-0.7l0,0c-4.6-1.3-9-3.1-13-5.1
			c-0.5-0.2-0.9-0.5-1.4-0.7c-0.1,0-0.1-0.1-0.2-0.1c-0.5-0.3-0.9-0.5-1.4-0.8c-0.4-0.2-0.9-0.5-1.3-0.7c-0.2-0.1-0.3-0.2-0.5-0.3
			c-0.4-0.2-0.8-0.5-1.1-0.7c-0.5-0.3-0.9-0.6-1.4-0.9c-1.4-0.9-2.7-1.9-4.1-2.9l0,0c-14-12.3-24.6-30.9-31.1-55.2
			c-7.6-28-7.2-54-7.2-54.2s0-0.4,0.1-0.6c0.2-0.5,0.7-0.9,1.4-0.8c0.8,0,1.5,0.7,1.5,1.5v0.6c0,4,0.3,27.6,7.1,52.9
			c6.7,24.6,21,55.7,51.8,66.4c-16.6-10.2-28.6-30.5-35.1-59.7c-6.2-27.6-5.4-53.8-5.4-54c0-0.1,0-0.2,0-0.3
			c0.1-0.7,0.7-1.2,1.5-1.2s1.5,0.7,1.4,1.5c0,0,0,0.1,0,0.2c-0.1,2.6-0.5,27.2,5.3,53.1c5.6,24.9,18.3,56.1,47.1,63.4
			c0.1,0,0.2,0.1,0.3,0.1l0.9,0.3l0,0c-31.5-34.5-27.7-110-27.5-113.2c0,0,0,0,0-0.1c0.1-0.8,0.8-1.4,1.5-1.3c0.8,0,1.4,0.7,1.4,1.6
			l0,0c-0.1,2.2-3.8,81.5,29,113.4C251,282.9,251.1,283.1,251.2,283.4z"/>
		<path fill="#352418" d="M333.6,213.2c-6.6,24.3-17.1,42.9-31,55.1l0,0c-0.5,0.4-1,0.7-1.5,1.1c-0.5,0.4-1.1,0.8-1.6,1.2
			c-0.5,0.3-0.9,0.6-1.4,0.9c-0.4,0.3-0.8,0.5-1.2,0.8c-0.3,0.2-0.6,0.4-0.9,0.6c-0.4,0.3-0.8,0.5-1.2,0.7c-0.3,0.2-0.6,0.4-0.9,0.5
			c-0.3,0.2-0.7,0.4-1,0.6c-0.5,0.3-1,0.5-1.5,0.8c-4,2.1-8.3,3.8-12.9,5.1l0,0c-1,0.3-2,0.6-2.9,0.8c-0.8,0.2-1.6,0.4-2.5,0.6l0,0
			c-3.2,0.7-6.5,1.2-9.9,1.5c-0.4,0-0.8,0.1-1.2,0.1c-1.2,0.1-2.4,0.2-3.7,0.2c-0.1,0-0.2,0-0.4,0l0.5-0.7c0.1-0.1,0.2-0.3,0.3-0.4
			c32.8-31.9,29.1-111.2,29-113.4l0,0c0-0.8,0.6-1.5,1.4-1.6c0.8,0,1.5,0.5,1.5,1.3c0,0,0,0,0,0.1c0.2,3.3,4,78.5-27.3,113l0.9-0.2
			c54.1-13.7,52.5-111.1,52.4-116.5v-0.2c0-0.8,0.6-1.5,1.4-1.5c0.7,0,1.3,0.5,1.5,1.2c0,0.1,0,0.2,0,0.3c0,0.3,0.8,26.4-5.4,54
			c-6.5,29.1-18.6,49.4-35.1,59.7c30.8-10.6,45.1-41.8,51.8-66.4c6.8-25.3,7.1-48.9,7.1-52.9V159c0-0.8,0.6-1.5,1.5-1.5
			c0.6,0,1.1,0.3,1.4,0.8c0.1,0.2,0.1,0.4,0.1,0.6C340.8,159.2,341.1,185.2,333.6,213.2z"/>
		<g>
			<g>
				<defs>
					<path id="SVGID_1_" d="M314.4,346.5c-5.8,9.6-20.9,21-59.8,21c-38.9,0-54-11.4-59.8-21c0.3-2.7,1-5.4,1.9-8.1l16.8-47.8
						c1.2-3.4,1.8-7.1,1.8-10.7c0-0.8,0-1.6-0.1-2.5c-0.1-1.3-0.3-2.5-0.5-3.8c11,6.3,24.1,10.2,39.8,10.2c7.9,0,15.1-1,21.7-2.7
						c6.6-1.7,12.6-4.3,18.1-7.5c-0.2,1.3-0.4,2.5-0.5,3.8c-0.3,4.4,0.2,8.9,1.7,13.2l16.8,47.8C313.4,341.1,314,343.8,314.4,346.5z
						"/>
				</defs>
				<clipPath id="SVGID_2_">
					<use xlink:href="#SVGID_1_"  overflow="visible"/>
				</clipPath>
				<g clip-path="url(#SVGID_2_)">
					<g>
						<g>
							<path fill="#BC984C" d="M417.7,278.5c0.3-0.2,0.5-0.4,0.5-0.4c0.8-0.6,1.2-1.3,1.2-1.9c0.1-0.7-0.2-1.4-0.9-2.1
								c0,0-0.5-0.6-1-1.1s-1-1.1-1-1.1l-2-2.2l-2-2.2c0,0-0.5-0.6-1-1.1s-1-1.1-1-1.1c-0.7-0.7-1.2-1.6-1.5-2.6s-1.2-1.6-2.7-1.6
								c0,0-0.3,0-0.7,0s-1,0-1.5,0c-1.1,0-2.2,0-2.2,0c-1.5,0-2,0.5-1.7,1.5c0.4,1,0.9,1.9,1.6,2.6c0,0,0.5,0.5,1.3,1.3
								s1.9,1.8,2.9,2.8c2.1,2.1,4.1,4.2,4.1,4.2c0.7,0.7,1,1.4,0.9,2.1c0,0.7-0.4,1.3-1.1,2l-2.2,1.9l-2.1,1.9c0,0-0.5,0.5-1,1
								s-1,1-1,1l-2.1,2c-0.7,0.7-1,1.3-1,2s0.5,1.2,1.5,1.5c1,0.4,2,0.4,2.9,0c1-0.3,1.8-0.8,2.5-1.4c0,0,0.6-0.6,1.6-1.5
								c0.5-0.5,1.1-1,1.7-1.6c0.6-0.6,1.3-1.2,1.9-1.7c1.3-1.2,2.7-2.4,3.7-3.2C417,279.1,417.4,278.7,417.7,278.5z"/>
							<path fill="#BC984C" d="M434.5,280.3c0.8-0.6,1.3-1.1,1.4-1.8c0.1-0.7-0.1-1.4-0.7-2.2c0,0-0.4-0.6-0.8-1.2
								c-0.2-0.3-0.4-0.6-0.6-0.8c-0.2-0.2-0.3-0.4-0.3-0.4l-1.8-2.3l-1.9-2.3c0,0-0.5-0.6-0.9-1.2c-0.5-0.6-0.9-1.2-0.9-1.2
								c-0.6-0.8-1.1-1.7-1.3-2.7s-1.1-1.7-2.6-1.9l-4.5-0.4c-0.4,0-0.7,0-0.9,0c-0.3,0-0.5,0.1-0.6,0.2c-0.3,0.2-0.4,0.6-0.2,1.1
								c0.1,0.5,0.3,1,0.6,1.4c0.2,0.4,0.5,0.9,0.9,1.2c0,0,2,2.2,3.9,4.5c1,1.1,1.9,2.3,2.6,3.1c0.7,0.9,1.1,1.4,1.1,1.4
								c0.6,0.8,0.9,1.5,0.8,2.1c-0.1,0.7-0.5,1.3-1.3,1.9l-2.3,1.7c0,0-0.6,0.4-1.1,0.9c-0.6,0.4-1.1,0.9-1.1,0.9l-2.2,1.8
								l-2.2,1.8c-0.7,0.6-1.1,1.3-1.1,1.9c-0.1,0.7,0.4,1.2,1.3,1.6c0.9,0.4,1.9,0.5,2.9,0.3c1-0.3,1.9-0.6,2.6-1.2
								c0,0,0.7-0.6,1.7-1.4c0.5-0.4,1.1-0.9,1.8-1.4s1.4-1,2.1-1.6c1.4-1.1,2.9-2.1,4-2.9C433.7,280.8,434.5,280.3,434.5,280.3z"/>
							<path fill="#BC984C" d="M449.9,284.5c0.3-0.2,0.5-0.3,0.5-0.3c0.9-0.5,1.4-1,1.6-1.6c0.2-0.6,0.1-1.4-0.4-2.2
								c0,0-0.3-0.7-0.7-1.3s-0.7-1.3-0.7-1.3s-0.4-0.6-0.7-1.3c-0.4-0.6-0.8-1.3-0.8-1.3s-0.1-0.2-0.2-0.4
								c-0.1-0.2-0.3-0.6-0.5-0.9c-0.4-0.6-0.8-1.2-0.8-1.2s-0.4-0.6-0.8-1.3c-0.4-0.6-0.8-1.3-0.8-1.3c-0.3-0.4-0.5-0.9-0.7-1.4
								s-0.3-1-0.4-1.5c-0.1-1.1-1-1.8-2.4-2.1c0,0-0.3-0.1-0.7-0.2c-0.2,0-0.5-0.1-0.7-0.2c-0.3-0.1-0.5-0.1-0.8-0.2
								c-1.1-0.2-2.2-0.4-2.2-0.4c-1.5-0.3-2.1,0.1-2,1.2c0.2,1.1,0.6,2,1.2,2.8c0,0,0.4,0.6,1.1,1.5c0.3,0.5,0.7,1,1.1,1.5
								c0.4,0.6,0.8,1.2,1.3,1.8c0.8,1.2,1.7,2.5,2.3,3.4c0.3,0.5,0.5,0.9,0.7,1.1c0.2,0.3,0.3,0.4,0.3,0.4c0.5,0.8,0.7,1.6,0.5,2.2
								c-0.2,0.7-0.7,1.2-1.5,1.7c0,0-0.6,0.4-1.2,0.7c-0.6,0.4-1.2,0.8-1.2,0.8s-0.6,0.4-1.2,0.8c-0.6,0.4-1.2,0.8-1.2,0.8
								s-0.6,0.4-1.2,0.8c-0.3,0.2-0.6,0.4-0.8,0.6c-0.2,0.2-0.4,0.3-0.4,0.3s-0.6,0.4-1.2,0.8c-0.6,0.4-1.2,0.8-1.2,0.8
								c-0.8,0.5-1.2,1.1-1.3,1.8s0.3,1.2,1.1,1.7c0.4,0.3,0.9,0.4,1.3,0.5c0.2,0,0.5,0.1,0.7,0.1s0.5,0,0.7,0
								c1-0.1,1.9-0.4,2.6-0.9c0,0,0.2-0.1,0.5-0.3s0.8-0.5,1.3-0.9c1.1-0.7,2.6-1.6,4.1-2.5s3.1-1.8,4.3-2.4
								C449,284.9,449.5,284.7,449.9,284.5z"/>
							<path fill="#BC984C" d="M466,289.7c0.9-0.4,1.5-0.9,1.7-1.5s0.2-1.4-0.3-2.3l-1.2-2.7l-1.2-2.6c0,0-0.3-0.7-0.6-1.3
								c-0.3-0.7-0.7-1.3-0.7-1.3l-1.3-2.7c-0.5-0.9-0.7-1.9-0.7-2.9c0-1.1-0.7-1.9-2.2-2.3c0,0-1.1-0.4-2.1-0.7
								c-1.1-0.3-2.2-0.7-2.2-0.7c-0.7-0.2-1.3-0.3-1.6-0.1s-0.5,0.5-0.5,1.1c0.1,1.1,0.4,2,0.9,2.9c0,0,0.4,0.7,0.9,1.6
								c0.6,1,1.3,2.3,2,3.6s1.4,2.6,1.9,3.6s0.8,1.6,0.8,1.6c0.4,0.9,0.5,1.6,0.3,2.3c-0.2,0.6-0.8,1.2-1.7,1.6
								c0,0-0.7,0.3-1.3,0.6c-0.7,0.3-1.3,0.6-1.3,0.6l-2.6,1.3c0,0-0.6,0.3-1.3,0.6c-0.6,0.3-1.3,0.7-1.3,0.7s-0.6,0.3-1.3,0.7
								c-0.6,0.3-1.2,0.7-1.2,0.7c-0.8,0.4-1.3,1-1.5,1.7c-0.2,0.6,0.1,1.3,0.9,1.9c0.8,0.6,1.7,0.9,2.7,0.9s1.9-0.2,2.8-0.6
								c0,0,0.2-0.1,0.5-0.3s0.8-0.4,1.4-0.7c1.2-0.6,2.8-1.4,4.4-2.1c1.6-0.7,3.3-1.5,4.5-2C465.1,290.1,466,289.7,466,289.7z"/>
							<path fill="#BC984C" d="M481.5,295.8c0.9-0.4,1.5-0.9,1.7-1.6c0.2-0.6,0.1-1.4-0.3-2.3l-1.2-2.6l-1.2-2.6l-1.2-2.6l-1.1-2.7
								c-0.4-0.9-0.6-1.9-0.5-2.9c0.1-1.1-0.5-1.9-1.9-2.4l-4-1.6c-1.3-0.5-2-0.2-2.1,0.8c0,1.1,0.2,2.1,0.6,3c0,0,0.3,0.7,0.8,1.7
								s1.1,2.3,1.7,3.7c1.2,2.7,2.4,5.3,2.4,5.3c0.4,0.9,0.5,1.6,0.2,2.3c-0.2,0.6-0.8,1.1-1.7,1.5l-2.7,1.1l-2.7,1.1l-2.7,1.1
								c0,0-0.7,0.3-1.3,0.6c-0.7,0.3-1.3,0.6-1.3,0.6c-0.9,0.4-1.4,0.9-1.7,1.5c-0.2,0.6,0.1,1.3,0.9,2c0.8,0.7,1.8,1.1,2.8,1.1
								c1.1,0.1,2.1-0.1,3-0.4c0,0,3.4-1.4,6.8-2.8c1.7-0.7,3.4-1.4,4.7-1.9C480.7,296.2,481.5,295.8,481.5,295.8z"/>
							<path fill="#BC984C" d="M497.1,301.3c0.4-0.2,0.6-0.3,0.6-0.3c0.9-0.5,1.4-1.1,1.6-1.7c0.2-0.7,0-1.4-0.5-2.2
								c0,0-0.4-0.6-0.7-1.2c-0.4-0.6-0.7-1.3-0.7-1.3s-0.3-0.6-0.7-1.2c-0.3-0.6-0.7-1.2-0.7-1.2s-0.3-0.6-0.7-1.2
								c-0.3-0.6-0.7-1.3-0.7-1.3s-0.3-0.6-0.6-1.3c-0.3-0.6-0.6-1.3-0.6-1.3c-0.4-0.8-0.6-1.8-0.6-2.9c0-1.1-0.6-1.8-1.8-2.2
								c0,0-0.2-0.1-0.6-0.2c-0.3-0.1-0.8-0.3-1.3-0.5c-0.9-0.3-1.8-0.7-1.8-0.7c-1.2-0.5-1.9-0.2-1.9,0.9c0,1.1,0.1,2,0.5,2.9
								c0,0,0.3,0.6,0.7,1.6s1,2.3,1.7,3.6c0.6,1.3,1.3,2.6,1.7,3.5c0.2,0.5,0.5,0.9,0.6,1.2s0.2,0.4,0.2,0.4
								c0.4,0.8,0.6,1.6,0.4,2.2c-0.2,0.6-0.7,1.2-1.6,1.6c0,0-0.2,0.1-0.4,0.2c-0.2,0.1-0.6,0.3-0.9,0.4c-0.7,0.3-1.3,0.6-1.3,0.6
								l-2.7,1.2c0,0-0.7,0.3-1.4,0.6s-1.4,0.6-1.4,0.6l-2.8,1.1c-0.9,0.4-1.5,0.9-1.7,1.5s0.1,1.3,1,2s2,1.1,3.1,1.1
								c1.2,0.1,2.2-0.1,3.1-0.5c0,0,0.2-0.1,0.6-0.3c0.4-0.2,0.9-0.4,1.6-0.7c1.3-0.6,3-1.4,4.7-2.2s3.3-1.7,4.5-2.3
								C496.2,301.8,496.7,301.5,497.1,301.3z"/>
							<path fill="#BC984C" d="M514.2,304.4c0.8-0.6,1.3-1.2,1.4-1.9c0.1-0.7-0.2-1.4-0.8-2.2c0,0-0.4-0.6-0.9-1.2
								c-0.4-0.6-0.8-1.2-0.8-1.2s-0.4-0.6-0.8-1.2c-0.2-0.3-0.4-0.6-0.6-0.8c-0.2-0.2-0.3-0.4-0.3-0.4s-0.4-0.6-0.8-1.2
								c-0.4-0.6-0.8-1.2-0.8-1.2s-0.4-0.6-0.8-1.2c-0.4-0.6-0.8-1.2-0.8-1.2c-0.5-0.8-0.8-1.7-0.9-2.8c-0.1-1.1-0.8-1.7-2-2
								c0,0-0.2-0.1-0.6-0.1c-0.3-0.1-0.8-0.2-1.3-0.3c-0.9-0.2-1.8-0.5-1.8-0.5c-0.6-0.2-1.1-0.1-1.4,0c-0.3,0.2-0.4,0.5-0.4,1.1
								c0,0.5,0.1,1,0.2,1.5c0.1,0.5,0.3,0.9,0.5,1.3c0,0,0.3,0.6,0.9,1.5c0.3,0.5,0.6,1,0.9,1.6c0.2,0.3,0.3,0.6,0.5,0.9
								c0.2,0.3,0.4,0.6,0.6,0.9c0.7,1.2,1.5,2.4,2.1,3.3c0.3,0.5,0.5,0.8,0.7,1.1s0.3,0.4,0.3,0.4c0.5,0.8,0.7,1.5,0.6,2.2
								c-0.1,0.7-0.6,1.3-1.4,1.8c0,0-0.6,0.4-1.3,0.8c-0.6,0.4-1.3,0.8-1.3,0.8s-0.6,0.4-1.3,0.8c-0.6,0.4-1.3,0.7-1.3,0.7
								s-0.2,0.1-0.4,0.2c-0.2,0.1-0.6,0.3-0.9,0.5c-0.7,0.4-1.3,0.7-1.3,0.7s-0.7,0.4-1.3,0.7c-0.7,0.3-1.3,0.7-1.3,0.7
								c-0.9,0.5-1.4,1-1.6,1.7c-0.2,0.7,0.3,1.3,1.3,1.9c1,0.6,2.1,0.9,3.3,0.8c1.2-0.1,2.2-0.4,3.1-0.8c0,0,0.8-0.5,2-1.2
								s2.8-1.7,4.4-2.7c1.6-1,3.1-2,4.2-2.8C513.4,304.9,514.2,304.4,514.2,304.4z"/>
							<path fill="#BC984C" d="M527.4,297.7c0,0-0.5-0.5-0.9-1.1c-0.5-0.6-0.9-1.1-0.9-1.1l-1.8-2.2c-0.6-0.7-1-1.6-1.2-2.7
								c-0.2-1-1-1.6-2.2-1.8c0,0-1-0.1-1.9-0.2c-0.5-0.1-1-0.1-1.3-0.2c-0.4-0.1-0.6-0.1-0.6-0.1c-1.2-0.2-1.8,0.2-1.7,1.3
								c0.2,1,0.5,2,1.1,2.7c0,0,0.1,0.1,0.3,0.4c0.2,0.3,0.4,0.6,0.8,1c0.6,0.8,1.5,2,2.4,3.1s1.8,2.3,2.5,3.1s1.2,1.4,1.2,1.4
								c0.6,0.7,0.9,1.4,0.8,2.1c-0.1,0.7-0.5,1.3-1.2,1.9l-2.3,1.8c0,0-0.1,0.1-0.4,0.3c-0.2,0.2-0.5,0.4-0.8,0.6
								c-0.6,0.4-1.2,0.9-1.2,0.9l-2.4,1.8c0,0-0.6,0.4-1.2,0.9c-0.6,0.4-1.2,0.8-1.2,0.8c-0.8,0.6-1.3,1.2-1.4,1.8
								c-0.1,0.7,0.4,1.2,1.5,1.8c1.1,0.5,2.2,0.6,3.3,0.4c1.2-0.2,2.2-0.6,3-1.1c0,0,3.1-2.3,6-4.5c1.5-1.2,2.9-2.3,3.9-3.2
								s1.7-1.5,1.7-1.5c0.8-0.6,1.1-1.3,1.2-2c0-0.7-0.3-1.4-0.9-2.1l-1.9-2.2L527.4,297.7z"/>
							<path fill="#BC984C" d="M541.6,296.3l-2-2.1c-0.7-0.7-1.1-1.5-1.4-2.6c-0.3-1-1.1-1.6-2.4-1.6c0,0-1,0-2-0.1
								c-0.5,0-1,0-1.3-0.1c-0.4,0-0.6,0-0.6,0c-1.3-0.1-1.8,0.4-1.6,1.4c0.3,1,0.7,1.9,1.3,2.6c0,0,0.1,0.1,0.3,0.4
								c0.2,0.2,0.5,0.6,0.9,1c0.7,0.8,1.7,1.8,2.7,2.9c1,1.1,2,2.1,2.7,2.9c0.8,0.8,1.3,1.3,1.3,1.3c0.7,0.7,1,1.4,1,2
								c0,0.7-0.4,1.3-1.1,2c0,0-0.5,0.5-1.1,1c-0.5,0.5-1.1,1-1.1,1l-2.2,1.9l-2.2,2c0,0-0.6,0.5-1.1,1c-0.6,0.5-1.2,0.9-1.2,0.9
								c-0.8,0.6-1.2,1.3-1.2,2s0.5,1.2,1.6,1.6c1.1,0.4,2.2,0.4,3.3,0.1c1.1-0.3,2.1-0.8,2.8-1.4c0,0,0.1-0.1,0.3-0.3
								s0.5-0.5,0.9-0.8c0.7-0.7,1.7-1.6,2.7-2.5c2-1.8,3.9-3.6,3.9-3.6v-9.8l-1.2-1.2L541.6,296.3z"/>
							<path fill="#BC984C" d="M273.3,303.5c-0.1-0.7-0.5-1.3-1.2-1.9c0,0-0.6-0.5-1.1-0.9c-0.5-0.5-1.1-1-1.1-1l-2.2-1.9l-2.1-1.9
								c0,0-0.5-0.5-1-1s-1-1-1-1c-0.7-0.6-1.2-1.5-1.6-2.5c-0.4-1-1.2-1.5-2.5-1.4c0,0-0.2,0-0.6,0c-0.4,0-0.9,0-1.4,0
								c-1,0-2,0-2,0c-1.3,0-1.8,0.5-1.5,1.5s0.8,1.9,1.5,2.5c0,0,0.5,0.5,1.3,1.3c0.8,0.7,1.8,1.8,2.8,2.7c2.1,2,4.3,3.9,4.3,3.9
								c0.7,0.6,1.1,1.3,1.1,2s-0.3,1.4-0.9,2.1l-2,2.1l-2.1,2.1c0,0-0.5,0.5-1,1s-1,1-1,1l-2.1,2c-0.7,0.7-1.1,1.4-1.1,2.1
								c0,0.7,0.6,1.2,1.7,1.5c1.1,0.3,2.2,0.3,3.3,0c1.1-0.4,2-0.9,2.7-1.6c0,0,0.7-0.7,1.6-1.7c0.5-0.5,1.1-1.1,1.7-1.7
								c0.6-0.6,1.2-1.3,1.9-2c1.3-1.4,2.5-2.7,3.4-3.7c0.5-0.5,0.8-0.9,1.1-1.2s0.4-0.5,0.4-0.5
								C273.1,304.9,273.4,304.2,273.3,303.5z"/>
							<path fill="#BC984C" d="M288.4,299.4c0,0-0.6-0.4-1.2-0.8c-0.3-0.2-0.6-0.4-0.8-0.6c-0.2-0.2-0.4-0.3-0.4-0.3
								s-0.6-0.4-1.2-0.8c-0.6-0.4-1.2-0.8-1.2-0.8s-0.6-0.4-1.2-0.8c-0.6-0.4-1.1-0.8-1.1-0.8s-0.6-0.4-1.1-0.9
								c-0.6-0.4-1.1-0.9-1.1-0.9c-0.7-0.6-1.3-1.4-1.8-2.3c-0.4-1-1.3-1.4-2.6-1.2l-3.8,0.4c-0.3,0-0.6,0.1-0.8,0.2
								c-0.2,0.1-0.4,0.2-0.5,0.3c-0.2,0.3-0.2,0.7,0,1.1c0.2,0.5,0.4,0.9,0.7,1.3c0.3,0.4,0.6,0.8,1,1.1c0,0,2.1,1.8,4.4,3.7
								c1.1,0.9,2.2,1.8,3.1,2.4c0.9,0.7,1.4,1.1,1.4,1.1c0.8,0.6,1.2,1.2,1.3,1.9s-0.2,1.4-0.8,2.2L279,307c0,0-0.5,0.6-0.9,1.1
								c-0.5,0.6-1,1.1-1,1.1l-1.9,2.2l-2,2.2c-0.7,0.7-1,1.4-0.9,2.1c0.1,0.7,0.7,1.1,1.8,1.3s2.3,0.1,3.3-0.3
								c1.1-0.4,2-1.1,2.6-1.8c0,0,0.6-0.7,1.5-1.8c0.4-0.5,1-1.2,1.5-1.8c0.6-0.7,1.1-1.4,1.7-2.1c1.2-1.5,2.3-2.9,3.1-4
								s1.3-1.9,1.3-1.9c0.6-0.8,0.8-1.5,0.7-2.2C289.7,300.5,289.2,299.9,288.4,299.4z"/>
							<path fill="#BC984C" d="M304.4,295.5c0,0-0.6-0.3-1.3-0.7c-0.6-0.4-1.3-0.7-1.3-0.7s-0.6-0.3-1.2-0.7
								c-0.6-0.3-1.2-0.7-1.2-0.7s-0.2-0.1-0.4-0.2c-0.2-0.1-0.5-0.3-0.8-0.5c-0.6-0.4-1.2-0.7-1.2-0.7s-0.6-0.4-1.2-0.7
								c-0.6-0.4-1.2-0.8-1.2-0.8c-0.4-0.2-0.8-0.5-1.1-0.9s-0.6-0.8-0.9-1.2c-0.5-0.9-1.4-1.2-2.6-1c0,0-0.2,0.1-0.6,0.1
								c-0.2,0-0.4,0.1-0.6,0.1c-0.2,0-0.5,0.1-0.7,0.1c-0.9,0.2-1.9,0.4-1.9,0.4c-1.2,0.2-1.6,0.8-1.1,1.8c0.5,0.9,1.1,1.7,1.9,2.2
								c0,0,0.6,0.4,1.4,1c0.4,0.3,1,0.7,1.5,1c0.6,0.4,1.1,0.8,1.7,1.1c1.2,0.8,2.4,1.5,3.3,2.1c0.5,0.3,0.8,0.5,1.1,0.7
								s0.4,0.3,0.4,0.3c0.8,0.5,1.3,1,1.5,1.7s0,1.4-0.5,2.2c0,0-0.4,0.6-0.8,1.2c-0.4,0.6-0.8,1.2-0.8,1.2s-0.4,0.6-0.8,1.2
								c-0.4,0.6-0.8,1.2-0.8,1.2s-0.4,0.6-0.8,1.2c-0.2,0.3-0.4,0.6-0.6,0.8c-0.2,0.2-0.3,0.4-0.3,0.4s-0.4,0.6-0.9,1.2
								c-0.5,0.6-0.9,1.2-0.9,1.2c-0.6,0.8-0.8,1.5-0.7,2.2s0.8,1,1.9,1.2c0.6,0.1,1.2,0,1.7-0.1c0.3-0.1,0.6-0.1,0.8-0.2
								c0.3-0.1,0.5-0.2,0.8-0.4c1.1-0.6,1.9-1.3,2.4-2.1c0,0,0.1-0.2,0.4-0.5c0.2-0.3,0.6-0.8,1-1.4c0.8-1.2,1.8-2.8,2.8-4.3
								c1-1.6,1.9-3.2,2.6-4.4c0.3-0.6,0.6-1.1,0.8-1.4c0.2-0.4,0.3-0.6,0.3-0.6c0.5-0.9,0.6-1.6,0.4-2.3
								C305.8,296.4,305.3,295.9,304.4,295.5z"/>
							<path fill="#BC984C" d="M320,289.9l-2.7-1.2l-2.6-1.2c0,0-0.7-0.3-1.3-0.6c-0.7-0.3-1.3-0.6-1.3-0.6l-2.6-1.2
								c-0.8-0.4-1.6-1-2.2-1.9c-0.6-0.8-1.6-1.1-2.8-0.7c0,0-0.9,0.3-1.8,0.6c-0.9,0.3-1.8,0.6-1.8,0.6c-0.6,0.2-1,0.4-1.1,0.7
								c-0.2,0.3-0.1,0.7,0.2,1.1c0.6,0.9,1.3,1.6,2.1,2c0,0,0.6,0.3,1.5,0.8s2.2,1.2,3.5,1.8s2.6,1.3,3.6,1.7
								c1,0.5,1.6,0.8,1.6,0.8c0.9,0.4,1.4,0.9,1.7,1.5c0.2,0.6,0.1,1.4-0.3,2.3c0,0-0.3,0.7-0.7,1.3c-0.3,0.7-0.7,1.3-0.7,1.3
								l-1.4,2.6c0,0-0.3,0.7-0.7,1.3s-0.7,1.3-0.7,1.3l-1.5,2.6c-0.5,0.9-0.7,1.6-0.5,2.3c0.2,0.6,0.9,1,2.1,0.9
								c1.2,0,2.3-0.3,3.2-1c1-0.7,1.7-1.5,2.2-2.3c0,0,0.1-0.2,0.3-0.6c0.2-0.4,0.5-0.9,0.8-1.5c0.6-1.2,1.5-2.9,2.3-4.6
								c0.8-1.7,1.6-3.3,2.2-4.6c0.6-1.2,0.9-2.1,0.9-2.1c0.4-0.9,0.5-1.7,0.2-2.3C321.5,290.8,320.9,290.3,320,289.9z"/>
							<path fill="#BC984C" d="M335.5,283.8l-2.7-1.2l-2.7-1.1l-2.7-1.1l-2.7-1.1c-0.9-0.4-1.7-1-2.4-1.8s-1.7-1-3-0.5l-3.8,1.5
								c-1.2,0.5-1.5,1.2-0.9,2c0.7,0.8,1.5,1.4,2.3,1.8c0,0,0.7,0.3,1.7,0.7s2.3,1,3.7,1.5c2.7,1.1,5.4,2.2,5.4,2.2
								c0.9,0.4,1.5,0.9,1.7,1.5s0.2,1.4-0.2,2.3l-1.2,2.7l-1.2,2.6l-1.2,2.7c0,0-0.3,0.7-0.6,1.3c-0.3,0.7-0.6,1.3-0.6,1.3
								c-0.4,0.9-0.5,1.6-0.2,2.3c0.2,0.6,0.9,0.9,2,0.8c1.1-0.1,2.1-0.5,2.9-1.2c0.9-0.7,1.5-1.5,1.9-2.4c0,0,1.5-3.3,2.9-6.6
								c0.7-1.7,1.5-3.3,2-4.5c0.6-1.2,1-2.1,1-2.1c0.4-0.9,0.5-1.6,0.3-2.3C337,284.7,336.4,284.2,335.5,283.8z"/>
							<path fill="#BC984C" d="M351.6,278.7c0,0-0.6-0.4-1.3-0.7c-0.6-0.3-1.3-0.7-1.3-0.7s-0.7-0.3-1.3-0.7
								c-0.7-0.3-1.3-0.7-1.3-0.7s-0.7-0.3-1.3-0.7c-0.7-0.3-1.3-0.6-1.3-0.6l-2.7-1.3c-0.9-0.4-1.7-1-2.4-1.9
								c-0.7-0.8-1.7-1-3.1-0.5c0,0-0.3,0.1-0.7,0.2c-0.4,0.1-0.9,0.3-1.4,0.5c-1,0.4-2.1,0.8-2.1,0.8c-1.4,0.5-1.7,1.2-1,2
								s1.5,1.4,2.4,1.8c0,0,0.7,0.3,1.7,0.7s2.4,1,3.7,1.6c1.4,0.6,2.7,1.2,3.7,1.7c0.5,0.2,0.9,0.4,1.2,0.6
								c0.3,0.1,0.5,0.2,0.5,0.2c0.9,0.4,1.4,1,1.6,1.6c0.2,0.6,0.1,1.4-0.4,2.3c0,0-0.1,0.2-0.2,0.4c-0.1,0.2-0.3,0.6-0.5,0.9
								c-0.3,0.6-0.7,1.3-0.7,1.3l-1.3,2.6c0,0-0.3,0.6-0.6,1.3s-0.6,1.3-0.6,1.3l-1.2,2.6c-0.4,0.9-0.5,1.6-0.2,2.3
								c0.2,0.6,0.9,0.9,1.9,0.9s1.9-0.3,2.7-1c0.8-0.6,1.4-1.4,1.8-2.2c0,0,0.1-0.2,0.3-0.5s0.4-0.9,0.7-1.4
								c0.6-1.2,1.4-2.8,2.2-4.3c0.8-1.6,1.7-3.1,2.3-4.3c0.3-0.6,0.6-1.1,0.8-1.4c0.2-0.3,0.3-0.5,0.3-0.5c0.5-0.8,0.7-1.6,0.5-2.2
								C353,279.7,352.5,279.1,351.6,278.7z"/>
							<path fill="#BC984C" d="M369.5,277.1c-0.1-0.7-0.5-1.3-1.3-1.8c0,0-0.6-0.4-1.2-0.8c-0.6-0.4-1.2-0.8-1.2-0.8
								s-0.6-0.4-1.2-0.8c-0.3-0.2-0.6-0.4-0.8-0.6c-0.2-0.2-0.4-0.3-0.4-0.3s-0.6-0.4-1.3-0.8c-0.6-0.4-1.3-0.8-1.3-0.8
								s-0.6-0.4-1.3-0.8c-0.6-0.4-1.3-0.8-1.3-0.8c-0.9-0.5-1.6-1.2-2.2-2.1c-0.6-0.9-1.6-1.2-3.1-0.9c0,0-0.3,0.1-0.7,0.2
								c-0.4,0.1-1,0.2-1.5,0.4c-1.1,0.3-2.2,0.6-2.2,0.6c-0.7,0.2-1.2,0.4-1.4,0.8c-0.2,0.3-0.2,0.7,0.2,1.1c0.3,0.4,0.7,0.8,1,1.2
								c0.4,0.3,0.8,0.6,1.2,0.9c0,0,0.7,0.4,1.7,0.9c0.5,0.3,1.1,0.6,1.7,0.9c0.3,0.2,0.6,0.3,0.9,0.5c0.3,0.2,0.6,0.4,1,0.6
								c1.3,0.8,2.6,1.5,3.5,2.1c0.5,0.3,0.9,0.5,1.1,0.7c0.3,0.2,0.4,0.3,0.4,0.3c0.8,0.5,1.3,1.1,1.4,1.8c0.1,0.7-0.1,1.4-0.6,2.2
								c0,0-0.4,0.6-0.8,1.2c-0.4,0.6-0.8,1.2-0.8,1.2s-0.4,0.6-0.8,1.2c-0.4,0.6-0.7,1.2-0.7,1.2s-0.1,0.2-0.2,0.4
								c-0.1,0.2-0.3,0.5-0.5,0.8c-0.4,0.6-0.7,1.2-0.7,1.2s-0.4,0.6-0.7,1.2c-0.3,0.6-0.7,1.2-0.7,1.2c-0.5,0.8-0.6,1.5-0.4,2.2
								c0.2,0.6,0.8,1,1.8,1.1s1.9-0.1,2.7-0.7c0.9-0.5,1.5-1.2,2-2c0,0,0.5-0.8,1.1-1.9c0.7-1.1,1.7-2.6,2.6-4.1c1-1.5,2-2.9,2.8-4
								s1.3-1.8,1.3-1.8C369.3,278.5,369.6,277.8,369.5,277.1z"/>
							<path fill="#BC984C" d="M386,275.5c0-0.7-0.4-1.3-1.2-2l-2.2-1.9l-2.3-1.9c0,0-0.6-0.5-1.2-0.9c-0.6-0.5-1.2-0.9-1.2-0.9
								l-2.4-1.8c-0.8-0.6-1.4-1.4-1.9-2.4s-1.5-1.4-3-1.2c0,0-1.1,0.1-2.2,0.3c-0.6,0.1-1.1,0.1-1.5,0.2c-0.4,0.1-0.7,0.1-0.7,0.1
								c-1.5,0.2-2,0.8-1.4,1.8c0.5,0.9,1.2,1.7,2,2.2c0,0,0.2,0.1,0.4,0.3c0.3,0.2,0.7,0.4,1.1,0.8c0.9,0.6,2.1,1.5,3.3,2.4
								s2.4,1.7,3.2,2.4c0.9,0.7,1.4,1.1,1.4,1.1c0.8,0.6,1.2,1.2,1.2,1.9c0.1,0.7-0.2,1.4-0.8,2.1l-1.8,2.2c0,0-0.1,0.1-0.3,0.3
								s-0.4,0.5-0.6,0.8c-0.4,0.6-0.9,1.1-0.9,1.1l-1.7,2.3c0,0-0.4,0.6-0.8,1.1c-0.4,0.6-0.8,1.2-0.8,1.2
								c-0.5,0.8-0.8,1.5-0.6,2.2c0.1,0.7,0.7,1.1,1.6,1.3c1,0.2,1.9,0.1,2.8-0.4c0.9-0.5,1.6-1.1,2.2-1.8c0,0,2.1-2.8,4.4-5.5
								c1.1-1.4,2.3-2.7,3.2-3.7s1.5-1.7,1.5-1.7C385.8,276.9,386.1,276.2,386,275.5z"/>
							<path fill="#BC984C" d="M403.1,274.2c0-0.7-0.4-1.3-1.2-2l-2.2-1.9l-2.3-1.9c0,0-0.6-0.5-1.2-0.9c-0.6-0.5-1.2-0.9-1.2-0.9
								l-2.4-1.8c-0.8-0.6-1.4-1.4-1.9-2.4s-1.5-1.4-3-1.2c0,0-1.1,0.1-2.2,0.3c-0.6,0.1-1.1,0.1-1.5,0.2c-0.4,0.1-0.7,0.1-0.7,0.1
								c-1.5,0.2-2,0.8-1.4,1.8c0.5,0.9,1.2,1.7,2,2.2c0,0,0.2,0.1,0.4,0.3c0.3,0.2,0.7,0.4,1.1,0.8c0.9,0.6,2.1,1.5,3.3,2.4
								s2.4,1.7,3.2,2.4c0.9,0.7,1.4,1.1,1.4,1.1c0.8,0.6,1.2,1.2,1.2,1.9c0.1,0.7-0.2,1.4-0.8,2.1l-1.8,2.2c0,0-0.1,0.1-0.3,0.3
								s-0.4,0.5-0.6,0.8c-0.4,0.6-0.9,1.1-0.9,1.1l-1.7,2.3c0,0-0.4,0.6-0.8,1.1c-0.4,0.6-0.8,1.2-0.8,1.2
								c-0.5,0.8-0.8,1.5-0.6,2.2c0.1,0.7,0.7,1.1,1.6,1.3c1,0.2,1.9,0.1,2.8-0.4c0.9-0.5,1.6-1.1,2.2-1.8c0,0,2.1-2.8,4.4-5.5
								c1.1-1.4,2.3-2.7,3.2-3.7s1.5-1.7,1.5-1.7C402.8,275.5,403.1,274.8,403.1,274.2z"/>
							<path fill="#BC984C" d="M125.5,278.5c0.3-0.2,0.5-0.4,0.5-0.4c0.8-0.6,1.2-1.3,1.2-1.9c0.1-0.7-0.2-1.4-0.9-2.1
								c0,0-0.5-0.6-1-1.1s-1-1.1-1-1.1l-2-2.2l-2-2.2c0,0-0.5-0.6-1-1.1s-1-1.1-1-1.1c-0.7-0.7-1.2-1.6-1.5-2.6s-1.2-1.6-2.7-1.6
								c0,0-0.3,0-0.7,0c-0.4,0-1,0-1.5,0c-1.1,0-2.2,0-2.2,0c-1.5,0-2,0.5-1.7,1.5c0.4,1,0.9,1.9,1.6,2.6c0,0,0.5,0.5,1.3,1.3
								s1.9,1.8,2.9,2.8c2.1,2.1,4.1,4.2,4.1,4.2c0.7,0.7,1,1.4,0.9,2.1c0,0.7-0.4,1.3-1.1,2l-2.2,1.9l-2.1,1.9c0,0-0.5,0.5-1,1
								s-1,1-1,1l-2.1,2c-0.7,0.7-1,1.3-1,2s0.5,1.2,1.5,1.5c1,0.4,2,0.4,2.9,0c1-0.3,1.8-0.8,2.5-1.4c0,0,0.6-0.6,1.6-1.5
								c0.5-0.5,1.1-1,1.7-1.6s1.3-1.2,1.9-1.7c1.3-1.2,2.7-2.4,3.7-3.2C124.7,279.1,125.2,278.7,125.5,278.5z"/>
							<path fill="#BC984C" d="M142.3,280.3c0.8-0.6,1.3-1.1,1.4-1.8s-0.1-1.4-0.7-2.2c0,0-0.4-0.6-0.9-1.2
								c-0.2-0.3-0.4-0.6-0.6-0.8s-0.3-0.4-0.3-0.4l-1.8-2.3l-1.9-2.3c0,0-0.5-0.6-0.9-1.2c-0.5-0.6-0.9-1.2-0.9-1.2
								c-0.6-0.8-1.1-1.7-1.3-2.7c-0.2-1-1.1-1.7-2.6-1.9l-4.5-0.4c-0.4,0-0.7,0-0.9,0c-0.3,0-0.5,0.1-0.6,0.2
								c-0.3,0.2-0.4,0.6-0.2,1.1c0.1,0.5,0.3,1,0.6,1.4c0.2,0.4,0.5,0.9,0.9,1.2c0,0,2,2.2,3.9,4.5c1,1.1,1.9,2.3,2.6,3.1
								c0.7,0.9,1.1,1.4,1.1,1.4c0.6,0.8,0.9,1.5,0.8,2.1c-0.1,0.7-0.5,1.3-1.3,1.9l-2.3,1.7c0,0-0.6,0.4-1.1,0.9
								c-0.6,0.4-1.1,0.9-1.1,0.9l-2.2,1.8l-2.2,1.8c-0.7,0.6-1.1,1.3-1.1,1.9c-0.1,0.7,0.4,1.2,1.3,1.6c0.9,0.4,1.9,0.5,2.9,0.3
								c1-0.3,1.9-0.6,2.6-1.2c0,0,0.7-0.6,1.7-1.4c0.5-0.4,1.1-0.9,1.8-1.4c0.7-0.5,1.4-1,2.1-1.6c1.4-1.1,2.9-2.1,4-2.9
								C141.5,280.8,142.3,280.3,142.3,280.3z"/>
							<path fill="#BC984C" d="M157.7,284.5c0.3-0.2,0.5-0.3,0.5-0.3c0.9-0.5,1.4-1,1.6-1.6s0.1-1.4-0.4-2.2c0,0-0.3-0.7-0.7-1.3
								c-0.4-0.6-0.7-1.3-0.7-1.3s-0.4-0.6-0.7-1.3c-0.4-0.6-0.8-1.3-0.8-1.3s-0.1-0.2-0.2-0.4s-0.3-0.6-0.5-0.9
								c-0.4-0.6-0.8-1.2-0.8-1.2s-0.4-0.6-0.8-1.3c-0.4-0.6-0.8-1.3-0.8-1.3c-0.3-0.4-0.5-0.9-0.7-1.4s-0.3-1-0.4-1.5
								c-0.1-1.1-1-1.8-2.4-2.1c0,0-0.3-0.1-0.7-0.2c-0.2,0-0.5-0.1-0.7-0.2c-0.3-0.1-0.5-0.1-0.8-0.2c-1.1-0.2-2.2-0.4-2.2-0.4
								c-1.5-0.3-2.1,0.1-2,1.2c0.2,1.1,0.6,2,1.2,2.8c0,0,0.4,0.6,1.1,1.5c0.3,0.5,0.7,1,1.1,1.5c0.4,0.6,0.8,1.2,1.3,1.8
								c0.8,1.2,1.7,2.5,2.3,3.4c0.3,0.5,0.5,0.9,0.7,1.1c0.2,0.3,0.3,0.4,0.3,0.4c0.5,0.8,0.7,1.6,0.5,2.2
								c-0.2,0.7-0.7,1.2-1.5,1.7c0,0-0.6,0.4-1.2,0.7c-0.6,0.4-1.2,0.8-1.2,0.8s-0.6,0.4-1.2,0.8c-0.6,0.4-1.2,0.8-1.2,0.8
								s-0.6,0.4-1.2,0.8c-0.3,0.2-0.6,0.4-0.8,0.6c-0.2,0.2-0.4,0.3-0.4,0.3s-0.6,0.4-1.2,0.8c-0.6,0.4-1.2,0.8-1.2,0.8
								c-0.8,0.5-1.2,1.1-1.3,1.8c-0.1,0.7,0.3,1.2,1.1,1.7c0.4,0.3,0.9,0.4,1.3,0.5c0.2,0,0.5,0.1,0.7,0.1s0.5,0,0.7,0
								c1-0.1,1.9-0.4,2.6-0.9c0,0,0.2-0.1,0.5-0.3s0.8-0.5,1.3-0.9c1.1-0.7,2.6-1.6,4.1-2.5s3.1-1.8,4.3-2.4
								C156.8,284.9,157.3,284.7,157.7,284.5z"/>
							<path fill="#BC984C" d="M173.8,289.7c0.9-0.4,1.5-0.9,1.7-1.5s0.2-1.4-0.3-2.3l-1.2-2.7l-1.2-2.6c0,0-0.3-0.7-0.6-1.3
								c-0.3-0.7-0.7-1.3-0.7-1.3l-1.3-2.7c-0.5-0.9-0.7-1.9-0.7-2.9c0-1.1-0.7-1.9-2.2-2.3c0,0-1.1-0.4-2.1-0.7
								c-1.1-0.3-2.2-0.7-2.2-0.7c-0.7-0.2-1.3-0.3-1.6-0.1c-0.3,0.2-0.5,0.5-0.5,1.1c0.1,1.1,0.4,2,0.9,2.9c0,0,0.4,0.7,0.9,1.6
								c0.6,1,1.3,2.3,2,3.6s1.4,2.6,1.9,3.6s0.8,1.6,0.8,1.6c0.4,0.9,0.5,1.6,0.3,2.3c-0.2,0.6-0.8,1.2-1.7,1.6
								c0,0-0.7,0.3-1.3,0.6c-0.7,0.3-1.3,0.6-1.3,0.6l-2.6,1.3c0,0-0.6,0.3-1.3,0.6c-0.6,0.3-1.3,0.7-1.3,0.7s-0.6,0.3-1.3,0.7
								c-0.6,0.3-1.2,0.7-1.2,0.7c-0.8,0.4-1.3,1-1.5,1.7c-0.2,0.6,0.1,1.3,0.9,1.9c0.8,0.6,1.7,0.9,2.7,0.9s1.9-0.2,2.8-0.6
								c0,0,0.2-0.1,0.5-0.3s0.8-0.4,1.4-0.7c1.2-0.6,2.8-1.4,4.4-2.1c1.6-0.7,3.3-1.5,4.5-2C172.9,290.1,173.8,289.7,173.8,289.7z"
								/>
							<path fill="#BC984C" d="M189.3,295.8c0.9-0.4,1.5-0.9,1.7-1.6c0.2-0.6,0.1-1.4-0.3-2.3l-1.2-2.6l-1.2-2.6l-1.2-2.6l-1.1-2.7
								c-0.4-0.9-0.6-1.9-0.5-2.9c0.1-1.1-0.5-1.9-1.9-2.4l-4-1.6c-1.3-0.5-2-0.2-2.1,0.8c0,1.1,0.2,2.1,0.6,3c0,0,0.3,0.7,0.8,1.7
								s1.1,2.3,1.7,3.7c1.2,2.7,2.4,5.3,2.4,5.3c0.4,0.9,0.5,1.6,0.2,2.3c-0.2,0.6-0.8,1.1-1.7,1.5l-2.7,1.1l-2.7,1.1l-2.7,1.1
								c0,0-0.7,0.3-1.3,0.6c-0.7,0.3-1.3,0.6-1.3,0.6c-0.9,0.4-1.4,0.9-1.7,1.5c-0.2,0.6,0.1,1.3,0.9,2s1.8,1.1,2.8,1.1
								c1.1,0.1,2.1-0.1,3-0.4c0,0,3.4-1.4,6.8-2.8c1.7-0.7,3.4-1.4,4.7-1.9C188.5,296.2,189.3,295.8,189.3,295.8z"/>
							<path fill="#BC984C" d="M204.8,301.3c0.4-0.2,0.6-0.3,0.6-0.3c0.9-0.5,1.4-1.1,1.6-1.7c0.2-0.7,0-1.4-0.5-2.2
								c0,0-0.4-0.6-0.7-1.2c-0.4-0.6-0.7-1.3-0.7-1.3s-0.3-0.6-0.7-1.2c-0.3-0.6-0.7-1.2-0.7-1.2s-0.3-0.6-0.7-1.2
								c-0.3-0.6-0.7-1.3-0.7-1.3s-0.3-0.6-0.6-1.3c-0.3-0.6-0.6-1.3-0.6-1.3c-0.4-0.8-0.6-1.8-0.6-2.9c0-1.1-0.6-1.8-1.8-2.2
								c0,0-0.2-0.1-0.6-0.2c-0.3-0.1-0.8-0.3-1.3-0.5c-0.9-0.3-1.8-0.7-1.8-0.7c-1.2-0.5-1.9-0.2-1.9,0.9c0,1.1,0.1,2,0.5,2.9
								c0,0,0.3,0.6,0.7,1.6s1,2.3,1.7,3.6c0.6,1.3,1.3,2.6,1.7,3.5c0.2,0.5,0.4,0.9,0.6,1.2c0.1,0.3,0.2,0.4,0.2,0.4
								c0.4,0.8,0.6,1.6,0.4,2.2c-0.2,0.6-0.7,1.2-1.6,1.6c0,0-0.2,0.1-0.4,0.2c-0.2,0.1-0.6,0.3-0.9,0.4c-0.7,0.3-1.3,0.6-1.3,0.6
								l-2.7,1.2c0,0-0.7,0.3-1.4,0.6s-1.4,0.6-1.4,0.6l-2.8,1.1c-0.9,0.4-1.5,0.9-1.7,1.5s0.1,1.3,1,2s2,1.1,3.1,1.1
								c1.2,0.1,2.2-0.1,3.1-0.5c0,0,0.2-0.1,0.6-0.3c0.4-0.2,0.9-0.4,1.6-0.7c1.3-0.6,3-1.4,4.7-2.2s3.3-1.7,4.5-2.3
								C204,301.8,204.5,301.5,204.8,301.3z"/>
							<path fill="#BC984C" d="M222,304.4c0.8-0.6,1.3-1.2,1.4-1.9c0.1-0.7-0.2-1.4-0.8-2.2c0,0-0.4-0.6-0.9-1.2
								c-0.4-0.6-0.8-1.2-0.8-1.2s-0.4-0.6-0.8-1.2c-0.2-0.3-0.4-0.6-0.6-0.8c-0.2-0.2-0.3-0.4-0.3-0.4s-0.4-0.6-0.8-1.2
								c-0.4-0.6-0.8-1.2-0.8-1.2s-0.4-0.6-0.8-1.2c-0.4-0.6-0.8-1.2-0.8-1.2c-0.5-0.8-0.8-1.7-0.9-2.8c-0.1-1.1-0.8-1.7-2-2
								c0,0-0.2-0.1-0.6-0.1c-0.3-0.1-0.8-0.2-1.3-0.3c-0.9-0.2-1.8-0.5-1.8-0.5c-0.6-0.2-1.1-0.1-1.4,0c-0.3,0.2-0.4,0.5-0.4,1.1
								c0,0.5,0.1,1,0.2,1.5c0.1,0.5,0.3,0.9,0.5,1.3c0,0,0.3,0.6,0.9,1.5c0.3,0.5,0.6,1,0.9,1.6c0.2,0.3,0.3,0.6,0.5,0.9
								c0.2,0.3,0.4,0.6,0.6,0.9c0.7,1.2,1.5,2.4,2.1,3.3c0.3,0.5,0.5,0.8,0.7,1.1s0.3,0.4,0.3,0.4c0.5,0.8,0.7,1.5,0.6,2.2
								c-0.1,0.7-0.6,1.3-1.4,1.8c0,0-0.6,0.4-1.3,0.8c-0.6,0.4-1.3,0.8-1.3,0.8s-0.6,0.4-1.3,0.8c-0.6,0.4-1.3,0.7-1.3,0.7
								s-0.2,0.1-0.4,0.2c-0.2,0.1-0.6,0.3-0.9,0.5c-0.7,0.4-1.3,0.7-1.3,0.7s-0.7,0.4-1.3,0.7c-0.7,0.3-1.3,0.7-1.3,0.7
								c-0.9,0.5-1.4,1-1.6,1.7c-0.2,0.7,0.3,1.3,1.3,1.9c1,0.6,2.1,0.9,3.3,0.8c1.2-0.1,2.2-0.4,3.1-0.8c0,0,0.8-0.5,2-1.2
								s2.8-1.7,4.4-2.7c1.6-1,3.1-2,4.2-2.8C221.2,304.9,222,304.4,222,304.4z"/>
							<path fill="#BC984C" d="M239.9,304.1c0-0.7-0.3-1.4-0.9-2.1l-1.9-2.2l-1.9-2.1c0,0-0.5-0.5-0.9-1.1c-0.5-0.6-0.9-1.1-0.9-1.1
								l-1.8-2.2c-0.6-0.7-1-1.6-1.2-2.7c-0.2-1-1-1.6-2.2-1.8c0,0-1-0.1-1.9-0.2c-0.5-0.1-1-0.1-1.3-0.2c-0.4-0.1-0.6-0.1-0.6-0.1
								c-1.2-0.2-1.8,0.2-1.7,1.3c0.2,1,0.5,2,1.1,2.7c0,0,0.1,0.1,0.3,0.4c0.2,0.3,0.4,0.6,0.8,1c0.6,0.8,1.5,2,2.4,3.1
								s1.8,2.3,2.5,3.1s1.2,1.4,1.2,1.4c0.6,0.7,0.9,1.4,0.8,2.1c-0.1,0.7-0.5,1.3-1.2,1.9l-2.3,1.8c0,0-0.1,0.1-0.4,0.3
								c-0.2,0.2-0.5,0.4-0.8,0.6c-0.6,0.4-1.2,0.9-1.2,0.9l-2.4,1.8c0,0-0.6,0.4-1.2,0.9c-0.6,0.4-1.2,0.8-1.2,0.8
								c-0.8,0.6-1.3,1.2-1.4,1.8c-0.1,0.7,0.4,1.2,1.5,1.8c1.1,0.5,2.2,0.6,3.3,0.4c1.2-0.2,2.2-0.6,3-1.1c0,0,3.1-2.3,6-4.5
								c1.5-1.2,2.9-2.3,3.9-3.2s1.7-1.5,1.7-1.5C239.5,305.5,239.9,304.8,239.9,304.1z"/>
							<path fill="#BC984C" d="M256.7,306.1c0-0.7-0.3-1.4-0.9-2.1l-1.9-2.2l-1.9-2.1c0,0-0.5-0.5-0.9-1.1c-0.5-0.6-0.9-1.1-0.9-1.1
								l-1.8-2.2c-0.6-0.7-1-1.6-1.2-2.7c-0.2-1-1-1.6-2.2-1.8c0,0-1-0.1-1.9-0.2c-0.5-0.1-1-0.1-1.3-0.2c-0.4-0.1-0.6-0.1-0.6-0.1
								c-1.2-0.2-1.8,0.2-1.7,1.3c0.2,1,0.5,2,1.1,2.7c0,0,0.1,0.1,0.3,0.4c0.2,0.3,0.4,0.6,0.8,1c0.6,0.8,1.5,2,2.4,3.1
								s1.8,2.3,2.5,3.1s1.2,1.4,1.2,1.4c0.6,0.7,0.9,1.4,0.8,2.1c-0.1,0.7-0.5,1.3-1.2,1.9l-2.3,1.8c0,0-0.1,0.1-0.4,0.3
								c-0.2,0.2-0.5,0.4-0.8,0.6c-0.6,0.4-1.2,0.9-1.2,0.9l-2.4,1.8c0,0-0.6,0.4-1.2,0.9c-0.6,0.4-1.2,0.8-1.2,0.8
								c-0.8,0.6-1.3,1.2-1.4,1.8c-0.1,0.7,0.4,1.2,1.5,1.8c1.1,0.5,2.2,0.6,3.3,0.4c1.2-0.2,2.2-0.6,3-1.1c0,0,3.1-2.3,6-4.5
								c1.5-1.2,2.9-2.3,3.9-3.2s1.7-1.5,1.7-1.5C256.3,307.4,256.7,306.8,256.7,306.1z"/>
							<path fill="#BC984C" d="M-18.9,303.5c-0.1-0.7-0.5-1.3-1.2-1.9c0,0-0.6-0.5-1.1-0.9c-0.5-0.5-1.1-1-1.1-1l-2.2-1.9l-2.1-1.9
								c0,0-0.5-0.5-1-1s-1-1-1-1c-0.7-0.6-1.2-1.5-1.6-2.5s-1.2-1.5-2.5-1.4c0,0-0.2,0-0.6,0s-0.9,0-1.4,0c-1,0-2,0-2,0
								c-1.3,0-1.8,0.5-1.5,1.5s0.8,1.9,1.5,2.5c0,0,0.5,0.5,1.3,1.3c0.8,0.7,1.8,1.8,2.8,2.7c2.1,2,4.3,3.9,4.3,3.9
								c0.7,0.6,1.1,1.3,1.1,2s-0.3,1.4-0.9,2.1l-2,2.1l-2.1,2.1c0,0-0.5,0.5-1,1s-1,1-1,1l-2.1,2c-0.7,0.7-1.1,1.4-1.1,2.1
								c0,0.7,0.6,1.2,1.7,1.5s2.2,0.3,3.3,0c1.1-0.4,2-0.9,2.7-1.6c0,0,0.7-0.7,1.6-1.7c0.5-0.5,1.1-1.1,1.7-1.7
								c0.6-0.6,1.2-1.3,1.9-2c1.3-1.4,2.5-2.7,3.4-3.7c0.5-0.5,0.8-0.9,1.1-1.2c0.3-0.3,0.4-0.5,0.4-0.5
								C-19.1,304.9-18.8,304.2-18.9,303.5z"/>
							<path fill="#BC984C" d="M-3.8,299.4c0,0-0.6-0.4-1.2-0.8c-0.3-0.2-0.6-0.4-0.8-0.6c-0.2-0.2-0.4-0.3-0.4-0.3
								s-0.6-0.4-1.2-0.8c-0.6-0.4-1.2-0.8-1.2-0.8s-0.6-0.4-1.2-0.8c-0.6-0.4-1.1-0.8-1.1-0.8s-0.6-0.4-1.1-0.9
								c-0.6-0.4-1.1-0.9-1.1-0.9c-0.7-0.6-1.3-1.4-1.8-2.3c-0.4-1-1.3-1.4-2.6-1.2l-3.8,0.4c-0.3,0-0.6,0.1-0.8,0.2
								c-0.2,0.1-0.4,0.2-0.5,0.3c-0.2,0.3-0.2,0.7,0,1.1c0.2,0.5,0.4,0.9,0.7,1.3c0.3,0.4,0.6,0.8,1,1.1c0,0,2.1,1.8,4.4,3.7
								c1.1,0.9,2.2,1.8,3.1,2.4c0.9,0.7,1.4,1.1,1.4,1.1c0.8,0.6,1.2,1.2,1.3,1.9c0.1,0.7-0.2,1.4-0.8,2.2l-1.9,2.3
								c0,0-0.5,0.6-0.9,1.1c-0.5,0.6-1,1.1-1,1.1l-1.9,2.2l-2,2.2c-0.7,0.7-1,1.4-0.9,2.1c0.1,0.7,0.7,1.1,1.8,1.3
								c1.1,0.2,2.3,0.1,3.3-0.3c1.1-0.4,2-1.1,2.6-1.8c0,0,0.6-0.7,1.5-1.8c0.4-0.5,1-1.2,1.5-1.8c0.6-0.7,1.1-1.4,1.7-2.1
								c1.2-1.5,2.3-2.9,3.1-4c0.8-1.1,1.3-1.9,1.3-1.9c0.6-0.8,0.8-1.5,0.7-2.2C-2.5,300.5-3,299.9-3.8,299.4z"/>
							<path fill="#BC984C" d="M12.2,295.5c0,0-0.6-0.3-1.3-0.7c-0.6-0.4-1.3-0.7-1.3-0.7s-0.6-0.3-1.2-0.7
								c-0.6-0.3-1.2-0.7-1.2-0.7s-0.2-0.1-0.4-0.2c-0.2-0.1-0.5-0.3-0.8-0.5c-0.6-0.4-1.2-0.7-1.2-0.7s-0.6-0.4-1.2-0.7
								c-0.6-0.4-1.2-0.8-1.2-0.8c-0.4-0.2-0.8-0.5-1.1-0.9c-0.3-0.4-0.6-0.8-0.9-1.2c-0.5-0.9-1.4-1.2-2.6-1c0,0-0.2,0.1-0.6,0.1
								c-0.2,0-0.4,0.1-0.6,0.1s-0.5,0.1-0.7,0.1c-0.9,0.2-1.9,0.4-1.9,0.4c-1.2,0.2-1.6,0.8-1.1,1.8c0.5,0.9,1.1,1.7,1.9,2.2
								c0,0,0.6,0.4,1.4,1c0.4,0.3,1,0.7,1.5,1c0.6,0.4,1.1,0.8,1.7,1.1c1.2,0.8,2.4,1.5,3.3,2.1c0.5,0.3,0.8,0.5,1.1,0.7
								c0.3,0.2,0.4,0.3,0.4,0.3c0.8,0.5,1.3,1,1.5,1.7s0,1.4-0.5,2.2c0,0-0.4,0.6-0.8,1.2c-0.4,0.6-0.8,1.2-0.8,1.2
								s-0.4,0.6-0.8,1.2c-0.4,0.6-0.8,1.2-0.8,1.2s-0.4,0.6-0.8,1.2c-0.2,0.3-0.4,0.6-0.6,0.8s-0.3,0.4-0.3,0.4s-0.4,0.6-0.9,1.2
								c-0.5,0.6-0.9,1.2-0.9,1.2c-0.6,0.8-0.8,1.5-0.7,2.2c0.1,0.7,0.8,1,1.9,1.2c0.6,0.1,1.2,0,1.7-0.1c0.3-0.1,0.6-0.1,0.8-0.2
								c0.3-0.1,0.5-0.2,0.8-0.4c1.1-0.6,1.9-1.3,2.4-2.1c0,0,0.1-0.2,0.4-0.5c0.2-0.3,0.6-0.8,1-1.4c0.8-1.2,1.8-2.8,2.8-4.3
								c1-1.6,1.9-3.2,2.6-4.4c0.3-0.6,0.6-1.1,0.8-1.4c0.2-0.4,0.3-0.6,0.3-0.6c0.5-0.9,0.6-1.6,0.4-2.3
								C13.6,296.4,13.1,295.9,12.2,295.5z"/>
							<path fill="#BC984C" d="M27.8,289.9l-2.7-1.2l-2.6-1.2c0,0-0.7-0.3-1.3-0.6c-0.7-0.3-1.3-0.6-1.3-0.6l-2.6-1.2
								c-0.8-0.4-1.6-1-2.2-1.9c-0.6-0.8-1.6-1.1-2.8-0.7c0,0-0.9,0.3-1.8,0.6s-1.8,0.6-1.8,0.6c-0.6,0.2-1,0.4-1.1,0.7
								c-0.2,0.3-0.1,0.7,0.2,1.1c0.6,0.9,1.3,1.6,2.1,2c0,0,0.6,0.3,1.5,0.8s2.2,1.2,3.5,1.8s2.6,1.3,3.6,1.7
								c1,0.5,1.6,0.8,1.6,0.8c0.9,0.4,1.4,0.9,1.7,1.5c0.2,0.6,0.1,1.4-0.3,2.3c0,0-0.3,0.7-0.7,1.3c-0.3,0.7-0.7,1.3-0.7,1.3
								l-1.4,2.6c0,0-0.3,0.7-0.7,1.3c-0.4,0.6-0.7,1.3-0.7,1.3l-1.5,2.6c-0.5,0.9-0.7,1.6-0.5,2.3c0.2,0.6,0.9,1,2.1,0.9
								c1.2,0,2.3-0.3,3.2-1c1-0.7,1.7-1.5,2.2-2.3c0,0,0.1-0.2,0.3-0.6c0.2-0.4,0.5-0.9,0.8-1.5c0.6-1.2,1.5-2.9,2.3-4.6
								c0.8-1.7,1.6-3.3,2.2-4.6c0.6-1.2,0.9-2.1,0.9-2.1c0.4-0.9,0.5-1.7,0.2-2.3C29.2,290.8,28.7,290.3,27.8,289.9z"/>
							<path fill="#BC984C" d="M43.3,283.8l-2.7-1.2l-2.7-1.1l-2.7-1.1l-2.7-1.1c-0.9-0.4-1.7-1-2.4-1.8c-0.7-0.8-1.7-1-3-0.5
								l-3.8,1.5c-1.2,0.5-1.5,1.2-0.9,2c0.7,0.8,1.5,1.4,2.3,1.8c0,0,0.7,0.3,1.7,0.7s2.3,1,3.7,1.5c2.7,1.1,5.4,2.2,5.4,2.2
								c0.9,0.4,1.5,0.9,1.7,1.5s0.2,1.4-0.2,2.3l-1.2,2.7l-1.2,2.6l-1.2,2.7c0,0-0.3,0.7-0.6,1.3c-0.3,0.7-0.6,1.3-0.6,1.3
								c-0.4,0.9-0.5,1.6-0.2,2.3c0.2,0.6,0.9,0.9,2,0.8c1.1-0.1,2.1-0.5,2.9-1.2c0.9-0.7,1.5-1.5,1.9-2.4c0,0,1.5-3.3,2.9-6.6
								c0.7-1.7,1.5-3.3,2-4.5c0.6-1.2,1-2.1,1-2.1c0.4-0.9,0.5-1.6,0.3-2.3C44.8,284.7,44.2,284.2,43.3,283.8z"/>
							<path fill="#BC984C" d="M59.4,278.7c0,0-0.6-0.4-1.3-0.7c-0.6-0.3-1.3-0.7-1.3-0.7s-0.7-0.3-1.3-0.7
								c-0.7-0.3-1.3-0.7-1.3-0.7s-0.7-0.3-1.3-0.7c-0.7-0.3-1.3-0.6-1.3-0.6l-2.7-1.3c-0.9-0.4-1.7-1-2.4-1.9
								c-0.7-0.8-1.7-1-3.1-0.5c0,0-0.3,0.1-0.7,0.2c-0.4,0.1-0.9,0.3-1.4,0.5c-1,0.4-2.1,0.8-2.1,0.8c-1.4,0.5-1.7,1.2-1,2
								s1.5,1.4,2.4,1.8c0,0,0.7,0.3,1.7,0.7s2.4,1,3.7,1.6c1.4,0.6,2.7,1.2,3.7,1.7c0.5,0.2,0.9,0.4,1.2,0.6
								c0.3,0.1,0.5,0.2,0.5,0.2c0.9,0.4,1.4,1,1.6,1.6s0.1,1.4-0.4,2.3c0,0-0.1,0.2-0.2,0.4s-0.3,0.6-0.5,0.9
								c-0.3,0.6-0.7,1.3-0.7,1.3l-1.3,2.6c0,0-0.3,0.6-0.6,1.3c-0.3,0.7-0.6,1.3-0.6,1.3l-1.2,2.6c-0.4,0.9-0.5,1.6-0.2,2.3
								c0.2,0.6,0.9,0.9,1.9,0.9s1.9-0.3,2.7-1c0.8-0.6,1.4-1.4,1.8-2.2c0,0,0.1-0.2,0.3-0.5c0.2-0.3,0.4-0.9,0.7-1.4
								c0.6-1.2,1.4-2.8,2.2-4.3c0.8-1.6,1.7-3.1,2.3-4.3c0.3-0.6,0.6-1.1,0.8-1.4c0.2-0.3,0.3-0.5,0.3-0.5c0.5-0.8,0.7-1.6,0.5-2.2
								C60.7,279.7,60.2,279.1,59.4,278.7z"/>
							<path fill="#BC984C" d="M77.2,277.1c-0.1-0.7-0.5-1.3-1.3-1.8c0,0-0.6-0.4-1.2-0.8c-0.6-0.4-1.2-0.8-1.2-0.8
								s-0.6-0.4-1.2-0.8c-0.3-0.2-0.6-0.4-0.8-0.6c-0.2-0.2-0.4-0.3-0.4-0.3s-0.6-0.4-1.3-0.8c-0.6-0.4-1.3-0.8-1.3-0.8
								s-0.6-0.4-1.3-0.8c-0.6-0.4-1.3-0.8-1.3-0.8c-0.9-0.5-1.6-1.2-2.2-2.1c-0.6-0.9-1.6-1.2-3.1-0.9c0,0-0.3,0.1-0.7,0.2
								c-0.4,0.1-1,0.2-1.5,0.4c-1.1,0.3-2.2,0.6-2.2,0.6c-0.7,0.2-1.2,0.4-1.4,0.8c-0.2,0.3-0.2,0.7,0.2,1.1c0.3,0.4,0.7,0.8,1,1.2
								c0.4,0.3,0.8,0.6,1.2,0.9c0,0,0.7,0.4,1.7,0.9c0.5,0.3,1.1,0.6,1.7,0.9c0.3,0.2,0.6,0.3,0.9,0.5s0.6,0.4,1,0.6
								c1.3,0.8,2.6,1.5,3.5,2.1c0.5,0.3,0.9,0.5,1.1,0.7c0.3,0.2,0.4,0.3,0.4,0.3c0.8,0.5,1.3,1.1,1.4,1.8s-0.1,1.4-0.6,2.2
								c0,0-0.4,0.6-0.8,1.2c-0.4,0.6-0.8,1.2-0.8,1.2s-0.4,0.6-0.8,1.2c-0.4,0.6-0.7,1.2-0.7,1.2s-0.1,0.2-0.2,0.4
								s-0.3,0.5-0.5,0.8c-0.4,0.6-0.7,1.2-0.7,1.2s-0.4,0.6-0.7,1.2c-0.3,0.6-0.7,1.2-0.7,1.2c-0.5,0.8-0.6,1.5-0.4,2.2
								c0.2,0.6,0.8,1,1.8,1.1s1.9-0.1,2.7-0.7c0.9-0.5,1.5-1.2,2-2c0,0,0.5-0.8,1.1-1.9c0.7-1.1,1.7-2.6,2.6-4.1c1-1.5,2-2.9,2.8-4
								s1.3-1.8,1.3-1.8C77.1,278.5,77.3,277.8,77.2,277.1z"/>
							<path fill="#BC984C" d="M93.8,275.5c0-0.7-0.4-1.3-1.2-2l-2.2-1.9l-2.3-1.9c0,0-0.6-0.5-1.2-0.9c-0.6-0.5-1.2-0.9-1.2-0.9
								l-2.4-1.8c-0.8-0.6-1.4-1.4-1.9-2.4s-1.5-1.4-3-1.2c0,0-1.1,0.1-2.2,0.3c-0.6,0.1-1.1,0.1-1.5,0.2c-0.4,0.1-0.7,0.1-0.7,0.1
								c-1.5,0.2-2,0.8-1.4,1.8c0.5,0.9,1.2,1.7,2,2.2c0,0,0.2,0.1,0.4,0.3c0.3,0.2,0.7,0.4,1.1,0.8c0.9,0.6,2.1,1.5,3.3,2.4
								c1.2,0.9,2.4,1.7,3.2,2.4c0.9,0.7,1.4,1.1,1.4,1.1c0.8,0.6,1.2,1.2,1.2,1.9c0.1,0.7-0.2,1.4-0.8,2.1l-1.8,2.2
								c0,0-0.1,0.1-0.3,0.3c-0.2,0.2-0.4,0.5-0.6,0.8c-0.4,0.6-0.9,1.1-0.9,1.1l-1.7,2.3c0,0-0.4,0.6-0.8,1.1
								c-0.4,0.6-0.8,1.2-0.8,1.2c-0.5,0.8-0.8,1.5-0.6,2.2c0.1,0.7,0.7,1.1,1.6,1.3c1,0.2,1.9,0.1,2.8-0.4s1.6-1.1,2.2-1.8
								c0,0,2.1-2.8,4.4-5.5c1.1-1.4,2.3-2.7,3.2-3.7c0.9-1,1.5-1.7,1.5-1.7C93.5,276.9,93.9,276.2,93.8,275.5z"/>
							<path fill="#BC984C" d="M110.4,274c0-0.7-0.4-1.3-1.2-2l-2.2-1.9l-2.3-1.9c0,0-0.6-0.5-1.2-0.9c-0.6-0.5-1.2-0.9-1.2-0.9
								l-2.4-1.8c-0.8-0.6-1.4-1.4-1.9-2.4s-1.5-1.4-3-1.2c0,0-1.1,0.1-2.2,0.3c-0.6,0.1-1.1,0.1-1.5,0.2c-0.4,0.1-0.7,0.1-0.7,0.1
								c-1.5,0.2-2,0.8-1.4,1.8c0.5,0.9,1.2,1.7,2,2.2c0,0,0.2,0.1,0.4,0.3c0.3,0.2,0.7,0.4,1.1,0.8c0.9,0.6,2.1,1.5,3.3,2.4
								c1.2,0.9,2.4,1.7,3.2,2.4c0.9,0.7,1.4,1.1,1.4,1.1c0.8,0.6,1.2,1.2,1.2,1.9c0.1,0.7-0.2,1.4-0.8,2.1l-1.8,2.2
								c0,0-0.1,0.1-0.3,0.3c-0.2,0.2-0.4,0.5-0.6,0.8c-0.4,0.6-0.9,1.1-0.9,1.1l-1.7,2.3c0,0-0.4,0.6-0.8,1.1
								c-0.4,0.6-0.8,1.2-0.8,1.2c-0.5,0.8-0.8,1.5-0.6,2.2c0.1,0.7,0.7,1.1,1.6,1.3c1,0.2,1.9,0.1,2.8-0.4s1.6-1.1,2.2-1.8
								c0,0,2.1-2.8,4.4-5.5c1.1-1.4,2.3-2.7,3.2-3.7c0.9-1,1.5-1.7,1.5-1.7C110.1,275.3,110.4,274.6,110.4,274z"/>
						</g>
					</g>
					<g>
						<g>
							<path fill="#BC984C" d="M425.4,315.3c0.3-0.3,0.5-0.4,0.5-0.4c0.8-0.7,1.2-1.3,1.3-2s-0.2-1.4-0.9-2.2c0,0-0.5-0.6-1-1.2
								c-0.5-0.6-1-1.1-1-1.1l-2.1-2.3l-2.1-2.3c0,0-0.5-0.6-1.1-1.1c-0.5-0.6-1.1-1.1-1.1-1.1c-0.7-0.7-1.3-1.7-1.6-2.7
								c-0.3-1.1-1.3-1.7-2.8-1.7c0,0-0.3,0-0.7,0s-1,0-1.6,0c-1.2,0-2.3,0-2.3,0c-1.5,0-2.1,0.5-1.7,1.6c0.4,1.1,0.9,2,1.7,2.7
								c0,0,0.6,0.5,1.4,1.3c0.8,0.8,1.9,1.9,3,3c2.2,2.2,4.3,4.4,4.3,4.4c0.7,0.7,1,1.4,1,2.2c0,0.7-0.4,1.4-1.2,2.1l-2.3,2l-2.2,2
								c0,0-0.5,0.5-1.1,1c-0.5,0.5-1.1,1.1-1.1,1.1l-2.2,2.1c-0.7,0.7-1.1,1.4-1.1,2.1c0,0.7,0.5,1.2,1.5,1.6c1,0.4,2,0.4,3.1,0
								c1.1-0.3,1.9-0.8,2.6-1.5c0,0,0.7-0.6,1.7-1.6c0.5-0.5,1.1-1,1.8-1.6c0.6-0.6,1.3-1.2,2-1.8c1.4-1.2,2.8-2.5,3.9-3.4
								C424.6,315.9,425.1,315.6,425.4,315.3z"/>
							<path fill="#BC984C" d="M443,317.2c0.9-0.6,1.4-1.2,1.5-1.9s-0.1-1.5-0.7-2.3c0,0-0.4-0.6-0.9-1.3c-0.2-0.3-0.5-0.6-0.6-0.9
								c-0.2-0.2-0.3-0.4-0.3-0.4l-1.9-2.4l-1.9-2.4c0,0-0.5-0.6-1-1.2c-0.5-0.6-1-1.2-1-1.2c-0.7-0.8-1.1-1.8-1.4-2.9
								c-0.3-1.1-1.2-1.8-2.7-1.9l-4.7-0.5c-0.4,0-0.7,0-1,0s-0.5,0.1-0.6,0.3c-0.3,0.2-0.4,0.6-0.2,1.2c0.2,0.5,0.4,1,0.6,1.5
								c0.3,0.5,0.6,0.9,0.9,1.3c0,0,2.1,2.3,4.1,4.7c1,1.2,2,2.4,2.7,3.3c0.7,0.9,1.2,1.5,1.2,1.5c0.6,0.8,0.9,1.5,0.8,2.2
								c-0.1,0.7-0.6,1.4-1.4,2l-2.4,1.8c0,0-0.6,0.5-1.2,0.9c-0.6,0.5-1.2,0.9-1.2,0.9l-2.3,1.9l-2.3,1.9c-0.7,0.6-1.1,1.3-1.2,2
								c-0.1,0.7,0.4,1.3,1.4,1.7c1,0.5,2,0.5,3,0.3c1.1-0.3,1.9-0.7,2.7-1.3c0,0,0.7-0.6,1.8-1.4c0.5-0.4,1.2-0.9,1.9-1.5
								c0.7-0.5,1.4-1.1,2.2-1.6c1.5-1.1,3-2.2,4.2-3C442.2,317.7,443,317.2,443,317.2z"/>
							<path fill="#BC984C" d="M459.1,321.6c0.4-0.2,0.6-0.3,0.6-0.3c0.9-0.5,1.5-1,1.7-1.7s0.1-1.5-0.4-2.4c0,0-0.4-0.7-0.7-1.4
								c-0.4-0.7-0.8-1.3-0.8-1.3s-0.4-0.7-0.8-1.3c-0.4-0.7-0.8-1.3-0.8-1.3s-0.1-0.2-0.3-0.4s-0.4-0.6-0.6-0.9
								c-0.4-0.7-0.8-1.3-0.8-1.3s-0.4-0.7-0.8-1.3c-0.4-0.7-0.9-1.3-0.9-1.3c-0.3-0.4-0.5-0.9-0.7-1.4s-0.3-1-0.4-1.6
								c-0.1-1.1-1-1.9-2.6-2.2c0,0-0.3-0.1-0.7-0.2c-0.2,0-0.5-0.1-0.7-0.2c-0.3-0.1-0.6-0.1-0.9-0.2c-1.2-0.2-2.3-0.4-2.3-0.4
								c-1.6-0.3-2.2,0.1-2,1.2c0.2,1.1,0.6,2.1,1.3,2.9c0,0,0.5,0.6,1.2,1.6c0.3,0.5,0.7,1,1.2,1.6c0.4,0.6,0.9,1.2,1.3,1.9
								c0.9,1.3,1.7,2.6,2.4,3.5c0.3,0.5,0.6,0.9,0.8,1.2s0.3,0.4,0.3,0.4c0.5,0.9,0.7,1.6,0.5,2.3s-0.7,1.3-1.6,1.8
								c0,0-0.6,0.4-1.3,0.8c-0.6,0.4-1.3,0.8-1.3,0.8s-0.6,0.4-1.3,0.8c-0.6,0.4-1.2,0.8-1.2,0.8s-0.6,0.4-1.2,0.8
								c-0.3,0.2-0.6,0.4-0.8,0.6c-0.2,0.2-0.4,0.3-0.4,0.3s-0.6,0.4-1.2,0.8c-0.6,0.4-1.2,0.8-1.2,0.8c-0.8,0.6-1.2,1.2-1.4,1.9
								c-0.1,0.7,0.3,1.3,1.2,1.8c0.5,0.3,0.9,0.4,1.4,0.5c0.2,0,0.5,0.1,0.7,0.1s0.5,0,0.8,0c1.1-0.1,2-0.5,2.8-1
								c0,0,0.2-0.1,0.5-0.4c0.3-0.2,0.8-0.5,1.4-0.9c1.2-0.7,2.7-1.7,4.3-2.7c1.6-0.9,3.2-1.8,4.5-2.5
								C458.2,322.1,458.7,321.8,459.1,321.6z"/>
							<path fill="#BC984C" d="M476,327.1c1-0.4,1.6-0.9,1.8-1.6c0.3-0.7,0.2-1.4-0.3-2.4l-1.3-2.8l-1.3-2.8c0,0-0.3-0.7-0.7-1.4
								c-0.3-0.7-0.7-1.4-0.7-1.4l-1.4-2.8c-0.5-0.9-0.7-2-0.7-3.1s-0.8-2-2.3-2.5c0,0-1.1-0.4-2.2-0.7c-1.1-0.4-2.3-0.7-2.3-0.7
								c-0.7-0.2-1.3-0.3-1.7-0.1s-0.5,0.5-0.5,1.1c0.1,1.1,0.4,2.1,0.9,3.1c0,0,0.4,0.7,1,1.7s1.4,2.4,2.1,3.7
								c0.7,1.4,1.4,2.7,2,3.8c0.5,1,0.9,1.7,0.9,1.7c0.4,0.9,0.5,1.7,0.3,2.4s-0.8,1.2-1.7,1.6c0,0-0.7,0.3-1.4,0.6
								s-1.4,0.6-1.4,0.6l-2.7,1.3c0,0-0.7,0.3-1.3,0.7c-0.7,0.4-1.3,0.7-1.3,0.7s-0.7,0.3-1.3,0.7c-0.6,0.3-1.3,0.7-1.3,0.7
								c-0.9,0.5-1.4,1-1.6,1.7c-0.2,0.7,0.1,1.3,1,2c0.8,0.6,1.8,0.9,2.8,0.9c1.1,0,2-0.2,2.9-0.7c0,0,0.2-0.1,0.6-0.3
								c0.4-0.2,0.9-0.4,1.5-0.7c1.2-0.6,2.9-1.4,4.6-2.2c1.7-0.8,3.4-1.5,4.7-2.1C475.1,327.5,476,327.1,476,327.1z"/>
							<path fill="#BC984C" d="M492.3,333.5c1-0.4,1.6-1,1.8-1.6c0.2-0.7,0.1-1.4-0.3-2.4l-1.3-2.8l-1.2-2.7l-1.2-2.8l-1.2-2.8
								c-0.4-0.9-0.6-2-0.5-3.1s-0.6-1.9-1.9-2.5l-4.1-1.6c-1.4-0.5-2.1-0.2-2.2,0.9c0,1.1,0.2,2.2,0.6,3.1c0,0,0.3,0.7,0.8,1.7
								s1.1,2.4,1.7,3.8c1.2,2.8,2.5,5.6,2.5,5.6c0.4,0.9,0.5,1.7,0.2,2.4s-0.9,1.2-1.8,1.6l-2.8,1.1l-2.8,1.2l-2.8,1.2
								c0,0-0.7,0.3-1.4,0.6S473,335,473,335c-0.9,0.4-1.5,0.9-1.8,1.6c-0.3,0.7,0.1,1.3,0.9,2c0.8,0.7,1.8,1.1,3,1.2
								c1.2,0.1,2.2-0.1,3.1-0.5c0,0,3.5-1.5,7.1-2.9c1.8-0.7,3.6-1.5,4.9-2C491.4,333.9,492.3,333.5,492.3,333.5z"/>
							<path fill="#BC984C" d="M508.5,339.2c0.4-0.2,0.6-0.3,0.6-0.3c0.9-0.5,1.5-1.1,1.6-1.8c0.2-0.7,0-1.5-0.5-2.3
								c0,0-0.4-0.7-0.8-1.3c-0.4-0.7-0.7-1.3-0.7-1.3s-0.4-0.7-0.7-1.3c-0.4-0.7-0.7-1.3-0.7-1.3s-0.4-0.7-0.7-1.3
								c-0.3-0.7-0.7-1.3-0.7-1.3s-0.3-0.7-0.7-1.3c-0.3-0.7-0.6-1.3-0.6-1.3c-0.4-0.9-0.6-1.9-0.6-3s-0.6-1.9-1.9-2.3
								c0,0-0.2-0.1-0.6-0.2c-0.4-0.1-0.8-0.3-1.3-0.5c-1-0.3-1.9-0.7-1.9-0.7c-1.3-0.5-2-0.2-2,0.9c0,1.1,0.1,2.1,0.5,3
								c0,0,0.3,0.7,0.8,1.7s1.1,2.4,1.7,3.7c0.6,1.3,1.3,2.7,1.8,3.7c0.3,0.5,0.5,0.9,0.6,1.2c0.2,0.3,0.2,0.5,0.2,0.5
								c0.5,0.9,0.6,1.7,0.4,2.3c-0.2,0.7-0.8,1.2-1.7,1.7c0,0-0.2,0.1-0.4,0.2c-0.3,0.1-0.6,0.3-1,0.5c-0.7,0.3-1.4,0.6-1.4,0.6
								L495,339c0,0-0.7,0.3-1.4,0.6s-1.4,0.6-1.4,0.6l-2.9,1.2c-1,0.4-1.6,0.9-1.8,1.6c-0.2,0.7,0.1,1.4,1.1,2.1
								c1,0.7,2.1,1.1,3.3,1.2c1.2,0.1,2.3-0.1,3.3-0.5c0,0,0.2-0.1,0.6-0.3c0.4-0.2,0.9-0.4,1.6-0.7c1.4-0.6,3.1-1.4,4.9-2.3
								c1.8-0.9,3.5-1.8,4.8-2.4C507.6,339.7,508.1,339.4,508.5,339.2z"/>
							<path fill="#BC984C" d="M526.4,342.5c0.9-0.6,1.3-1.2,1.4-1.9c0.1-0.7-0.2-1.4-0.8-2.3c0,0-0.4-0.6-0.9-1.2
								c-0.4-0.6-0.9-1.2-0.9-1.2s-0.4-0.6-0.9-1.2c-0.2-0.3-0.4-0.6-0.6-0.8c-0.2-0.2-0.3-0.4-0.3-0.4s-0.4-0.6-0.8-1.2
								c-0.4-0.6-0.8-1.2-0.8-1.2s-0.4-0.6-0.8-1.2c-0.4-0.6-0.8-1.2-0.8-1.2c-0.5-0.8-0.8-1.8-0.9-2.9c-0.1-1.1-0.8-1.8-2.1-2.1
								c0,0-0.2-0.1-0.6-0.1c-0.4-0.1-0.8-0.2-1.3-0.3c-1-0.2-1.9-0.5-1.9-0.5c-0.6-0.2-1.1-0.1-1.4,0c-0.3,0.2-0.5,0.6-0.4,1.1
								c0,0.6,0.1,1.1,0.2,1.6c0.1,0.5,0.3,0.9,0.5,1.4c0,0,0.4,0.6,0.9,1.6c0.3,0.5,0.6,1,1,1.7c0.2,0.3,0.4,0.6,0.5,0.9
								c0.2,0.3,0.4,0.6,0.6,0.9c0.8,1.3,1.6,2.5,2.2,3.5c0.3,0.5,0.6,0.9,0.8,1.2s0.3,0.4,0.3,0.4c0.6,0.8,0.8,1.6,0.6,2.3
								c-0.1,0.7-0.6,1.3-1.5,1.9c0,0-0.7,0.4-1.3,0.8c-0.7,0.4-1.3,0.8-1.3,0.8s-0.7,0.4-1.3,0.8c-0.7,0.4-1.3,0.8-1.3,0.8
								s-0.2,0.1-0.4,0.2c-0.3,0.1-0.6,0.4-0.9,0.5c-0.7,0.4-1.4,0.8-1.4,0.8s-0.7,0.4-1.4,0.7c-0.7,0.4-1.4,0.7-1.4,0.7
								c-0.9,0.5-1.5,1.1-1.7,1.8s0.3,1.3,1.3,2c1.1,0.6,2.2,0.9,3.5,0.9c1.3-0.1,2.3-0.4,3.3-0.9c0,0,0.9-0.5,2.1-1.2
								c1.3-0.8,3-1.8,4.6-2.8s3.3-2.1,4.4-3C525.6,343,526.4,342.5,526.4,342.5z"/>
							<path fill="#BC984C" d="M540.3,335.5c0,0-0.5-0.6-1-1.1c-0.5-0.6-1-1.2-1-1.2l-1.9-2.3c-0.6-0.8-1-1.7-1.3-2.8
								c-0.2-1.1-1-1.7-2.3-1.9c0,0-1-0.1-2-0.3c-0.5-0.1-1-0.1-1.4-0.2c-0.4-0.1-0.6-0.1-0.6-0.1c-1.3-0.2-1.9,0.2-1.7,1.3
								s0.5,2.1,1.1,2.9c0,0,0.1,0.2,0.3,0.4c0.2,0.3,0.5,0.6,0.8,1.1c0.7,0.9,1.6,2.1,2.5,3.3s1.9,2.4,2.6,3.2
								c0.7,0.9,1.2,1.5,1.2,1.5c0.6,0.8,0.9,1.5,0.9,2.2c-0.1,0.7-0.5,1.4-1.3,2l-2.4,1.9c0,0-0.2,0.1-0.4,0.3s-0.5,0.4-0.8,0.6
								c-0.6,0.5-1.2,0.9-1.2,0.9l-2.5,1.8c0,0-0.6,0.5-1.3,0.9c-0.6,0.4-1.3,0.9-1.3,0.9c-0.9,0.6-1.4,1.2-1.5,1.9s0.4,1.3,1.5,1.8
								s2.3,0.7,3.5,0.5s2.3-0.6,3.1-1.2c0,0,3.2-2.4,6.2-4.7c1.5-1.2,3-2.5,4.1-3.4s1.8-1.5,1.8-1.5c0.8-0.7,1.2-1.4,1.2-2.1
								c0-0.7-0.3-1.4-1-2.2l-2-2.3L540.3,335.5z"/>
							<path fill="#BC984C" d="M555.2,334l-2.1-2.2c-0.7-0.7-1.2-1.6-1.5-2.7c-0.3-1.1-1.2-1.6-2.5-1.7c0,0-1,0-2.1-0.1
								c-0.5,0-1,0-1.4-0.1c-0.4,0-0.6,0-0.6,0c-1.3-0.1-1.9,0.4-1.6,1.5c0.3,1.1,0.7,2,1.4,2.8c0,0,0.1,0.1,0.3,0.4
								c0.2,0.2,0.5,0.6,0.9,1c0.7,0.8,1.8,1.9,2.8,3s2.1,2.2,2.8,3c0.8,0.8,1.3,1.3,1.3,1.3c0.7,0.7,1.1,1.4,1,2.1
								c0,0.7-0.4,1.4-1.1,2.1c0,0-0.6,0.5-1.1,1c-0.6,0.5-1.1,1-1.1,1l-2.3,2l-2.3,2.1c0,0-0.6,0.5-1.2,1c-0.6,0.5-1.2,1-1.2,1
								c-0.8,0.7-1.2,1.3-1.3,2.1c0,0.7,0.5,1.3,1.7,1.7c1.1,0.4,2.3,0.5,3.5,0.1c1.2-0.3,2.2-0.8,2.9-1.5c0,0,0.1-0.1,0.4-0.3
								c0.2-0.2,0.6-0.5,1-0.8c0.8-0.7,1.8-1.6,2.9-2.6c2.1-1.9,4.1-3.8,4.1-3.8v-10.2l-1.3-1.3L555.2,334z"/>
							<path fill="#BC984C" d="M274.3,341.6c-0.1-0.7-0.5-1.4-1.3-2c0,0-0.6-0.5-1.2-1c-0.6-0.5-1.1-1-1.1-1l-2.3-2l-2.2-2
								c0,0-0.5-0.5-1.1-1c-0.5-0.5-1.1-1-1.1-1c-0.7-0.7-1.3-1.5-1.7-2.6c-0.4-1-1.3-1.6-2.6-1.5c0,0-0.3,0-0.6,0
								c-0.4,0-0.9,0-1.4,0c-1,0-2.1,0-2.1,0c-1.4,0-1.9,0.6-1.5,1.6c0.4,1.1,0.9,1.9,1.6,2.6c0,0,0.5,0.5,1.3,1.3s1.9,1.9,3,2.9
								c2.2,2,4.5,4.1,4.5,4.1c0.8,0.7,1.1,1.4,1.2,2.1c0,0.7-0.3,1.4-1,2.2l-2.1,2.2l-2.2,2.2c0,0-0.5,0.6-1.1,1.1
								c-0.5,0.5-1.1,1.1-1.1,1.1L256,353c-0.7,0.7-1.1,1.4-1.1,2.2c0,0.7,0.6,1.2,1.7,1.6c1.1,0.3,2.3,0.3,3.4,0
								c1.2-0.4,2.1-1,2.8-1.7c0,0,0.7-0.7,1.7-1.7c0.5-0.5,1.1-1.1,1.7-1.8c0.6-0.6,1.3-1.4,2-2.1c1.3-1.4,2.6-2.8,3.6-3.9
								c0.5-0.5,0.9-1,1.2-1.3s0.4-0.5,0.4-0.5C274,343,274.3,342.3,274.3,341.6z"/>
							<path fill="#BC984C" d="M290.1,337.2c0,0-0.6-0.4-1.2-0.9c-0.3-0.2-0.6-0.4-0.8-0.6c-0.2-0.2-0.4-0.3-0.4-0.3
								s-0.6-0.4-1.2-0.9c-0.6-0.4-1.2-0.9-1.2-0.9s-0.6-0.4-1.2-0.9c-0.6-0.4-1.2-0.9-1.2-0.9s-0.6-0.4-1.2-0.9
								c-0.6-0.5-1.2-0.9-1.2-0.9c-0.8-0.6-1.4-1.4-1.9-2.4s-1.4-1.4-2.7-1.3l-4,0.4c-0.3,0-0.6,0.1-0.8,0.2
								c-0.2,0.1-0.4,0.2-0.5,0.3c-0.2,0.3-0.3,0.7,0,1.2c0.2,0.5,0.5,1,0.8,1.4s0.6,0.8,1,1.1c0,0,2.2,1.9,4.6,3.8
								c1.2,1,2.3,1.9,3.2,2.5c0.9,0.7,1.5,1.1,1.5,1.1c0.8,0.6,1.3,1.3,1.4,2c0.1,0.7-0.2,1.4-0.8,2.3l-2,2.4c0,0-0.5,0.6-1,1.2
								c-0.5,0.6-1,1.2-1,1.2l-2,2.3l-2.1,2.3c-0.7,0.8-1,1.5-1,2.2c0.1,0.7,0.7,1.2,1.9,1.4s2.4,0.1,3.5-0.3
								c1.2-0.5,2.1-1.1,2.7-1.9c0,0,0.6-0.8,1.6-1.9c0.5-0.6,1-1.2,1.6-1.9s1.2-1.5,1.8-2.2c1.2-1.5,2.4-3.1,3.2-4.2
								c0.8-1.2,1.4-2,1.4-2c0.6-0.9,0.8-1.6,0.7-2.3C291.4,338.4,290.9,337.8,290.1,337.2z"/>
							<path fill="#BC984C" d="M306.8,333.1c0,0-0.7-0.3-1.3-0.7c-0.7-0.4-1.3-0.7-1.3-0.7s-0.7-0.4-1.3-0.7
								c-0.6-0.4-1.3-0.7-1.3-0.7s-0.2-0.1-0.4-0.2c-0.2-0.1-0.6-0.3-0.9-0.5c-0.6-0.4-1.3-0.8-1.3-0.8s-0.6-0.4-1.3-0.8
								c-0.6-0.4-1.2-0.8-1.2-0.8c-0.4-0.3-0.8-0.6-1.1-0.9c-0.4-0.4-0.7-0.8-1-1.3c-0.6-1-1.5-1.3-2.8-1c0,0-0.2,0.1-0.6,0.1
								c-0.2,0-0.4,0.1-0.6,0.1c-0.2,0-0.5,0.1-0.7,0.1c-1,0.2-1.9,0.4-1.9,0.4c-1.3,0.2-1.7,0.9-1.2,1.9s1.2,1.8,2,2.3
								c0,0,0.6,0.4,1.5,1.1c0.5,0.3,1,0.7,1.6,1.1c0.6,0.4,1.2,0.8,1.8,1.2c1.2,0.8,2.5,1.6,3.5,2.2c0.5,0.3,0.9,0.5,1.2,0.7
								s0.4,0.3,0.4,0.3c0.9,0.5,1.4,1.1,1.6,1.8c0.2,0.7,0,1.5-0.5,2.3c0,0-0.4,0.7-0.8,1.3c-0.4,0.6-0.9,1.3-0.9,1.3
								s-0.4,0.6-0.9,1.3c-0.4,0.6-0.9,1.3-0.9,1.3s-0.4,0.6-0.9,1.3c-0.2,0.3-0.4,0.6-0.6,0.9c-0.2,0.2-0.3,0.4-0.3,0.4
								s-0.5,0.6-0.9,1.3c-0.5,0.6-1,1.3-1,1.3c-0.6,0.8-0.9,1.6-0.8,2.3c0.1,0.7,0.8,1.1,2,1.2c0.6,0.1,1.2,0,1.8-0.1
								c0.3-0.1,0.6-0.1,0.9-0.2c0.3-0.1,0.6-0.2,0.8-0.4c1.1-0.6,2-1.3,2.6-2.2c0,0,0.1-0.2,0.4-0.6c0.2-0.4,0.6-0.9,1-1.5
								c0.8-1.2,1.9-2.9,3-4.5c1-1.7,2-3.3,2.7-4.6c0.4-0.6,0.7-1.1,0.9-1.5s0.3-0.6,0.3-0.6c0.5-0.9,0.6-1.7,0.4-2.4
								C308.3,334.1,307.7,333.6,306.8,333.1z"/>
							<path fill="#BC984C" d="M323.1,327.3l-2.8-1.2l-2.8-1.2c0,0-0.7-0.3-1.4-0.6s-1.4-0.6-1.4-0.6l-2.7-1.3
								c-0.9-0.4-1.7-1.1-2.4-2s-1.6-1.1-2.9-0.7c0,0-1,0.3-1.9,0.6c-1,0.3-1.9,0.6-1.9,0.6c-0.6,0.2-1,0.5-1.2,0.8
								s-0.1,0.7,0.2,1.2c0.6,0.9,1.4,1.6,2.2,2.1c0,0,0.6,0.4,1.6,0.9s2.3,1.2,3.6,1.9s2.7,1.3,3.7,1.8s1.7,0.8,1.7,0.8
								c0.9,0.4,1.5,1,1.7,1.6c0.2,0.7,0.1,1.5-0.3,2.4c0,0-0.3,0.7-0.7,1.4s-0.7,1.4-0.7,1.4l-1.4,2.7c0,0-0.4,0.7-0.7,1.4
								c-0.4,0.7-0.8,1.4-0.8,1.4l-1.6,2.7c-0.5,0.9-0.7,1.7-0.5,2.4s0.9,1,2.2,1c1.2,0,2.4-0.4,3.4-1.1c1-0.7,1.8-1.5,2.3-2.4
								c0,0,0.1-0.2,0.3-0.6c0.2-0.4,0.5-0.9,0.8-1.6c0.7-1.3,1.6-3,2.4-4.8c0.8-1.7,1.7-3.5,2.3-4.8s1-2.2,1-2.2
								c0.4-1,0.5-1.7,0.3-2.4C324.7,328.2,324.1,327.7,323.1,327.3z"/>
							<path fill="#BC984C" d="M339.4,320.9l-2.8-1.2l-2.8-1.2l-2.8-1.2l-2.8-1.2c-0.9-0.4-1.8-1-2.5-1.9c-0.7-0.8-1.8-1-3.1-0.5
								l-4,1.6c-1.3,0.5-1.6,1.2-0.9,2.1c0.7,0.9,1.5,1.5,2.5,1.9c0,0,0.7,0.3,1.7,0.7s2.5,1,3.9,1.6c2.8,1.2,5.6,2.3,5.6,2.3
								c0.9,0.4,1.5,0.9,1.8,1.6c0.3,0.7,0.2,1.4-0.2,2.4l-1.3,2.8l-1.2,2.8l-1.2,2.8c0,0-0.3,0.7-0.6,1.4s-0.7,1.4-0.7,1.4
								c-0.4,0.9-0.5,1.7-0.3,2.4c0.3,0.7,1,0.9,2.1,0.8c1.2-0.1,2.2-0.5,3.1-1.2c0.9-0.7,1.6-1.6,2-2.5c0,0,1.5-3.5,3.1-6.9
								c0.8-1.7,1.5-3.4,2.1-4.7s1-2.2,1-2.2c0.4-0.9,0.5-1.7,0.3-2.4C340.9,321.9,340.3,321.3,339.4,320.9z"/>
							<path fill="#BC984C" d="M356.2,315.5c0,0-0.7-0.4-1.3-0.8c-0.7-0.4-1.4-0.7-1.4-0.7s-0.7-0.4-1.4-0.7
								c-0.7-0.4-1.4-0.7-1.4-0.7s-0.7-0.3-1.4-0.7c-0.7-0.3-1.4-0.7-1.4-0.7l-2.8-1.4c-1-0.4-1.8-1.1-2.5-2s-1.8-1.1-3.3-0.6
								c0,0-0.3,0.1-0.7,0.2c-0.4,0.1-1,0.3-1.5,0.5c-1.1,0.4-2.2,0.8-2.2,0.8c-1.4,0.5-1.8,1.3-1,2.1c0.7,0.9,1.6,1.5,2.5,1.9
								c0,0,0.7,0.3,1.8,0.8s2.5,1.1,3.9,1.7c1.4,0.6,2.8,1.3,3.9,1.8c0.5,0.2,1,0.4,1.3,0.6c0.3,0.1,0.5,0.2,0.5,0.2
								c0.9,0.5,1.5,1,1.7,1.7s0.1,1.5-0.4,2.4c0,0-0.1,0.2-0.2,0.4c-0.1,0.3-0.3,0.6-0.5,0.9c-0.3,0.7-0.7,1.4-0.7,1.4l-1.3,2.7
								c0,0-0.3,0.7-0.6,1.4s-0.6,1.4-0.6,1.4l-1.3,2.7c-0.4,0.9-0.5,1.7-0.2,2.4c0.2,0.7,0.9,0.9,2,0.9s2-0.4,2.9-1
								c0.9-0.7,1.5-1.4,1.9-2.3c0,0,0.1-0.2,0.3-0.6c0.2-0.4,0.4-0.9,0.7-1.5c0.6-1.2,1.4-2.9,2.3-4.5c0.9-1.6,1.8-3.3,2.5-4.5
								c0.3-0.6,0.6-1.1,0.9-1.5c0.2-0.4,0.3-0.6,0.3-0.6c0.5-0.9,0.7-1.7,0.5-2.3C357.6,316.6,357.1,316,356.2,315.5z"/>
							<path fill="#BC984C" d="M374.9,313.9c-0.1-0.7-0.6-1.3-1.4-1.9c0,0-0.6-0.4-1.3-0.9c-0.6-0.4-1.3-0.9-1.3-0.9
								s-0.6-0.4-1.3-0.9c-0.3-0.2-0.6-0.4-0.9-0.6c-0.2-0.2-0.4-0.3-0.4-0.3s-0.7-0.4-1.3-0.8c-0.7-0.4-1.3-0.8-1.3-0.8
								s-0.7-0.4-1.3-0.8c-0.7-0.4-1.3-0.8-1.3-0.8c-0.9-0.6-1.7-1.3-2.3-2.2s-1.7-1.3-3.3-0.9c0,0-0.3,0.1-0.7,0.2
								c-0.4,0.1-1,0.3-1.6,0.4c-1.2,0.3-2.3,0.6-2.3,0.6c-0.8,0.2-1.3,0.5-1.5,0.8s-0.2,0.7,0.2,1.2c0.3,0.5,0.7,0.9,1.1,1.2
								c0.4,0.4,0.8,0.7,1.3,0.9c0,0,0.7,0.4,1.7,0.9c0.5,0.3,1.1,0.6,1.8,1c0.3,0.2,0.6,0.4,1,0.5c0.3,0.2,0.7,0.4,1,0.6
								c1.4,0.8,2.7,1.6,3.7,2.2c0.5,0.3,0.9,0.6,1.2,0.7c0.3,0.2,0.4,0.3,0.4,0.3c0.9,0.6,1.4,1.2,1.5,1.9s-0.1,1.5-0.6,2.3
								c0,0-0.4,0.6-0.8,1.3c-0.4,0.6-0.8,1.3-0.8,1.3s-0.4,0.6-0.8,1.3c-0.4,0.6-0.8,1.3-0.8,1.3s-0.1,0.2-0.2,0.4
								c-0.1,0.2-0.3,0.6-0.5,0.9c-0.4,0.6-0.7,1.3-0.7,1.3s-0.4,0.6-0.7,1.3c-0.4,0.6-0.7,1.3-0.7,1.3c-0.5,0.8-0.6,1.6-0.4,2.3
								c0.2,0.7,0.8,1.1,1.9,1.1c1,0.1,2-0.1,2.9-0.7c0.9-0.6,1.6-1.2,2.1-2.1c0,0,0.5-0.8,1.2-2s1.7-2.7,2.8-4.2
								c1-1.6,2.1-3.1,3-4.2c0.8-1.1,1.4-1.9,1.4-1.9C374.8,315.3,375,314.6,374.9,313.9z"/>
							<path fill="#BC984C" d="M392.3,312.2c0-0.7-0.4-1.4-1.2-2l-2.3-2l-2.4-2c0,0-0.6-0.5-1.2-1c-0.6-0.5-1.2-0.9-1.2-0.9
								l-2.5-1.9c-0.8-0.6-1.5-1.5-2-2.5s-1.5-1.4-3.1-1.2c0,0-1.2,0.1-2.3,0.3c-0.6,0.1-1.2,0.1-1.6,0.2c-0.4,0.1-0.7,0.1-0.7,0.1
								c-1.6,0.2-2.1,0.9-1.5,1.9s1.3,1.8,2.1,2.3c0,0,0.2,0.1,0.4,0.3c0.3,0.2,0.7,0.5,1.2,0.8c1,0.7,2.2,1.6,3.5,2.5
								s2.5,1.8,3.4,2.5s1.5,1.2,1.5,1.2c0.8,0.6,1.2,1.3,1.3,2s-0.2,1.4-0.9,2.2l-1.9,2.3c0,0-0.1,0.1-0.3,0.4
								c-0.2,0.2-0.4,0.5-0.6,0.8c-0.5,0.6-0.9,1.2-0.9,1.2l-1.8,2.4c0,0-0.4,0.6-0.9,1.2c-0.4,0.6-0.9,1.2-0.9,1.2
								c-0.6,0.8-0.8,1.6-0.7,2.3s0.7,1.1,1.7,1.3s2,0.1,3-0.4s1.7-1.1,2.3-1.9c0,0,2.2-2.9,4.6-5.8c1.2-1.4,2.4-2.8,3.4-3.9
								c0.9-1.1,1.6-1.8,1.6-1.8C392,313.7,392.3,313,392.3,312.2z"/>
							<path fill="#BC984C" d="M410.1,310.8c0-0.7-0.4-1.4-1.2-2l-2.3-2l-2.4-2c0,0-0.6-0.5-1.2-1c-0.6-0.5-1.2-0.9-1.2-0.9
								l-2.5-1.9c-0.8-0.6-1.5-1.5-2-2.5s-1.5-1.4-3.1-1.2c0,0-1.2,0.1-2.3,0.3c-0.6,0.1-1.2,0.1-1.6,0.2c-0.4,0.1-0.7,0.1-0.7,0.1
								c-1.6,0.2-2.1,0.9-1.5,1.9s1.3,1.8,2.1,2.3c0,0,0.2,0.1,0.4,0.3c0.3,0.2,0.7,0.5,1.2,0.8c1,0.7,2.2,1.6,3.5,2.5
								s2.5,1.8,3.4,2.5s1.5,1.2,1.5,1.2c0.8,0.6,1.2,1.3,1.3,2s-0.2,1.4-0.9,2.2l-1.9,2.3c0,0-0.1,0.1-0.3,0.4
								c-0.2,0.2-0.4,0.5-0.6,0.8c-0.5,0.6-0.9,1.2-0.9,1.2l-1.8,2.4c0,0-0.4,0.6-0.9,1.2c-0.4,0.6-0.9,1.2-0.9,1.2
								c-0.6,0.8-0.8,1.6-0.7,2.3s0.7,1.1,1.7,1.3s2,0.1,3-0.4s1.7-1.1,2.3-1.9c0,0,2.2-2.9,4.6-5.8c1.2-1.4,2.4-2.8,3.4-3.9
								c0.9-1.1,1.6-1.8,1.6-1.8C409.9,312.2,410.2,311.5,410.1,310.8z"/>
							<path fill="#BC984C" d="M119.5,315.3c0.3-0.3,0.5-0.4,0.5-0.4c0.8-0.7,1.2-1.3,1.3-2c0.1-0.7-0.2-1.4-0.9-2.2
								c0,0-0.5-0.6-1-1.2c-0.5-0.6-1-1.1-1-1.1l-2.1-2.3l-2.1-2.3c0,0-0.5-0.6-1.1-1.1c-0.5-0.6-1.1-1.1-1.1-1.1
								c-0.7-0.7-1.3-1.7-1.6-2.7c-0.3-1.1-1.3-1.7-2.8-1.7c0,0-0.3,0-0.7,0c-0.4,0-1,0-1.6,0c-1.2,0-2.3,0-2.3,0
								c-1.5,0-2.1,0.5-1.7,1.6s0.9,2,1.7,2.7c0,0,0.6,0.5,1.4,1.3s1.9,1.9,3,3c2.2,2.2,4.3,4.4,4.3,4.4c0.7,0.7,1,1.4,1,2.2
								c0,0.7-0.4,1.4-1.2,2.1l-2.3,2l-2.2,2c0,0-0.5,0.5-1.1,1c-0.5,0.5-1.1,1.1-1.1,1.1l-2.2,2.1c-0.7,0.7-1.1,1.4-1.1,2.1
								c0,0.7,0.5,1.2,1.5,1.6c1,0.4,2,0.4,3.1,0c1.1-0.3,1.9-0.8,2.6-1.5c0,0,0.7-0.6,1.7-1.6c0.5-0.5,1.1-1,1.8-1.6
								c0.6-0.6,1.3-1.2,2-1.8c1.4-1.2,2.8-2.5,3.9-3.4C118.7,315.9,119.2,315.6,119.5,315.3z"/>
							<path fill="#BC984C" d="M137,317.2c0.9-0.6,1.4-1.2,1.5-1.9s-0.1-1.5-0.7-2.3c0,0-0.4-0.6-0.9-1.3c-0.2-0.3-0.5-0.6-0.6-0.9
								c-0.2-0.2-0.3-0.4-0.3-0.4l-1.9-2.4l-1.9-2.4c0,0-0.5-0.6-1-1.2c-0.5-0.6-1-1.2-1-1.2c-0.7-0.8-1.1-1.8-1.4-2.9
								c-0.3-1.1-1.2-1.8-2.7-1.9l-4.7-0.5c-0.4,0-0.7,0-1,0s-0.5,0.1-0.6,0.3c-0.3,0.2-0.4,0.6-0.2,1.2c0.2,0.5,0.4,1,0.6,1.5
								c0.3,0.5,0.6,0.9,0.9,1.3c0,0,2.1,2.3,4.1,4.7c1,1.2,2,2.4,2.7,3.3c0.7,0.9,1.2,1.5,1.2,1.5c0.6,0.8,0.9,1.5,0.8,2.2
								s-0.6,1.4-1.4,2l-2.4,1.8c0,0-0.6,0.5-1.2,0.9c-0.6,0.5-1.2,0.9-1.2,0.9l-2.3,1.9l-2.3,1.9c-0.7,0.6-1.1,1.3-1.2,2
								s0.4,1.3,1.4,1.7c1,0.5,2,0.5,3,0.3c1.1-0.3,1.9-0.7,2.7-1.3c0,0,0.7-0.6,1.8-1.4c0.5-0.4,1.2-0.9,1.9-1.5
								c0.7-0.5,1.4-1.1,2.2-1.6c1.5-1.1,3-2.2,4.2-3C136.3,317.7,137,317.2,137,317.2z"/>
							<path fill="#BC984C" d="M153.2,321.6c0.4-0.2,0.6-0.3,0.6-0.3c0.9-0.5,1.5-1,1.7-1.7s0.1-1.5-0.4-2.4c0,0-0.4-0.7-0.7-1.4
								c-0.4-0.7-0.8-1.3-0.8-1.3s-0.4-0.7-0.8-1.3c-0.4-0.7-0.8-1.3-0.8-1.3s-0.1-0.2-0.3-0.4c-0.2-0.2-0.4-0.6-0.6-0.9
								c-0.4-0.7-0.8-1.3-0.8-1.3s-0.4-0.7-0.8-1.3c-0.4-0.7-0.9-1.3-0.9-1.3c-0.3-0.4-0.5-0.9-0.7-1.4s-0.3-1-0.4-1.6
								c-0.1-1.1-1-1.9-2.6-2.2c0,0-0.3-0.1-0.7-0.2c-0.2,0-0.5-0.1-0.7-0.2c-0.3-0.1-0.6-0.1-0.9-0.2c-1.2-0.2-2.3-0.4-2.3-0.4
								c-1.6-0.3-2.2,0.1-2,1.2c0.2,1.1,0.6,2.1,1.3,2.9c0,0,0.5,0.6,1.2,1.6c0.3,0.5,0.7,1,1.2,1.6c0.4,0.6,0.9,1.2,1.3,1.9
								c0.9,1.3,1.7,2.6,2.4,3.5c0.3,0.5,0.6,0.9,0.8,1.2c0.2,0.3,0.3,0.4,0.3,0.4c0.5,0.9,0.7,1.6,0.5,2.3s-0.7,1.3-1.6,1.8
								c0,0-0.6,0.4-1.3,0.8c-0.6,0.4-1.3,0.8-1.3,0.8s-0.6,0.4-1.3,0.8c-0.6,0.4-1.2,0.8-1.2,0.8s-0.6,0.4-1.2,0.8
								c-0.3,0.2-0.6,0.4-0.8,0.6c-0.2,0.2-0.4,0.3-0.4,0.3s-0.6,0.4-1.2,0.8c-0.6,0.4-1.2,0.8-1.2,0.8c-0.8,0.6-1.2,1.2-1.4,1.9
								c-0.1,0.7,0.3,1.3,1.2,1.8c0.5,0.3,0.9,0.4,1.4,0.5c0.2,0,0.5,0.1,0.7,0.1s0.5,0,0.8,0c1.1-0.1,2-0.5,2.8-1
								c0,0,0.2-0.1,0.5-0.4c0.3-0.2,0.8-0.5,1.4-0.9c1.2-0.7,2.7-1.7,4.3-2.7c1.6-0.9,3.2-1.8,4.5-2.5
								C152.3,322.1,152.8,321.8,153.2,321.6z"/>
							<path fill="#BC984C" d="M170,327.1c1-0.4,1.6-0.9,1.8-1.6c0.3-0.7,0.2-1.4-0.3-2.4l-1.3-2.8l-1.3-2.8c0,0-0.3-0.7-0.7-1.4
								c-0.3-0.7-0.7-1.4-0.7-1.4l-1.4-2.8c-0.5-0.9-0.7-2-0.7-3.1s-0.8-2-2.3-2.5c0,0-1.1-0.4-2.2-0.7c-1.1-0.4-2.3-0.7-2.3-0.7
								c-0.7-0.2-1.3-0.3-1.7-0.1c-0.4,0.2-0.5,0.5-0.5,1.1c0.1,1.1,0.4,2.1,0.9,3.1c0,0,0.4,0.7,1,1.7s1.4,2.4,2.1,3.7
								c0.7,1.4,1.4,2.7,2,3.8c0.5,1,0.9,1.7,0.9,1.7c0.4,0.9,0.5,1.7,0.3,2.4s-0.8,1.2-1.7,1.6c0,0-0.7,0.3-1.4,0.6
								c-0.7,0.3-1.4,0.6-1.4,0.6l-2.7,1.3c0,0-0.7,0.3-1.3,0.7c-0.7,0.4-1.3,0.7-1.3,0.7s-0.7,0.3-1.3,0.7
								c-0.6,0.3-1.3,0.7-1.3,0.7c-0.9,0.5-1.4,1-1.6,1.7s0.1,1.3,1,2c0.8,0.6,1.8,0.9,2.8,0.9c1.1,0,2-0.2,2.9-0.7
								c0,0,0.2-0.1,0.6-0.3s0.9-0.4,1.5-0.7c1.2-0.6,2.9-1.4,4.6-2.2s3.4-1.5,4.7-2.1C169.2,327.5,170,327.1,170,327.1z"/>
							<path fill="#BC984C" d="M186.3,333.5c1-0.4,1.6-1,1.8-1.6c0.2-0.7,0.1-1.4-0.3-2.4l-1.3-2.8l-1.2-2.7l-1.2-2.8l-1.2-2.8
								c-0.4-0.9-0.6-2-0.5-3.1s-0.6-1.9-1.9-2.5l-4.1-1.6c-1.4-0.5-2.1-0.2-2.2,0.9c0,1.1,0.2,2.2,0.6,3.1c0,0,0.3,0.7,0.8,1.7
								s1.1,2.4,1.7,3.8c1.2,2.8,2.5,5.6,2.5,5.6c0.4,0.9,0.5,1.7,0.2,2.4s-0.9,1.2-1.8,1.6l-2.8,1.1l-2.8,1.2l-2.8,1.2
								c0,0-0.7,0.3-1.4,0.6c-0.7,0.3-1.4,0.6-1.4,0.6c-0.9,0.4-1.5,0.9-1.8,1.6c-0.3,0.7,0.1,1.3,0.9,2s1.8,1.1,3,1.2
								c1.2,0.1,2.2-0.1,3.1-0.5c0,0,3.5-1.5,7.1-2.9c1.8-0.7,3.6-1.5,4.9-2C185.4,333.9,186.3,333.5,186.3,333.5z"/>
							<path fill="#BC984C" d="M202.6,339.2c0.4-0.2,0.6-0.3,0.6-0.3c0.9-0.5,1.5-1.1,1.6-1.8c0.2-0.7,0-1.5-0.5-2.3
								c0,0-0.4-0.7-0.8-1.3c-0.4-0.7-0.7-1.3-0.7-1.3s-0.4-0.7-0.7-1.3c-0.4-0.7-0.7-1.3-0.7-1.3s-0.4-0.7-0.7-1.3
								c-0.3-0.7-0.7-1.3-0.7-1.3s-0.3-0.7-0.7-1.3c-0.3-0.7-0.6-1.3-0.6-1.3c-0.4-0.9-0.6-1.9-0.6-3s-0.6-1.9-1.9-2.3
								c0,0-0.2-0.1-0.6-0.2c-0.4-0.1-0.8-0.3-1.3-0.5c-1-0.3-1.9-0.7-1.9-0.7c-1.3-0.5-2-0.2-2,0.9c0,1.1,0.1,2.1,0.5,3
								c0,0,0.3,0.7,0.8,1.7s1.1,2.4,1.7,3.7c0.6,1.3,1.3,2.7,1.8,3.7c0.3,0.5,0.5,0.9,0.6,1.2c0.2,0.3,0.2,0.5,0.2,0.5
								c0.5,0.9,0.6,1.7,0.4,2.3c-0.2,0.7-0.8,1.2-1.7,1.7c0,0-0.2,0.1-0.4,0.2c-0.3,0.1-0.6,0.3-1,0.5c-0.7,0.3-1.4,0.6-1.4,0.6
								l-2.8,1.3c0,0-0.7,0.3-1.4,0.6s-1.4,0.6-1.4,0.6l-2.9,1.2c-1,0.4-1.6,0.9-1.8,1.6c-0.2,0.7,0.1,1.4,1.1,2.1
								c1,0.7,2.1,1.1,3.3,1.2c1.2,0.1,2.3-0.1,3.3-0.5c0,0,0.2-0.1,0.6-0.3c0.4-0.2,0.9-0.4,1.6-0.7c1.4-0.6,3.1-1.4,4.9-2.3
								c1.8-0.9,3.5-1.8,4.8-2.4C201.7,339.7,202.2,339.4,202.6,339.2z"/>
							<path fill="#BC984C" d="M220.5,342.5c0.9-0.6,1.3-1.2,1.4-1.9c0.1-0.7-0.2-1.4-0.8-2.3c0,0-0.4-0.6-0.9-1.2
								c-0.4-0.6-0.9-1.2-0.9-1.2s-0.4-0.6-0.9-1.2c-0.2-0.3-0.4-0.6-0.6-0.8c-0.2-0.2-0.3-0.4-0.3-0.4s-0.4-0.6-0.8-1.2
								c-0.4-0.6-0.8-1.2-0.8-1.2s-0.4-0.6-0.8-1.2c-0.4-0.6-0.8-1.2-0.8-1.2c-0.5-0.8-0.8-1.8-0.9-2.9c-0.1-1.1-0.8-1.8-2.1-2.1
								c0,0-0.2-0.1-0.6-0.1c-0.4-0.1-0.8-0.2-1.3-0.3c-1-0.2-1.9-0.5-1.9-0.5c-0.6-0.2-1.1-0.1-1.4,0c-0.3,0.2-0.5,0.6-0.4,1.1
								c0,0.6,0.1,1.1,0.2,1.6c0.1,0.5,0.3,0.9,0.5,1.4c0,0,0.4,0.6,0.9,1.6c0.3,0.5,0.6,1,1,1.7c0.2,0.3,0.4,0.6,0.5,0.9
								c0.2,0.3,0.4,0.6,0.6,0.9c0.8,1.3,1.6,2.5,2.2,3.5c0.3,0.5,0.6,0.9,0.8,1.2s0.3,0.4,0.3,0.4c0.6,0.8,0.8,1.6,0.6,2.3
								c-0.1,0.7-0.6,1.3-1.5,1.9c0,0-0.7,0.4-1.3,0.8c-0.7,0.4-1.3,0.8-1.3,0.8s-0.7,0.4-1.3,0.8c-0.7,0.4-1.3,0.8-1.3,0.8
								s-0.2,0.1-0.4,0.2c-0.3,0.1-0.6,0.4-0.9,0.5c-0.7,0.4-1.4,0.8-1.4,0.8s-0.7,0.4-1.4,0.7c-0.7,0.4-1.4,0.7-1.4,0.7
								c-0.9,0.5-1.5,1.1-1.7,1.8s0.3,1.3,1.3,2c1.1,0.6,2.2,0.9,3.5,0.9c1.3-0.1,2.3-0.4,3.3-0.9c0,0,0.9-0.5,2.1-1.2
								c1.3-0.8,3-1.8,4.6-2.8s3.3-2.1,4.4-3C219.7,343,220.5,342.5,220.5,342.5z"/>
							<path fill="#BC984C" d="M239.3,342.2c0-0.7-0.3-1.4-1-2.2l-2-2.3l-2-2.3c0,0-0.5-0.6-1-1.1c-0.5-0.6-1-1.2-1-1.2l-1.9-2.3
								c-0.6-0.8-1-1.7-1.3-2.8c-0.2-1.1-1-1.7-2.3-1.9c0,0-1-0.1-2-0.3c-0.5-0.1-1-0.1-1.4-0.2c-0.4-0.1-0.6-0.1-0.6-0.1
								c-1.3-0.2-1.9,0.2-1.7,1.3s0.5,2.1,1.1,2.9c0,0,0.1,0.2,0.3,0.4c0.2,0.3,0.5,0.6,0.8,1.1c0.7,0.9,1.6,2.1,2.5,3.3
								s1.9,2.4,2.6,3.2c0.7,0.9,1.2,1.5,1.2,1.5c0.6,0.8,0.9,1.5,0.9,2.2c-0.1,0.7-0.5,1.4-1.3,2l-2.4,1.9c0,0-0.2,0.1-0.4,0.3
								s-0.5,0.4-0.8,0.6c-0.6,0.5-1.2,0.9-1.2,0.9l-2.5,1.8c0,0-0.6,0.5-1.3,0.9c-0.6,0.4-1.3,0.9-1.3,0.9
								c-0.9,0.6-1.4,1.2-1.5,1.9s0.4,1.3,1.5,1.8s2.3,0.7,3.5,0.5s2.3-0.6,3.1-1.2c0,0,3.2-2.4,6.2-4.7c1.5-1.2,3-2.5,4.1-3.4
								s1.8-1.5,1.8-1.5C238.9,343.6,239.3,342.9,239.3,342.2z"/>
							<path fill="#BC984C" d="M256.9,344.2c0-0.7-0.3-1.4-1-2.2l-2-2.3l-2-2.3c0,0-0.5-0.6-1-1.1c-0.5-0.6-1-1.2-1-1.2l-1.9-2.3
								c-0.6-0.8-1-1.7-1.3-2.8c-0.2-1.1-1-1.7-2.3-1.9c0,0-1-0.1-2-0.3c-0.5-0.1-1-0.1-1.4-0.2c-0.4-0.1-0.6-0.1-0.6-0.1
								c-1.3-0.2-1.9,0.2-1.7,1.3s0.5,2.1,1.1,2.9c0,0,0.1,0.2,0.3,0.4c0.2,0.3,0.5,0.6,0.8,1.1c0.7,0.9,1.6,2.1,2.5,3.3
								s1.9,2.4,2.6,3.2c0.7,0.9,1.2,1.5,1.2,1.5c0.6,0.8,0.9,1.5,0.9,2.2c-0.1,0.7-0.5,1.4-1.3,2l-2.4,1.9c0,0-0.2,0.1-0.4,0.3
								s-0.5,0.4-0.8,0.6c-0.6,0.5-1.2,0.9-1.2,0.9l-2.5,1.8c0,0-0.6,0.5-1.3,0.9c-0.6,0.4-1.3,0.9-1.3,0.9
								c-0.9,0.6-1.4,1.2-1.5,1.9s0.4,1.3,1.5,1.8s2.3,0.7,3.5,0.5s2.3-0.6,3.1-1.2c0,0,3.2-2.4,6.2-4.7c1.5-1.2,3-2.5,4.1-3.4
								s1.8-1.5,1.8-1.5C256.5,345.6,256.9,344.9,256.9,344.2z"/>
							<path fill="#BC984C" d="M-31.7,341.6c-0.1-0.7-0.5-1.4-1.3-2c0,0-0.6-0.5-1.2-1s-1.1-1-1.1-1l-2.3-2l-2.2-2
								c0,0-0.5-0.5-1.1-1c-0.5-0.5-1.1-1-1.1-1c-0.7-0.7-1.3-1.5-1.7-2.6c-0.4-1-1.3-1.6-2.6-1.5c0,0-0.3,0-0.6,0
								c-0.4,0-0.9,0-1.4,0c-1,0-2.1,0-2.1,0c-1.4,0-1.9,0.6-1.5,1.6c0.4,1.1,0.9,1.9,1.6,2.6c0,0,0.5,0.5,1.3,1.3s1.9,1.9,3,2.9
								c2.2,2,4.5,4.1,4.5,4.1c0.8,0.7,1.1,1.4,1.2,2.1c0,0.7-0.3,1.4-1,2.2l-2.1,2.2l-2.2,2.2c0,0-0.5,0.6-1.1,1.1
								c-0.5,0.5-1.1,1.1-1.1,1.1L-50,353c-0.7,0.7-1.1,1.4-1.1,2.2c0,0.7,0.6,1.2,1.7,1.6c1.1,0.3,2.3,0.3,3.4,0
								c1.2-0.4,2.1-1,2.8-1.7c0,0,0.7-0.7,1.7-1.7c0.5-0.5,1.1-1.1,1.7-1.8c0.6-0.6,1.3-1.4,2-2.1c1.3-1.4,2.6-2.8,3.6-3.9
								c0.5-0.5,0.9-1,1.2-1.3c0.3-0.3,0.4-0.5,0.4-0.5C-31.9,343-31.6,342.3-31.7,341.6z"/>
							<path fill="#BC984C" d="M-15.9,337.2c0,0-0.6-0.4-1.2-0.9c-0.3-0.2-0.6-0.4-0.8-0.6c-0.2-0.2-0.4-0.3-0.4-0.3
								s-0.6-0.4-1.2-0.9c-0.6-0.4-1.2-0.9-1.2-0.9s-0.6-0.4-1.2-0.9c-0.6-0.4-1.2-0.9-1.2-0.9s-0.6-0.4-1.2-0.9s-1.2-0.9-1.2-0.9
								c-0.8-0.6-1.4-1.4-1.9-2.4s-1.4-1.4-2.7-1.3l-4,0.4c-0.3,0-0.6,0.1-0.8,0.2c-0.2,0.1-0.4,0.2-0.5,0.3c-0.2,0.3-0.3,0.7,0,1.2
								c0.2,0.5,0.5,1,0.8,1.4s0.6,0.8,1,1.1c0,0,2.2,1.9,4.6,3.8c1.2,1,2.3,1.9,3.2,2.5c0.9,0.7,1.5,1.1,1.5,1.1
								c0.8,0.6,1.3,1.3,1.4,2s-0.2,1.4-0.8,2.3l-2,2.4c0,0-0.5,0.6-1,1.2c-0.5,0.6-1,1.2-1,1.2l-2,2.3l-2.1,2.3
								c-0.7,0.8-1,1.5-1,2.2c0.1,0.7,0.7,1.2,1.9,1.4c1.2,0.2,2.4,0.1,3.5-0.3c1.2-0.5,2.1-1.1,2.7-1.9c0,0,0.6-0.8,1.6-1.9
								c0.5-0.6,1-1.2,1.6-1.9s1.2-1.5,1.8-2.2c1.2-1.5,2.4-3.1,3.2-4.2c0.8-1.2,1.4-2,1.4-2c0.6-0.9,0.8-1.6,0.7-2.3
								C-14.5,338.4-15,337.8-15.9,337.2z"/>
							<path fill="#BC984C" d="M0.9,333.1c0,0-0.7-0.3-1.3-0.7c-0.7-0.4-1.3-0.7-1.3-0.7s-0.7-0.4-1.3-0.7c-0.6-0.4-1.3-0.7-1.3-0.7
								s-0.2-0.1-0.4-0.2c-0.2-0.1-0.6-0.3-0.9-0.5c-0.6-0.4-1.3-0.8-1.3-0.8s-0.6-0.4-1.3-0.8c-0.6-0.4-1.2-0.8-1.2-0.8
								c-0.4-0.3-0.8-0.6-1.1-0.9c-0.4-0.4-0.7-0.8-1-1.3c-0.6-1-1.5-1.3-2.8-1c0,0-0.2,0.1-0.6,0.1c-0.2,0-0.4,0.1-0.6,0.1
								s-0.5,0.1-0.7,0.1c-1,0.2-1.9,0.4-1.9,0.4c-1.3,0.2-1.7,0.9-1.2,1.9s1.2,1.8,2,2.3c0,0,0.6,0.4,1.5,1.1
								c0.5,0.3,1,0.7,1.6,1.1c0.6,0.4,1.2,0.8,1.8,1.2c1.2,0.8,2.5,1.6,3.5,2.2c0.5,0.3,0.9,0.5,1.2,0.7c0.3,0.2,0.4,0.3,0.4,0.3
								c0.9,0.5,1.4,1.1,1.6,1.8s0,1.5-0.5,2.3c0,0-0.4,0.7-0.8,1.3s-0.9,1.3-0.9,1.3s-0.4,0.6-0.9,1.3c-0.4,0.6-0.9,1.3-0.9,1.3
								s-0.4,0.6-0.9,1.3c-0.2,0.3-0.4,0.6-0.6,0.9c-0.2,0.2-0.3,0.4-0.3,0.4s-0.5,0.6-0.9,1.3c-0.5,0.6-1,1.3-1,1.3
								c-0.6,0.8-0.9,1.6-0.8,2.3s0.8,1.1,2,1.2c0.6,0.1,1.2,0,1.8-0.1c0.3-0.1,0.6-0.1,0.9-0.2c0.3-0.1,0.6-0.2,0.8-0.4
								c1.1-0.6,2-1.3,2.6-2.2c0,0,0.1-0.2,0.4-0.6c0.2-0.4,0.6-0.9,1-1.5c0.8-1.2,1.9-2.9,3-4.5c1-1.7,2-3.3,2.7-4.6
								c0.4-0.6,0.7-1.1,0.9-1.5c0.2-0.4,0.3-0.6,0.3-0.6c0.5-0.9,0.6-1.7,0.4-2.4C2.3,334.1,1.8,333.6,0.9,333.1z"/>
							<path fill="#BC984C" d="M17.2,327.3l-2.8-1.2l-2.8-1.2c0,0-0.7-0.3-1.4-0.6c-0.7-0.3-1.4-0.6-1.4-0.6l-2.7-1.3
								c-0.9-0.4-1.7-1.1-2.4-2c-0.7-0.9-1.6-1.1-2.9-0.7c0,0-1,0.3-1.9,0.6c-1,0.3-1.9,0.6-1.9,0.6c-0.6,0.2-1,0.5-1.2,0.8
								s-0.1,0.7,0.2,1.2c0.6,0.9,1.4,1.6,2.2,2.1c0,0,0.6,0.4,1.6,0.9s2.3,1.2,3.6,1.9c1.3,0.7,2.7,1.3,3.7,1.8s1.7,0.8,1.7,0.8
								c0.9,0.4,1.5,1,1.7,1.6c0.2,0.7,0.1,1.5-0.3,2.4c0,0-0.3,0.7-0.7,1.4c-0.3,0.7-0.7,1.4-0.7,1.4l-1.4,2.7c0,0-0.4,0.7-0.7,1.4
								c-0.4,0.7-0.8,1.4-0.8,1.4l-1.6,2.7c-0.5,0.9-0.7,1.7-0.5,2.4s0.9,1,2.2,1c1.2,0,2.4-0.4,3.4-1.1c1-0.7,1.8-1.5,2.3-2.4
								c0,0,0.1-0.2,0.3-0.6c0.2-0.4,0.5-0.9,0.8-1.6c0.7-1.3,1.6-3,2.4-4.8c0.8-1.7,1.7-3.5,2.3-4.8c0.6-1.3,1-2.2,1-2.2
								c0.4-1,0.5-1.7,0.3-2.4C18.7,328.2,18.1,327.7,17.2,327.3z"/>
							<path fill="#BC984C" d="M33.5,320.9l-2.8-1.2l-2.8-1.2l-2.8-1.2l-2.8-1.2c-0.9-0.4-1.8-1-2.5-1.9c-0.7-0.8-1.8-1-3.1-0.5
								l-4,1.6c-1.3,0.5-1.6,1.2-0.9,2.1c0.7,0.9,1.5,1.5,2.5,1.9c0,0,0.7,0.3,1.7,0.7s2.5,1,3.9,1.6c2.8,1.2,5.6,2.3,5.6,2.3
								c0.9,0.4,1.5,0.9,1.8,1.6c0.3,0.7,0.2,1.4-0.2,2.4l-1.3,2.8l-1.2,2.8l-1.2,2.8c0,0-0.3,0.7-0.6,1.4c-0.3,0.7-0.7,1.4-0.7,1.4
								c-0.4,0.9-0.5,1.7-0.3,2.4c0.3,0.7,1,0.9,2.1,0.8c1.2-0.1,2.2-0.5,3.1-1.2s1.6-1.6,2-2.5c0,0,1.5-3.5,3.1-6.9
								c0.8-1.7,1.5-3.4,2.1-4.7s1-2.2,1-2.2c0.4-0.9,0.5-1.7,0.3-2.4C35,321.9,34.4,321.3,33.5,320.9z"/>
							<path fill="#BC984C" d="M50.3,315.5c0,0-0.7-0.4-1.3-0.8c-0.7-0.4-1.4-0.7-1.4-0.7s-0.7-0.4-1.4-0.7
								c-0.7-0.4-1.4-0.7-1.4-0.7s-0.7-0.3-1.4-0.7c-0.7-0.3-1.4-0.7-1.4-0.7l-2.8-1.4c-1-0.4-1.8-1.1-2.5-2s-1.8-1.1-3.3-0.6
								c0,0-0.3,0.1-0.7,0.2c-0.4,0.1-1,0.3-1.5,0.5c-1.1,0.4-2.2,0.8-2.2,0.8c-1.4,0.5-1.8,1.3-1,2.1c0.7,0.9,1.6,1.5,2.5,1.9
								c0,0,0.7,0.3,1.8,0.8c1.1,0.5,2.5,1.1,3.9,1.7c1.4,0.6,2.8,1.3,3.9,1.8c0.5,0.2,1,0.4,1.3,0.6c0.3,0.1,0.5,0.2,0.5,0.2
								c0.9,0.5,1.5,1,1.7,1.7s0.1,1.5-0.4,2.4c0,0-0.1,0.2-0.2,0.4c-0.1,0.3-0.3,0.6-0.5,0.9c-0.3,0.7-0.7,1.4-0.7,1.4l-1.3,2.7
								c0,0-0.3,0.7-0.6,1.4c-0.3,0.7-0.6,1.4-0.6,1.4l-1.3,2.7c-0.4,0.9-0.5,1.7-0.2,2.4c0.2,0.7,0.9,0.9,2,0.9s2-0.4,2.9-1
								c0.9-0.7,1.5-1.4,1.9-2.3c0,0,0.1-0.2,0.3-0.6c0.2-0.4,0.4-0.9,0.7-1.5c0.6-1.2,1.4-2.9,2.3-4.5s1.8-3.3,2.5-4.5
								c0.3-0.6,0.6-1.1,0.9-1.5c0.2-0.4,0.3-0.6,0.3-0.6c0.5-0.9,0.7-1.7,0.5-2.3C51.7,316.6,51.2,316,50.3,315.5z"/>
							<path fill="#BC984C" d="M69,313.9c-0.1-0.7-0.6-1.3-1.4-1.9c0,0-0.6-0.4-1.3-0.9c-0.6-0.4-1.3-0.9-1.3-0.9s-0.6-0.4-1.3-0.9
								c-0.3-0.2-0.6-0.4-0.9-0.6c-0.2-0.2-0.4-0.3-0.4-0.3s-0.7-0.4-1.3-0.8c-0.7-0.4-1.3-0.8-1.3-0.8s-0.7-0.4-1.3-0.8
								c-0.7-0.4-1.3-0.8-1.3-0.8c-0.9-0.6-1.7-1.3-2.3-2.2c-0.6-0.9-1.7-1.3-3.3-0.9c0,0-0.3,0.1-0.7,0.2c-0.4,0.1-1,0.3-1.6,0.4
								c-1.2,0.3-2.3,0.6-2.3,0.6c-0.8,0.2-1.3,0.5-1.5,0.8s-0.2,0.7,0.2,1.2c0.3,0.5,0.7,0.9,1.1,1.2c0.4,0.4,0.8,0.7,1.3,0.9
								c0,0,0.7,0.4,1.7,0.9c0.5,0.3,1.1,0.6,1.8,1c0.3,0.2,0.6,0.4,1,0.5c0.3,0.2,0.7,0.4,1,0.6c1.4,0.8,2.7,1.6,3.7,2.2
								c0.5,0.3,0.9,0.6,1.2,0.7c0.3,0.2,0.4,0.3,0.4,0.3c0.9,0.6,1.4,1.2,1.5,1.9s-0.1,1.5-0.6,2.3c0,0-0.4,0.6-0.8,1.3
								c-0.4,0.6-0.8,1.3-0.8,1.3s-0.4,0.6-0.8,1.3c-0.4,0.6-0.8,1.3-0.8,1.3s-0.1,0.2-0.2,0.4s-0.3,0.6-0.5,0.9
								c-0.4,0.6-0.7,1.3-0.7,1.3s-0.4,0.6-0.7,1.3c-0.4,0.6-0.7,1.3-0.7,1.3c-0.5,0.8-0.6,1.6-0.4,2.3s0.8,1.1,1.9,1.1
								c1,0.1,2-0.1,2.9-0.7c0.9-0.6,1.6-1.2,2.1-2.1c0,0,0.5-0.8,1.2-2s1.7-2.7,2.8-4.2c1-1.6,2.1-3.1,3-4.2
								c0.8-1.1,1.4-1.9,1.4-1.9C68.8,315.3,69.1,314.6,69,313.9z"/>
							<path fill="#BC984C" d="M86.3,312.2c0-0.7-0.4-1.4-1.2-2l-2.3-2l-2.4-2c0,0-0.6-0.5-1.2-1s-1.2-0.9-1.2-0.9l-2.5-1.9
								c-0.8-0.6-1.5-1.5-2-2.5s-1.5-1.4-3.1-1.2c0,0-1.2,0.1-2.3,0.3c-0.6,0.1-1.2,0.1-1.6,0.2c-0.4,0.1-0.7,0.1-0.7,0.1
								c-1.6,0.2-2.1,0.9-1.5,1.9s1.3,1.8,2.1,2.3c0,0,0.2,0.1,0.4,0.3c0.3,0.2,0.7,0.5,1.2,0.8c1,0.7,2.2,1.6,3.5,2.5
								s2.5,1.8,3.4,2.5s1.5,1.2,1.5,1.2c0.8,0.6,1.2,1.3,1.3,2c0.1,0.7-0.2,1.4-0.9,2.2l-1.9,2.3c0,0-0.1,0.1-0.3,0.4
								c-0.2,0.2-0.4,0.5-0.6,0.8c-0.5,0.6-0.9,1.2-0.9,1.2l-1.8,2.4c0,0-0.4,0.6-0.9,1.2c-0.4,0.6-0.9,1.2-0.9,1.2
								c-0.6,0.8-0.8,1.6-0.7,2.3c0.1,0.7,0.7,1.1,1.7,1.3s2,0.1,3-0.4s1.7-1.1,2.3-1.9c0,0,2.2-2.9,4.6-5.8
								c1.2-1.4,2.4-2.8,3.4-3.9c0.9-1.1,1.6-1.8,1.6-1.8C86.1,313.7,86.4,313,86.3,312.2z"/>
							<path fill="#BC984C" d="M103.7,310.6c0-0.7-0.4-1.4-1.2-2l-2.3-2l-2.4-2c0,0-0.6-0.5-1.2-1s-1.2-0.9-1.2-0.9l-2.5-1.9
								c-0.8-0.6-1.5-1.5-2-2.5s-1.5-1.4-3.1-1.2c0,0-1.2,0.1-2.3,0.3c-0.6,0.1-1.2,0.1-1.6,0.2c-0.4,0.1-0.7,0.1-0.7,0.1
								c-1.6,0.2-2.1,0.9-1.5,1.9s1.3,1.8,2.1,2.3c0,0,0.2,0.1,0.4,0.3c0.3,0.2,0.7,0.5,1.2,0.8c1,0.7,2.2,1.6,3.5,2.5
								s2.5,1.8,3.4,2.5s1.5,1.2,1.5,1.2c0.8,0.6,1.2,1.3,1.3,2c0.1,0.7-0.2,1.4-0.9,2.2l-1.9,2.3c0,0-0.1,0.1-0.3,0.4
								c-0.2,0.2-0.4,0.5-0.6,0.8c-0.5,0.6-0.9,1.2-0.9,1.2l-1.8,2.4c0,0-0.4,0.6-0.9,1.2c-0.4,0.6-0.9,1.2-0.9,1.2
								c-0.6,0.8-0.8,1.6-0.7,2.3c0.1,0.7,0.7,1.1,1.7,1.3s2,0.1,3-0.4s1.7-1.1,2.3-1.9c0,0,2.2-2.9,4.6-5.8
								c1.2-1.4,2.4-2.8,3.4-3.9c0.9-1.1,1.6-1.8,1.6-1.8C103.4,312,103.7,311.3,103.7,310.6z"/>
						</g>
					</g>
				</g>
			</g>
		</g>
		<path opacity="0.29" fill="#727272" enable-background="new    " d="M320.4,242.5C320.3,242.5,320.3,242.5,320.4,242.5
			c-0.7,0.4-1.4,0.7-2.1,1.1c-0.7,0.4-1.5,0.8-2.2,1.2c-0.6,0.3-1.3,0.6-1.9,0.9c-0.5,0.3-1.1,0.5-1.6,0.8c-0.4,0.2-0.9,0.4-1.3,0.6
			c-0.6,0.3-1.1,0.5-1.7,0.7c-0.4,0.2-0.8,0.4-1.2,0.5c-0.5,0.2-0.9,0.4-1.4,0.6c-0.7,0.3-1.4,0.5-2.1,0.8
			c-5.5,2.1-11.4,3.8-17.7,5.2c-1.3,0.3-2.7,0.6-4,0.8c-1.1,0.2-2.2,0.4-3.4,0.6l0,0c-4.4,0.7-8.9,1.2-13.6,1.5
			c-0.6,0-1.1,0.1-1.7,0.1c-1.7,0.1-3.3,0.2-5.1,0.2c-0.2,0-0.3,0-0.5,0c-0.7,0-1.4,0-2.1,0c-0.7,0-1.4,0-2,0c-0.7,0-1.4,0-2,0
			c-0.8,0-1.5,0-2.3,0c-0.1,0-0.2,0-0.3,0c-1.7,0-3.4-0.1-5.1-0.2c-0.6,0-1.1-0.1-1.7-0.1c-4.7-0.3-9.3-0.8-13.7-1.5l0,0
			c-1.1-0.2-2.3-0.4-3.4-0.6c-1.2-0.2-2.5-0.5-3.7-0.7c-6.4-1.3-12.3-3.1-17.9-5.1c-0.6-0.2-1.3-0.5-1.9-0.7c-0.1,0-0.2-0.1-0.2-0.1
			c-0.6-0.3-1.3-0.5-1.9-0.8c-0.6-0.2-1.2-0.5-1.8-0.7c-0.2-0.1-0.4-0.2-0.6-0.3c-0.5-0.2-1-0.5-1.6-0.7c-0.6-0.3-1.3-0.6-1.9-0.9
			c-1.9-0.9-3.8-1.9-5.6-2.9l0,0c-2.6-1.5-5.1-3-7.5-4.6c6.4,11.6,14.7,22.3,25.3,30.4l0,0c1.3,1,2.7,2,4.1,2.9
			c0.5,0.3,0.9,0.6,1.4,0.9c0.4,0.2,0.7,0.5,1.1,0.7c0.1,0.1,0.3,0.2,0.5,0.3c0.4,0.3,0.9,0.5,1.3,0.7c0.5,0.3,0.9,0.5,1.4,0.8
			c0.1,0,0.1,0.1,0.2,0.1c0.5,0.2,0.9,0.5,1.4,0.7c4,2.1,8.4,3.8,13,5.1c0.9,0.3,1.8,0.5,2.7,0.7c0.8,0.2,1.6,0.4,2.5,0.6l0,0
			c3.2,0.7,6.5,1.2,10,1.5c0.4,0,0.8,0.1,1.2,0.1c1.2,0.1,2.4,0.2,3.7,0.2c0.1,0,0.2,0,0.2,0c0.6,0,1.1,0,1.7,0c0.5,0,1,0,1.5,0
			s1,0,1.5,0s1,0,1.5,0c0.1,0,0.2,0,0.4,0c1.3,0,2.5-0.1,3.7-0.2c0.4,0,0.8-0.1,1.2-0.1c3.4-0.3,6.8-0.8,9.9-1.5l0,0
			c0.8-0.2,1.7-0.4,2.5-0.6c1-0.2,2-0.5,2.9-0.8c4.6-1.3,8.9-3.1,12.9-5.2c0.5-0.3,1-0.5,1.5-0.8c0.4-0.2,0.7-0.4,1-0.6
			c0.3-0.2,0.6-0.3,0.9-0.5c0.4-0.2,0.8-0.5,1.2-0.7c0.3-0.2,0.6-0.4,0.9-0.6c0.4-0.3,0.8-0.5,1.2-0.8c0.5-0.3,0.9-0.6,1.4-0.9
			c0.6-0.4,1.1-0.8,1.6-1.2s1-0.7,1.5-1.1l0,0c10.6-8.1,18.8-18.8,25.2-30.3C325.4,239.6,322.9,241.1,320.4,242.5z"/>
		<path opacity="0.25" fill="#727272" enable-background="new    " d="M314.1,358.7c-0.2,1.1-0.4,2.2-0.7,3.3
			c-3.4,12.8-13,23.6-26.6,27.6c-8.3,2.5-18.9,4-32.2,4V283.9c7.9,0,15.1-1,21.7-2.7c6.6-1.7,12.6-4.3,18.1-7.5
			c-0.2,1.3-0.4,2.5-0.5,3.8c-0.3,4.4,0.2,8.9,1.7,13.2l16.8,47.8c0.9,2.7,1.6,5.4,1.9,8.1C314.9,350.6,314.8,354.7,314.1,358.7z"/>
	</g>
</g>
</svg>
