<?xml version="1.0" encoding="utf-8"?>
<!-- Generator: Adobe Illustrator 21.1.0, SVG Export Plug-In . SVG Version: 6.00 Build 0)  -->
<svg version="1.1" id="Layer_1" xmlns="http://www.w3.org/2000/svg" xmlns:xlink="http://www.w3.org/1999/xlink" x="0px" y="0px"
	 width="496.2px" height="496.2px" viewBox="0 0 496.2 496.2" enable-background="new 0 0 496.2 496.2" xml:space="preserve">
<g>
	<g>
		<ellipse fill="#CAC8C8" cx="252.4" cy="461.9" rx="142.5" ry="27"/>
	</g>
	<g>
		<g>
			<path fill="#453635" d="M338.4,460.2l-27.3-182.6l-55.3,14.3l-55.3-14.3l-27,182.6c5,20.9,76.5,22.7,82.5,22.8v0c0,0-0.2,0,0,0
				c0.2,0,0,0,0,0v0C264,482.9,333.4,481.1,338.4,460.2z"/>
		</g>
	</g>
	<g>
		<g>
			<g>
				<path fill="#382E2B" d="M230.8,285.4l-30.3-7.8l-27.2,182.6c2,8.3,14.3,13.6,28.8,17L230.8,285.4z"/>
			</g>
		</g>
	</g>
	<g>
		<g>
			<path fill="#E3B7A5" d="M256,466.1L256,466.1C256,466.1,256.2,466.1,256,466.1C255.8,466.1,256,466.1,256,466.1L256,466.1
				c-6-0.1-68.1-1.7-80.6-18.8l-1.8,12.9c5,20.9,76.4,22.7,82.4,22.8v0c0,0-0.2,0,0,0c0.2,0,0,0,0,0v0c8-0.1,77.4-1.9,82.4-22.8
				l-1.9-12.9C324,464.4,263,466,256,466.1z"/>
		</g>
	</g>
	<g>
		<path fill="#584545" d="M97.2,98c0.5,6,0.7,12.2,0.7,17.5c0,39.1,92.5,197.4,155.3,196.4c75.6,4.2,155.3-157.3,155.3-196.4
			c0-5.3,0.3-11.6,0.7-17.6L97.2,98L97.2,98z"/>
	</g>
	<g>
		<path fill="#493939" d="M140.9,115.5c0-5.3-0.3-11.5-0.7-17.5h-43c0.5,6,0.7,12.2,0.7,17.5c0,37.9,87.2,188.3,149.7,196.1
			C194.2,266.5,140.9,146.9,140.9,115.5z"/>
	</g>
	<g>
		<g>
			<path fill="#B3A7A1" d="M404,87.2l-10.9-16.1l-47.6-0.5c-26-3.7-58-5.9-92.8-5.9c-28.7,0-55.6,1.5-78.7,4.1l-59-0.6l-13.1,18.8
				c-3.7,2.6-5.7,5.4-5.7,8.2c0,16.8,70.1,30.5,156.5,30.5s156.5-13.6,156.5-30.5C409.3,92.4,407.5,89.7,404,87.2z"/>
		</g>
	</g>
	<g>
		<g>
			<ellipse fill="#C7BBB6" cx="253.7" cy="71.1" rx="139.4" ry="30.5"/>
		</g>
	</g>
	<g>
		<path fill="#DBD9D6" d="M251.1,133.2c-24.1,0-45.5-2-63.5-4.6c-56.6-8.4-91.4-24.9-92.8-25.6c-2.7-1.3-3.9-4.6-2.6-7.3
			c1.3-2.7,4.6-3.9,7.3-2.6l0,0c0.3,0.2,35,16.6,90.1,24.7c50.7,7.5,129.7,9.2,217.6-24.9c2.8-1.1,6,0.3,7.1,3.1
			c1.1,2.8-0.3,6-3.1,7.1C352,126.1,296.8,133.2,251.1,133.2z"/>
	</g>
	<g>
		<path fill="#DBD9D6" d="M251.1,165.2c-24.1,0-45.5-2-63.5-4.6c-56.6-8.4-91.4-24.9-92.8-25.6c-2.7-1.3-3.9-4.6-2.6-7.3
			c1.3-2.7,4.6-3.9,7.3-2.6l0,0c0.3,0.2,35,16.6,90.1,24.7c50.7,7.5,129.7,9.2,217.6-24.9c2.8-1.1,6,0.3,7.1,3.1
			c1.1,2.8-0.3,6-3.1,7.1C352,158.1,296.8,165.2,251.1,165.2z"/>
	</g>
	<g>
		<path fill="#DBD9D6" d="M251.1,176.7c-23.9,0-45.2-2-63.1-4.6c-56.2-8.3-91.8-25.2-92.1-25.4c-1.5-0.7-2.1-2.5-1.4-4
			c0.7-1.5,2.5-2.1,4-1.4c0.3,0.2,35.2,16.7,90.6,24.9c51.1,7.6,130.5,9.3,219.1-25c1.5-0.6,3.3,0.2,3.9,1.7s-0.2,3.3-1.7,3.9
			C351.5,169.6,296.5,176.7,251.1,176.7z"/>
	</g>
	<g>
		<g>
			<path fill="#C6B200" d="M252,129.5c0,0,1-11,10-11s9,10.5,9,10.5s0.5,47.5-8.5,47S252,129.5,252,129.5z"/>
		</g>
		<g>
			<circle fill="#94842B" cx="261.5" cy="129.5" r="4.5"/>
		</g>
	</g>
	<g>
		<g>
			<path fill="#C6B200" d="M329,121.5c0,0,1-11,10-11s9,10.5,9,10.5s0.5,47.5-8.5,47S329,121.5,329,121.5z"/>
		</g>
		<g>
			<circle fill="#94842B" cx="338.5" cy="121.5" r="4.5"/>
		</g>
	</g>
	<g>
		<g>
			<path fill="#C6B200" d="M167,123.5c0,0,1-11,10-11s9,10.5,9,10.5s0.5,47.5-8.5,47S167,123.5,167,123.5z"/>
		</g>
		<g>
			<circle fill="#94842B" cx="176.5" cy="123.5" r="4.5"/>
		</g>
	</g>
	<g>
		<g>
			<path fill="#C6B200" d="M96,107.5c0,0,1-11,10-11s9,10.5,9,10.5s0.5,47.5-8.5,47S96,107.5,96,107.5z"/>
		</g>
		<g>
			<circle fill="#94842B" cx="105.5" cy="107.5" r="4.5"/>
		</g>
	</g>
	<g>
		<g>
			<path fill="#C6B200" d="M395,101.5c0,0,1-11,10-11s9,10.5,9,10.5s0.5,47.5-8.5,47S395,101.5,395,101.5z"/>
		</g>
		<g>
			<circle fill="#94842B" cx="404.5" cy="101.5" r="4.5"/>
		</g>
	</g>
	<g>
		<g>
			<g>
				<path fill="#696057" d="M301.3,377.7c0,0,8,26,22,29.3C323.3,407,324.7,384.3,301.3,377.7z"/>
			</g>
			<g>
				<path fill="#696057" d="M302.6,398.7c0,0,1.5,20.7,12.7,19.1C326.6,416.2,302.6,398.7,302.6,398.7z"/>
			</g>
		</g>
		<g>
			<g>
				<path fill="#696057" d="M251.3,377.7c0,0,8,26,22,29.3C273.3,407,274.7,384.3,251.3,377.7z"/>
			</g>
			<g>
				<path fill="#696057" d="M252.6,398.7c0,0,1.5,20.7,12.7,19.1C276.6,416.2,252.6,398.7,252.6,398.7z"/>
			</g>
		</g>
		<g>
			<g>
				<path fill="#696057" d="M197.3,377.7c0,0,8,26,22,29.3C219.3,407,220.7,384.3,197.3,377.7z"/>
			</g>
			<g>
				<path fill="#696057" d="M198.6,398.7c0,0,1.5,20.7,12.7,19.1C222.6,416.2,198.6,398.7,198.6,398.7z"/>
			</g>
		</g>
		<g>
			<path fill="#696057" d="M214.7,379c0,0,25.3,3.3,29,17.3s-20.3,9.3-18,20s19-6,26,0.7s9.7,9.3,16,7c0,0-9.3-2.3-13-7.7
				S243,410,236,414c0,0-3.7-0.7,5.7-4.7s9.3-16.3-2.3-24.7S214.7,379,214.7,379z"/>
		</g>
		<g>
			<path fill="#696057" d="M264.7,379c0,0,25.3,3.3,29,17.3s-20.3,9.3-18,20s19-6,26,0.7s9.7,9.3,16,7c0,0-9.3-2.3-13-7.7
				S293,410,286,414c0,0-3.7-0.7,5.7-4.7s9.3-16.3-2.3-24.7S264.7,379,264.7,379z"/>
		</g>
		<g>
			<g>
				<path fill="#696057" d="M184.3,385.4l-0.6,4.2c1.9,1.9,3.3,4.1,4,6.8c1.6,6.1-2.1,8.7-6.6,10.5l-0.8,5.3
					c0.9-0.7,2.5-1.6,5.4-2.8C194.7,405.4,195,393.7,184.3,385.4z"/>
			</g>
			<g>
				<path fill="#696057" d="M198.7,416.3C195,411,187,410,180,414l-0.7,4.8c5.7-2,12.5-5.4,16.4-1.8c7,6.7,9.7,9.3,16,7
					C211.7,424,202.3,421.7,198.7,416.3z"/>
			</g>
		</g>
	</g>
</g>
</svg>
