<svg id="Layer_1" data-name="Layer 1" xmlns="http://www.w3.org/2000/svg" viewBox="0 0 321.03 501.83"><defs><style>.cls-1{fill:#cac8c8;}.cls-2{fill:#5e3327;}.cls-3{fill:#724539;}.cls-4{fill:#49281f;}.cls-5{fill:#814c3a;}.cls-6{fill:#8e5647;}.cls-7{fill:#724336;}.cls-8{fill:#e9dd76;}.cls-9{fill:#eee49a;}.cls-10{fill:#998c87;}.cls-11{fill:#453635;}.cls-12{fill:#696057;}</style></defs><title>djembe flat1</title><ellipse class="cls-1" cx="160.52" cy="467.32" rx="160.52" ry="34.5"/><path class="cls-2" d="M680.82,523.22,645.7,357l-71.15,13-71.09-13L468.82,523.22C475.23,542.27,566,543.88,575,544h0s-.22,0,0,0,0,0,0,0h0C585,543.88,674.41,542.27,680.82,523.22Z" transform="translate(-411.79 -48)"/><polygon class="cls-3" points="138.75 321.99 150.76 319.79 91.66 308.97 90.78 313.2 138.75 321.99"/><path class="cls-3" d="M575,544s.22,0,0,0S575,544,575,544Z" transform="translate(-411.79 -48)"/><path class="cls-3" d="M645.7,357l-23.11,4.23,34.23,162c-5.26,15.62-66.34,19.52-93.66,20.47,5.94.21,10.22.28,11.83.3,10-.11,99.41-1.72,105.82-20.77Z" transform="translate(-411.79 -48)"/><path class="cls-4" d="M542.39,364.1,503.45,357l-35,166.25c2.55,7.56,18.36,12.37,37,15.43Z" transform="translate(-411.79 -48)"/><path class="cls-5" d="M571.16,115.22,416.33,101.8s13.44,71.77,13.44,107.36,18.73,182.73,141.38,179c122.65,3.76,141.42-143.4,141.42-179S726.06,101.8,726.06,101.8Z" transform="translate(-411.79 -48)"/><path class="cls-6" d="M537.16,115.22l17-1.47L416.33,101.8s.2,1.07.55,3Z" transform="translate(-411.79 -48)"/><path class="cls-6" d="M691.52,104.8c-2.53,13.92-12.93,73.1-12.93,104.37,0,25.38-9.56,120.48-59.55,171.56,79.91-29.95,93.55-141.25,93.55-171.56,0-35.6,13.48-107.36,13.48-107.36Z" transform="translate(-411.79 -48)"/><path class="cls-7" d="M460.43,209.17c0-31.5-10.52-91.31-12.95-104.67l-31.15-2.7s13.44,71.77,13.44,107.36c0,32.76,15.89,160.14,114.18,177.16C472.89,348.57,460.43,238.17,460.43,209.17Z" transform="translate(-411.79 -48)"/><path class="cls-8" d="M720.07,94,709.34,78.07l-46.94-.49c-25.62-3.68-57.29-5.85-91.57-5.85a700.6,700.6,0,0,0-77.67,4.07L435,75.19,422,93.72c-3.68,2.57-5.66,5.29-5.66,8.09,0,16.61,69.17,30.08,154.49,30.08s154.49-13.46,154.49-30.07C725.32,99.11,723.49,96.5,720.07,94Z" transform="translate(-411.79 -48)"/><ellipse class="cls-9" cx="159.94" cy="30.08" rx="137.6" ry="30.08"/><path class="cls-10" d="M575,528.6h0s.22,0,0,0,0,0,0,0h0c-9-.1-87.7-1.51-103.71-17.1L469,523.22c6.41,19.05,97,20.66,106,20.77h0s-.22,0,0,0,0,0,0,0h0c10-.11,99.41-1.72,105.82-20.77l-2.44-11.72C662.35,527.09,583,528.49,575,528.6Z" transform="translate(-411.79 -48)"/><path class="cls-11" d="M587.6,147.13c-67.65,0-135.58-9.27-149.11-13.25-24.54-7.22-24.82-28-24.82-28.21a3,3,0,0,1,3-3h0a3,3,0,0,1,3,3c0,.68.41,16.56,20.51,22.47,11.46,3.37,56.33,9.57,107.46,12,44.74,2.09,106.41,1.84,146.09-11.27a2.93,2.93,0,0,1,.55-.13c1.07-.14,26.26-3.77,28.05-27.12a3,3,0,0,1,6,.46c-.9,11.73-7,21.11-17.59,27.11a48.09,48.09,0,0,1-15.36,5.45C666.92,143.93,627.3,147.13,587.6,147.13Z" transform="translate(-411.79 -48)"/><path class="cls-11" d="M646,226a3,3,0,0,1-2.39-1.19l-56.36-74.29-60.26,74a3,3,0,0,1-4.94-.43l-45-80.14-44.6,64.71a3,3,0,0,1-5.38-1c-.77-3-18.78-73.6-14-97.33a3,3,0,0,1,5.88,1.18c-3.68,18.41,8,70,12.38,88.21l43.55-63.17a3,3,0,0,1,5.09.23l45.18,80.49L585,143.77a3,3,0,0,1,4.72.08l55.61,73.31L682.6,134.6a2.85,2.85,0,0,1,2.73-1.6h0a2.85,2.85,0,0,1,2.73,1.6l24.39,53.92c7.26-31.12,15.21-73.79,11.43-83a3,3,0,0,1,5.55-2.3c6.19,15.13-11.19,87-13.2,95.18a3,3,0,0,1-5.65.52L685.33,143l-36.6,81.27a3,3,0,0,1-2.4,1.75Z" transform="translate(-411.79 -48)"/><path class="cls-11" d="M538.66,389.33a3,3,0,0,1-3-2.74l-10.26-120-5.75,111.89a3,3,0,1,1-6-.31l8-155.67a3,3,0,0,1,6-.1l14,163.67a3,3,0,0,1-2.73,3.24Z" transform="translate(-411.79 -48)"/><path class="cls-11" d="M623.34,378l-.43,0a3,3,0,0,1-2.55-3.39l22-154.67a3,3,0,0,1,6,.49L645,370.4a3,3,0,1,1-6-.13l2.22-99.68L626.3,375.42A3,3,0,0,1,623.34,378Z" transform="translate(-411.79 -48)"/><path class="cls-11" d="M574.55,390.95a163.54,163.54,0,0,1-25.71-2.09c-28.58-4.54-48.7-14.76-49.54-15.19a3,3,0,0,1,2.74-5.34A177.36,177.36,0,0,0,550,383c25.34,4,62.5,3.82,95.63-19.74,42.07-29.93,64.56-164.68,64.78-166a3,3,0,0,1,5.92,1,706.23,706.23,0,0,1-16.74,72.72c-14.86,51.26-31.85,84-50.49,97.24C633.49,379.19,608.87,390.95,574.55,390.95Z" transform="translate(-411.79 -48)"/><path class="cls-11" d="M498.66,372.67a3,3,0,0,1-1.9-.68c-20.36-16.69-38.33-49.12-53.4-96.41a556.44,556.44,0,0,1-16.54-65.9,3,3,0,0,1,5.91-1c.21,1.2,21.25,120.52,67.83,158.69a3,3,0,0,1-1.9,5.32Z" transform="translate(-411.79 -48)"/><path class="cls-11" d="M643.5,225.5a3,3,0,0,1-.52,0c-10.42-1.81-23.42-15.14-38.66-39.62-6.85-11-12.67-21.93-16.13-28.7-11.66,28.14-59.21,63.64-61.41,65.27a3,3,0,0,1-4.78-2.27c-1.21-25.7-32.12-62.1-42.1-73.22a301.16,301.16,0,0,1-14.19,27.72c-12.93,22.07-24.82,34-35.33,35.33a3,3,0,0,1-.78-5.95c17.46-2.28,39.57-46.74,46.62-63.68a3,3,0,0,1,4.94-.92c1.75,1.83,40.67,42.82,46.22,75C540.61,204,581,170.73,584.54,148.52a3,3,0,0,1,5.67-.81c8.57,18,33.65,64.09,51.22,71.08,4.43-15.39,22.57-74.91,40.2-84a3,3,0,0,1,4.29,2c6.5,26.91,17.87,56.44,24.91,57.22a3,3,0,1,1-.66,6c-4.43-.49-11.45-4.37-21.31-32.29-3.48-9.86-6.23-19.72-7.67-25.17-13.61,12.87-29.47,61.65-34.8,80.79A3,3,0,0,1,643.5,225.5Z" transform="translate(-411.79 -48)"/><path class="cls-12" d="M556.33,485.27q-.69,0-1.38-.05c-13.53-1-22.57-13.74-29.84-23.95-3.52-4.94-6.84-9.6-9.53-11.16-5.65-3.27-20.2,1.58-28,5.4a3,3,0,0,1-2.63-5.39c2.37-1.16,23.43-11.14,33.68-5.2,3.82,2.21,7.33,7.15,11.41,12.87,6.54,9.19,14.68,20.62,25.41,21.45,8.62.68,18.28-8.29,27.64-16.95s18.17-16.81,27.1-16.81c7.27,0,13,5.68,19,11.7,9.55,9.51,18.58,18.49,34.18,7.2a3,3,0,0,1,3.52,4.86c-19.74,14.29-32.57,1.52-41.93-7.8-5.14-5.12-10-9.95-14.79-9.95-6.58,0-14.94,7.74-23,15.22C577.24,475.83,567,485.27,556.33,485.27Z" transform="translate(-411.79 -48)"/><path class="cls-12" d="M613.81,487.37c-11.16,0-20.22-10.11-29-19.92-7.13-8-14.5-16.19-21.74-17-9.74-1-21.53,10.23-31.93,20.15-7.42,7.09-13.83,13.21-19.43,14.93-13.82,4.25-30.87-8.12-31.59-8.65a3,3,0,1,1,3.55-4.83c.25.18,15.38,11.1,26.27,7.75,4.24-1.31,10.47-7.25,17.05-13.53,11.34-10.83,24.18-23.1,36.7-21.78,9.54,1,17.7,10.11,25.58,18.92,8.5,9.49,17.29,19.31,26.65,17.75,9-1.5,14.86-12.06,20.54-22.28,5.91-10.63,12-21.61,22.32-23.51a3,3,0,0,1,1.09,5.9c-7.52,1.39-12.69,10.68-18.16,20.53-6.37,11.46-13,23.31-24.8,25.29A19,19,0,0,1,613.81,487.37Z" transform="translate(-411.79 -48)"/><path class="cls-12" d="M615,471a3,3,0,0,1-2-.77l-5-4.5a3,3,0,1,1,4-4.46l5,4.5a3,3,0,0,1-2,5.23Z" transform="translate(-411.79 -48)"/><path class="cls-12" d="M560,471a3,3,0,0,1-2-.77l-5-4.5a3,3,0,1,1,4-4.46l5,4.5a3,3,0,0,1-2,5.23Z" transform="translate(-411.79 -48)"/><path class="cls-12" d="M504,471a3,3,0,0,1-2-.77l-5-4.5a3,3,0,1,1,4-4.46l5,4.5a3,3,0,0,1-2,5.23Z" transform="translate(-411.79 -48)"/><path class="cls-12" d="M661,462a3,3,0,0,1-2-.77l-5-4.5a3,3,0,1,1,4-4.46l5,4.5a3,3,0,0,1-2,5.23Z" transform="translate(-411.79 -48)"/></svg>