<svg width="283" height="214" xmlns="http://www.w3.org/2000/svg" xmlns:xlink="http://www.w3.org/1999/xlink" overflow="hidden"><defs><clipPath id="clip0"><path d="M124 183 407 183 407 397 124 397Z" fill-rule="evenodd" clip-rule="evenodd"/></clipPath></defs><g clip-path="url(#clip0)" transform="translate(-124 -183)"><path d="M402.434 238.171C403.24 267.067 419.044 364.964 378.582 385.739 338.12 406.515 198.712 393.186 159.662 362.824 120.612 332.461 112.578 232.821 144.283 203.564 175.988 174.307 341.603 185.701 349.892 187.282 358.181 188.863 223.952 190.116 194.018 213.05 164.083 235.984 152.407 300.02 170.287 324.886 188.167 349.752 266.525 357.664 301.299 362.244 336.073 366.824 366.363 372.234 378.931 352.366 391.5 332.498 401.53 255.523 376.709 243.036 351.887 230.55 250.878 265.507 230.003 277.445 209.128 289.383 232.927 307.724 251.458 314.666 269.989 321.609 330.361 324.114 341.189 319.099 352.016 314.084 321.94 286.229 316.423 284.579 310.905 282.929 317.268 307.716 308.084 309.198 298.9 310.68 254.886 300.841 261.319 293.472 267.751 286.104 331.903 257.881 346.68 264.987 361.456 272.094 374.123 327.23 349.976 336.111 325.828 344.992 225.051 335.077 201.797 318.271 178.543 301.465 181.794 252.928 210.452 235.277 239.111 217.626 341.3 211.33 373.747 212.364 406.194 213.398 401.628 209.275 402.434 238.171Z" fill="#548235" fill-rule="evenodd"/></g></svg>