<?xml version="1.0" encoding="UTF-8" standalone="no"?> <!-- Created with Vectornator for iOS (http://vectornator.io/) --><!DOCTYPE svg PUBLIC "-//W3C//DTD SVG 1.1//EN" "http://www.w3.org/Graphics/SVG/1.1/DTD/svg11.dtd">
<svg style="fill-rule:evenodd;clip-rule:evenodd;stroke-linecap:round;stroke-linejoin:round;" xmlns:vectornator="http://vectornator.io" xmlns:xlink="http://www.w3.org/1999/xlink" xmlns="http://www.w3.org/2000/svg" xml:space="preserve" version="1.1" viewBox="0 0 1190.7 841.995">
<metadata>
<vectornator:setting key="DimensionsVisible" value="1"/>
<vectornator:setting key="SnapToGrid" value="0"/>
<vectornator:setting key="SnapToPoints" value="0"/>
<vectornator:setting key="GuidesVisible" value="1"/>
<vectornator:setting key="RulersVisible" value="1"/>
<vectornator:setting key="CMYKEnabledKey" value="0"/>
<vectornator:setting key="SnapToEdges" value="0"/>
<vectornator:setting key="DisplayWhiteBackground" value="0"/>
<vectornator:setting key="SnapToGuides" value="1"/>
<vectornator:setting key="GridSpacing" value="36"/>
<vectornator:setting key="Units" value="Millimeters"/>
<vectornator:setting key="DynamicGuides" value="0"/>
<vectornator:setting key="New" value="1"/>
</metadata>
<defs/>
<g id="Calque 1" vectornator:layerName="Calque 1">
<path stroke="#000000" stroke-width="1" d="M570.355+138.113L570.355+138.113C594.463+138.113+614.006+158.63+614.006+183.939L614.006+183.939C614.006+209.248+594.463+229.765+570.355+229.765L570.355+229.765C546.247+229.765+526.703+209.248+526.703+183.939L526.703+183.939C526.703+158.63+546.247+138.113+570.355+138.113Z" fill="#000000" stroke-linecap="butt" opacity="1" stroke-linejoin="round"/>
<path stroke="#000000" stroke-width="1" d="M565.694+232.2L570.846+231.981C574.272+231.981+574.185+237.604+574.185+244.586L574.185+251.811C574.185+258.793+573.566+263.688+571.356+264.655L565.279+264.793C561.853+264.793+561.776+258.793+561.776+251.811L561.776+244.586C561.776+237.604+562.267+232.2+565.694+232.2Z" fill="#000000" stroke-linecap="butt" opacity="1" stroke-linejoin="round"/>
</g>
</svg>
