<?xml version="1.0" encoding="UTF-8" standalone="no"?>
<svg
   xmlns:vectornator="http://vectornator.io"
   xmlns:dc="http://purl.org/dc/elements/1.1/"
   xmlns:cc="http://creativecommons.org/ns#"
   xmlns:rdf="http://www.w3.org/1999/02/22-rdf-syntax-ns#"
   xmlns:svg="http://www.w3.org/2000/svg"
   xmlns="http://www.w3.org/2000/svg"
   xmlns:sodipodi="http://sodipodi.sourceforge.net/DTD/sodipodi-0.dtd"
   xmlns:inkscape="http://www.inkscape.org/namespaces/inkscape"
   version="1.0"
   id="Layer_1"
   x="0px"
   y="0px"
   viewBox="0 0 88.400005 127.6"
   xml:space="preserve"
   sodipodi:docname="head_and_neck.svg"
   width="88.400002"
   height="127.6"
   inkscape:version="1.0.2-2 (e86c870879, 2021-01-15)"><metadata
   id="metadata204"><rdf:RDF><cc:Work
       rdf:about=""><dc:format>image/svg+xml</dc:format><dc:type
         rdf:resource="http://purl.org/dc/dcmitype/StillImage" /><dc:title></dc:title></cc:Work></rdf:RDF></metadata><defs
   id="defs202" /><sodipodi:namedview
   pagecolor="#ffffff"
   bordercolor="#666666"
   borderopacity="1"
   objecttolerance="10"
   gridtolerance="10"
   guidetolerance="10"
   inkscape:pageopacity="0"
   inkscape:pageshadow="2"
   inkscape:window-width="711"
   inkscape:window-height="480"
   id="namedview200"
   showgrid="false"
   inkscape:zoom="0.87511551"
   inkscape:cx="69.149976"
   inkscape:cy="100.56699"
   inkscape:window-x="0"
   inkscape:window-y="0"
   inkscape:window-maximized="0"
   inkscape:current-layer="Layer_1" />
<g
   id="Calque_1"
   vectornator:layerName="Calque 1"
   transform="translate(-526.2,-137.6)">
	<path
   style="stroke:#000000;stroke-linejoin:round"
   d="m 570.4,138.1 v 0 c 24.1,0 43.7,20.5 43.7,45.8 v 0 c 0,25.3 -19.5,45.8 -43.7,45.8 v 0 c -24.1,0 -43.7,-20.5 -43.7,-45.8 v 0 c 0,-25.3 19.5,-45.8 43.7,-45.8 z"
   id="path194" />
	<path
   style="stroke:#000000;stroke-linejoin:round"
   d="m 565.7,232.2 5.2,-0.2 c 3.4,0 3.3,5.6 3.3,12.6 v 7.2 c 0,7 -0.6,11.9 -2.8,12.8 l -6.1,0.1 c -3.4,0 -3.5,-6 -3.5,-13 v -7.2 c 0,-6.9 0.5,-12.3 3.9,-12.3 z"
   id="path196" />
</g>
</svg>
