<?xml version="1.0" encoding="UTF-8" standalone="no"?>
<svg
   xmlns:vectornator="http://vectornator.io"
   xmlns:dc="http://purl.org/dc/elements/1.1/"
   xmlns:cc="http://creativecommons.org/ns#"
   xmlns:rdf="http://www.w3.org/1999/02/22-rdf-syntax-ns#"
   xmlns:svg="http://www.w3.org/2000/svg"
   xmlns="http://www.w3.org/2000/svg"
   xmlns:sodipodi="http://sodipodi.sourceforge.net/DTD/sodipodi-0.dtd"
   xmlns:inkscape="http://www.inkscape.org/namespaces/inkscape"
   version="1.0"
   id="Layer_1"
   x="0px"
   y="0px"
   viewBox="0 0 363.59999 609.16229"
   xml:space="preserve"
   sodipodi:docname="Stickman_full.svg"
   width="363.59998"
   height="609.16229"
   inkscape:version="1.0.2-2 (e86c870879, 2021-01-15)"><metadata
   id="metadata320"><rdf:RDF><cc:Work
       rdf:about=""><dc:format>image/svg+xml</dc:format><dc:type
         rdf:resource="http://purl.org/dc/dcmitype/StillImage" /><dc:title></dc:title></cc:Work></rdf:RDF></metadata><defs
   id="defs318" /><sodipodi:namedview
   pagecolor="#ffffff"
   bordercolor="#666666"
   borderopacity="1"
   objecttolerance="10"
   gridtolerance="10"
   guidetolerance="10"
   inkscape:pageopacity="0"
   inkscape:pageshadow="2"
   inkscape:window-width="1920"
   inkscape:window-height="1057"
   id="namedview316"
   showgrid="false"
   inkscape:zoom="0.87511551"
   inkscape:cx="206.14997"
   inkscape:cy="283.4"
   inkscape:window-x="-8"
   inkscape:window-y="-8"
   inkscape:window-maximized="1"
   inkscape:current-layer="Layer_1" />
<g
   id="Calque_1"
   vectornator:layerName="Calque 1"
   transform="translate(-389.20001,-137.6)">
	<path
   style="stroke:#000000;stroke-linejoin:round"
   d="m 431.8,567 c 4.2,-60.9 113.9,-159.3 113.9,-159.3 0,0 30.5,130.1 66.6,170.5"
   id="path284" />
	<path
   style="stroke:#000000;stroke-linejoin:round"
   d="m 472.9,262.9 c 15.1,-6.1 182.3,-11.6 181,7.9 -1.3,19.5 -97.4,131.8 -109,137.3"
   id="path286" />
	<path
   style="stroke:#000000;stroke-linejoin:round"
   d="m 570.4,138.1 v 0 c 24.1,0 43.7,20.5 43.7,45.8 v 0 c 0,25.3 -19.5,45.8 -43.7,45.8 v 0 c -24.1,0 -43.7,-20.5 -43.7,-45.8 v 0 c 0,-25.3 19.5,-45.8 43.7,-45.8 z"
   id="path288" />
	<path
   style="stroke:#000000;stroke-linejoin:round"
   d="m 565.7,232.2 5.2,-0.2 c 3.4,0 3.3,5.6 3.3,12.6 v 7.2 c 0,7 -0.6,11.9 -2.8,12.8 l -6.1,0.1 c -3.4,0 -3.5,-6 -3.5,-13 v -7.2 c 0,-6.9 0.5,-12.3 3.9,-12.3 z"
   id="path290" />
	<path
   style="stroke:#000000;stroke-linejoin:round"
   d="m 506.8,510.1 c 0,-8.2 0.2,-16.3 0.2,-24.5"
   id="path292" />
	<path
   style="stroke:#000000;stroke-linejoin:round"
   d="m 650.5,270.8 c 8.9,6.2 22,18.4 34.8,31.1 21.3,21.2 41.9,44.1 41.9,44.1 0,0 -3.2,12.6 -7.4,8.2 -18.2,-19 -51.8,-62.9 -76.2,-73"
   id="path294" />
	<path
   style="stroke:#000000;stroke-linejoin:round"
   d="m 479.6,262 c -20.8,14.7 -67.2,67.2 -67.2,67.2 0,0 2.8,11.2 6.5,7.3 16,-17 45.4,-56.2 66.9,-65.2"
   id="path296" />
	<path
   style="stroke:#000000;stroke-linejoin:round"
   d="m 727.2,345.5 c 6.9,6.8 10.5,24.6 15.2,40.2 6,19.8 9.9,39 9.9,39 0,0 -7.4,2.1 -8.6,-2.3 -5.1,-19 -10.1,-56 -25.5,-70.2"
   id="path298" />
	<path
   style="stroke:#000000;stroke-linejoin:round"
   d="m 414,326.2 c -6.7,6.8 -10.2,24.6 -14.7,40.2 -5.8,19.8 -9.6,39 -9.6,39 0,0 7.1,2.1 8.3,-2.3 4.9,-19 9.7,-56 24.6,-70.2"
   id="path300" />
	<path
   style="stroke:#000000;stroke-linejoin:round"
   d="m 472.7,568.9 c 0,0 -25.9,53.8 -32.5,76.3 -2.1,7.1 7.3,3.5 7.3,3.5 0,0 22.9,-73 36,-78.6"
   id="path302" />
	<path
   style="stroke:#000000;stroke-linejoin:round"
   d="m 550.1,572.4 c 0,0 24.8,53.8 31.3,76.3 2,7.1 -7,3.5 -7,3.5 0,0 -22,-73 -34.6,-78.6"
   id="path304" />
	<path
   style="stroke:#000000;stroke-linejoin:round"
   d="m 578.2,651.7 c 0.2,2 5.5,-1.6 4.3,2.1 -6.3,20.8 3.3,63.4 1.3,83.8 -0.7,7.4 -7.5,1.5 -7.5,1.5 0,0 4.3,-76.5 -2,-86.2"
   id="path306" />
	<path
   style="stroke:#000000;stroke-linejoin:round"
   d="m 443.8,648.2 c -0.4,2 -4.7,-2.1 -4,1.7 3.6,21.2 -8.9,62.8 -9.1,83.3 -0.1,7.4 6.3,2.1 6.3,2.1 0,0 3.7,-76.5 10.1,-85.7"
   id="path308" />
	<path
   style="stroke:#000000;stroke-linejoin:round"
   d="m 576.3,739.5 c 0,0 5.2,1.1 9.4,2.2 1.3,0.3 5.6,-2.5 8,-2 2.5,0.5 3.3,3.5 1.8,4 -3.9,1.2 -15.5,3.3 -16.8,2.3 -4,-2.8 -2.4,-6.5 -2.4,-6.5 z"
   id="path310" />
	<path
   style="stroke:#000000;stroke-linejoin:round"
   d="m 437.3,735.3 c 0,0 -5,2.1 -9,4.1 -1.2,0.6 -6.2,-1.3 -8.6,-0.3 -2.4,1 -2.5,4.1 -0.9,4.2 2.7,0.2 8.7,0.2 13,-0.2 2.4,-0.2 4.2,-0.5 4.6,-1 3.3,-3.5 0.9,-6.8 0.9,-6.8 z"
   id="path312" />
</g>
</svg>
