<?xml version="1.0" encoding="UTF-8" standalone="no"?> <!-- Created with Vectornator for iOS (http://vectornator.io/) --><!DOCTYPE svg PUBLIC "-//W3C//DTD SVG 1.1//EN" "http://www.w3.org/Graphics/SVG/1.1/DTD/svg11.dtd">
<svg style="fill-rule:evenodd;clip-rule:evenodd;stroke-linecap:round;stroke-linejoin:round;" xmlns:vectornator="http://vectornator.io" xmlns:xlink="http://www.w3.org/1999/xlink" xmlns="http://www.w3.org/2000/svg" xml:space="preserve" version="1.1" viewBox="0 0 1190.7 841.995">
<metadata>
<vectornator:setting key="DimensionsVisible" value="1"/>
<vectornator:setting key="New" value="1"/>
<vectornator:setting key="SnapToPoints" value="0"/>
<vectornator:setting key="GuidesVisible" value="1"/>
<vectornator:setting key="RulersVisible" value="1"/>
<vectornator:setting key="CMYKEnabledKey" value="0"/>
<vectornator:setting key="SnapToEdges" value="0"/>
<vectornator:setting key="DisplayWhiteBackground" value="0"/>
<vectornator:setting key="SnapToGuides" value="1"/>
<vectornator:setting key="GridSpacing" value="36"/>
<vectornator:setting key="Units" value="Millimeters"/>
<vectornator:setting key="DynamicGuides" value="0"/>
<vectornator:setting key="SnapToGrid" value="0"/>
</metadata>
<defs/>
<g id="Calque 1" vectornator:layerName="Calque 1">
<path stroke="#000000" stroke-width="1" d="M431.827+566.974C436.051+506.119+545.717+407.7+545.717+407.7C545.717+407.7+576.227+537.777+612.355+578.237" fill="#000000" stroke-linecap="butt" opacity="1" stroke-linejoin="round"/>
<path stroke="#000000" stroke-width="1" d="M472.934+262.906C488.073+256.85+655.222+251.306+653.914+270.841C652.606+290.377+556.48+402.598+544.949+408.127" fill="#000000" stroke-linecap="butt" opacity="1" stroke-linejoin="round"/>
<path stroke="#000000" stroke-width="1" d="M570.355+138.113L570.355+138.113C594.463+138.113+614.006+158.63+614.006+183.939L614.006+183.939C614.006+209.248+594.463+229.765+570.355+229.765L570.355+229.765C546.247+229.765+526.703+209.248+526.703+183.939L526.703+183.939C526.703+158.63+546.247+138.113+570.355+138.113Z" fill="#000000" stroke-linecap="butt" opacity="1" stroke-linejoin="round"/>
<path stroke="#000000" stroke-width="1" d="M565.694+232.2L570.846+231.981C574.272+231.981+574.185+237.604+574.185+244.586L574.185+251.811C574.185+258.793+573.566+263.688+571.356+264.655L565.279+264.793C561.853+264.793+561.776+258.793+561.776+251.811L561.776+244.586C561.776+237.604+562.267+232.2+565.694+232.2Z" fill="#000000" stroke-linecap="butt" opacity="1" stroke-linejoin="round"/>
<path stroke="#000000" stroke-width="1" d="M506.813+510.076C506.813+501.918+507.044+493.758+507.044+485.595" fill="#000000" stroke-linecap="butt" opacity="1" stroke-linejoin="round"/>
<path stroke="#000000" stroke-width="1" d="M650.517+270.757C659.439+276.945+672.482+289.112+685.286+301.889C706.546+323.104+727.15+345.999+727.15+345.999C727.15+345.999+723.942+358.558+719.782+354.217C701.553+335.199+668.008+291.333+643.544+281.226" fill="#000000" stroke-linecap="butt" opacity="1" stroke-linejoin="round"/>
<path stroke="#000000" stroke-width="1" d="M479.565+261.999C458.737+276.7+412.316+329.198+412.316+329.198C412.316+329.198+415.131+340.414+418.782+336.538C434.778+319.553+464.216+280.376+485.685+271.35" fill="#000000" stroke-linecap="butt" opacity="1" stroke-linejoin="round"/>
<path stroke="#000000" stroke-width="1" d="M727.231+345.527C734.178+352.364+737.765+370.109+742.461+385.682C748.435+405.496+752.373+424.667+752.373+424.667C752.373+424.667+744.968+426.73+743.807+422.386C738.724+403.354+733.716+366.342+718.267+352.217" fill="#000000" stroke-linecap="butt" opacity="1" stroke-linejoin="round"/>
<path stroke="#000000" stroke-width="1" d="M414.033+326.18C407.335+333.017+403.877+350.762+399.35+366.335C393.59+386.149+389.792+405.32+389.792+405.32C389.792+405.32+396.932+407.383+398.051+403.039C402.953+384.007+407.781+346.995+422.676+332.87" fill="#000000" stroke-linecap="butt" opacity="1" stroke-linejoin="round"/>
<path stroke="#000000" stroke-width="1" d="M472.705+568.897C472.705+568.897+446.846+622.667+440.162+645.15C438.044+652.274+447.446+648.659+447.446+648.659C447.446+648.659+470.394+575.636+483.488+570.052" fill="#000000" stroke-linecap="butt" opacity="1" stroke-linejoin="round"/>
<path stroke="#000000" stroke-width="1" d="M550.146+572.36C550.146+572.36+574.979+626.13+581.398+648.612C583.432+655.737+574.404+652.122+574.404+652.122C574.404+652.122+552.365+579.099+539.79+573.515" fill="#000000" stroke-linecap="butt" opacity="1" stroke-linejoin="round"/>
<path stroke="#000000" stroke-width="1" d="M578.157+651.678C578.404+653.71+583.629+650.075+582.504+653.782C576.182+674.591+585.803+717.146+583.81+737.575C583.089+744.966+576.349+739.067+576.349+739.067C576.349+739.067+580.616+662.594+574.365+652.838" fill="#000000" stroke-linecap="butt" opacity="1" stroke-linejoin="round"/>
<path stroke="#000000" stroke-width="1" d="M443.775+648.186C443.364+650.188+439.103+646.13+439.743+649.914C443.338+671.162+430.812+712.714+430.627+733.219C430.56+740.636+436.879+735.355+436.879+735.355C436.879+735.355+440.569+658.846+447.007+649.66" fill="#000000" stroke-linecap="butt" opacity="1" stroke-linejoin="round"/>
<path stroke="#000000" stroke-width="1" d="M576.254+739.536C576.254+739.536+581.413+740.652+585.622+741.762C586.92+742.104+591.206+739.305+593.661+739.806C596.117+740.306+596.912+743.315+595.442+743.763C591.547+744.951+579.962+747.055+578.633+746.092C574.703+743.242+576.254+739.536+576.254+739.536Z" fill="#000000" stroke-linecap="butt" opacity="1" stroke-linejoin="round"/>
<path stroke="#000000" stroke-width="1" d="M437.304+735.286C437.304+735.286+432.3+737.431+428.262+739.374C427.017+739.973+422.047+738.106+419.66+739.096C417.272+740.086+417.12+743.194+418.712+743.334C421.419+743.571+427.423+743.534+431.683+743.156C434.067+742.945+435.905+742.627+436.314+742.192C439.689+738.6+437.304+735.286+437.304+735.286Z" fill="#000000" stroke-linecap="butt" opacity="1" stroke-linejoin="round"/>
</g>
</svg>
