<svg width="278.612" height="301.872" viewBox="0 0 278.612 301.872" xmlns="http://www.w3.org/2000/svg" xmlns:xlink="http://www.w3.org/1999/xlink"><g><g id="Layer_1"><g><linearGradient x1="-171.402" y1="1214.52" x2="-171.402" y2="681.563" gradientUnits="userSpaceOnUse" id="XMLID_1_" gradientTransform="matrix(0.5311 0 0 0.5311 146.278 -355.989)"><stop offset="0" stop-color="#8A8A8A"/><stop offset="1" stop-color="#FFFFFF"/></linearGradient><linearGradient x1="-160.741" y1="1214.98" x2="-160.741" y2="681.109" gradientUnits="userSpaceOnUse" id="XMLID_2_" gradientTransform="matrix(0.5311 0 0 0.5311 146.278 -355.989)"><stop offset="0"/><stop offset="1"/></linearGradient><linearGradient x1="-134.825" y1="1217.13" x2="-134.825" y2="679.863" gradientUnits="userSpaceOnUse" id="XMLID_3_" gradientTransform="matrix(0.5311 0 0 0.5311 146.278 -355.989)"><stop offset="0" stop-color="#8A8A8A"/><stop offset="1" stop-color="#FFFFFF"/></linearGradient><linearGradient x1="-82.6509" y1="1232.67" x2="-82.6509" y2="672.489" gradientUnits="userSpaceOnUse" id="XMLID_4_" gradientTransform="matrix(0.5311 0 0 0.5311 146.278 -355.989)"><stop offset="0" stop-color="#4E3839"/><stop offset="1" stop-color="#FE1D10"/></linearGradient><linearGradient x1="-90.4189" y1="741.225" x2="-90.4189" y2="719.447" gradientUnits="userSpaceOnUse" id="XMLID_5_" gradientTransform="matrix(0.5311 0 0 0.5311 146.278 -355.989)"><stop offset="0" stop-color="#FFFFFF"/><stop offset="1" stop-color="#FCB69B"/></linearGradient><linearGradient x1="-144.238" y1="915.321" x2="-144.238" y2="819.255" gradientUnits="userSpaceOnUse" id="XMLID_6_" gradientTransform="matrix(0.5311 0 0 0.5311 146.278 -355.989)"><stop offset="0" stop-color="#FFFFFF"/><stop offset="1" stop-color="#FCB69B"/></linearGradient><linearGradient x1="-151.61" y1="980.536" x2="-151.61" y2="929.84" gradientUnits="userSpaceOnUse" id="XMLID_7_" gradientTransform="matrix(0.5311 0 0 0.5311 146.278 -355.989)"><stop offset="0" stop-color="#FFFFFF"/><stop offset="1" stop-color="#FCB69B"/></linearGradient><linearGradient x1="206.228" y1="770.371" x2="206.228" y2="764.813" gradientUnits="userSpaceOnUse" id="XMLID_8_" gradientTransform="matrix(0.5311 0 0 0.5311 146.278 -355.989)"><stop offset="0" stop-color="#8A8A8A"/><stop offset="1" stop-color="#FFFFFF"/></linearGradient><linearGradient x1="242.239" y1="955.699" x2="242.239" y2="950.369" gradientUnits="userSpaceOnUse" id="XMLID_9_" gradientTransform="matrix(0.5311 0 0 0.5311 146.278 -355.989)"><stop offset="0" stop-color="#8A8A8A"/><stop offset="1" stop-color="#FFFFFF"/></linearGradient><linearGradient x1="212.636" y1="1126.17" x2="212.636" y2="1120.61" gradientUnits="userSpaceOnUse" id="XMLID_10_" gradientTransform="matrix(0.5311 0 0 0.5311 146.278 -355.989)"><stop offset="0" stop-color="#8A8A8A"/><stop offset="1" stop-color="#FFFFFF"/></linearGradient><linearGradient x1="6.6665" y1="1236.3" x2="6.6665" y2="672.263" gradientUnits="userSpaceOnUse" id="XMLID_11_" gradientTransform="matrix(0.5311 0 0 0.5311 146.278 -355.989)"><stop offset="0" stop-color="#8A8A8A"/><stop offset="1" stop-color="#FFFFFF"/></linearGradient><linearGradient x1="17.667" y1="1236.41" x2="17.667" y2="672.263" gradientUnits="userSpaceOnUse" id="XMLID_12_" gradientTransform="matrix(0.5311 0 0 0.5311 146.278 -355.989)"><stop offset="0"/><stop offset="1"/></linearGradient><linearGradient x1="45.0581" y1="1237.89" x2="45.0581" y2="670.902" gradientUnits="userSpaceOnUse" id="XMLID_13_" gradientTransform="matrix(0.5311 0 0 0.5311 146.278 -355.989)"><stop offset="0" stop-color="#8A8A8A"/><stop offset="1" stop-color="#FFFFFF"/></linearGradient><linearGradient x1="95.0205" y1="1237.89" x2="95.0205" y2="670.789" gradientUnits="userSpaceOnUse" id="XMLID_14_" gradientTransform="matrix(0.5311 0 0 0.5311 146.278 -355.989)"><stop offset="0" stop-color="#C9BFB1"/><stop offset="1" stop-color="#FBEDC6"/></linearGradient><linearGradient x1="157.118" y1="1231.99" x2="157.118" y2="676.234" gradientUnits="userSpaceOnUse" id="XMLID_15_" gradientTransform="matrix(0.5311 0 0 0.5311 146.278 -355.989)"><stop offset="0"/><stop offset="1"/></linearGradient><radialGradient cx="-143.218" cy="689.049" r="21.3799" fx="-143.218" fy="689.049" gradientUnits="userSpaceOnUse" id="XMLID_16_" gradientTransform="matrix(0.5311 0 0 0.5311 146.278 -355.989)"><stop offset="0" stop-color="#FFFFFF"/><stop offset="1" stop-color="#8A8A8A"/></radialGradient><linearGradient x1="-104.768" y1="686.328" x2="-104.768" y2="679.637" gradientUnits="userSpaceOnUse" id="XMLID_17_" gradientTransform="matrix(0.5311 0 0 0.5311 146.278 -355.989)"><stop offset="0" stop-color="#8A8A8A"/><stop offset="1" stop-color="#FFFFFF"/></linearGradient><linearGradient x1="-43.6914" y1="693.928" x2="-43.6914" y2="681.338" gradientUnits="userSpaceOnUse" id="XMLID_18_" gradientTransform="matrix(0.5311 0 0 0.5311 146.278 -355.989)"><stop offset="0" stop-color="#8A8A8A"/><stop offset="1" stop-color="#FFFFFF"/></linearGradient><radialGradient cx="-40.2319" cy="681.506" r="27.7299" fx="-40.2319" fy="681.506" gradientUnits="userSpaceOnUse" id="XMLID_19_" gradientTransform="matrix(0.5311 0 0 0.5311 146.278 -355.989)"><stop offset="0" stop-color="#FFFFFF"/><stop offset="1" stop-color="#8A8A8A"/></radialGradient><linearGradient x1="-32.0664" y1="689.731" x2="-32.0664" y2="677.596" gradientUnits="userSpaceOnUse" id="XMLID_20_" gradientTransform="matrix(0.5311 0 0 0.5311 146.278 -355.989)"><stop offset="0"/><stop offset="1"/></linearGradient><linearGradient x1="-33.144" y1="677.934" x2="-33.144" y2="673.963" gradientUnits="userSpaceOnUse" id="XMLID_21_" gradientTransform="matrix(0.5311 0 0 0.5311 146.278 -355.989)"><stop offset="0"/><stop offset="1"/></linearGradient><radialGradient cx="65.9277" cy="681.109" r="20.244" fx="65.9277" fy="681.109" gradientUnits="userSpaceOnUse" id="XMLID_22_" gradientTransform="matrix(0.5311 0 0 0.5311 146.278 -355.989)"><stop offset="0" stop-color="#FFFFFF"/><stop offset="1" stop-color="#8A8A8A"/></radialGradient><linearGradient x1="33.8867" y1="683.605" x2="33.8867" y2="672.037" gradientUnits="userSpaceOnUse" id="XMLID_23_" gradientTransform="matrix(0.5311 0 0 0.5311 146.278 -355.989)"><stop offset="0" stop-color="#8A8A8A"/><stop offset="1" stop-color="#FFFFFF"/></linearGradient><radialGradient cx="-228.395" cy="784.096" r="22.0026" fx="-228.395" fy="784.096" gradientUnits="userSpaceOnUse" id="XMLID_24_" gradientTransform="matrix(0.5311 0 0 0.5311 146.278 -355.989)"><stop offset="0" stop-color="#FFFFFF"/><stop offset="1" stop-color="#8A8A8A"/></radialGradient><radialGradient cx="-26.5088" cy="788.18" r="26.539" fx="-26.5088" fy="788.18" gradientUnits="userSpaceOnUse" id="XMLID_25_" gradientTransform="matrix(0.5311 0 0 0.5311 146.278 -355.989)"><stop offset="0" stop-color="#FFFFFF"/><stop offset="1" stop-color="#8A8A8A"/></radialGradient><linearGradient x1="-128.642" y1="795.891" x2="-128.642" y2="771.958" gradientUnits="userSpaceOnUse" id="XMLID_26_" gradientTransform="matrix(0.5311 0 0 0.5311 146.278 -355.989)"><stop offset="0" stop-color="#8A8A8A"/><stop offset="1" stop-color="#FFFFFF"/></linearGradient><linearGradient x1="-194.71" y1="787.043" x2="-194.71" y2="780.92" gradientUnits="userSpaceOnUse" id="XMLID_27_" gradientTransform="matrix(0.5311 0 0 0.5311 146.278 -355.989)"><stop offset="0" stop-color="#8A8A8A"/><stop offset="1" stop-color="#FFFFFF"/></linearGradient><radialGradient cx="-131.081" cy="782.279" r="29.0918" fx="-131.081" fy="782.279" gradientUnits="userSpaceOnUse" id="XMLID_28_" gradientTransform="matrix(0.5311 0 0 0.5311 146.278 -355.989)"><stop offset="0" stop-color="#FFFFFF"/><stop offset="1" stop-color="#8A8A8A"/></radialGradient><linearGradient x1="-132.442" y1="790.671" x2="-132.442" y2="773.887" gradientUnits="userSpaceOnUse" id="XMLID_29_" gradientTransform="matrix(0.5311 0 0 0.5311 146.278 -355.989)"><stop offset="0"/><stop offset="1"/></linearGradient><linearGradient x1="-104.825" y1="787.043" x2="-104.825" y2="776.154" gradientUnits="userSpaceOnUse" id="XMLID_30_" gradientTransform="matrix(0.5311 0 0 0.5311 146.278 -355.989)"><stop offset="0"/><stop offset="1"/></linearGradient><linearGradient x1="-118.549" y1="780.352" x2="-118.549" y2="776.154" gradientUnits="userSpaceOnUse" id="XMLID_31_" gradientTransform="matrix(0.5311 0 0 0.5311 146.278 -355.989)"><stop offset="0"/><stop offset="1"/></linearGradient><linearGradient x1="-58.5488" y1="783.416" x2="-58.5488" y2="776.154" gradientUnits="userSpaceOnUse" id="XMLID_32_" gradientTransform="matrix(0.5311 0 0 0.5311 146.278 -355.989)"><stop offset="0" stop-color="#8A8A8A"/><stop offset="1" stop-color="#FFFFFF"/></linearGradient><linearGradient x1="-169.02" y1="965.114" x2="-169.02" y2="941.183" gradientUnits="userSpaceOnUse" id="XMLID_33_" gradientTransform="matrix(0.5311 0 0 0.5311 146.278 -355.989)"><stop offset="0" stop-color="#8A8A8A"/><stop offset="1" stop-color="#FFFFFF"/></linearGradient><radialGradient cx="-255.957" cy="947.93" r="22.2863" fx="-255.957" fy="947.93" gradientUnits="userSpaceOnUse" id="XMLID_34_" gradientTransform="matrix(0.5311 0 0 0.5311 146.278 -355.989)"><stop offset="0" stop-color="#FFFFFF"/><stop offset="1" stop-color="#8A8A8A"/></radialGradient><linearGradient x1="-228.963" y1="953.317" x2="-228.963" y2="943.788" gradientUnits="userSpaceOnUse" id="XMLID_35_" gradientTransform="matrix(0.5311 0 0 0.5311 146.278 -355.989)"><stop offset="0" stop-color="#8A8A8A"/><stop offset="1" stop-color="#FFFFFF"/></linearGradient><radialGradient cx="-170.666" cy="952.523" r="29.3191" fx="-170.666" fy="952.523" gradientUnits="userSpaceOnUse" id="XMLID_36_" gradientTransform="matrix(0.5311 0 0 0.5311 146.278 -355.989)"><stop offset="0" stop-color="#FFFFFF"/><stop offset="1" stop-color="#8A8A8A"/></radialGradient><linearGradient x1="-171.289" y1="960.349" x2="-171.289" y2="944.356" gradientUnits="userSpaceOnUse" id="XMLID_37_" gradientTransform="matrix(0.5311 0 0 0.5311 146.278 -355.989)"><stop offset="0"/><stop offset="1"/></linearGradient><linearGradient x1="-157.394" y1="952.182" x2="-157.394" y2="945.717" gradientUnits="userSpaceOnUse" id="XMLID_38_" gradientTransform="matrix(0.5311 0 0 0.5311 146.278 -355.989)"><stop offset="0"/><stop offset="1"/></linearGradient><radialGradient cx="-60.4224" cy="950.766" r="24.666" fx="-60.4224" fy="950.766" gradientUnits="userSpaceOnUse" id="XMLID_39_" gradientTransform="matrix(0.5311 0 0 0.5311 146.278 -355.989)"><stop offset="0" stop-color="#FFFFFF"/><stop offset="1" stop-color="#8A8A8A"/></radialGradient><linearGradient x1="-94.106" y1="953.659" x2="-94.106" y2="945.943" gradientUnits="userSpaceOnUse" id="XMLID_40_" gradientTransform="matrix(0.5311 0 0 0.5311 146.278 -355.989)"><stop offset="0" stop-color="#8A8A8A"/><stop offset="1" stop-color="#FFFFFF"/></linearGradient><radialGradient cx="-231.003" cy="1110.01" r="21.2643" fx="-231.003" fy="1110.01" gradientUnits="userSpaceOnUse" id="XMLID_41_" gradientTransform="matrix(0.5311 0 0 0.5311 146.278 -355.989)"><stop offset="0" stop-color="#FFFFFF"/><stop offset="1" stop-color="#8A8A8A"/></radialGradient><linearGradient x1="-133.975" y1="1117.66" x2="-133.975" y2="1098.61" gradientUnits="userSpaceOnUse" id="XMLID_42_" gradientTransform="matrix(0.5311 0 0 0.5311 146.278 -355.989)"><stop offset="0" stop-color="#8A8A8A"/><stop offset="1" stop-color="#FFFFFF"/></linearGradient><linearGradient x1="-198.51" y1="1113.46" x2="-198.51" y2="1104.28" gradientUnits="userSpaceOnUse" id="XMLID_43_" gradientTransform="matrix(0.5311 0 0 0.5311 146.278 -355.989)"><stop offset="0" stop-color="#8A8A8A"/><stop offset="1" stop-color="#FFFFFF"/></linearGradient><radialGradient cx="-136.469" cy="1113.8" r="29.0339" fx="-136.469" fy="1113.8" gradientUnits="userSpaceOnUse" id="XMLID_44_" gradientTransform="matrix(0.5311 0 0 0.5311 146.278 -355.989)"><stop offset="0" stop-color="#FFFFFF"/><stop offset="1" stop-color="#8A8A8A"/></radialGradient><linearGradient x1="-127.849" y1="1123.22" x2="-127.849" y2="1112.11" gradientUnits="userSpaceOnUse" id="XMLID_45_" gradientTransform="matrix(0.5311 0 0 0.5311 146.278 -355.989)"><stop offset="0"/><stop offset="1"/></linearGradient><linearGradient x1="-111.687" y1="1121.52" x2="-111.687" y2="1107.57" gradientUnits="userSpaceOnUse" id="XMLID_46_" gradientTransform="matrix(0.5311 0 0 0.5311 146.278 -355.989)"><stop offset="0"/><stop offset="1"/></linearGradient><linearGradient x1="-154.106" y1="1112.11" x2="-154.106" y2="1110.51" gradientUnits="userSpaceOnUse" id="XMLID_47_" gradientTransform="matrix(0.5311 0 0 0.5311 146.278 -355.989)"><stop offset="0" stop-color="#FFFFFF"/><stop offset="1" stop-color="#FFFFFF"/></linearGradient><radialGradient cx="-28.6626" cy="1119.99" r="24.5535" fx="-28.6626" fy="1119.99" gradientUnits="userSpaceOnUse" id="XMLID_48_" gradientTransform="matrix(0.5311 0 0 0.5311 146.278 -355.989)"><stop offset="0" stop-color="#FFFFFF"/><stop offset="1" stop-color="#8A8A8A"/></radialGradient><linearGradient x1="-63.6523" y1="1126.39" x2="-63.6523" y2="1111.99" gradientUnits="userSpaceOnUse" id="XMLID_49_" gradientTransform="matrix(0.5311 0 0 0.5311 146.278 -355.989)"><stop offset="0" stop-color="#8A8A8A"/><stop offset="1" stop-color="#FFFFFF"/></linearGradient><radialGradient cx="-153.993" cy="1202.95" r="18.0899" fx="-153.993" fy="1202.95" gradientUnits="userSpaceOnUse" id="XMLID_50_" gradientTransform="matrix(0.5311 0 0 0.5311 146.278 -355.989)"><stop offset="0" stop-color="#FFFFFF"/><stop offset="1" stop-color="#8A8A8A"/></radialGradient><linearGradient x1="-61.7256" y1="1215.77" x2="-61.7256" y2="1202.05" gradientUnits="userSpaceOnUse" id="XMLID_51_" gradientTransform="matrix(0.5311 0 0 0.5311 146.278 -355.989)"><stop offset="0" stop-color="#8A8A8A"/><stop offset="1" stop-color="#FFFFFF"/></linearGradient><linearGradient x1="-121.838" y1="1214.52" x2="-121.838" y2="1203.63" gradientUnits="userSpaceOnUse" id="XMLID_52_" gradientTransform="matrix(0.5311 0 0 0.5311 146.278 -355.989)"><stop offset="0" stop-color="#8A8A8A"/><stop offset="1" stop-color="#FFFFFF"/></linearGradient><radialGradient cx="-63.313" cy="1217.08" r="31.9822" fx="-63.313" fy="1217.08" gradientUnits="userSpaceOnUse" id="XMLID_53_" gradientTransform="matrix(0.5311 0 0 0.5311 146.278 -355.989)"><stop offset="0" stop-color="#FFFFFF"/><stop offset="1" stop-color="#8A8A8A"/></radialGradient><radialGradient cx="46.9307" cy="1219.17" r="19.5065" fx="46.9307" fy="1219.17" gradientUnits="userSpaceOnUse" id="XMLID_54_" gradientTransform="matrix(0.5311 0 0 0.5311 146.278 -355.989)"><stop offset="0" stop-color="#FFFFFF"/><stop offset="1" stop-color="#8A8A8A"/></radialGradient><linearGradient x1="-64.335" y1="1227" x2="-64.335" y2="1217.7" gradientUnits="userSpaceOnUse" id="XMLID_55_" gradientTransform="matrix(0.5311 0 0 0.5311 146.278 -355.989)"><stop offset="0"/><stop offset="1"/></linearGradient><linearGradient x1="-35.8662" y1="1221.78" x2="-35.8662" y2="1209.31" gradientUnits="userSpaceOnUse" id="XMLID_56_" gradientTransform="matrix(0.5311 0 0 0.5311 146.278 -355.989)"><stop offset="0"/><stop offset="1"/></linearGradient><linearGradient x1="-63.1426" y1="1211.91" x2="-63.1426" y2="1207.95" gradientUnits="userSpaceOnUse" id="XMLID_57_" gradientTransform="matrix(0.5311 0 0 0.5311 146.278 -355.989)"><stop offset="0"/><stop offset="1"/></linearGradient><linearGradient x1="12.8481" y1="1228.47" x2="12.8481" y2="1212.94" gradientUnits="userSpaceOnUse" id="XMLID_58_" gradientTransform="matrix(0.5311 0 0 0.5311 146.278 -355.989)"><stop offset="0" stop-color="#8A8A8A"/><stop offset="1" stop-color="#FFFFFF"/></linearGradient><path d="M78.129 6.745 71.201 7.83 63.611 10.481 58.792 12.71 51.383 18.131 46.021 22.651 38.008 31.446 31.563 40.3 24.334 53.193 20.117 63.132 16.08 73.797 11.623 87.954 8.247 104.52 5.958 122.111 4.332 147.05 5.116 161.509 5.959 174.341 8.248 192.775 11.502 207.234 16.261 223.38 21.984 236.994 29.213 250.608 38.008 263.44 45.538 271.573 50.177 275.79 54.817 279.465 60.057 282.718 65.299 285.187 69.997 286.392 74.636 287.659 80.178 288.561 85.298 289.104 94.153 288.261 106.142 215.246 100.6 12.166 85.418 6.022 78.129 6.745Z" stroke="#000000" stroke-width="0.72" stroke-linejoin="bevel" stroke-miterlimit="2.4142" fill="url(#XMLID_1_)" fill-rule="evenodd" clip-rule="evenodd"/><path d="M87.106 5.781 80.298 7.107 74.273 8.915 67.647 11.867 62.044 15.421 56.381 19.999 50.779 25.06 43.55 33.914 38.129 41.928 31.563 53.193 26.743 64.94 21.743 78.918 17.646 94.94 14.754 110.965 12.345 131.87 12.345 159.099 13.128 173.498 15.478 191.992 18.732 206.45 22.768 219.223 28.371 235.246 33.913 246.633 38.853 255.428 44.395 262.657 53.191 272.297 57.649 276.274 62.107 279.706 67.649 283.019 73.252 285.911 80.542 288.262 84.819 289.105 90 289.345 96.566 281.935 109.458 29.158 87.106 5.781Z" stroke="#000000" stroke-width="0.72" stroke-linejoin="bevel" stroke-miterlimit="2.4142" fill="url(#XMLID_2_)" fill-rule="evenodd" clip-rule="evenodd"/><path d="M95.298 5.119 86.864 5.781 79.695 8.191 72.466 12.046 64.152 17.83 57.225 24.455 49.935 33.131 43.79 42.469 38.85 51.022 34.392 60.24 28.368 76.445 23.428 96.507 20.115 115.001 18.548 134.098 18.308 150.905 18.73 159.821 19.573 171.148 21.139 185.546 24.332 202.412 27.585 216.028 33.91 233.739 41.2 248.076 46.803 257.897 56.261 269.764 64.453 277.294 68.248 280.306 72.165 282.896 75.9 284.945 79.695 286.631 86.684 289.102 95.66 290.187 98.551 290.488 131.022 236.992 108.552 33.912 95.298 5.119Z" stroke="#000000" stroke-width="0.72" stroke-linejoin="bevel" stroke-miterlimit="2.4142" fill="url(#XMLID_3_)" fill-rule="evenodd" clip-rule="evenodd"/><path d="M102.95 4.999 98.13 4.999 94.153 5.781 87.768 7.77 81.322 10.6 75.057 14.878 70.057 18.613 63.671 25.058 58.49 31.202 54.032 37.528 48.429 46.686 41.983 58.795 36.379 75.663 33.909 85 31.921 95 28.126 114.157 26.801 125.543 25.957 136.627 25.656 141.507 25.656 148.676 25.596 160.003 25.957 167.895 27.584 183.135 29.21 194.341 32.403 207.234 37.222 223.38 42.764 238.56 52.404 256.271 62.825 268.982 67.644 273.921 72.523 278.14 81.319 284.404 86.681 287.176 91.741 289.104 95.717 290.189 99.753 290.731 171.623 298.744 179.154 1.204 102.95 4.999Z" stroke="#000000" stroke-width="0.72" stroke-linejoin="bevel" stroke-miterlimit="2.4142" fill="url(#XMLID_4_)" fill-rule="evenodd" clip-rule="evenodd"/><path d="M141.686 26.144 59.695 29.818 58.069 31.926 55.117 35.843 53.912 37.711 142.59 34.818 141.686 26.144Z" fill="url(#XMLID_5_)" fill-rule="evenodd" clip-rule="evenodd"/><path d="M112.83 79.157 34.815 81.085 32.164 90.784 29.996 100.182 28.369 109.158 27.285 118.075 26.502 128.497 108.01 130.184 112.83 79.157Z" fill="url(#XMLID_6_)" fill-rule="evenodd" clip-rule="evenodd"/><path d="M101.202 138.917 25.899 137.894 25.417 149.038 25.417 156.206 25.778 163.858 106.082 164.821 101.202 138.917Z" fill="url(#XMLID_7_)" fill-rule="evenodd" clip-rule="evenodd"/><path d="M252.412 50.24 256.628 50.24 257.653 50.24 258.136 50.422 258.738 50.542 259.218 51.265 259.218 51.626 258.979 52.41 258.738 52.771 258.014 53.011 257.351 53.193 252.593 53.193 252.412 50.24Z" stroke="#000000" stroke-width="0.72" stroke-linejoin="bevel" stroke-miterlimit="2.4142" fill="url(#XMLID_8_)" fill-rule="evenodd" clip-rule="evenodd"/><path d="M271.628 148.798 275.785 148.798 276.871 148.798 277.293 148.858 277.834 149.038 278.256 149.761 278.256 150.124 278.135 150.906 277.834 151.267 277.171 151.449 276.388 151.629 271.691 151.629 271.628 148.798Z" stroke="#000000" stroke-width="0.72" stroke-linejoin="bevel" stroke-miterlimit="2.4142" fill="url(#XMLID_9_)" fill-rule="evenodd" clip-rule="evenodd"/><path d="M255.845 239.222 260.063 239.222 261.148 239.222 261.629 239.402 262.17 239.524 262.593 240.247 262.593 240.669 262.412 241.39 262.17 241.873 261.447 242.053 260.723 242.174 255.966 242.174 255.845 239.222Z" stroke="#000000" stroke-width="0.72" stroke-linejoin="bevel" stroke-miterlimit="2.4142" fill="url(#XMLID_10_)" fill-rule="evenodd" clip-rule="evenodd"/><path d="M171.504 1.686 166.083 2.529 161.323 4.215 156.806 6.626 150.961 9.818 145.539 14.036 140.118 18.796 131.743 28.072 124.997 37.35 117.406 50.784 113.009 61.387 108.732 72.533 104.093 87.532 100.539 104.883 98.008 123.437 96.442 149.703 97.225 164.402 98.008 178.018 100.539 197.355 103.911 212.777 108.973 229.585 114.936 243.922 122.467 258.201 130.961 271.696 137.408 279.947 142.165 285.188 147.347 289.646 153.371 293.803 158.974 296.574 163.011 297.84 168.071 298.623 176.024 299.466 182.106 300.009 189.275 300.672 203.192 221.03 197.229 7.649 183.252 1.082 171.504 1.686Z" stroke="#000000" stroke-width="0.72" stroke-linejoin="bevel" stroke-miterlimit="2.4142" fill="url(#XMLID_11_)" fill-rule="evenodd" clip-rule="evenodd"/><path d="M183.795 1.082 174.818 2.407 168.433 4.577 162.227 7.408 155.661 11.927 150.781 15.963 145.18 21.264 137.709 30.602 131.984 38.915 124.997 50.783 119.876 63.131 114.635 78.072 110.418 94.82 107.226 111.688 104.816 133.737 104.816 161.869 105.538 177.171 108.008 196.689 111.503 211.931 115.478 225.847 121.624 242.174 127.589 254.041 132.587 263.319 137.949 271.452 146.323 281.933 152.226 287.717 158.613 292.597 165.24 296.272 170.843 298.44 177.289 299.585 189.275 300.73 193.072 291.15 206.505 25.48 183.795 1.082Z" stroke="#000000" stroke-width="0.72" stroke-linejoin="bevel" stroke-miterlimit="2.4142" fill="url(#XMLID_12_)" fill-rule="evenodd" clip-rule="evenodd"/><path d="M194.458 0.359 183.193 1.082 175.482 3.553 167.77 7.529 159.336 13.675 152.048 20.662 144.336 29.698 137.89 39.638 132.587 48.675 128.01 58.315 121.624 75.362 116.442 96.508 113.009 115.905 111.382 136.207 111.081 153.496 111.503 162.834 112.406 174.703 114.093 189.763 117.406 207.474 120.839 221.873 127.588 240.547 134.877 256.451 140.238 265.85 149.093 278.622 156.504 286.574 163.129 291.815 167.226 294.165 171.445 296.334 176.866 298.623 183.493 300.25 192.047 301.213 195.902 301.514 229.336 243.921 205.602 30.602 194.458 0.359Z" stroke="#000000" stroke-width="0.72" stroke-linejoin="bevel" stroke-miterlimit="2.4142" fill="url(#XMLID_13_)" fill-rule="evenodd" clip-rule="evenodd"/><path d="M197.289 0.299 202.591 0.962 212.894 4.336 221.448 9.156 231.207 16.988 238.919 25.481 246.81 36.445 253.62 47.83 257.596 56.928 264.284 74.459 269.705 93.314 272.838 110.845 275.005 132.954 276.09 151.388 275.005 164.943 273.923 182.654 270.909 202.053 267.236 218.56 261.932 233.74 257.053 245.788 251.209 257.476 243.861 269.223 235.124 280.005 227.353 287.717 220.606 293.078 211.57 297.598 204.641 300.007 200.305 301.271 195.244 301.513 188.435 300.368 181.206 298.199 174.278 294.644 165.362 288.018 157.289 280.005 148.013 267.595 139.94 254.04 135.602 244.824 131.626 234.944 125.722 215.907 121.506 198.074 118.193 171.748 117.41 145.602 118.374 122.168 122.168 99.817 127.711 78.069 134.759 58.792 139.459 48.731 144.459 39.273 149.218 31.863 154.7 24.273 160.062 18.49 166.326 12.948 175.784 6.2 182.593 3.066 189.523 0.959 194.28 0.356 197.289 0.299Z" stroke="#000000" stroke-width="0" stroke-linejoin="bevel" stroke-miterlimit="2.4142" fill="url(#XMLID_14_)" fill-rule="evenodd" clip-rule="evenodd"/><path d="M192.771 297.898 188.976 297.356 181.867 295.187 174.939 291.692 167.109 285.186 159.216 277.416 150.482 265.306 142.89 252.717 138.612 242.898 134.938 233.258 129.275 214.582 125.119 197.053 122.047 171.388 121.265 145.845 122.166 122.833 125.963 100.904 131.204 79.639 134.216 70.059 137.769 60.541 142.29 50.48 147.228 40.721 151.749 33.612 156.93 26.504 161.691 21.081 167.171 15.6 176.87 9.155 183.195 5.961 189.881 3.974 194.46 3.371" stroke="#000000" stroke-width="0.72" stroke-linejoin="bevel" stroke-miterlimit="2.4142" fill="none" fill-rule="evenodd" clip-rule="evenodd"/><path d="M187.59 4.577 193.975 3.191 197.893 3.191 202.47 3.914 206.927 4.817 212.471 7.227 217.71 10.058 222.288 13.191 229.279 18.794 236.266 26.504 242.591 34.997 249.338 45.962 254.821 57.709 260.182 72.53 263.074 82.589 266.989 97.108 268.917 111.084 270.724 126.568 271.87 146.087 271.87 154.098 271.509 166.69 270.185 183.317 268.015 197.834 264.52 214.161 260.665 226.812 256.81 237.776 252.654 248.017 246.63 258.921 240.123 268.62 232.05 278.319 227.17 283.259 221.448 288.078 214.46 292.898 208.796 295.427 202.833 297.656 197.895 298.379 192.29 297.898 199.461 295.427 207.653 290.489 215.003 284.825 223.438 275.247 231.209 264.523 237.776 253.62 243.68 239.524 249.04 223.981 253.438 207.053 255.547 196.511 257.234 185.908 258.922 166.39 259.523 150.003 258.499 133.075 257.054 118.555 254.283 100.905 251.451 87.53 248.499 76.446 244.464 64.517 238.801 50.843 233.799 41.685 227.234 32.047 219.463 22.528 212.898 16.565 206.932 12.107 201.151 8.854 195.548 6.443 192.292 5.66 189.825 4.817 187.59 4.577Z" stroke="#000000" stroke-width="0.72" stroke-linejoin="bevel" stroke-miterlimit="2.4142" fill="url(#XMLID_15_)" fill-rule="evenodd" clip-rule="evenodd"/><path d="M58.852 12.709 61.804 12.709 67.587 11.744 72.948 10.721 76.201 9.817 81.562 7.286 76.381 7.467 70.9 7.649 66.624 8.854 62.768 10.782 58.852 12.709Z" stroke="#000000" stroke-width="0.72" stroke-linejoin="bevel" stroke-miterlimit="2.4142" fill="url(#XMLID_16_)" fill-rule="evenodd" clip-rule="evenodd"/><path d="M114.937 4.999 66.743 5.781 66.081 5.903 65.539 6.264 65.238 6.746 65.238 7.529 65.418 8.01 65.96 8.373 66.623 8.553 116.021 7.65 114.937 4.999Z" stroke="#000000" stroke-width="0.72" stroke-linejoin="bevel" stroke-miterlimit="2.4142" fill="url(#XMLID_17_)" fill-rule="evenodd" clip-rule="evenodd"/><path d="M73.371 9.156 72.287 9.516 70.6 9.999 68.733 10.36 66.986 10.54 66.022 10.662" stroke="#000000" stroke-width="0.72" stroke-linejoin="bevel" stroke-miterlimit="2.4142" fill="none" fill-rule="evenodd" clip-rule="evenodd"/><path d="M110.479 7.106 108.974 7.77 106.384 9.637 104.998 11.023 104.456 11.624 104.456 12.166 104.637 12.348 105.179 12.59 133.915 12.59 135.3 12.348 136.687 11.565 138.915 9.758 140.603 8.373 141.688 6.987 141.688 6.263 141.327 5.902 114.459 6.806 110.479 7.106Z" stroke="#000000" stroke-width="0.72" stroke-linejoin="bevel" stroke-miterlimit="2.4142" fill="url(#XMLID_18_)" fill-rule="evenodd" clip-rule="evenodd"/><path d="M110.179 8.373 110.239 6.566 110.721 4.157 111.082 3.131 112.167 2.288 113.01 2.048 123.191 1.143 125.601 1.143 137.046 2.831 138.433 3.071 138.793 3.433 139.154 4.158 139.636 6.867 139.516 7.651 137.346 9.277 136.744 9.638 125.056 10.843 122.888 10.843 110.417 8.855 110.177 8.735 110.177 8.373Z" stroke="#000000" stroke-width="0.72" stroke-linejoin="bevel" stroke-miterlimit="2.4142" fill="url(#XMLID_19_)" fill-rule="evenodd" clip-rule="evenodd"/><path d="M119.155 4.938 121.926 5 125.601 5.18 135.6 5.42 135.963 5.42 136.202 5.48 136.745 5.54 138.07 4.156 138.432 3.914 138.733 4.034 139.335 7.228 137.768 8.433 136.987 8.974 135.421 9.276 124.818 10.36 123.131 10.36 122.347 10.238 123.191 9.515 123.493 8.612 123.493 7.649 123.191 6.443 122.649 5.78 121.264 5.42 120.179 5.179 119.155 4.938Z" stroke="#000000" stroke-width="0.72" stroke-linejoin="bevel" stroke-miterlimit="2.4142" fill="url(#XMLID_20_)" fill-rule="evenodd" clip-rule="evenodd"/><path d="M111.504 4.276 117.407 4.697 117.588 4.757 117.407 4.757 115.478 4.757 113.069 4.515 111.563 4.395 111.322 4.335 111.322 4.275 111.504 4.275Z" stroke="#000000" stroke-width="0.72" stroke-linejoin="bevel" stroke-miterlimit="2.4142" fill-rule="evenodd" clip-rule="evenodd"/><path d="M124.697 1.985 130.902 2.588 136.143 3.311 136.444 3.552 136.203 3.792 135.421 4.093 128.252 3.913 123.612 3.671 120.902 3.43 122.106 3.068 123.07 2.828 123.552 2.587 124.095 2.166 124.335 1.984 124.697 1.984Z" stroke="#000000" stroke-width="0.72" stroke-linejoin="bevel" stroke-miterlimit="2.4142" fill="url(#XMLID_21_)" fill-rule="evenodd" clip-rule="evenodd"/><path d="M170.542 3.553 171.084 5.54 171.988 6.865 173.493 7.889 174.096 11.082 178.435 8.13 184.942 5.42 188.555 4.275 192.049 3.552 191.748 0.479 183.796 0.72 176.505 1.323 173.857 2.046 170.542 3.553Z" stroke="#000000" stroke-width="0.72" stroke-linejoin="bevel" stroke-miterlimit="2.4142" fill="url(#XMLID_22_)" fill-rule="evenodd" clip-rule="evenodd"/><path d="M173.493 7.83 176.446 5.962 181.386 3.553 187.892 1.324 191.145 0.721" stroke="#000000" stroke-width="0.72" stroke-linejoin="bevel" stroke-miterlimit="2.4142" fill="none" fill-rule="evenodd" clip-rule="evenodd"/><path d="M138.191 4.697 180.42 1.444 189.52 0.963 190.362 1.203 190.964 1.746 190.964 2.287 190.964 2.529 190.904 3.192 190.121 3.614 189.52 3.614 138.793 7.107 138.19 7.047 137.767 6.626 137.588 5.782 137.709 5.18 138.191 4.697Z" stroke="#000000" stroke-width="0.72" stroke-linejoin="bevel" stroke-miterlimit="2.4142" fill="url(#XMLID_23_)" fill-rule="evenodd" clip-rule="evenodd"/><path d="M176.264 1.686 175.482 1.986 174.939 2.469 174.879 3.07 174.879 3.553 174.939 4.157 175.18 4.397" stroke="#000000" stroke-width="0.72" stroke-linejoin="bevel" stroke-miterlimit="2.4142" fill="none" fill-rule="evenodd" clip-rule="evenodd"/><path d="M26.742 48.794 29.152 50 31.019 51.625 32.525 53.975 33.128 56.807 33.189 60.181 32.286 63.131 30.598 66.024 28.912 68.133 26.382 70.181 23.129 71.447 19.936 72.17 16.743 72.17 19.032 65.783 21.261 59.881 24.513 52.652 26.742 48.794Z" stroke="#000000" stroke-width="0.72" stroke-linejoin="bevel" stroke-miterlimit="2.4142" fill="url(#XMLID_24_)" fill-rule="evenodd" clip-rule="evenodd"/><path d="M132.108 76.748 129.336 73.614 126.505 71.928 124.396 69.82 122.952 66.628 122.348 62.29 122.952 58.555 124.819 54.882 127.89 51.628 132.469 49.158 136.565 48.557 139.397 48.557 142.048 51.569 139.758 56.207 137.229 62.473 133.916 71.147 132.108 76.748Z" stroke="#000000" stroke-width="0.72" stroke-linejoin="bevel" stroke-miterlimit="2.4142" fill="url(#XMLID_25_)" fill-rule="evenodd" clip-rule="evenodd"/><path d="M129.335 73.614 131.744 66.807 135.179 57.711 139.396 48.555" stroke="#000000" stroke-width="0.72" stroke-linejoin="bevel" stroke-miterlimit="2.4142" fill="none" fill-rule="evenodd" clip-rule="evenodd"/><path d="M27.043 51.866 28.369 52.711 29.212 53.916 29.694 54.881 30.056 56.086" stroke="#000000" stroke-width="0.72" stroke-linejoin="bevel" stroke-miterlimit="2.4142" fill="none" fill-rule="evenodd" clip-rule="evenodd"/><path d="M65.298 56.205 65.719 55.181 66.563 54.639 67.768 54.338 91.443 54.036 92.709 54.097 93.373 54.882 93.373 55.725 91.204 65.243 90.42 66.206 89.276 66.749 64.756 66.749 63.189 66.447 62.527 65.363 62.527 64.158 65.298 56.205Z" stroke="#000000" stroke-width="0.72" stroke-linejoin="bevel" stroke-miterlimit="2.4142" fill="url(#XMLID_26_)" fill-rule="evenodd" clip-rule="evenodd"/><path d="M68.491 59.277 19.032 58.796 18.309 58.796 17.706 59.038 17.285 59.397 17.224 60.242 17.405 60.903 17.887 61.266 18.851 61.506 67.708 62.048 68.491 59.277Z" stroke="#000000" stroke-width="0.72" stroke-linejoin="bevel" stroke-miterlimit="2.4142" fill="url(#XMLID_27_)" fill-rule="evenodd" clip-rule="evenodd"/><path d="M31.743 61.688 31.441 61.386 31.201 60.964 31.14 60.482 31.14 60.06 31.201 59.579 31.441 59.098 31.683 58.976 31.924 58.856" stroke="#000000" stroke-width="0.72" stroke-linejoin="bevel" stroke-miterlimit="2.4142" fill="none" fill-rule="evenodd" clip-rule="evenodd"/><path d="M29.212 63.735 28.55 65.121 27.466 66.446 26.2 67.41 24.513 68.193 22.345 68.735 20.477 68.976" stroke="#000000" stroke-width="0.72" stroke-linejoin="bevel" stroke-miterlimit="2.4142" fill="none" fill-rule="evenodd" clip-rule="evenodd"/><path d="M64.334 63.735 62.527 62.53 61.563 61.687 61.202 60.542 61.322 59.577 61.804 57.108 62.767 56.385 63.671 56.084 75.177 54.879 77.225 54.757 79.033 54.879 89.454 55.36 90.599 55.721 91.925 57.347 92.106 58.25 91.202 62.77 90.72 63.493 89.454 63.733 76.744 64.275 66.503 63.973 64.334 63.735Z" stroke="#000000" stroke-width="0.72" stroke-linejoin="bevel" stroke-miterlimit="2.4142" fill="url(#XMLID_28_)" fill-rule="evenodd" clip-rule="evenodd"/><path d="M61.563 61.506 61.985 61.025 74.696 60.122 75.177 59.821 75.599 58.254 75.961 56.087 76.382 55.062 76.261 56.267 76.201 59.16 76.382 59.581 77.045 59.942 88.491 60.425 88.973 60.665 90.298 63.134 90.298 63.436 88.973 63.498 76.502 63.977 67.527 63.737 64.514 63.497 63.852 63.133 62.527 62.35 61.985 61.808 61.563 61.506Z" stroke="#000000" stroke-width="0.72" stroke-linejoin="bevel" stroke-miterlimit="2.4142" fill="url(#XMLID_29_)" fill-rule="evenodd" clip-rule="evenodd"/><path d="M89.455 59.939 89.516 58.734 90.118 56.566 90.299 56.264 90.6 56.264 91.684 57.83 91.744 58.553 91.202 62.047 90.96 62.047 90.66 61.807 89.575 60.423 89.455 59.939Z" stroke="#000000" stroke-width="0.72" stroke-linejoin="bevel" stroke-miterlimit="2.4142" fill="url(#XMLID_30_)" fill-rule="evenodd" clip-rule="evenodd"/><path d="M78.371 56.444 80.66 56.264 86.082 56.566 88.672 56.807 88.913 56.928 88.913 57.349 88.189 57.591 86.262 57.711 85.297 58.253 84.334 58.495 82.406 58.495 80.237 58.495 78.791 58.073 78.249 57.592 77.707 57.169 77.707 56.809 78.371 56.444Z" stroke="#000000" stroke-width="0.72" stroke-linejoin="bevel" stroke-miterlimit="2.4142" fill="url(#XMLID_31_)" fill-rule="evenodd" clip-rule="evenodd"/><path d="M90.901 57.71 134.756 56.264 138.491 56.264 139.818 56.626 140 57.229 140 57.831 139.638 58.796 139.035 59.157 137.711 59.337 91.203 60.121 90.96 60.121 90.6 59.88 90.419 59.397 90.359 58.796 90.419 58.194 90.901 57.71Z" stroke="#000000" stroke-width="0.72" stroke-linejoin="bevel" stroke-miterlimit="2.4142" fill="url(#XMLID_32_)" fill-rule="evenodd" clip-rule="evenodd"/><path d="M123.431 56.626 122.951 56.868 122.528 57.591 122.528 58.796 122.649 59.277 122.951 59.578 123.132 59.638" stroke="#000000" stroke-width="0.72" stroke-linejoin="bevel" stroke-miterlimit="2.4142" fill="none" fill-rule="evenodd" clip-rule="evenodd"/><path d="M125.36 60.783 125.179 62.591 125.48 64.578 126.203 66.807 127.409 68.193" stroke="#000000" stroke-width="0.72" stroke-linejoin="bevel" stroke-miterlimit="2.4142" fill="none" fill-rule="evenodd" clip-rule="evenodd"/><path d="M126.805 55.362 127.889 54.338 129.637 53.253 131.324 52.41 133.012 51.867 134.757 51.567" stroke="#000000" stroke-width="0.72" stroke-linejoin="bevel" stroke-miterlimit="2.4142" fill="none" fill-rule="evenodd" clip-rule="evenodd"/><path d="M42.285 144.762 41.924 145.846 41.08 153.436 41.26 155.124 41.802 156.146 43.127 156.388 68.008 156.63 70.237 156.388 71.081 155.425 71.924 146.387 71.864 145.303 71.443 144.34 70.84 143.978 69.997 143.918 64.394 143.918 44.996 143.918 43.55 143.918 42.285 144.762Z" stroke="#000000" stroke-width="0.72" stroke-linejoin="bevel" stroke-miterlimit="2.4142" fill="url(#XMLID_33_)" fill-rule="evenodd" clip-rule="evenodd"/><path d="M4.935 135.665 8.55 136.749 11.381 138.135 13.911 140.605 15.417 143.074 15.96 145.303 16.261 147.412 16.2 149.581 15.477 152.473 13.248 155.847 10.056 157.954 7.104 159.099 4.935 159.341 4.393 151.569 4.393 144.46 4.574 141.268 4.935 135.665Z" stroke="#000000" stroke-width="0.72" stroke-linejoin="bevel" stroke-miterlimit="2.4142" fill="url(#XMLID_34_)" fill-rule="evenodd" clip-rule="evenodd"/><path d="M44.635 147.352 1.863 145.303 0.839 145.846 0.297 146.629 0.357 147.532 0.658 148.255 1.502 148.557 49.034 150.364 44.635 147.352Z" stroke="#000000" stroke-width="0.72" stroke-linejoin="bevel" stroke-miterlimit="2.4142" fill="url(#XMLID_35_)" fill-rule="evenodd" clip-rule="evenodd"/><path d="M6.802 138.375 8.91 139.218 10.898 140.544 12.103 142.05 13.187 143.436" stroke="#000000" stroke-width="0.72" stroke-linejoin="bevel" stroke-miterlimit="2.4142" fill="none" fill-rule="evenodd" clip-rule="evenodd"/><path d="M7.345 156.508 9.212 155.725 10.538 154.882 12.044 153.737 12.887 152.473 13.429 151.388 13.79 150.364" stroke="#000000" stroke-width="0.72" stroke-linejoin="bevel" stroke-miterlimit="2.4142" fill="none" fill-rule="evenodd" clip-rule="evenodd"/><path d="M15.417 145.906 15.116 146.207 14.875 146.629 14.815 147.11 14.815 147.714 14.875 148.317 15.116 148.739 15.357 148.859 15.899 149.039" stroke="#000000" stroke-width="0.72" stroke-linejoin="bevel" stroke-miterlimit="2.4142" fill="none" fill-rule="evenodd" clip-rule="evenodd"/><path d="M42.526 145.786 41.623 145.846 41.081 146.088 40.78 146.63 40.479 147.954 40.057 150.365 40.238 151.268 40.78 151.931 42.767 153.377 43.792 153.678 55.118 154.581 62.588 154.099 70.239 153.556 70.479 153.496 70.781 152.954 71.202 147.773 70.841 147.231 69.275 146.145 68.914 145.965 56.383 145.302 44.515 145.604 42.526 145.786Z" stroke="#000000" stroke-width="0.72" stroke-linejoin="bevel" stroke-miterlimit="2.4142" fill="url(#XMLID_36_)" fill-rule="evenodd" clip-rule="evenodd"/><path d="M40.598 151.087 41.924 152.172 42.766 152.834 43.43 153.255 45.599 153.497 54.937 154.1 58.129 154.04 69.997 153.317 69.997 153.197 68.371 151.63 68.129 151.63 62.527 151.63 56.924 151.63 56.02 151.389 55.599 150.786 55.418 148.918 55.659 146.809 56.141 146.087 56.743 145.604 55.659 145.604 55.117 145.786 54.876 146.145 54.575 148.316 54.153 150.124 53.732 150.906 53.069 151.087 49.214 151.267 42.165 150.906 41.563 150.906 40.96 150.906 40.779 151.026 40.598 151.087Z" stroke="#000000" stroke-width="0.72" stroke-linejoin="bevel" stroke-miterlimit="2.4142" fill="url(#XMLID_37_)" fill-rule="evenodd" clip-rule="evenodd"/><path d="M43.309 145.966 54.033 145.846 54.333 145.846 54.394 146.088 54.153 146.088 47.466 146.088 45.177 146.088 43.309 145.966Z" stroke="#000000" stroke-width="0.72" stroke-linejoin="bevel" stroke-miterlimit="2.4142" fill-rule="evenodd" clip-rule="evenodd"/><path d="M68.913 150.906 70.358 152.172 70.6 151.93 70.901 148.015 70.359 147.292 69.154 146.629 68.914 146.629 68.733 148.436 68.733 150.002 68.672 150.424 68.913 150.906Z" stroke="#000000" stroke-width="0.72" stroke-linejoin="bevel" stroke-miterlimit="2.4142" fill-rule="evenodd" clip-rule="evenodd"/><path d="M67.226 146.688 62.406 146.447 58.731 146.327 57.767 146.327 57.587 146.447 58.129 146.688 58.972 146.93 59.575 147.653 59.575 148.195 59.817 148.798 60.78 149.279 62.044 149.401 63.671 149.401 64.634 149.761 65.718 149.581 66.682 149.279 67.465 148.798 67.706 148.317 67.766 147.533 67.585 146.931 67.226 146.688Z" stroke="#000000" stroke-width="0.72" stroke-linejoin="bevel" stroke-miterlimit="2.4142" fill="url(#XMLID_38_)" fill-rule="evenodd" clip-rule="evenodd"/><path d="M121.805 135.906 117.951 135.906 114.395 136.749 111.263 138.677 108.974 141.146 107.286 144.218 106.562 149.279 106.804 152.411 108.009 155.785 109.756 158.076 111.985 159.942 114.214 161.328 117.95 162.111 121.804 160.605 121.564 148.739 121.624 139.882 121.805 135.906Z" stroke="#000000" stroke-width="0.72" stroke-linejoin="bevel" stroke-miterlimit="2.4142" fill="url(#XMLID_39_)" fill-rule="evenodd" clip-rule="evenodd"/><path d="M117.83 135.906 117.589 145.244 117.951 162.292" stroke="#000000" stroke-width="0.72" stroke-linejoin="bevel" stroke-miterlimit="2.4142" fill="none" fill-rule="evenodd" clip-rule="evenodd"/><path d="M69.997 147.895 120.722 146.629 121.505 146.447 122.408 146.688 122.649 146.93 123.131 147.653 123.131 148.195 123.131 148.738 122.829 149.279 122.165 149.76 121.624 149.822 70.297 150.545 69.755 150.303 69.454 149.76 69.454 149.279 69.454 148.738 69.755 148.195 69.997 147.895Z" stroke="#000000" stroke-width="0.72" stroke-linejoin="bevel" stroke-miterlimit="2.4142" fill="url(#XMLID_40_)" fill-rule="evenodd" clip-rule="evenodd"/><path d="M115.179 139.099 113.792 139.762 112.167 141.268 111.021 142.593 110.239 144.219 109.878 145.545" stroke="#000000" stroke-width="0.72" stroke-linejoin="bevel" stroke-miterlimit="2.4142" fill="none" fill-rule="evenodd" clip-rule="evenodd"/><path d="M109.515 150.906 109.877 153.197 111.021 155.426 112.287 157.052 114.336 158.558 115.722 159.161" stroke="#000000" stroke-width="0.72" stroke-linejoin="bevel" stroke-miterlimit="2.4142" fill="none" fill-rule="evenodd" clip-rule="evenodd"/><path d="M106.324 146.93 106.023 147.11 105.781 147.593 105.539 148.195 105.539 148.616 105.539 149.279 105.842 149.701 106.082 149.943 106.324 150.003" stroke="#000000" stroke-width="0.72" stroke-linejoin="bevel" stroke-miterlimit="2.4142" fill="none" fill-rule="evenodd" clip-rule="evenodd"/><path d="M15.959 222.294 19.573 222.294 22.344 222.715 25.958 224.642 28.066 226.328 29.512 228.016 30.657 231.089 31.199 233.981 30.837 237.354 29.753 240.486 28.127 242.897 26.981 244.221 26.078 244.884 22.523 238.317 19.572 231.51 17.283 225.847 15.959 222.294Z" stroke="#000000" stroke-width="0.72" stroke-linejoin="bevel" stroke-miterlimit="2.4142" fill="url(#XMLID_41_)" fill-rule="evenodd" clip-rule="evenodd"/><path d="M61.502 234.583 60.117 231.692 59.575 230.186 59.274 228.86 59.395 228.196 59.817 227.715 60.298 227.535 87.527 227.535 88.19 227.715 88.732 228.498 89.094 229.101 90.961 236.451 90.901 237.354 90.057 237.654 71.201 237.654 61.502 234.583Z" stroke="#000000" stroke-width="0.72" stroke-linejoin="bevel" stroke-miterlimit="2.4142" fill="url(#XMLID_42_)" fill-rule="evenodd" clip-rule="evenodd"/><path d="M62.527 232.295 17.887 230.546 16.803 230.667 16.382 231.028 15.961 231.691 15.9 232.294 15.9 232.836 15.961 233.317 16.382 233.678 16.743 233.858 17.646 234.04 65.78 235.424 62.527 232.295Z" stroke="#000000" stroke-width="0.72" stroke-linejoin="bevel" stroke-miterlimit="2.4142" fill="url(#XMLID_43_)" fill-rule="evenodd" clip-rule="evenodd"/><path d="M19.574 224.342 21.742 224.765 23.971 225.728 25.598 226.873 26.621 228.017" stroke="#000000" stroke-width="0.72" stroke-linejoin="bevel" stroke-miterlimit="2.4142" fill="none" fill-rule="evenodd" clip-rule="evenodd"/><path d="M28.671 235.487 28.55 236.811 28.188 238.739 27.707 240.246 26.804 241.389" stroke="#000000" stroke-width="0.72" stroke-linejoin="bevel" stroke-miterlimit="2.4142" fill="none" fill-rule="evenodd" clip-rule="evenodd"/><path d="M31.803 231.029 31.14 231.269 30.839 232.054 30.658 232.776 30.839 233.439 31.14 233.86 31.441 234.162 31.923 234.403" stroke="#000000" stroke-width="0.72" stroke-linejoin="bevel" stroke-miterlimit="2.4142" fill="none" fill-rule="evenodd" clip-rule="evenodd"/><path d="M71.985 229.944 61.321 230.366 60.478 230.667 58.37 233.498 58.37 233.859 58.37 234.462 59.575 238.679 60.238 239.222 61.081 239.644 72.707 241.15 74.816 241.15 86.263 241.27 86.804 240.909 88.973 237.837 89.214 236.813 89.214 236.09 88.009 232.055 87.467 231.27 86.563 231.03 75.117 230.126 73.31 229.946 71.985 229.946Z" stroke="#000000" stroke-width="0.72" stroke-linejoin="bevel" stroke-miterlimit="2.4142" fill="url(#XMLID_44_)" fill-rule="evenodd" clip-rule="evenodd"/><path d="M70.961 234.824 71.744 235.969 72.166 237.596 72.467 238.559 72.467 239.163 72.467 239.644 71.985 240.065 71.563 240.305 82.286 240.607 85.418 240.427 85.78 240.305 85.78 239.825 84.574 235.969 84.033 235.066 83.611 235.066 71.743 234.704 70.961 234.824Z" stroke="#000000" stroke-width="0.72" stroke-linejoin="bevel" stroke-miterlimit="2.4142" fill="url(#XMLID_45_)" fill-rule="evenodd" clip-rule="evenodd"/><path d="M87.467 232.295 85.178 234.824 85.178 235.245 86.021 237.835 86.563 239.703 86.984 239.462 88.731 236.571 88.731 235.727 87.888 232.595 87.767 232.295 87.467 232.295Z" stroke="#000000" stroke-width="0.72" stroke-linejoin="bevel" stroke-miterlimit="2.4142" fill="url(#XMLID_46_)" fill-rule="evenodd" clip-rule="evenodd"/><path d="M69.695 234.462 59.333 233.859 58.972 233.859 58.972 234.222 59.273 234.343 69.213 234.704 69.694 234.704 69.875 234.704 69.695 234.462Z" stroke="#000000" stroke-width="0.72" stroke-linejoin="bevel" stroke-miterlimit="2.4142" fill="url(#XMLID_47_)" fill-rule="evenodd" clip-rule="evenodd"/><path d="M132.77 225.848 129.697 228.74 127.048 229.583 125.481 230.426 124.096 231.51 122.469 233.981 121.505 236.993 121.385 240.005 122.166 243.017 123.553 245.126 125.119 246.992 127.59 248.981 130.903 250.788 135.965 251.751 139.036 251.933 140.724 247.777 137.892 241.089 135.363 234.401 134.158 230.424 132.77 225.848Z" stroke="#000000" stroke-width="0.72" stroke-linejoin="bevel" stroke-miterlimit="2.4142" fill="url(#XMLID_48_)" fill-rule="evenodd" clip-rule="evenodd"/><path d="M129.697 228.74 131.324 233.62 133.554 239.704 136.624 246.993 138.913 251.934" stroke="#000000" stroke-width="0.72" stroke-linejoin="bevel" stroke-miterlimit="2.4142" fill="none" fill-rule="evenodd" clip-rule="evenodd"/><path d="M87.708 234.644 136.324 239.102 137.288 239.222 137.95 239.402 138.252 239.763 138.434 240.606 138.434 241.089 138.133 241.932 137.711 242.112 137.229 242.293 87.649 237.354 86.986 237.053 86.685 236.631 86.504 235.908 86.804 235.125 87.227 234.644 87.708 234.644Z" stroke="#000000" stroke-width="0.72" stroke-linejoin="bevel" stroke-miterlimit="2.4142" fill="url(#XMLID_49_)" fill-rule="evenodd" clip-rule="evenodd"/><path d="M120.781 237.655 120.42 238.078 120.18 238.62 120.06 239.223 120.06 239.463 120.241 240.066 120.421 240.306 120.542 240.488 120.723 240.608" stroke="#000000" stroke-width="0.72" stroke-linejoin="bevel" stroke-miterlimit="2.4142" fill="none" fill-rule="evenodd" clip-rule="evenodd"/><path d="M124.395 237.173 124.697 235.969 125.36 234.946 126.084 234.042 126.866 233.319 127.889 232.596" stroke="#000000" stroke-width="0.72" stroke-linejoin="bevel" stroke-miterlimit="2.4142" fill="none" fill-rule="evenodd" clip-rule="evenodd"/><path d="M125.36 243.137 126.022 244.342 127.228 245.608 128.553 246.873 130.361 247.716 132.047 248.319 133.253 248.561" stroke="#000000" stroke-width="0.72" stroke-linejoin="bevel" stroke-miterlimit="2.4142" fill="none" fill-rule="evenodd" clip-rule="evenodd"/><path d="M54.875 279.524 61.321 283.561 66.803 285.61 70.057 286.391 74.093 285.61 73.249 284.344 70.719 282.718 68.429 281.694 65.056 280.61 62.526 280.007 59.574 279.706 54.875 279.524Z" stroke="#000000" stroke-width="0.72" stroke-linejoin="bevel" stroke-miterlimit="2.4142" fill="url(#XMLID_50_)" fill-rule="evenodd" clip-rule="evenodd"/><path d="M98.13 282.476 96.744 282.717 96.202 283.56 96.202 284.825 101.081 288.62 102.829 288.861 129.517 289.764 130.12 289.764 130.783 288.921 130.301 288.138 127.71 284.946 126.625 283.62 125.481 282.897 123.432 282.476 103.07 282.476 98.13 282.476Z" stroke="#000000" stroke-width="0.72" stroke-linejoin="bevel" stroke-miterlimit="2.4142" fill="url(#XMLID_51_)" fill-rule="evenodd" clip-rule="evenodd"/><path d="M103.13 286.271 59.032 283.319 58.49 283.501 58.068 283.802 57.947 284.223 57.887 284.704 57.887 285.185 58.068 285.608 58.49 286.029 59.032 286.149 105.238 289.101 103.13 286.271Z" stroke="#000000" stroke-width="0.72" stroke-linejoin="bevel" stroke-miterlimit="2.4142" fill="url(#XMLID_52_)" fill-rule="evenodd" clip-rule="evenodd"/><path d="M60.78 281.392 62.285 281.392 64.334 281.875 66.262 282.477 67.407 283.019" stroke="#000000" stroke-width="0.72" stroke-linejoin="bevel" stroke-miterlimit="2.4142" fill="none" fill-rule="evenodd" clip-rule="evenodd"/><path d="M73.43 284.344 73.069 284.464 72.828 284.946 72.768 285.488 72.828 285.909 72.948 286.211 73.19 286.391 73.491 286.632" stroke="#000000" stroke-width="0.72" stroke-linejoin="bevel" stroke-miterlimit="2.4142" fill="none" fill-rule="evenodd" clip-rule="evenodd"/><path d="M108.009 284.705 98.37 285.368 97.828 285.548 97.286 285.909 95.659 290.547 95.659 291.27 96.02 291.572 99.454 294.102 99.754 294.342 111.442 296.03 113.55 296.272 115.237 296.272 127.466 294.464 128.008 294.342 128.672 293.499 129.635 289.645 126.924 286.211 126.562 285.73 125.839 285.368 113.068 284.645 109.092 284.645 108.009 284.705Z" stroke="#000000" stroke-width="0.72" stroke-linejoin="bevel" stroke-miterlimit="2.4142" fill="url(#XMLID_53_)" fill-rule="evenodd" clip-rule="evenodd"/><path d="M166.867 285.007 165.902 288.501 163.493 289.104 161.746 290.189 160.844 291.574 161.205 293.563 162.53 294.646 166.686 296.274 171.385 297.358 174.698 297.72 178.371 298.141 181.024 297.96 181.565 295.069 176.987 292.658 172.227 289.407 166.867 285.007Z" stroke="#000000" stroke-width="0.72" stroke-linejoin="bevel" stroke-miterlimit="2.4142" fill="url(#XMLID_54_)" fill-rule="evenodd" clip-rule="evenodd"/><path d="M165.902 288.5 166.927 289.343 169.457 291.27 173.013 293.801 176.025 295.549 178.553 296.935 180.782 297.898" stroke="#000000" stroke-width="0.72" stroke-linejoin="bevel" stroke-miterlimit="2.4142" fill="none" fill-rule="evenodd" clip-rule="evenodd"/><path d="M96.924 291.452 99.756 293.863 100.6 294.043 111.082 295.73 114.094 295.73 117.107 295.55 126.805 294.104 127.287 294.104 127.287 293.742 124.817 290.971 124.335 290.789 112.769 291.692 111.745 291.874 112.468 293.499 113.312 294.342 112.77 294.342 111.746 294.042 111.265 293.319 110.723 292.776 110.119 292.355 109.036 292.115 98.071 291.331 97.289 291.331 96.924 291.452Z" stroke="#000000" stroke-width="0.72" stroke-linejoin="bevel" stroke-miterlimit="2.4142" fill="url(#XMLID_55_)" fill-rule="evenodd" clip-rule="evenodd"/><path d="M126.083 286.333 125.479 289.585 125.479 290.127 127.648 292.959 128.009 292.959 128.25 292.959 128.973 289.646 128.009 288.14 126.563 286.392 126.503 286.333 126.083 286.333Z" stroke="#000000" stroke-width="0.72" stroke-linejoin="bevel" stroke-miterlimit="2.4142" fill="url(#XMLID_56_)" fill-rule="evenodd" clip-rule="evenodd"/><path d="M112.106 285.61 117.649 285.91 122.528 286.212 124.095 286.212 124.576 286.633 124.576 287.176 124.275 287.356 123.251 286.875 122.105 286.875 120.6 287.356 118.249 287.718 114.936 286.995 111.503 286.392 108.249 286.392 104.996 286.875 103.069 286.875 100.901 286.392 105.841 286.212 111.383 285.79 112.106 285.61Z" stroke="#000000" stroke-width="0.72" stroke-linejoin="bevel" stroke-miterlimit="2.4142" fill="url(#XMLID_57_)" fill-rule="evenodd" clip-rule="evenodd"/><path d="M127.589 288.26 172.409 292.777 176.566 293.32 178.252 293.561 178.914 293.863 179.216 294.464 179.337 295.427 179.095 296.272 178.553 296.513 177.71 296.513 127.589 291.09 127.287 290.729 126.865 290.427 126.865 289.886 126.865 289.102 127.287 288.559 127.589 288.26Z" stroke="#000000" stroke-width="0.72" stroke-linejoin="bevel" stroke-miterlimit="2.4142" fill="url(#XMLID_58_)" fill-rule="evenodd" clip-rule="evenodd"/><path d="M163.614 291.271 163.915 290.912 164.456 290.61 165.543 290.249" stroke="#000000" stroke-width="0.72" stroke-linejoin="bevel" stroke-miterlimit="2.4142" fill="none" fill-rule="evenodd" clip-rule="evenodd"/><path d="M169.637 296.031 171.083 296.273 173.013 296.514" stroke="#000000" stroke-width="0.72" stroke-linejoin="bevel" stroke-miterlimit="2.4142" fill="none" fill-rule="evenodd" clip-rule="evenodd"/><path d="M160.12 291.452 159.759 291.692 159.639 291.874 159.398 292.537 159.398 292.899 159.398 293.2 159.398 293.742 159.639 294.104 159.759 294.344 159.941 294.466 160.243 294.646" stroke="#000000" stroke-width="0.72" stroke-linejoin="bevel" stroke-miterlimit="2.4142" fill="none" fill-rule="evenodd" clip-rule="evenodd"/><path d="M79.876 5.54 79.395 5.54 79.093 5.781 78.791 6.144 78.671 6.686 78.791 7.288 78.791 7.651 79.093 8.011 79.214 8.133 79.395 8.313" stroke="#000000" stroke-width="0.72" stroke-linejoin="bevel" stroke-miterlimit="2.4142" fill="none" fill-rule="evenodd" clip-rule="evenodd"/><path d="M252.11 45.241 250.123 47.049" stroke="#000000" stroke-width="0.72" stroke-linejoin="bevel" stroke-miterlimit="2.4142" fill="none"/><path d="M258.436 59.277 256.269 61.266" stroke="#000000" stroke-width="0.72" stroke-linejoin="bevel" stroke-miterlimit="2.4142" fill="none"/><path d="M275.544 140.906 271.448 138.375" stroke="#000000" stroke-width="0.72" stroke-linejoin="bevel" stroke-miterlimit="2.4142" fill="none"/><path d="M271.569 161.026 275.244 161.811" stroke="#000000" stroke-width="0.72" stroke-linejoin="bevel" stroke-miterlimit="2.4142" fill="none"/><path d="M262.713 231.391 260.063 228.8" stroke="#000000" stroke-width="0.72" stroke-linejoin="bevel" stroke-miterlimit="2.4142" fill="none"/><path d="M255.002 249.884 252.652 247.777" stroke="#000000" stroke-width="0.72" stroke-linejoin="bevel" stroke-miterlimit="2.4142" fill="none"/></g></g></g></svg>