<?xml version="1.0" encoding="utf-8"?>
<!-- Generator: Adobe Illustrator 21.1.0, SVG Export Plug-In . SVG Version: 6.00 Build 0)  -->
<svg version="1.1"
	 id="svg2" inkscape:version="0.47 r22583" sodipodi:docname="afrikan_mask.svg" xmlns:cc="http://creativecommons.org/ns#" xmlns:dc="http://purl.org/dc/elements/1.1/" xmlns:inkscape="http://www.inkscape.org/namespaces/inkscape" xmlns:ns1="http://sozi.baierouge.fr" xmlns:rdf="http://www.w3.org/1999/02/22-rdf-syntax-ns#" xmlns:sodipodi="http://sodipodi.sourceforge.net/DTD/sodipodi-0.dtd" xmlns:svg="http://www.w3.org/2000/svg"
	 xmlns="http://www.w3.org/2000/svg" xmlns:xlink="http://www.w3.org/1999/xlink" x="0px" y="0px" viewBox="0 0 372 524.4"
	 style="enable-background:new 0 0 372 524.4;" xml:space="preserve">
<style type="text/css">
	.st0{fill:#CAC8C8;}
	.st1{fill:#5E3327;}
	.st2{fill:#724539;}
	.st3{fill:#49281F;}
	.st4{fill:#814C3A;}
	.st5{fill:#8E5647;}
	.st6{fill:#724336;}
	.st7{fill:#E9DD76;}
	.st8{fill:#EEE49A;}
	.st9{fill:#998C87;}
	.st10{fill:#453635;}
	.st11{fill:#696057;}
</style>
<sodipodi:namedview  bordercolor="#666666" borderopacity="1.0" gridtolerance="4" guidetolerance="5" id="base" inkscape:current-layer="layer2" inkscape:cx="128.00675" inkscape:cy="272.43592" inkscape:document-units="px" inkscape:guide-bbox="true" inkscape:pageopacity="0.0" inkscape:pageshadow="2" inkscape:snap-from-guide="false" inkscape:window-height="574" inkscape:window-maximized="1" inkscape:window-width="1024" inkscape:window-x="-1" inkscape:window-y="0" inkscape:zoom="0.7" objecttolerance="4" pagecolor="#ffffff" showgrid="true" showguides="true">
	</sodipodi:namedview>
<g>
	<g>
		<ellipse class="st0" cx="186.7" cy="432.5" rx="126.9" ry="27.3"/>
	</g>
	<g>
		<g>
			<path class="st1" d="M272.5,438.8l-27.8-131.5l-56.3,10.3l-56.2-10.3l-27.4,131.5c5.1,15.1,76.8,16.3,84,16.4v0c0,0-0.2,0,0,0
				c0.2,0,0,0,0,0v0C196.8,455.1,267.5,453.9,272.5,438.8z"/>
		</g>
	</g>
	<g>
		<g>
			<polygon class="st2" points="169.5,317.6 179,315.9 132.3,307.3 131.6,310.7 			"/>
		</g>
		<g>
			<path class="st2" d="M188.9,455.2C188.9,455.2,189,455.2,188.9,455.2C188.7,455.2,188.9,455.2,188.9,455.2z"/>
		</g>
		<g>
			<path class="st2" d="M244.8,307.3l-18.3,3.3l27.1,128.1c-4.2,12.4-52.5,15.4-74.1,16.2c4.7,0.2,8.1,0.2,9.4,0.2
				c7.9-0.1,78.6-1.4,83.7-16.4L244.8,307.3z"/>
		</g>
	</g>
	<g>
		<g>
			<g>
				<path class="st3" d="M163.1,313l-30.8-5.6l-27.7,131.5c2,6,14.5,9.8,29.3,12.2L163.1,313z"/>
			</g>
		</g>
	</g>
	<g>
		<g>
			<path class="st4" d="M185.8,116.2L63.4,105.5c0,0,10.6,56.8,10.6,84.9c0,28.1,14.8,144.5,111.8,141.5
				c97,3,111.8-113.4,111.8-141.5c0-28.1,10.7-84.9,10.7-84.9L185.8,116.2z"/>
		</g>
	</g>
	<g>
		<g>
			<path class="st5" d="M158.9,116.2l13.4-1.2l-109-9.4c0,0,0.2,0.8,0.4,2.4L158.9,116.2z"/>
		</g>
		<g>
			<path class="st5" d="M281,107.9c-2,11-10.2,57.8-10.2,82.5c0,20.1-7.6,95.3-47.1,135.7c63.2-23.7,74-111.7,74-135.7
				c0-28.1,10.7-84.9,10.7-84.9L281,107.9z"/>
		</g>
	</g>
	<g>
		<g>
			<g>
				<path class="st6" d="M98.3,190.4c0-24.9-8.3-72.2-10.2-82.8l-24.6-2.1c0,0,10.6,56.8,10.6,84.9c0,25.9,12.6,126.6,90.3,140.1
					C108.1,300.7,98.3,213.4,98.3,190.4z"/>
			</g>
		</g>
	</g>
	<g>
		<g>
			<path class="st7" d="M303.6,99.4l-8.5-12.6L258,86.4c-20.3-2.9-45.3-4.6-72.4-4.6c-22.4,0-43.4,1.2-61.4,3.2l-46-0.5L67.9,99.2
				c-2.9,2-4.5,4.2-4.5,6.4c0,13.1,54.7,23.8,122.2,23.8s122.2-10.6,122.2-23.8C307.7,103.4,306.3,101.4,303.6,99.4z"/>
		</g>
	</g>
	<g>
		<g>
			<ellipse class="st8" cx="186.3" cy="86.8" rx="108.8" ry="23.8"/>
		</g>
	</g>
	<g>
		<g>
			<path class="st9" d="M188.9,443L188.9,443C188.9,443,189,443,188.9,443C188.7,443,188.9,443,188.9,443L188.9,443
				c-7.1-0.1-69.3-1.2-82-13.5l-1.8,9.3c5.1,15.1,76.7,16.3,83.8,16.4v0c0,0-0.2,0,0,0c0.2,0,0,0,0,0v0c7.9-0.1,78.6-1.4,83.7-16.4
				l-1.9-9.3C257.9,441.8,195.2,443,188.9,443z"/>
		</g>
	</g>
	<g>
		<path class="st10" d="M198.8,141.4c-53.5,0-107.2-7.3-117.9-10.5c-19.4-5.7-19.6-22.1-19.6-22.3c0-1.3,1.1-2.4,2.4-2.4l0,0
			c1.3,0,2.4,1.1,2.4,2.4c0,0.5,0.3,13.1,16.2,17.8c9.1,2.7,44.5,7.6,85,9.5c35.4,1.7,84.1,1.5,115.5-8.9c0.1,0,0.3-0.1,0.4-0.1
			c0.8-0.1,20.8-3,22.2-21.4c0.1-1.3,1.2-2.3,2.5-2.2c1.3,0.1,2.3,1.2,2.2,2.5c-0.7,9.3-5.5,16.7-13.9,21.4
			c-5.6,3.2-10.9,4.1-12.1,4.3C261.5,138.9,230.2,141.4,198.8,141.4z"/>
	</g>
	<g>
		<path class="st10" d="M245,203.8c-0.7,0-1.4-0.3-1.9-0.9l-44.6-58.7l-47.6,58.5c-0.5,0.6-1.3,0.9-2,0.9c-0.8-0.1-1.5-0.5-1.9-1.2
			l-35.6-63.4l-35.3,51.2c-0.5,0.8-1.5,1.2-2.4,1c-0.9-0.2-1.7-0.8-1.9-1.7c-0.6-2.4-14.9-58.2-11.1-77c0.3-1.3,1.5-2.1,2.8-1.9
			c1.3,0.3,2.1,1.5,1.9,2.8c-2.9,14.6,6.3,55.4,9.8,69.8l34.4-50c0.5-0.7,1.2-1.1,2.1-1c0.8,0,1.6,0.5,2,1.2l35.7,63.6l47.4-58.2
			c0.5-0.6,1.2-0.9,1.9-0.9c0.7,0,1.4,0.4,1.8,0.9l44,58l29.5-65.3c0.4-0.9,1.2-1.3,2.2-1.3h0c0.9,0,1.8,0.4,2.2,1.3l19.3,42.6
			c5.7-24.6,12-58.4,9-65.6c-0.5-1.2,0.1-2.6,1.3-3.1c1.2-0.5,2.6,0.1,3.1,1.3c4.9,12-8.9,68.8-10.4,75.3c-0.2,1-1.1,1.7-2.1,1.8
			c-1,0.1-2-0.5-2.4-1.4l-20-44.2l-28.9,64.3c-0.3,0.8-1.1,1.3-1.9,1.4C245.2,203.8,245.1,203.8,245,203.8z"/>
	</g>
	<g>
		<path class="st10" d="M160.1,332.9c-1.2,0-2.3-0.9-2.4-2.2l-8.1-94.9l-4.5,88.5c-0.1,1.3-1.2,2.3-2.5,2.2
			c-1.3-0.1-2.3-1.2-2.2-2.5l6.3-123.1c0.1-1.2,1.1-2.2,2.3-2.3c1.2-0.1,2.3,0.9,2.4,2.2l11.1,129.4c0.1,1.3-0.9,2.5-2.2,2.6
			C160.3,332.9,160.2,332.9,160.1,332.9z"/>
	</g>
	<g>
		<path class="st10" d="M227.1,324c-0.1,0-0.2,0-0.3,0c-1.3-0.2-2.2-1.4-2-2.7l17.4-122.3c0.2-1.2,1.3-2.1,2.5-2
			c1.3,0.1,2.2,1.2,2.2,2.4l-2.6,118.6c0,1.3-1.1,2.4-2.4,2.3c-1.3,0-2.3-1.1-2.3-2.4l1.8-78.8l-11.8,82.9
			C229.2,323.1,228.2,324,227.1,324z"/>
	</g>
	<g>
		<path class="st10" d="M188.5,334.2c-6.4,0-13.1-0.5-20.3-1.7c-22.6-3.6-38.5-11.7-39.2-12c-1.2-0.6-1.6-2-1-3.2
			c0.6-1.2,2-1.6,3.2-1c0.2,0.1,16,8.1,37.9,11.6c20,3.2,49.4,3,75.6-15.6c33.3-23.7,51-130.2,51.2-131.3c0.2-1.3,1.4-2.2,2.7-2
			c1.3,0.2,2.2,1.4,2,2.7c0,0.3-4.6,27.6-13.2,57.5c-11.8,40.5-25.2,66.4-39.9,76.9C235.1,324.9,215.6,334.2,188.5,334.2z"/>
	</g>
	<g>
		<path class="st10" d="M128.5,319.7c-0.5,0-1.1-0.2-1.5-0.5C110.9,306,96.7,280.4,84.8,243c-8.8-27.7-13-51.9-13.1-52.1
			c-0.2-1.3,0.6-2.5,1.9-2.7c1.3-0.2,2.5,0.6,2.7,1.9c0.2,0.9,16.8,95.3,53.6,125.5c1,0.8,1.2,2.3,0.3,3.3
			C129.9,319.4,129.2,319.7,128.5,319.7z"/>
	</g>
	<g>
		<path class="st10" d="M243,203.4c-0.1,0-0.3,0-0.4,0c-8.2-1.4-18.5-12-30.6-31.3c-5.4-8.7-10-17.3-12.8-22.7
			c-9.2,22.3-46.8,50.3-48.6,51.6c-0.7,0.5-1.6,0.6-2.4,0.2c-0.8-0.4-1.3-1.2-1.4-2c-1-20.3-25.4-49.1-33.3-57.9
			c-2.1,4.6-6.1,13.2-11.2,21.9c-10.2,17.5-19.6,26.9-27.9,27.9c-1.3,0.2-2.5-0.7-2.7-2c-0.2-1.3,0.7-2.5,2-2.7
			c13.8-1.8,31.3-37,36.9-50.4c0.3-0.7,1-1.3,1.8-1.4c0.8-0.1,1.6,0.1,2.1,0.7c1.4,1.4,32.2,33.9,36.5,59.3
			c10.5-8.2,42.4-34.5,45.2-52.1c0.2-1,1-1.8,2-2c1-0.2,2,0.4,2.5,1.3c6.8,14.3,26.6,50.7,40.5,56.2c3.5-12.2,17.8-59.2,31.8-66.4
			c0.6-0.3,1.4-0.3,2.1,0c0.7,0.3,1.1,0.9,1.3,1.6c5.1,21.3,14.1,44.6,19.7,45.2c1.3,0.1,2.2,1.3,2.1,2.6c-0.1,1.3-1.3,2.2-2.6,2.1
			c-3.5-0.4-9.1-3.5-16.9-25.5c-2.8-7.8-4.9-15.6-6.1-19.9c-10.8,10.2-23.3,48.8-27.5,63.9C245,202.7,244.1,203.4,243,203.4z"/>
	</g>
	<g>
		<g>
			<path class="st11" d="M174.1,408.8c-0.4,0-0.7,0-1.1,0c-10.7-0.8-17.8-10.9-23.6-18.9c-2.8-3.9-5.4-7.6-7.5-8.8
				c-4.5-2.6-16,1.2-22.2,4.3c-1.2,0.6-2.6,0.1-3.2-1.1c-0.6-1.2-0.1-2.6,1.1-3.2c1.9-0.9,18.5-8.8,26.6-4.1c3,1.7,5.8,5.7,9,10.2
				c5.2,7.3,11.6,16.3,20.1,17c6.8,0.5,14.5-6.6,21.9-13.4c7.4-6.8,14.4-13.3,21.4-13.3c5.8,0,10.3,4.5,15,9.2
				c7.6,7.5,14.7,14.6,27,5.7c1.1-0.8,2.5-0.5,3.3,0.5c0.8,1.1,0.5,2.5-0.5,3.3c-15.6,11.3-25.8,1.2-33.2-6.2
				c-4.1-4-7.9-7.9-11.7-7.9c-5.2,0-11.8,6.1-18.2,12C190.6,401.3,182.6,408.8,174.1,408.8z"/>
		</g>
		<g>
			<path class="st11" d="M219.5,410.4c-8.8,0-16-8-22.9-15.8c-5.6-6.3-11.5-12.8-17.2-13.4c-7.7-0.8-17,8.1-25.2,15.9
				c-5.9,5.6-10.9,10.4-15.4,11.8c-10.9,3.4-24.4-6.4-25-6.8c-1.1-0.8-1.3-2.3-0.5-3.3c0.8-1.1,2.3-1.3,3.3-0.5
				c0.2,0.1,12.2,8.8,20.8,6.1c3.4-1,8.3-5.7,13.5-10.7c9-8.6,19.1-18.3,29-17.2c7.5,0.8,14,8,20.2,15c6.7,7.5,13.7,15.3,21.1,14
				c7.1-1.2,11.7-9.5,16.2-17.6c4.7-8.4,9.5-17.1,17.6-18.6c1.3-0.2,2.5,0.6,2.8,1.9c0.2,1.3-0.6,2.5-1.9,2.8
				c-5.9,1.1-10,8.4-14.4,16.2c-5,9.1-10.3,18.4-19.6,20C221.2,410.4,220.3,410.4,219.5,410.4z"/>
		</g>
		<g>
			<path class="st11" d="M220.5,397.5c-0.6,0-1.1-0.2-1.6-0.6l-4-3.6c-1-0.9-1.1-2.4-0.2-3.4c0.9-1,2.4-1.1,3.4-0.2l4,3.6
				c1,0.9,1.1,2.4,0.2,3.4C221.8,397.2,221.1,397.5,220.5,397.5z"/>
		</g>
		<g>
			<path class="st11" d="M177,397.5c-0.6,0-1.1-0.2-1.6-0.6l-4-3.6c-1-0.9-1.1-2.4-0.2-3.4c0.9-1,2.4-1.1,3.4-0.2l4,3.6
				c1,0.9,1.1,2.4,0.2,3.4C178.3,397.2,177.6,397.5,177,397.5z"/>
		</g>
		<g>
			<path class="st11" d="M132.7,397.5c-0.6,0-1.1-0.2-1.6-0.6l-4-3.6c-1-0.9-1.1-2.4-0.2-3.4c0.9-1,2.4-1.1,3.4-0.2l4,3.6
				c1,0.9,1.1,2.4,0.2,3.4C134,397.2,133.4,397.5,132.7,397.5z"/>
		</g>
		<g>
			<path class="st11" d="M256.9,390.4c-0.6,0-1.1-0.2-1.6-0.6l-4-3.6c-1-0.9-1.1-2.4-0.2-3.4c0.9-1,2.4-1.1,3.4-0.2l4,3.6
				c1,0.9,1.1,2.4,0.2,3.4C258.2,390.1,257.5,390.4,256.9,390.4z"/>
		</g>
	</g>
</g>
</svg>
