<?xml version="1.0" encoding="utf-8"?>
<!-- Generator: Adobe Illustrator 16.0.0, SVG Export Plug-In . SVG Version: 6.00 Build 0)  -->
<!DOCTYPE svg PUBLIC "-//W3C//DTD SVG 1.1//EN" "http://www.w3.org/Graphics/SVG/1.1/DTD/svg11.dtd">
<svg version="1.1" id="Layer_1" xmlns="http://www.w3.org/2000/svg" xmlns:xlink="http://www.w3.org/1999/xlink" x="0px" y="0px"
	 width="1400px" height="980px" viewBox="0 0 1400 980" enable-background="new 0 0 1400 980" xml:space="preserve">
<g>
	<rect fill="#F4F4F4" width="1400" height="980"/>
</g>
<g>
	<g>
		<ellipse fill="#CAC8C8" cx="219.772" cy="777.849" rx="144.014" ry="27.003"/>
	</g>
	<g>
		<g>
			<path fill="#B57939" d="M298.063,776.714L271.13,553.668l-54.536,17.472l-54.481-17.472l-26.511,223.046
				C140.517,802.272,210,804.437,217,804.585v0.01c0,0-0.166-0.001,0-0.005c0.166,0.004,0,0.005,0,0.005v-0.01
				C224,804.437,293.148,802.272,298.063,776.714z"/>
		</g>
	</g>
	<g>
		<g>
			<polygon fill="#CC8D54" points="172.792,573.367 200.398,565.945 162.114,553.668 160.27,569.179 			"/>
		</g>
		<g>
			<path fill="#CC8D54" d="M271.13,553.668l-27.931,8.948l17.195,237.131c18.043-3.846,35.302-10.727,37.669-23.033L271.13,553.668z
				"/>
		</g>
	</g>
	<g>
		<g>
			<g>
				<path fill="#9E6633" d="M191.949,563.241l-29.846-9.573l-26.848,223.046c1.95,10.142,14.068,16.597,28.391,20.707
					L191.949,563.241z"/>
			</g>
		</g>
	</g>
	<g>
		<g>
			<path fill="#C88A3D" d="M215.027,286.197L53.334,272.191c0,0,14.039,74.951,14.039,112.126
				c0,37.151,19.565,190.837,147.654,186.91c128.089,3.927,147.696-149.759,147.696-186.91c0-37.175,14.08-112.126,14.08-112.126
				L215.027,286.197z"/>
		</g>
	</g>
	<g>
		<g>
			<path fill="#D39450" d="M342.253,275.183c-2.597,14.283-13.53,76.373-13.53,109.135c0,25.399-9.168,119.928-55.9,175.936
				c76.556-35.366,89.9-145.292,89.9-175.936c0-37.175,14.08-112.126,14.08-112.126L342.253,275.183z"/>
		</g>
		<g>
			<path fill="#D39450" d="M181.027,286.197l17.004-1.472L53.334,272.191c0,0,0.2,1.068,0.549,2.993L181.027,286.197z"/>
		</g>
	</g>
	<g>
		<g>
			<g>
				<path fill="#B57939" d="M99.384,384.317c0-32.896-10.991-95.362-13.521-109.308l-32.528-2.818c0,0,14.039,74.951,14.039,112.126
					c0,34.211,16.594,167.243,119.247,185.016C112.395,529.905,99.384,414.607,99.384,384.317z"/>
			</g>
		</g>
	</g>
	<g>
		<g>
			<path fill="#F4DBB2" d="M370.546,264.052l-11.211-16.644l-49.026-0.515c-26.762-3.84-59.831-6.111-95.627-6.111
				c-29.571,0-57.278,1.55-81.11,4.254l-60.791-0.64l-13.537,19.348c-3.847,2.688-5.91,5.521-5.91,8.447
				c0,17.347,72.238,31.409,161.348,31.409c89.109,0,161.347-14.062,161.347-31.409
				C376.029,269.376,374.115,266.648,370.546,264.052z"/>
		</g>
	</g>
	<g>
		<g>
			<ellipse fill="#F4E3C9" cx="215.628" cy="247.408" rx="143.707" ry="31.41"/>
		</g>
	</g>
	<g>
		<g>
			<path fill="#8C5930" d="M217,783.933v0.01c0,0,0.167-0.001,0-0.004c-0.166,0.003,0,0.004,0,0.004V783.933
				c-7-0.139-67.239-2.029-79.511-22.938l-1.721,15.719C140.683,802.272,210,804.437,217,804.585v0.01c0,0-0.166-0.001,0-0.005
				c0.166,0.004,0,0.005,0,0.005v-0.01c7-0.148,76.148-2.312,81.063-27.871l-1.853-15.716C283.926,781.905,223,783.794,217,783.933z
				"/>
		</g>
	</g>
	<g>
		<g>
			<path fill="#453635" d="M182.473,570.409c-0.34-1.31-33.89-132.361-25.677-253.502l8.55,0.58
				c-8.12,119.771,25.085,249.474,25.422,250.77L182.473,570.409z"/>
		</g>
	</g>
	<g>
		<g>
			<path fill="#453635" d="M167.705,570.023c-34.826-14.287-60.448-62.946-76.155-144.625C80,365.342,78.324,308.587,78.309,308.021
				l8.566-0.236c0.062,2.223,7.032,222.699,84.083,254.31L167.705,570.023z"/>
		</g>
	</g>
	<g>
		<g>
			<path fill="#453635" d="M229.664,573.641l-7.076-4.836c41.009-60.012,27.29-252.452,27.146-254.389l8.546-0.633
				c0.037,0.49,3.612,49.662,1.946,105.771C257.974,495.416,247.691,547.258,229.664,573.641z"/>
		</g>
	</g>
	<g>
		<g>
			<path fill="#453635" d="M263.854,569.449l-5.237-6.781c40.945-31.616,57.15-99.702,63.534-151.25
				c6.985-56.404,4.024-105.852,3.994-106.345l8.553-0.534c0.031,0.5,3.041,50.625-4.025,107.798
				c-4.164,33.685-10.959,63.237-20.2,87.834C298.785,531.279,283.101,554.588,263.854,569.449z"/>
		</g>
	</g>
	<g>
		<g>
			<g>
				<path fill="#D8D1CA" d="M79,280.917v19.01c0,0,1.855,10.551,8.179,10.091c6.454-0.468,6.67-10.091,6.67-10.091l0.438-19.01
					C94.287,280.917,86,275.753,79,280.917z"/>
			</g>
		</g>
		<g>
			<g>
				<path fill="#D8D1CA" d="M155,293.309v19.01c0,0,2.062,10.551,8.386,10.091c6.454-0.469,6.774-10.091,6.774-10.091l0.282-19.01
					C170.442,293.309,162,288.145,155,293.309z"/>
			</g>
		</g>
	</g>
	<g>
		<g>
			<g>
				<path fill="#D8D1CA" d="M338,280.917v19.01c0,0-1.784,10.551-8.107,10.091c-6.455-0.468-6.636-10.091-6.636-10.091l-0.491-19.01
					C322.766,280.917,332,275.753,338,280.917z"/>
			</g>
		</g>
		<g>
			<g>
				<path fill="#D8D1CA" d="M262,293.309v19.01c0,0-1.991,10.551-8.315,10.091c-6.454-0.469-6.738-10.091-6.738-10.091l-0.335-19.01
					C246.611,293.309,255,288.145,262,293.309z"/>
			</g>
		</g>
	</g>
	<g>
		<g>
			<path fill="#453635" d="M219.727,575.48c-31.047,0-59.791-6.851-61.734-7.323l2.024-8.327c0.748,0.182,75.169,17.905,111.42-3.65
				l4.379,7.366C260.481,572.664,239.629,575.48,219.727,575.48z"/>
		</g>
	</g>
	<g>
		<path fill="#453635" d="M190.324,566.528l-3.98-0.391c3.929-39.948-27.005-233.537-27.318-235.488l3.949-0.634
			C164.256,338.002,194.303,526.069,190.324,566.528z"/>
	</g>
	<g>
		<path fill="#453635" d="M230.958,566.738l-3.917-0.811c3.935-19.019,27.73-238.924,27.97-241.143l3.977,0.43
			C258.008,334.283,234.932,547.531,230.958,566.738z"/>
	</g>
	<g>
		<path fill="#453635" d="M268.869,561.711l-3.738-1.422c0,0,34-89.334,39.333-103.334c5.191-13.625,22.38-142.255,22.553-143.552
			l3.965,0.528c-0.709,5.318-17.425,130.392-22.78,144.448C302.869,472.378,268.869,561.711,268.869,561.711z"/>
	</g>
	<g>
		<path fill="#453635" d="M164.525,564.642c-46.163-32.113-81.355-242.381-82.831-251.316l3.946-0.651
			c0.359,2.171,36.384,217.529,81.169,248.685L164.525,564.642z"/>
	</g>
</g>
<g>
	<g>
		<ellipse fill="#CAC8C8" cx="572.308" cy="515.322" rx="160.516" ry="34.504"/>
	</g>
	<g>
		<g>
			<path fill="#5E3327" d="M680.822,523.219l-35.125-166.255l-71.154,13.024l-71.087-13.024l-34.633,166.255
				C475.235,542.27,566,543.883,575,543.992V544c0,0-0.216-0.001,0-0.004c0.217,0.003,0,0.004,0,0.004v-0.008
				C585,543.883,674.408,542.27,680.822,523.219z"/>
		</g>
	</g>
	<g>
		<g>
			<polygon fill="#724539" points="550.543,369.988 562.549,367.791 503.456,356.964 502.573,361.199 			"/>
		</g>
		<g>
			<path fill="#724539" d="M575,544c0,0,0.218-0.001,0-0.004C574.784,543.999,575,544,575,544z"/>
		</g>
		<g>
			<path fill="#724539" d="M645.697,356.964l-23.106,4.229l34.231,162.025c-5.26,15.624-66.336,19.519-93.656,20.475
				c5.942,0.21,10.215,0.279,11.834,0.299c10-0.109,99.408-1.723,105.822-20.773L645.697,356.964z"/>
		</g>
	</g>
	<g>
		<g>
			<g>
				<path fill="#49281F" d="M542.393,364.101l-38.946-7.137l-35.035,166.255c2.545,7.56,18.357,12.371,37.047,15.435
					L542.393,364.101z"/>
			</g>
		</g>
	</g>
	<g>
		<g>
			<path fill="#814C3A" d="M571.16,115.216l-154.826-13.411c0,0,13.443,71.768,13.443,107.364
				c0,35.573,18.734,182.731,141.383,178.972c122.648,3.76,141.423-143.399,141.423-178.972c0-35.596,13.481-107.364,13.481-107.364
				L571.16,115.216z"/>
		</g>
	</g>
	<g>
		<g>
			<path fill="#8E5647" d="M537.16,115.216l17.004-1.472l-137.831-11.939c0,0,0.2,1.067,0.548,2.993L537.16,115.216z"/>
		</g>
		<g>
			<path fill="#8E5647" d="M691.515,104.796c-2.528,13.919-12.932,73.101-12.932,104.373c0,25.375-9.557,120.483-59.554,171.562
				c79.906-29.947,93.554-141.251,93.554-171.562c0-35.596,13.481-107.364,13.481-107.364L691.515,104.796z"/>
		</g>
	</g>
	<g>
		<g>
			<g>
				<path fill="#724336" d="M460.428,209.169c0-31.499-10.524-91.312-12.947-104.666l-31.147-2.698
					c0,0,13.443,71.768,13.443,107.364c0,32.758,15.889,160.14,114.183,177.157C472.886,348.573,460.428,238.172,460.428,209.169z"
					/>
			</g>
		</g>
	</g>
	<g>
		<g>
			<path fill="#E9DD76" d="M720.073,94.011l-10.734-15.937l-46.944-0.493c-25.625-3.677-57.289-5.852-91.565-5.852
				c-28.315,0-54.846,1.485-77.665,4.073l-58.209-0.612l-12.962,18.526c-3.683,2.574-5.659,5.286-5.659,8.088
				c0,16.61,69.17,30.075,154.495,30.075s154.495-13.465,154.495-30.075C725.324,99.109,723.491,96.497,720.073,94.011z"/>
		</g>
	</g>
	<g>
		<g>
			<ellipse fill="#EEE49A" cx="571.735" cy="78.074" rx="137.604" ry="30.076"/>
		</g>
	</g>
	<g>
		<g>
			<path fill="#998C87" d="M575,528.599v0.007c0,0,0.218,0,0-0.002c-0.216,0.002,0,0.002,0,0.002V528.599
				c-9-0.104-87.7-1.513-103.713-17.097l-2.266,11.717C475.434,542.27,566,543.883,575,543.992V544c0,0-0.216-0.001,0-0.004
				c0.217,0.003,0,0.004,0,0.004v-0.008c10-0.109,99.408-1.723,105.822-20.773l-2.438-11.716
				C662.354,527.087,583,528.495,575,528.599z"/>
		</g>
	</g>
	<g>
		<path fill="#453635" d="M587.6,147.131c-67.648,0-135.584-9.275-149.113-13.254c-24.537-7.217-24.82-28.002-24.82-28.211
			c0-1.657,1.343-3,3-3l0,0c1.652,0,2.992,1.335,3,2.985c0.007,0.682,0.409,16.557,20.513,22.47
			c11.465,3.372,56.329,9.573,107.46,11.965c44.745,2.092,106.415,1.836,146.085-11.269c0.18-0.06,0.366-0.102,0.554-0.126
			c1.066-0.142,26.258-3.771,28.053-27.116c0.127-1.652,1.547-2.881,3.222-2.761c1.651,0.127,2.888,1.569,2.761,3.221
			c-0.902,11.73-6.986,21.105-17.595,27.113c-7.05,3.992-13.843,5.214-15.362,5.449C666.916,143.935,627.305,147.131,587.6,147.131z
			"/>
	</g>
	<g>
		<path fill="#453635" d="M645.998,226c-0.932,0-1.819-0.434-2.39-1.187l-56.359-74.292l-60.257,74.039
			c-0.627,0.771-1.595,1.186-2.584,1.095c-0.989-0.085-1.873-0.654-2.359-1.521l-44.978-80.137l-44.603,64.705
			c-0.667,0.968-1.835,1.457-2.996,1.251c-1.157-0.206-2.088-1.069-2.38-2.207c-0.769-2.994-18.783-73.603-14.036-97.335
			c0.325-1.625,1.908-2.674,3.53-2.354c1.625,0.325,2.678,1.906,2.354,3.53c-3.682,18.407,7.995,70.012,12.375,88.215l43.546-63.173
			c0.587-0.853,1.576-1.355,2.608-1.294c1.034,0.047,1.971,0.625,2.478,1.528l45.175,80.487l59.882-73.579
			c0.581-0.714,1.455-1.126,2.378-1.106c0.92,0.016,1.783,0.453,2.339,1.187l55.615,73.311l37.26-82.562
			c0.484-1.076,1.554-1.602,2.734-1.602c0,0,0.001,0,0.001,0c1.179,0,2.249,0.523,2.734,1.599l24.389,53.922
			c7.256-31.122,15.205-73.79,11.434-83.01c-0.628-1.533,0.107-3.306,1.641-3.933c1.535-0.626,3.285,0.096,3.912,1.63
			c6.191,15.133-11.193,87.031-13.196,95.18c-0.305,1.243-1.364,2.152-2.639,2.269c-1.289,0.122-2.482-0.588-3.009-1.753
			l-25.262-55.939l-36.603,81.269c-0.435,0.965-1.346,1.629-2.397,1.749C646.223,225.994,646.11,226,645.998,226z"/>
	</g>
	<g>
		<path fill="#453635" d="M538.662,389.333c-1.541,0-2.852-1.181-2.986-2.744l-10.264-119.996l-5.75,111.894
			c-0.085,1.655-1.499,2.924-3.15,2.842c-1.655-0.085-2.927-1.496-2.842-3.15l8-155.667c0.081-1.575,1.368-2.819,2.945-2.846
			c1.552-0.068,2.905,1.172,3.04,2.744l14,163.667c0.141,1.651-1.083,3.104-2.733,3.245
			C538.834,389.33,538.748,389.333,538.662,389.333z"/>
	</g>
	<g>
		<path fill="#453635" d="M623.335,378c-0.141,0-0.283-0.01-0.426-0.03c-1.641-0.233-2.781-1.752-2.548-3.393l22-154.667
			c0.224-1.572,1.628-2.691,3.215-2.567c1.582,0.129,2.79,1.469,2.754,3.057l-3.334,150c-0.037,1.657-1.406,3.005-3.066,2.932
			c-1.656-0.037-2.969-1.409-2.932-3.066l2.215-99.683l-14.913,104.839C626.089,376.919,624.805,378,623.335,378z"/>
	</g>
	<g>
		<path fill="#453635" d="M574.547,390.95c-8.035,0-16.599-0.644-25.706-2.092c-28.582-4.543-48.703-14.757-49.545-15.189
			c-1.474-0.757-2.055-2.564-1.299-4.038c0.756-1.474,2.563-2.056,4.038-1.301c0.199,0.102,20.251,10.262,47.931,14.631
			c25.342,4,62.503,3.823,95.626-19.74c42.066-29.926,64.557-164.682,64.778-166.04c0.268-1.636,1.81-2.748,3.445-2.476
			c1.635,0.268,2.744,1.81,2.477,3.445c-0.057,0.344-5.761,34.864-16.736,72.724c-14.86,51.261-31.846,83.976-50.486,97.236
			C633.492,379.193,608.869,390.95,574.547,390.95z"/>
	</g>
	<g>
		<path fill="#453635" d="M498.663,372.666c-0.669,0-1.342-0.223-1.899-0.68c-20.363-16.686-38.329-49.123-53.401-96.408
			c-11.156-35-16.49-65.595-16.542-65.899c-0.281-1.633,0.814-3.185,2.447-3.466c1.633-0.282,3.185,0.813,3.466,2.446
			c0.207,1.201,21.253,120.516,67.833,158.687c1.282,1.05,1.469,2.94,0.419,4.222C500.393,372.292,499.531,372.666,498.663,372.666z
			"/>
	</g>
	<g>
		<path fill="#453635" d="M643.502,225.5c-0.17,0-0.343-0.015-0.517-0.045c-10.417-1.812-23.423-15.142-38.658-39.62
			c-6.854-11.012-12.667-21.926-16.128-28.697c-11.66,28.142-59.21,63.638-61.413,65.271c-0.89,0.659-2.071,0.775-3.073,0.3
			c-1.001-0.475-1.659-1.463-1.71-2.57c-1.205-25.696-32.12-62.105-42.1-73.22c-2.606,5.804-7.749,16.727-14.19,27.721
			c-12.935,22.075-24.821,33.963-35.327,35.333c-1.643,0.215-3.149-0.944-3.363-2.586c-0.214-1.643,0.944-3.149,2.586-3.363
			c17.461-2.277,39.574-46.738,46.62-63.678c0.389-0.935,1.224-1.611,2.219-1.797c0.997-0.185,2.018,0.143,2.718,0.875
			c1.748,1.826,40.667,42.817,46.215,74.956c13.233-10.381,53.585-43.645,57.155-65.858c0.208-1.297,1.237-2.308,2.537-2.494
			c1.297-0.19,2.571,0.496,3.135,1.683c8.567,18.039,33.645,64.089,51.223,71.083c4.435-15.389,22.572-74.914,40.197-83.964
			c0.819-0.419,1.785-0.441,2.621-0.058c0.836,0.383,1.45,1.129,1.666,2.023c6.499,26.911,17.872,56.44,24.915,57.223
			c1.646,0.183,2.834,1.666,2.65,3.312c-0.183,1.647-1.68,2.834-3.312,2.65c-4.426-0.492-11.449-4.374-21.31-32.295
			c-3.482-9.858-6.232-19.721-7.672-25.171c-13.612,12.865-29.475,61.655-34.797,80.788C646.024,224.62,644.827,225.5,643.502,225.5
			z"/>
	</g>
	<g>
		<g>
			<path fill="#696057" d="M556.33,485.271c-0.459,0-0.919-0.017-1.381-0.053c-13.528-1.041-22.571-13.743-29.837-23.949
				c-3.516-4.938-6.837-9.604-9.525-11.16c-5.655-3.273-20.198,1.577-28.038,5.403c-1.488,0.727-3.284,0.109-4.012-1.379
				c-0.727-1.488-0.11-3.284,1.378-4.012c2.367-1.158,23.43-11.138,33.678-5.205c3.816,2.209,7.333,7.151,11.407,12.873
				c6.541,9.188,14.681,20.622,25.409,21.447c8.619,0.682,18.28-8.289,27.635-16.945c9.345-8.646,18.172-16.813,27.099-16.813
				c7.273,0,12.98,5.681,19.022,11.695c9.554,9.512,18.58,18.494,34.183,7.196c1.341-0.973,3.218-0.672,4.189,0.67
				s0.672,3.218-0.67,4.189c-19.74,14.293-32.568,1.521-41.935-7.803c-5.139-5.116-9.993-9.948-14.789-9.948
				c-6.577,0-14.938,7.736-23.024,15.218C577.241,475.833,567.041,485.271,556.33,485.271z"/>
		</g>
		<g>
			<path fill="#696057" d="M613.806,487.374c-11.159,0.001-20.217-10.113-29.002-19.921c-7.131-7.961-14.504-16.194-21.743-16.956
				c-9.738-1.024-21.531,10.225-31.928,20.152c-7.422,7.086-13.832,13.206-19.43,14.929c-13.817,4.252-30.869-8.118-31.588-8.647
				c-1.334-0.981-1.621-2.859-0.64-4.194s2.859-1.622,4.194-0.64c0.252,0.184,15.376,11.095,26.269,7.747
				c4.244-1.306,10.465-7.246,17.051-13.534c11.338-10.825,24.183-23.104,36.699-21.779c9.538,1.004,17.695,10.112,25.584,18.919
				c8.501,9.492,17.293,19.31,26.645,17.748c8.979-1.497,14.857-12.064,20.541-22.283c5.911-10.627,12.022-21.615,22.32-23.512
				c1.628-0.303,3.194,0.777,3.494,2.407c0.3,1.629-0.777,3.194-2.407,3.494c-7.516,1.385-12.688,10.683-18.163,20.528
				c-6.375,11.461-12.966,23.313-24.798,25.285C615.854,487.29,614.82,487.374,613.806,487.374z"/>
		</g>
		<g>
			<path fill="#696057" d="M614.999,471c-0.715,0-1.433-0.254-2.006-0.77l-5-4.5c-1.231-1.108-1.332-3.005-0.223-4.237
				c1.109-1.231,3.005-1.332,4.237-0.223l5,4.5c1.231,1.108,1.332,3.005,0.223,4.237C616.638,470.665,615.82,471,614.999,471z"/>
		</g>
		<g>
			<path fill="#696057" d="M559.999,471c-0.715,0-1.433-0.254-2.006-0.77l-5-4.5c-1.231-1.108-1.332-3.005-0.223-4.237
				c1.109-1.231,3.006-1.332,4.237-0.223l5,4.5c1.231,1.108,1.332,3.005,0.223,4.237C561.638,470.665,560.82,471,559.999,471z"/>
		</g>
		<g>
			<path fill="#696057" d="M503.999,471c-0.715,0-1.433-0.254-2.006-0.77l-5-4.5c-1.231-1.108-1.332-3.005-0.223-4.237
				c1.107-1.231,3.005-1.332,4.237-0.223l5,4.5c1.231,1.108,1.332,3.005,0.223,4.237C505.638,470.665,504.82,471,503.999,471z"/>
		</g>
		<g>
			<path fill="#696057" d="M660.999,462c-0.715,0-1.433-0.254-2.006-0.77l-5-4.5c-1.231-1.108-1.332-3.005-0.223-4.237
				c1.108-1.231,3.006-1.332,4.237-0.223l5,4.5c1.231,1.108,1.332,3.005,0.223,4.237C662.638,461.665,661.82,462,660.999,462z"/>
		</g>
	</g>
</g>
<g>
	<g>
		<ellipse fill="#CAC8C8" cx="935.344" cy="656.337" rx="142.514" ry="28.503"/>
	</g>
	<g>
		<path fill="#C4A11C" d="M1021.354,670.551l-22.642-283.507L942,387.002V387h-1.503H939v0.002l-56.949,0.042l-22.523,283.507
			c0,0,53.475,7.251,80.973,4.675C967.993,677.802,1021.354,670.551,1021.354,670.551z"/>
	</g>
	<g>
		<path fill="#D3AE37" d="M961.713,387.05l20.365,287.552c20.806-1.541,39.276-4.051,39.276-4.051l-22.642-283.507L942,387.002V387
			h-1.503H939v0.002l-18.144,0.013L961.713,387.05z"/>
	</g>
	<g>
		<path fill="#AF8C1C" d="M916.051,387.049l42.269-0.035L942,387.002V387h-1.503H939v0.002l-56.949,0.042l-22.523,283.507
			c0,0,16.546,2.243,35.962,3.791L916.051,387.049z"/>
	</g>
	<g>
		<polygon fill="#D2B887" points="953,439.002 953,439 955.539,439 958,439 958,439.002 1002.864,439.021 998.713,387.044 
			942,387.002 942,387 940.497,387 939,387 939,387.002 882.051,387.044 877.92,439.034 		"/>
	</g>
	<g>
		<g>
			<path fill="#D2AF1F" d="M938.027,168.197l-161.693-14.006c0,0-6.73,80.227-6.73,117.402c0,37.151,42.902,144.919,170.991,140.993
				c128.089,3.927,169.491-108.342,169.491-145.493c0-37.175-10.283-112.902-10.283-112.902L938.027,168.197z"/>
		</g>
	</g>
	<g>
		<g>
			<path fill="#B7991C" d="M970.027,168.197l130.14-11.267c-0.232-1.766-0.364-2.739-0.364-2.739l-145.771,12.62L970.027,168.197z"
				/>
		</g>
		<g>
			<path fill="#B7991C" d="M801.604,271.593c0-33.084,5.33-100.265,6.504-114.65l-31.773-2.752c0,0-6.73,80.227-6.73,117.402
				c0,29.749,27.521,104.77,104.253,131.47C821.312,363.719,801.604,296.765,801.604,271.593z"/>
		</g>
	</g>
	<g>
		<g>
			<path fill="#F4DBB2" d="M1093.546,146.052l-11.211-39.644l-49.026,22.485c-26.762-3.84-59.83-6.111-95.627-6.111
				c-29.57,0-57.278,1.55-81.109,4.254l-60.791-23.64l-13.537,42.348c-3.847,2.688-5.91,5.521-5.91,8.447
				c0,17.347,72.238,31.409,161.348,31.409s161.348-14.062,161.348-31.409C1099.029,151.376,1097.115,148.648,1093.546,146.052z"/>
		</g>
	</g>
	<g>
		<g>
			<path fill="#F4E3C9" d="M1083.335,109.71c0,26.569-64.695,36.622-144.501,36.622c-79.804,0-144.499-10.053-144.499-36.622
				c0-26.567,64.695-48.106,144.499-48.106C1018.64,61.604,1083.335,83.143,1083.335,109.71z"/>
		</g>
	</g>
	<g>
		<path fill="#D8D1CA" d="M787.977,165.502c0.886,1.271,1.873,2.491,2.903,3.652c1.026,1.167,2.099,2.287,3.227,3.343
			c1.12,1.062,2.267,2.088,3.473,3.036c0.602,0.476,1.201,0.95,1.83,1.386c0.616,0.451,1.234,0.896,1.874,1.31
			c0.624,0.436,1.271,0.834,1.924,1.222c0.641,0.406,1.307,0.769,1.975,1.123c0.658,0.373,1.336,0.706,2.022,1.021
			c0.678,0.329,1.354,0.656,2.054,0.936c1.372,0.614,2.791,1.112,4.212,1.58l2.151,0.638l2.184,0.512
			c0.725,0.178,1.467,0.284,2.197,0.431c0.729,0.154,1.469,0.261,2.212,0.34c1.477,0.222,2.971,0.303,4.461,0.391
			c0.744,0.055,1.496,0.016,2.242,0.03c0.748,0,1.494,0.018,2.243-0.042l2.244-0.106c0.747-0.037,1.494-0.149,2.241-0.219
			c1.494-0.125,2.979-0.396,4.467-0.626c1.49-0.211,2.958-0.611,4.438-0.904c1.47-0.359,2.933-0.766,4.4-1.145l4.362-1.349
			l1.309-0.405l1.117,0.568c1.567,0.796,3.325,1.621,5.027,2.382c1.715,0.782,3.459,1.509,5.2,2.252
			c3.496,1.453,7.052,2.782,10.649,4.009l2.712,0.883l2.732,0.821c1.831,0.514,3.667,1.029,5.525,1.441
			c0.926,0.229,1.857,0.423,2.792,0.609c0.933,0.189,1.866,0.394,2.807,0.543c1.879,0.325,3.767,0.588,5.663,0.792
			c1.896,0.171,3.798,0.354,5.703,0.377c1.906,0.103,3.811,0.01,5.715-0.028c1.898-0.133,3.799-0.27,5.679-0.549
			c0.944-0.115,1.886-0.241,2.816-0.432c0.932-0.179,1.871-0.323,2.792-0.552l2.752-0.713c0.919-0.226,1.805-0.566,2.708-0.843
			l1.348-0.437l1.312-0.534c0.868-0.369,1.754-0.694,2.604-1.097l2.53-1.246c0.854-0.389,1.627-0.935,2.442-1.394
			c1.643-0.901,3.122-2.062,4.663-3.102l0.79-0.533l1.005,0.329c1.552,0.508,3.211,0.989,4.838,1.429
			c1.641,0.435,3.283,0.858,4.938,1.23c3.309,0.75,6.632,1.413,9.963,1.967c1.667,0.269,3.335,0.521,5.003,0.742
			c1.667,0.238,3.339,0.411,5.008,0.575l2.506,0.208l2.503,0.148c0.834,0.062,1.667,0.056,2.499,0.087
			c0.834,0.033,1.665,0.04,2.495,0.024c1.663,0.015,3.314-0.079,4.965-0.152c1.642-0.143,3.286-0.257,4.903-0.5
			c0.813-0.096,1.624-0.204,2.422-0.363c0.799-0.153,1.609-0.263,2.396-0.449l2.362-0.553c0.78-0.203,1.543-0.453,2.314-0.674
			c0.779-0.207,1.519-0.503,2.268-0.777s1.503-0.536,2.216-0.878c0.719-0.327,1.46-0.615,2.164-0.968l2.084-1.103
			c0.691-0.372,1.325-0.832,1.996-1.232c0.681-0.39,1.302-0.859,1.922-1.331c1.291-0.88,2.403-1.971,3.581-2.987l1.907-1.646
			l2.122,0.86c1.408,0.57,3.091,1.149,4.683,1.652c1.622,0.497,3.256,0.976,4.904,1.402c1.646,0.436,3.308,0.808,4.975,1.154
			c1.67,0.326,3.343,0.631,5.023,0.886c1.682,0.238,3.367,0.44,5.057,0.575c1.688,0.125,3.379,0.223,5.066,0.217
			c0.846,0.021,1.688,0.005,2.528-0.024c0.843-0.021,1.688-0.031,2.522-0.114c1.684-0.093,3.344-0.325,5.009-0.56l2.467-0.48
			c0.822-0.165,1.618-0.414,2.436-0.604c0.823-0.179,1.606-0.466,2.403-0.723l1.195-0.391c0.396-0.137,0.774-0.314,1.163-0.469
			c0.764-0.337,1.57-0.601,2.308-0.997l2.246-1.14c1.435-0.866,2.919-1.689,4.25-2.735c1.417-0.942,2.621-2.145,3.938-3.242
			c1.175-1.235,2.461-2.398,3.504-3.777c0.533-0.678,1.139-1.31,1.638-2.021l1.504-2.138c0.526-0.703,0.962-1.46,1.415-2.212
			l1.366-2.266l0.639,0.285l-0.983,2.497c-0.331,0.835-0.64,1.685-1.075,2.473l-1.223,2.419c-0.41,0.809-0.927,1.555-1.4,2.332
			c-0.913,1.583-2.095,2.978-3.189,4.458c-1.229,1.356-2.429,2.775-3.84,3.976c-1.331,1.297-2.842,2.378-4.331,3.505l-2.366,1.491
			c-0.784,0.512-1.639,0.889-2.459,1.339c-0.416,0.211-0.825,0.444-1.249,0.637l-1.285,0.556c-0.859,0.367-1.713,0.763-2.602,1.047
			c-0.882,0.301-1.76,0.639-2.658,0.887l-2.704,0.729c-1.819,0.395-3.647,0.779-5.491,1.015c-0.92,0.156-1.843,0.235-2.768,0.324
			l-1.388,0.135l-1.388,0.062c-1.853,0.101-3.701,0.09-5.549,0.048c-1.847-0.053-3.687-0.177-5.522-0.342l-2.745-0.305l-2.73-0.404
			c-1.812-0.31-3.618-0.65-5.41-1.057c-1.798-0.389-3.574-0.867-5.346-1.377c-1.793-0.533-3.476-1.062-5.364-1.783l4.029-0.786
			c-1.407,1.262-2.78,2.572-4.331,3.655c-0.752,0.573-1.508,1.14-2.32,1.618c-0.803,0.49-1.588,1.018-2.416,1.458l-2.502,1.284
			c-0.841,0.408-1.711,0.742-2.566,1.114c-0.853,0.384-1.736,0.661-2.614,0.956c-0.879,0.292-1.753,0.605-2.647,0.819
			c-0.891,0.23-1.777,0.487-2.671,0.692l-2.689,0.547c-0.896,0.182-1.799,0.282-2.697,0.425c-0.899,0.148-1.8,0.243-2.701,0.323
			c-1.802,0.205-3.602,0.262-5.398,0.348c-1.795,0.015-3.589,0.045-5.372-0.036c-0.895-0.018-1.785-0.059-2.673-0.127
			c-0.887-0.066-1.779-0.096-2.661-0.194l-2.651-0.258l-2.635-0.346c-1.751-0.258-3.499-0.525-5.23-0.859
			c-1.739-0.302-3.458-0.694-5.171-1.1c-3.426-0.805-6.809-1.758-10.14-2.86c-1.669-0.537-3.321-1.125-4.969-1.725
			c-1.654-0.613-3.261-1.237-4.93-1.955l1.794-0.205c-1.747,0.976-3.422,2.061-5.246,2.869c-1.771,0.908-3.616,1.638-5.45,2.38
			c-0.921,0.36-1.872,0.638-2.805,0.959l-1.405,0.461l-1.424,0.394c-0.953,0.247-1.889,0.558-2.854,0.751l-2.882,0.612
			c-1.937,0.306-3.858,0.718-5.809,0.894c-1.941,0.269-3.896,0.35-5.845,0.5c-1.952,0.068-3.905,0.152-5.857,0.126
			c-0.977,0.001-1.954,0.007-2.928-0.047c-0.976-0.036-1.954-0.045-2.929-0.103l-2.925-0.183c-0.975-0.065-1.945-0.174-2.92-0.255
			c-0.977-0.067-1.946-0.19-2.918-0.298c-0.974-0.105-1.946-0.219-2.913-0.368c-1.939-0.266-3.873-0.578-5.807-0.909l-2.891-0.546
			l-2.879-0.615c-1.913-0.436-3.822-0.901-5.722-1.41c-1.893-0.529-3.777-1.092-5.651-1.694c-1.876-0.599-3.73-1.267-5.576-1.971
			c-1.854-0.735-3.635-1.452-5.528-2.362l2.426,0.163c-1.549,0.506-3.089,1.042-4.647,1.521c-1.585,0.405-3.154,0.866-4.754,1.22
			c-1.615,0.296-3.206,0.692-4.842,0.9c-1.63,0.233-3.256,0.48-4.909,0.564c-0.824,0.052-1.643,0.146-2.47,0.162l-2.481,0.041
			c-0.826,0.03-1.655-0.036-2.483-0.077c-0.827-0.057-1.655-0.062-2.479-0.163c-1.651-0.181-3.299-0.36-4.929-0.689
			c-0.819-0.133-1.633-0.294-2.438-0.505c-0.804-0.209-1.621-0.356-2.411-0.618l-2.371-0.758l-2.322-0.89
			c-1.527-0.639-3.04-1.311-4.491-2.101c-0.737-0.371-1.457-0.773-2.153-1.217c-0.707-0.421-1.403-0.86-2.074-1.337
			c-0.682-0.459-1.355-0.926-2-1.434c-0.656-0.49-1.304-0.99-1.922-1.525c-0.633-0.518-1.253-1.047-1.837-1.619
			c-0.603-0.548-1.171-1.132-1.737-1.715c-1.133-1.165-2.198-2.388-3.204-3.652c-0.994-1.275-1.916-2.601-2.777-3.957
			c-0.842-1.373-1.63-2.768-2.263-4.259L787.977,165.502z"/>
	</g>
	<g>
		<path fill="#D8D1CA" d="M783.896,167.565c0.884,1.679,1.867,3.311,2.872,4.92c1.002,1.611,2.051,3.19,3.146,4.732
			c1.079,1.552,2.211,3.065,3.395,4.529c1.182,1.466,2.395,2.901,3.667,4.274c0.618,0.705,1.29,1.354,1.945,2.018
			c0.645,0.676,1.342,1.293,2.028,1.919c0.675,0.64,1.391,1.228,2.104,1.816c0.357,0.292,0.706,0.597,1.07,0.88l1.114,0.814
			l1.112,0.814l1.16,0.73l1.158,0.73c0.392,0.232,0.803,0.427,1.201,0.643c0.802,0.426,1.598,0.859,2.44,1.176
			c0.829,0.348,1.641,0.744,2.504,0.977c1.688,0.593,3.431,0.971,5.179,1.204c0.881,0.057,1.754,0.214,2.636,0.198
			c0.881-0.031,1.761-0.03,2.639-0.076l2.62-0.358c0.869-0.148,1.72-0.424,2.58-0.625c0.869-0.171,1.69-0.547,2.527-0.854
			c0.833-0.32,1.68-0.599,2.469-1.048l2.408-1.219l2.302-1.455l1.153-0.724c0.38-0.251,0.735-0.544,1.104-0.813l2.197-1.648
			c1.436-1.145,2.78-2.423,4.178-3.626l3.962-3.923l1.543-1.528l1.485,1.423c1.464,1.403,3.093,2.824,4.696,4.19
			c1.619,1.368,3.274,2.701,4.971,3.981c0.842,0.649,1.689,1.29,2.556,1.906c0.855,0.633,1.728,1.241,2.608,1.836
			c0.871,0.612,1.764,1.19,2.662,1.759c0.89,0.585,1.8,1.135,2.717,1.674c0.908,0.557,1.832,1.085,2.77,1.586
			c0.931,0.517,1.864,1.029,2.823,1.49c1.893,0.975,3.837,1.843,5.804,2.657c0.997,0.368,1.987,0.762,2.993,1.109l3.042,0.961
			c1.026,0.276,2.059,0.526,3.091,0.784c1.033,0.255,2.091,0.375,3.135,0.571c1.044,0.213,2.104,0.266,3.159,0.377
			c0.528,0.047,1.057,0.11,1.585,0.143l1.59,0.023c1.061,0.022,2.121,0.034,3.174-0.089l1.582-0.133l0.79-0.066l0.781-0.138
			c1.037-0.199,2.086-0.349,3.113-0.584l3.041-0.881c1.965-0.76,3.942-1.506,5.758-2.584l1.388-0.752
			c0.453-0.266,0.869-0.597,1.305-0.891c0.851-0.621,1.746-1.175,2.558-1.845l2.383-2.069l0.596-0.516l0.545-0.573l1.085-1.148
			c1.507-1.47,2.76-3.178,4.062-4.831c0.68-0.802,1.203-1.732,1.792-2.605l1.727-2.649l0.819-1.259l1.342,0.773
			c1.653,0.953,3.398,1.883,5.131,2.77c1.734,0.899,3.503,1.734,5.262,2.581c1.767,0.834,3.548,1.633,5.338,2.406
			c1.798,0.754,3.594,1.51,5.407,2.214c1.816,0.697,3.635,1.386,5.478,1.99c1.832,0.64,3.685,1.202,5.538,1.746l2.793,0.761
			l2.81,0.653c0.935,0.236,1.882,0.367,2.821,0.556c0.94,0.193,1.884,0.331,2.829,0.449c1.886,0.293,3.777,0.419,5.66,0.527
			l2.817,0.044l2.788-0.157c1.839-0.194,3.672-0.43,5.425-0.907c0.438-0.117,0.896-0.181,1.317-0.338l1.272-0.45l1.279-0.43
			l1.206-0.575l1.209-0.569c0.41-0.178,0.755-0.463,1.137-0.688c0.729-0.498,1.539-0.888,2.181-1.506l1.018-0.851
			c0.336-0.288,0.701-0.542,0.981-0.893l1.807-1.96l1.555-2.198l0.396-0.545l0.326-0.598l0.658-1.195l0.662-1.194
			c0.214-0.403,0.36-0.847,0.545-1.268l1.06-2.558l1.088-2.623l2.44,1.1c1.519,0.684,3.187,1.358,4.815,1.977
			c1.641,0.63,3.304,1.206,4.971,1.766c1.67,0.555,3.348,1.085,5.037,1.573c1.689,0.487,3.391,0.925,5.098,1.338l2.569,0.566
			l2.581,0.488c1.726,0.281,3.452,0.579,5.186,0.751c0.867,0.113,1.734,0.195,2.602,0.242c0.868,0.055,1.738,0.143,2.604,0.138
			c0.865,0.004,1.737,0.059,2.6,0.024l2.592-0.103l2.571-0.254c0.855-0.097,1.691-0.28,2.541-0.415
			c0.858-0.111,1.661-0.397,2.496-0.591c0.842-0.183,1.634-0.492,2.435-0.783l1.205-0.435l1.146-0.553
			c0.771-0.36,1.553-0.71,2.254-1.192c1.486-0.84,2.814-1.916,4.1-3.042l1.806-1.834l1.595-2.04l0.398-0.516l0.334-0.559l0.673-1.12
			l0.677-1.124c0.193-0.392,0.365-0.795,0.55-1.194c0.352-0.803,0.756-1.591,1.069-2.415l0.839-2.52
			c0.313-0.833,0.51-1.701,0.713-2.569l0.626-2.608l0.496,0.068l-0.35,2.691c-0.117,0.9-0.208,1.808-0.455,2.686l-0.64,2.663
			c-0.25,0.878-0.595,1.73-0.891,2.601c-0.157,0.432-0.302,0.871-0.471,1.299l-0.607,1.245l-0.611,1.249l-0.308,0.626l-0.375,0.588
			l-1.531,2.347l-1.826,2.147c-1.317,1.336-2.714,2.629-4.291,3.677c-0.75,0.588-1.58,1.038-2.407,1.498l-1.243,0.689l-1.3,0.56
			c-0.867,0.374-1.732,0.764-2.638,1.02c-0.899,0.267-1.784,0.629-2.704,0.807c-0.914,0.202-1.825,0.452-2.747,0.612l-2.773,0.432
			l-2.786,0.238c-0.93,0.078-1.856,0.065-2.786,0.102c-0.932,0.044-1.855-0.004-2.782-0.021c-0.929-0.009-1.853-0.054-2.772-0.131
			c-1.848-0.108-3.682-0.314-5.508-0.562l-2.729-0.423l-2.712-0.505c-1.799-0.373-3.591-0.772-5.369-1.222
			c-1.778-0.452-3.545-0.943-5.301-1.471c-1.748-0.552-3.491-1.121-5.217-1.749c-1.739-0.627-3.417-1.266-5.188-2.026l3.528-1.523
			l-1.152,2.941c-0.203,0.487-0.365,0.987-0.604,1.462l-0.744,1.415l-0.75,1.414l-0.377,0.706l-0.457,0.666l-1.876,2.636
			l-2.211,2.396c-0.351,0.417-0.794,0.743-1.207,1.098l-1.259,1.046c-0.807,0.743-1.785,1.247-2.691,1.85
			c-0.469,0.276-0.907,0.612-1.402,0.835l-1.471,0.696l-1.475,0.687l-1.529,0.519l-1.535,0.499c-0.51,0.172-1.039,0.244-1.558,0.369
			c-2.077,0.511-4.181,0.74-6.271,0.911l-3.132,0.107l-3.107-0.115c-2.057-0.16-4.111-0.347-6.123-0.702
			c-1.014-0.15-2.021-0.32-3.014-0.545c-0.992-0.221-2.002-0.387-2.979-0.655l-2.947-0.753l-2.908-0.86
			c-1.923-0.613-3.845-1.229-5.723-1.95c-1.893-0.687-3.748-1.456-5.598-2.232c-1.847-0.784-3.673-1.61-5.478-2.479
			c-1.801-0.876-3.587-1.777-5.354-2.712c-1.767-0.938-3.51-1.916-5.232-2.93c-1.73-1.016-3.42-2.042-5.13-3.164l2.161-0.486
			l-1.961,2.667c-0.668,0.878-1.266,1.803-2.028,2.611c-1.457,1.662-2.849,3.374-4.511,4.846l-1.197,1.144l-0.601,0.569
			l-0.653,0.513l-2.609,2.046c-0.885,0.658-1.857,1.201-2.78,1.804c-0.473,0.286-0.923,0.606-1.412,0.862l-1.479,0.747
			c-1.935,1.072-4.029,1.801-6.104,2.533l-3.191,0.859c-1.074,0.237-2.167,0.384-3.248,0.58l-0.814,0.135l-0.821,0.062l-1.644,0.123
			c-1.095,0.123-2.191,0.08-3.288,0.077l-1.646-0.004c-0.547-0.027-1.093-0.084-1.639-0.125c-1.091-0.1-2.189-0.144-3.266-0.348
			c-2.173-0.292-4.308-0.764-6.444-1.241l-3.163-0.87c-1.046-0.318-2.076-0.683-3.115-1.023c-2.064-0.715-4.118-1.479-6.12-2.358
			c-1.015-0.413-2.004-0.878-2.99-1.349c-0.996-0.455-1.977-0.938-2.942-1.451c-0.977-0.495-1.946-1.002-2.896-1.545
			c-0.958-0.528-1.914-1.062-2.85-1.629c-0.945-0.552-1.883-1.117-2.804-1.708c-0.932-0.575-1.847-1.176-2.757-1.786
			c-1.819-1.22-3.596-2.503-5.347-3.827c-1.765-1.327-3.435-2.691-5.134-4.221l3.028-0.104l-4.034,4.263
			c-1.48,1.299-2.899,2.662-4.437,3.904l-2.367,1.802c-0.398,0.295-0.781,0.61-1.194,0.888l-1.272,0.793
			c-0.854,0.52-1.697,1.055-2.562,1.559l-2.716,1.326c-0.885,0.479-1.856,0.794-2.809,1.143c-0.959,0.335-1.893,0.733-2.902,0.928
			c-0.998,0.223-1.979,0.513-2.989,0.671l-3.058,0.354c-1.026,0.024-2.057-0.005-3.081-0.011c-1.025-0.02-2.04-0.222-3.058-0.33
			c-2.016-0.335-4.006-0.842-5.896-1.574c-0.973-0.305-1.869-0.771-2.784-1.193c-0.927-0.406-1.784-0.926-2.644-1.44
			c-0.428-0.259-0.868-0.5-1.284-0.774l-1.223-0.856l-1.218-0.858l-1.153-0.934l-1.15-0.934c-0.373-0.322-0.729-0.663-1.093-0.993
			c-0.729-0.661-1.452-1.326-2.113-2.049c-0.678-0.707-1.364-1.404-1.989-2.153c-0.639-0.738-1.291-1.462-1.882-2.234
			c-1.224-1.511-2.383-3.068-3.455-4.679c-1.087-1.6-2.111-3.238-3.076-4.907c-1.921-3.342-3.635-6.79-5.021-10.377L783.896,167.565
			z"/>
	</g>
	<g>
		<path fill="#D8D1CA" d="M1102.104,302.434c-0.281-0.646-0.58-1.283-0.848-1.938l-0.664-2.046c-0.214-0.684-0.359-1.373-0.542-2.06
			c-0.18-0.687-0.35-1.375-0.481-2.07c-0.289-1.386-0.58-2.772-0.804-4.168c-0.251-1.393-0.478-2.788-0.673-4.187
			c-0.217-1.397-0.407-2.797-0.573-4.2c-0.176-1.401-0.354-2.803-0.5-4.207c-0.322-2.806-0.587-5.617-0.857-8.427
			c-1.014-11.247-1.719-22.514-2.297-33.785c-0.292-5.635-0.512-11.273-0.712-16.912l-0.523-16.917
			c-0.296-11.281-0.519-22.556-0.629-33.851c-0.01-0.92,0.728-1.674,1.647-1.685c0.899-0.01,1.641,0.699,1.684,1.59l0.223,4.882
			c0.082,1.628,0.155,3.256,0.146,4.886l0.041,4.889c0.001,1.629-0.076,3.257-0.11,4.887c-0.042,3.261-0.297,6.511-0.5,9.765
			c-0.107,1.626-0.305,3.245-0.452,4.868c-0.162,1.622-0.301,3.246-0.534,4.859l-0.633,4.848c-0.23,1.613-0.512,3.218-0.766,4.828
			c-0.249,1.611-0.523,3.217-0.847,4.814l-0.931,4.798c-0.711,3.18-1.374,6.372-2.199,9.523c-0.755,3.171-1.667,6.299-2.533,9.44
			c-0.947,3.117-1.869,6.243-2.929,9.323c-0.503,1.55-1.031,3.09-1.592,4.62c-0.556,1.531-1.075,3.076-1.671,4.591l-1.753,4.561
			l-1.836,4.528c-1.268,3-2.562,5.989-3.921,8.95c-1.361,2.959-2.774,5.895-4.231,8.809c-1.472,2.907-2.979,5.797-4.557,8.65
			c-1.562,2.861-3.207,5.68-4.893,8.477c-1.701,2.805-3.432,5.525-5.367,8.28l-0.068,0.097c-0.681,0.967-2.016,1.201-2.983,0.521
			c-0.229-0.161-0.42-0.364-0.564-0.584l-1.265-1.947c-0.412-0.651-0.699-1.312-1.054-1.969l-0.505-0.987l-0.431-0.995l-0.854-1.991
			c-0.508-1.335-1.011-2.67-1.482-4.009c-0.435-1.345-0.897-2.685-1.309-4.033l-1.19-4.049l-1.099-4.062
			c-0.686-2.714-1.368-5.429-1.984-8.153c-0.636-2.722-1.2-5.454-1.772-8.184c-0.562-2.732-1.106-5.466-1.622-8.205
			c-1.038-5.475-2.017-10.958-2.927-16.449c-0.925-5.489-1.757-10.991-2.567-16.494c-0.812-5.503-1.582-11.011-2.317-16.523
			c-1.472-11.026-2.834-22.053-4.04-33.121l3.104-0.196l-0.093,4.529c-0.06,1.507-0.19,3.007-0.282,4.509
			c-0.075,1.505-0.299,2.992-0.441,4.488c-0.142,1.497-0.357,2.981-0.578,4.465c-0.394,2.975-0.955,5.918-1.495,8.862l-0.905,4.396
			c-0.31,1.463-0.669,2.914-1.001,4.372c-2.75,11.636-6.316,23.037-10.251,34.287c-0.982,2.813-1.988,5.618-3.027,8.41
			c-1.03,2.795-2.098,5.576-3.175,8.353c-1.092,2.771-2.184,5.542-3.318,8.295c-1.118,2.76-2.281,5.501-3.434,8.247
			c-2.316,5.486-4.713,10.937-7.188,16.353c-2.479,5.416-5.013,10.797-7.695,16.131l-0.013,0.025
			c-0.181,0.36-0.62,0.505-0.979,0.324c-0.074-0.037-0.141-0.087-0.195-0.143c-2.088-2.146-4.013-4.437-5.563-6.951
			c-0.398-0.621-0.814-1.233-1.198-1.863l-1.087-1.921c-0.356-0.644-0.738-1.275-1.073-1.929l-0.987-1.969l-0.982-1.972
			l-0.905-2.004c-0.61-1.333-1.211-2.671-1.75-4.033c-1.145-2.698-2.161-5.442-3.186-8.183c-0.974-2.758-1.947-5.517-2.833-8.302
			c-0.925-2.773-1.751-5.576-2.598-8.373c-0.819-2.804-1.629-5.61-2.388-8.431c-0.785-2.813-1.497-5.645-2.23-8.471
			c-2.842-11.327-5.456-22.708-7.77-34.151c-1.166-5.72-2.271-11.451-3.317-17.194c-1.042-5.747-2.041-11.489-2.945-17.276
			l2.672-0.237c0.002,1.47,0.04,2.944,0.009,4.412c-0.08,1.46-0.121,2.929-0.235,4.385l-0.429,4.357l-0.584,4.33
			c-0.468,2.87-0.953,5.737-1.546,8.578c-0.267,1.428-0.596,2.839-0.91,4.255c-0.312,1.416-0.627,2.832-0.983,4.236
			c-0.671,2.82-1.412,5.619-2.162,8.417c-0.779,2.787-1.544,5.58-2.388,8.347c-0.813,2.777-1.686,5.534-2.551,8.293
			c-0.895,2.749-1.772,5.505-2.71,8.239c-3.717,10.949-7.771,21.771-12.03,32.51c-2.133,5.368-4.32,10.713-6.562,16.037
			c-2.246,5.328-4.527,10.618-6.921,15.911l-0.058,0.127c-0.476,1.053-1.716,1.521-2.769,1.044
			c-0.212-0.096-0.407-0.229-0.568-0.379c-1.182-1.106-2.48-2.158-3.452-3.388c-0.514-0.6-1.056-1.187-1.543-1.8l-1.378-1.88
			c-1.82-2.517-3.383-5.148-4.862-7.809c-1.461-2.668-2.832-5.371-4.098-8.111c-0.658-1.361-1.271-2.738-1.866-4.121
			c-0.602-1.381-1.221-2.756-1.776-4.151c-4.604-11.115-8.459-22.465-12.027-33.885c-3.557-11.425-6.784-22.937-9.8-34.499
			c-1.509-5.781-2.963-11.576-4.363-17.383c-1.397-5.814-2.753-11.616-4.028-17.486l5.178-0.08l-11.628,65.34l-11.803,65.309
			l-0.022,0.124c-0.242,1.341-1.526,2.232-2.867,1.99c-0.457-0.083-0.868-0.293-1.193-0.578l-3.902-3.442
			c-1.229-1.213-2.396-2.482-3.594-3.722c-2.265-2.584-4.438-5.244-6.357-8.065c-0.484-0.702-1.015-1.376-1.46-2.101l-1.357-2.161
			l-1.354-2.161c-0.451-0.721-0.837-1.475-1.259-2.211c-0.807-1.489-1.694-2.94-2.433-4.46l-2.266-4.537
			c-1.39-3.074-2.811-6.136-4.034-9.271c-0.643-1.557-1.272-3.117-1.837-4.7c-0.574-1.579-1.185-3.146-1.729-4.734l-1.609-4.771
			c-0.536-1.59-1-3.201-1.504-4.8c-0.508-1.599-0.977-3.208-1.422-4.822c-0.446-1.614-0.936-3.218-1.345-4.841l-1.264-4.86
			l-1.175-4.879c-0.401-1.624-0.751-3.259-1.111-4.892c-0.359-1.633-0.729-3.264-1.05-4.904c-0.685-3.272-1.307-6.556-1.914-9.841
			c-0.582-3.29-1.157-6.58-1.67-9.88c-0.523-3.298-1.015-6.601-1.458-9.91c-0.457-3.307-0.874-6.62-1.246-9.937
			c-0.375-3.317-0.705-6.64-1.006-9.965c-0.299-3.331-0.56-6.645-0.751-10.014l-0.002-0.022c-0.053-0.935,0.816-1.736,1.75-1.79
			c0.936-0.053,1.943,0.662,1.943,1.597v0.013c0,11.714,0.834,23.41,1.128,35.12c0.289,11.708,0.384,23.419,0.341,35.132
			c-0.076,11.713-0.369,23.429-1.033,35.13c-0.188,2.925-0.386,5.849-0.638,8.77c-0.108,1.461-0.258,2.92-0.406,4.379
			c-0.139,1.459-0.288,2.917-0.479,4.372c-0.177,1.456-0.353,2.911-0.585,4.361c-0.211,1.452-0.429,2.902-0.712,4.344
			c-0.485,2.894-1.199,5.753-2.043,8.569l-0.478-0.148c0.754-2.809,1.381-5.655,1.782-8.545c0.24-1.437,0.416-2.885,0.584-4.334
			c0.19-1.446,0.321-2.899,0.456-4.352c0.147-1.451,0.265-2.906,0.367-4.362c0.114-1.455,0.221-2.91,0.295-4.369
			c0.186-2.914,0.298-5.832,0.417-8.75c0.396-11.676,0.384-23.367,0.192-35.052c-0.1-5.843-0.223-11.686-0.393-17.528
			c-0.173-5.842-0.384-11.683-0.626-17.523c-0.488-11.677-1.097-23.361-1.862-35.008l3.385-0.202
			c0.241,3.268,0.557,6.58,0.907,9.867c0.354,3.292,0.735,6.583,1.163,9.867c0.421,3.285,0.854,6.569,1.346,9.844
			c0.474,3.277,0.994,6.548,1.547,9.812c0.542,3.266,1.146,6.521,1.755,9.774c0.635,3.248,1.284,6.492,1.994,9.723
			c0.335,1.62,0.717,3.229,1.088,4.839c0.373,1.61,0.735,3.224,1.148,4.823l1.209,4.807l1.295,4.782
			c0.421,1.597,0.919,3.17,1.374,4.756c0.456,1.586,0.934,3.165,1.448,4.73c0.512,1.567,0.984,3.148,1.526,4.703l1.627,4.665
			c0.55,1.552,1.163,3.077,1.74,4.617c0.568,1.544,1.199,3.061,1.842,4.572c1.225,3.05,2.638,6.007,4.016,8.979l2.236,4.365
			c0.729,1.465,1.597,2.845,2.387,4.271c0.412,0.703,0.791,1.428,1.229,2.111l1.317,2.051l1.315,2.051
			c0.433,0.688,0.941,1.317,1.407,1.979c1.854,2.658,3.909,5.144,6.033,7.55c1.119,1.143,2.209,2.321,3.349,3.438l3.593,3.141
			l-4.083,1.535l11.529-65.358l11.704-65.326c0.258-1.434,1.628-2.388,3.062-2.131c1.088,0.195,1.899,1.033,2.116,2.051
			c1.222,5.783,2.543,11.594,3.898,17.375c1.359,5.785,2.773,11.558,4.24,17.316c2.934,11.516,6.077,22.978,9.54,34.331
			c3.473,11.344,7.229,22.608,11.687,33.542c0.538,1.376,1.136,2.721,1.717,4.075c0.574,1.357,1.166,2.706,1.798,4.03
			c1.216,2.677,2.529,5.298,3.914,7.862c1.399,2.553,2.874,5.063,4.534,7.382l1.248,1.735c0.434,0.556,0.903,1.066,1.352,1.604
			c0.866,1.13,1.914,1.947,2.88,2.903l-3.395,0.793c2.406-5.184,4.742-10.453,7.025-15.721c2.283-5.274,4.513-10.572,6.688-15.892
			c4.345-10.641,8.483-21.368,12.287-32.205c0.973-2.702,1.886-5.423,2.814-8.139c0.9-2.725,1.809-5.448,2.656-8.188
			c0.879-2.732,1.677-5.485,2.491-8.234c0.784-2.757,1.56-5.516,2.265-8.292c0.374-1.383,0.705-2.775,1.034-4.167
			c0.332-1.392,0.678-2.782,0.962-4.182c0.627-2.792,1.146-5.598,1.647-8.408l0.636-4.227l0.481-4.236
			c0.133-1.413,0.364-2.826,0.464-4.24c0.051-1.411,0.221-2.819,0.221-4.23v-0.066c0-0.741,0.449-1.333,1.19-1.323
			c0.67,0.009,1.134,0.509,1.224,1.152c0.82,5.744,1.701,11.5,2.664,17.238c0.967,5.74,1.973,11.471,3.061,17.189
			c2.185,11.435,4.536,22.84,7.352,34.134c0.717,2.819,1.408,5.645,2.176,8.45c0.742,2.813,1.531,5.611,2.334,8.406
			c0.829,2.787,1.636,5.581,2.541,8.341c0.868,2.774,1.821,5.518,2.774,8.262c1.004,2.724,1.998,5.452,3.118,8.126
			c0.527,1.352,1.114,2.676,1.711,3.996l0.884,1.984l0.958,1.946l0.963,1.943c0.326,0.645,0.697,1.263,1.043,1.896l1.057,1.889
			c0.371,0.616,0.773,1.212,1.158,1.819c1.505,2.458,3.333,4.669,5.311,6.693l-1.188,0.207c2.643-5.302,5.159-10.692,7.611-16.098
			c2.45-5.41,4.822-10.856,7.114-16.334c2.291-5.48,4.472-11.004,6.584-16.552c1.047-2.778,2.082-5.56,3.081-8.354
			c1.007-2.792,1.981-5.595,2.932-8.405l1.406-4.222l1.337-4.243c0.877-2.833,1.733-5.672,2.537-8.524l1.196-4.281l1.12-4.3
			c0.388-1.43,0.704-2.876,1.056-4.313c0.349-1.439,0.692-2.878,0.99-4.327c0.305-1.447,0.638-2.889,0.919-4.34l0.823-4.355
			c0.484-2.912,0.99-5.823,1.329-8.75c0.192-1.461,0.382-2.922,0.495-4.389c0.114-1.466,0.312-2.928,0.359-4.396
			c0.065-1.466-0.052-2.932-0.019-4.397l-0.202-4.39v-0.01c0-0.86,0.927-1.554,1.786-1.55c0.793,0.003,1.554,0.598,1.649,1.364
			c1.375,10.995,2.965,21.994,4.606,32.962c1.642,10.97,3.453,21.917,5.394,32.828c1.925,10.911,4.037,21.792,6.565,32.539
			c0.613,2.692,1.297,5.362,1.977,8.03l1.087,3.978l1.167,3.941c0.401,1.308,0.849,2.591,1.27,3.888
			c0.453,1.278,0.933,2.541,1.413,3.801c1.033,2.449,2.146,4.915,3.549,6.864l-3.615,0.033c1.777-2.536,3.512-5.277,5.178-7.988
			c1.66-2.731,3.285-5.49,4.832-8.295c1.561-2.796,3.055-5.632,4.514-8.485c1.445-2.861,2.847-5.744,4.198-8.651
			c1.35-2.908,2.636-5.845,3.896-8.793l1.825-4.449l1.743-4.481c0.594-1.49,1.109-3.008,1.663-4.512
			c0.558-1.503,1.083-3.017,1.584-4.54c1.051-3.029,1.986-6.095,2.946-9.153c0.878-3.082,1.804-6.152,2.572-9.264
			c0.84-3.094,1.518-6.227,2.245-9.348l0.955-4.71c0.333-1.568,0.616-3.145,0.874-4.726c0.263-1.58,0.555-3.156,0.795-4.74
			l0.663-4.76c0.244-1.584,0.394-3.179,0.566-4.772c0.159-1.594,0.367-3.184,0.486-4.781c0.216-3.195,0.538-6.386,0.621-9.59
			c0.059-1.601,0.158-3.201,0.183-4.802l0.032-4.806c0.034-1.603-0.014-3.204-0.07-4.806l-0.146-4.805l3.331-0.095
			c-0.062,11.257-0.013,22.532,0.11,33.797l0.266,16.9l0.408,16.895c0.309,11.262,0.743,22.521,1.485,33.758
			c0.203,2.807,0.4,5.616,0.654,8.418c0.246,2.803,0.519,5.604,0.856,8.395c0.15,1.399,0.332,2.792,0.538,4.182
			c0.179,1.396,0.424,2.776,0.667,4.159c0.108,0.695,0.256,1.379,0.411,2.062c0.159,0.68,0.283,1.377,0.47,2.044l0.576,1.997
			c0.244,0.657,0.525,1.307,0.786,1.961L1102.104,302.434z"/>
	</g>
	<g>
		<path fill="#D8D1CA" d="M778.514,310.76c4.664,3.355,9.303,6.745,13.882,10.215c4.58,3.469,9.133,6.975,13.658,10.516
			c4.527,3.54,9.021,7.125,13.485,10.748c4.475,3.612,8.871,7.32,13.244,11.059s8.705,7.531,12.97,11.404
			c2.141,1.927,4.235,3.908,6.343,5.874c2.084,1.994,4.175,3.98,6.22,6.02c2.064,2.017,4.077,4.094,6.081,6.18l2.976,3.165
			l2.916,3.23l2.84,3.313c0.935,1.116,1.828,2.276,2.743,3.413c0.907,1.146,1.754,2.353,2.633,3.528
			c0.854,1.198,1.653,2.452,2.482,3.677c0.721,1.066,0.441,2.516-0.626,3.237c-1,0.676-2.337,0.472-3.095-0.436l-0.067-0.082
			c-2.761-3.334-5.406-6.681-8.035-10.075c-2.62-3.393-5.198-6.818-7.724-10.285c-2.531-3.462-4.99-6.979-7.405-10.529
			c-1.197-1.783-2.397-3.563-3.564-5.368c-1.184-1.792-2.321-3.619-3.471-5.437c-4.535-7.313-8.819-14.819-12.418-22.755
			l-1.314-2.997l-1.203-3.059c-0.753-2.066-1.479-4.147-2.068-6.298c-0.601-2.143-1.101-4.338-1.409-6.605
			c-0.217-1.111-0.218-2.299-0.316-3.45c-0.077-1.159,0.048-2.372,0.075-3.554c0.033-1.424,1.214-2.551,2.638-2.518
			c0.664,0.015,1.265,0.281,1.713,0.705l0.134,0.128c3.604,3.425,7.094,6.88,10.55,10.406c3.454,3.518,6.868,7.074,10.239,10.673
			c1.682,1.803,3.369,3.6,5.021,5.431l4.929,5.518c3.255,3.708,6.461,7.46,9.609,11.263c1.556,1.918,3.13,3.819,4.651,5.768
			c1.545,1.927,3.036,3.9,4.54,5.861c1.469,1.992,2.959,3.965,4.374,5.999c1.447,2.008,2.818,4.077,4.193,6.14l1.999,3.144
			c0.656,1.055,1.276,2.136,1.916,3.202c0.652,1.057,1.218,2.176,1.825,3.265c0.615,1.083,1.159,2.212,1.709,3.338
			c0.272,0.564,0.561,1.119,0.818,1.691l0.743,1.736c0.241,0.582,0.507,1.15,0.728,1.743l0.635,1.792
			c0.87,2.377,1.434,4.902,1.788,7.478c0.108,0.788-0.442,1.515-1.23,1.623c-0.766,0.105-1.474-0.412-1.612-1.166l-0.002-0.009
			c-0.688-3.783-1.248-7.532-1.764-11.309c-0.514-3.772-0.948-7.553-1.354-11.337c-0.794-7.568-1.328-15.167-1.497-22.781
			c-0.187-7.611-0.053-15.248,0.751-22.845c0.187-1.9,0.453-3.793,0.729-5.685c0.321-1.886,0.629-3.774,1.052-5.645
			c0.193-0.938,0.396-1.875,0.653-2.801c0.255-0.926,0.448-1.866,0.758-2.779c0.295-0.916,0.557-1.841,0.879-2.749l1.017-2.708
			c0.177-0.472,0.703-0.71,1.175-0.533c0.204,0.077,0.364,0.219,0.467,0.394l0.015,0.025c4.325,7.417,8.465,14.917,12.57,22.447
			c4.091,7.537,8.026,15.158,11.866,22.834c3.819,7.687,7.482,15.46,10.767,23.426c0.831,1.987,1.607,4,2.384,6.013
			c0.752,2.025,1.484,4.059,2.16,6.12c0.671,2.062,1.301,4.144,1.846,6.263c0.557,2.115,0.991,4.281,1.325,6.488l-3.385-0.262
			c2.22-8.078,4.571-16.085,7.031-24.08c2.467-7.987,5.017-15.956,7.805-23.853c2.784-7.898,5.727-15.752,9.028-23.502
			c0.845-1.932,1.685-3.865,2.586-5.781c0.433-0.963,0.903-1.915,1.37-2.868c0.456-0.957,0.936-1.906,1.438-2.849
			c0.486-0.947,0.986-1.892,1.527-2.824c0.518-0.939,1.059-1.872,1.646-2.792c1.113-1.856,2.427-3.662,3.887-5.428
			c0.933-1.129,2.604-1.287,3.733-0.354c0.56,0.463,0.881,1.107,0.949,1.777l0.01,0.108c0.375,3.811,0.672,7.586,0.968,11.381
			c0.288,3.79,0.547,7.583,0.782,11.377c0.234,3.794,0.436,7.592,0.608,11.393c0.101,1.899,0.15,3.802,0.228,5.703
			c0.077,1.901,0.141,3.804,0.176,5.709l0.123,5.713l0.042,5.721c0.02,1.907-0.036,3.82-0.051,5.73l-0.037,2.867l-0.109,2.873
			c-0.093,1.917-0.1,3.827-0.264,5.75c-0.143,1.921-0.258,3.841-0.423,5.765l-0.667,5.789l-1.028,5.827l-5.769-2.128
			c1.162-2.204,2.325-4.347,3.511-6.501l3.592-6.424c2.412-4.271,4.908-8.494,7.44-12.695c5.067-8.401,10.344-16.683,15.881-24.809
			c1.397-2.023,2.78-4.056,4.219-6.054c1.414-2.014,2.876-3.997,4.347-5.973c1.493-1.962,2.966-3.938,4.512-5.866
			c1.516-1.947,3.095-3.852,4.667-5.761c1.611-1.882,3.208-3.775,4.891-5.605c0.825-0.928,1.665-1.843,2.534-2.738
			c0.867-0.896,1.7-1.818,2.605-2.685c0.898-0.873,1.768-1.767,2.689-2.621l2.787-2.541l2.908-2.44l3.054-2.31
			c1.328-1.004,3.219-0.743,4.224,0.585c0.602,0.794,0.748,1.792,0.485,2.679l-0.021,0.069c-0.599,1.97-1.206,3.882-1.832,5.81
			c-0.628,1.922-1.255,3.843-1.914,5.753c-1.312,3.821-2.67,7.626-4.073,11.415c-2.804,7.579-5.797,15.091-9.039,22.511
			c-3.249,7.416-6.747,14.742-10.726,21.857c-1.014,1.771-2.016,3.546-3.107,5.279c-1.058,1.75-2.195,3.46-3.354,5.159l-1.797,2.518
			l-1.899,2.461l-2.027,2.386l-2.175,2.292c-0.88,0.927-2.345,0.965-3.271,0.085c-0.899-0.854-0.962-2.258-0.16-3.188l0.031-0.036
			c7.232-8.359,14.646-16.521,22.075-24.684c7.443-8.147,14.959-16.228,22.584-24.209c7.611-7.992,15.404-15.818,23.398-23.44
			c2.007-1.897,4.01-3.797,6.061-5.65c2.034-1.868,4.104-3.701,6.197-5.504c2.096-1.803,4.234-3.558,6.437-5.236
			c2.185-1.697,4.474-3.273,6.856-4.699l0.309,0.515c-2.283,1.508-4.471,3.161-6.562,4.939c-2.109,1.754-4.144,3.604-6.167,5.461
			c-2.017,1.867-4.008,3.761-5.966,5.693c-1.973,1.915-3.899,3.878-5.829,5.837c-7.7,7.861-15.132,15.985-22.549,24.119
			c-7.394,8.157-14.681,16.413-21.892,24.734l-10.761,12.53l-10.665,12.597l-3.4-3.138l1.938-2.11l1.839-2.235l1.744-2.337
			l1.665-2.414c1.076-1.637,2.139-3.289,3.132-4.993c1.023-1.682,1.968-3.422,2.922-5.152c3.753-6.971,7.074-14.214,10.153-21.562
			c3.073-7.354,5.91-14.819,8.562-22.352c1.326-3.766,2.607-7.549,3.844-11.345l1.839-5.697c0.601-1.896,1.195-3.817,1.751-5.694
			l4.688,3.333l-2.769,2.127l-2.683,2.285l-2.604,2.41c-0.863,0.811-1.688,1.674-2.534,2.507c-0.854,0.826-1.649,1.723-2.474,2.586
			c-0.825,0.861-1.628,1.749-2.418,2.651c-1.607,1.773-3.145,3.624-4.693,5.459c-1.516,1.87-3.039,3.732-4.507,5.647
			c-1.493,1.891-2.924,3.839-4.371,5.771l-4.249,5.877c-1.415,1.961-2.78,3.963-4.158,5.953c-5.465,8-10.69,16.181-15.713,24.489
			c-2.517,4.152-4.97,8.342-7.41,12.54l-3.609,6.323c-1.187,2.11-2.371,4.246-3.503,6.349c-0.813,1.51-2.695,2.075-4.205,1.262
			c-1.217-0.655-1.819-2.005-1.582-3.294l0.019-0.095l0.992-5.355l0.682-5.495c0.175-1.847,0.303-3.709,0.458-5.563
			c0.176-1.851,0.199-3.733,0.307-5.598l0.132-2.804l0.062-2.814c0.031-1.877,0.103-3.751,0.101-5.632l0.009-5.642l-0.07-5.647
			c-0.019-1.883-0.063-3.766-0.124-5.65c-0.06-1.884-0.091-3.768-0.174-5.653c-0.138-3.769-0.304-7.538-0.503-11.306
			c-0.2-3.769-0.423-7.536-0.676-11.302c-0.255-3.76-0.531-7.54-0.847-11.272l4.692,1.531c-1.211,1.434-2.396,2.979-3.452,4.687
			c-0.549,0.829-1.067,1.691-1.57,2.571c-0.52,0.863-1.01,1.754-1.489,2.654c-0.493,0.89-0.968,1.793-1.424,2.712
			c-0.464,0.913-0.932,1.822-1.369,2.754c-0.902,1.844-1.754,3.723-2.609,5.599c-3.355,7.545-6.392,15.272-9.274,23.06
			c-2.857,7.799-5.635,15.64-8.264,23.535c-2.635,7.889-5.173,15.831-7.563,23.783l-0.005,0.016
			c-0.275,0.917-1.242,1.437-2.159,1.162c-0.676-0.203-1.136-0.783-1.221-1.439c-0.262-2.034-0.616-4.08-1.103-6.119
			c-0.474-2.04-1.046-4.07-1.656-6.092c-0.617-2.022-1.294-4.031-1.992-6.035c-0.723-1.997-1.445-3.996-2.227-5.976
			c-3.082-7.937-6.563-15.741-10.206-23.469c-3.629-7.737-7.538-15.345-11.508-22.92c-3.979-7.569-8.121-15.063-12.389-22.462
			l1.656-0.114l-0.992,2.612c-0.314,0.877-0.573,1.776-0.862,2.664c-0.305,0.883-0.496,1.803-0.749,2.704
			c-0.254,0.901-0.456,1.816-0.648,2.734c-0.429,1.825-0.716,3.684-1.021,5.536c-0.262,1.862-0.514,3.725-0.688,5.599
			c-0.747,7.492-0.857,15.053-0.608,22.597c0.285,7.545,0.933,15.078,1.838,22.578c0.443,3.751,0.992,7.49,1.594,11.218
			c0.604,3.722,1.264,7.458,2.027,11.119l-2.845,0.448c-0.384-2.276-0.938-4.555-1.817-6.771l-0.637-1.664
			c-0.222-0.552-0.492-1.091-0.735-1.636l-0.747-1.632c-0.26-0.54-0.554-1.068-0.828-1.603c-0.556-1.067-1.104-2.136-1.729-3.173
			c-0.616-1.04-1.185-2.102-1.85-3.118c-0.649-1.022-1.278-2.056-1.945-3.069l-2.032-3.021c-1.4-1.986-2.791-3.979-4.265-5.919
			c-1.438-1.963-2.956-3.872-4.449-5.796c-1.533-1.897-3.05-3.806-4.624-5.672c-1.548-1.885-3.152-3.728-4.736-5.584
			c-3.208-3.684-6.474-7.319-9.788-10.912c-3.328-3.581-6.694-7.127-10.078-10.658c-3.391-3.523-6.826-7.006-10.3-10.449
			c-3.479-3.427-6.981-6.87-10.5-10.207l4.484-1.685c0,0.948-0.116,1.868-0.045,2.836c0.097,0.971,0.077,1.929,0.278,2.915
			c0.271,1.958,0.723,3.931,1.278,5.89c0.542,1.963,1.228,3.909,1.938,5.847l1.147,2.891l1.236,2.869
			c3.399,7.628,7.537,15.002,11.944,22.208c4.425,7.204,9.179,14.225,14.081,21.146c2.45,3.461,4.955,6.886,7.502,10.28
			c2.548,3.384,5.147,6.765,7.783,10.037l-3.788,2.72c-0.766-1.161-1.492-2.341-2.288-3.49c-0.826-1.133-1.611-2.291-2.471-3.407
			c-0.871-1.109-1.714-2.237-2.606-3.333l-2.7-3.278l-2.788-3.22l-2.857-3.169c-1.93-2.093-3.87-4.181-5.87-6.217
			c-1.978-2.056-4.007-4.067-6.03-6.084c-2.048-1.994-4.087-3.997-6.167-5.96c-4.127-3.961-8.329-7.852-12.578-11.693
			c-4.237-3.854-8.551-7.627-12.857-11.41c-4.313-3.776-8.659-7.518-13.043-11.217c-4.382-3.701-8.793-7.369-13.233-11.002
			c-4.443-3.629-8.873-7.281-13.371-10.844L778.514,310.76z"/>
	</g>
	<g>
		<path fill="#D8D1CA" d="M829.757,318.565c0.382-1.037,0.873-2.004,1.416-2.942c0.54-0.961,1.163-1.867,1.841-2.745
			c0.676-0.88,1.424-1.714,2.256-2.506c0.838-0.786,1.76-1.528,2.876-2.158c0.567-0.312,1.177-0.589,1.899-0.791
			c0.694-0.218,1.555-0.306,2.462-0.176c0.911,0.124,1.856,0.605,2.495,1.223c0.157,0.155,0.325,0.312,0.46,0.475l0.352,0.501
			l0.085,0.127l0.041,0.063l0.133,0.218l0.079,0.183l0.149,0.37c0.144,0.422,0.347,1.006,0.34,1.409
			c0.012,0.217,0.018,0.432,0.019,0.644c-0.023,0.21-0.053,0.418-0.09,0.624c-0.159,0.814-0.513,1.517-0.936,2.075
			c-0.861,1.12-1.906,1.818-2.949,2.355c-1.049,0.536-2.11,0.925-3.182,1.241c-1.069,0.323-2.153,0.566-3.257,0.713
			c-2.193,0.316-4.488,0.401-6.785,0.024c-1.143-0.195-2.296-0.464-3.384-0.908c-1.108-0.405-2.137-0.981-3.133-1.606
			c-0.475-0.338-0.961-0.67-1.429-1.022c-0.449-0.37-0.913-0.731-1.351-1.117c-0.424-0.397-0.856-0.792-1.267-1.204
			c-0.396-0.421-0.789-0.849-1.175-1.282l4.52-0.722l-0.344,1.225l-0.325,1.274c-0.206,0.847-0.393,1.689-0.533,2.5
			c-0.059,0.406-0.127,0.799-0.168,1.185c-0.037,0.379-0.045,0.74-0.05,1.07c0.009,0.312,0.028,0.62,0.075,0.807
			c0.023,0.238,0.074,0.293,0.072,0.395c0.028,0.005-0.007,0.091,0.046,0.11c0.017,0.019,0.031,0.044,0.048,0.077
			c0.036,0.017,0.077,0.034,0.116,0.058c0.062,0.062,0.198,0.081,0.328,0.112c0.117,0.049,0.29,0.044,0.457,0.052
			c0.32,0.044,0.737-0.013,1.131-0.04c0.413-0.076,0.83-0.123,1.265-0.247c0.873-0.176,1.76-0.468,2.668-0.752
			c0.447-0.157,0.913-0.286,1.369-0.45C828.838,318.847,829.299,318.711,829.757,318.565z M830.077,318.967
			c-0.663,0.741-1.342,1.482-2.108,2.128c-0.369,0.341-0.763,0.663-1.176,0.961c-0.399,0.314-0.832,0.601-1.277,0.883
			c-0.431,0.292-0.937,0.513-1.424,0.762c-0.247,0.121-0.53,0.211-0.799,0.316c-0.264,0.109-0.555,0.2-0.872,0.254
			c-0.308,0.064-0.609,0.136-0.972,0.141c-0.35,0.019-0.693,0.042-1.097-0.03c-0.194-0.027-0.39-0.056-0.585-0.095
			c-0.203-0.064-0.407-0.135-0.61-0.212c-0.41-0.13-0.787-0.405-1.157-0.662c-0.673-0.573-1.209-1.305-1.493-1.979
			c-0.325-0.697-0.47-1.344-0.594-1.977c-0.11-0.623-0.142-1.219-0.158-1.798c-0.003-0.572,0.006-1.133,0.062-1.678
			c0.097-1.089,0.287-2.129,0.54-3.141c0.119-0.508,0.273-1.003,0.427-1.498c0.156-0.506,0.32-0.96,0.536-1.51l0.028-0.072
			c0.528-1.343,2.045-2.003,3.388-1.476c0.448,0.176,0.827,0.472,1.104,0.826c0.293,0.375,0.58,0.756,0.862,1.144l0.913,1.095
			c0.313,0.355,0.649,0.686,0.974,1.034l1.041,0.96c0.727,0.596,1.469,1.18,2.25,1.721c0.786,0.53,1.6,1.052,2.477,1.476
			c1.737,0.854,3.727,1.417,5.734,1.318c1.992-0.062,4.021-0.756,5.45-2.042c0.7-0.638,1.242-1.42,1.427-2.142
			c0.104-0.354,0.104-0.674,0.03-0.911c-0.023-0.059-0.036-0.114-0.046-0.167c-0.034-0.05-0.062-0.096-0.085-0.142
			c-0.048-0.126-0.094-0.027-0.104-0.104l-0.233-0.324l-0.113-0.164c0.041,0.068-0.101-0.166,0.09,0.149l-0.005-0.003l-0.01-0.007
			l-0.02-0.014l-0.038-0.029c-0.099-0.089-0.188-0.158-0.257-0.185c-0.156-0.064-0.193-0.087-0.338-0.079
			c-0.246-0.051-0.967,0.067-1.716,0.415c-1.54,0.696-3.208,1.872-4.851,3.066l-2.516,1.854c-0.848,0.631-1.713,1.266-2.622,1.882
			c-0.016,0.011-0.03,0.023-0.042,0.037L830.077,318.967z"/>
	</g>
	<g>
		<path fill="#D8D1CA" d="M899.757,320.565c0.382-1.037,0.873-2.004,1.416-2.942c0.54-0.961,1.163-1.867,1.841-2.745
			c0.676-0.88,1.424-1.714,2.256-2.506c0.838-0.786,1.76-1.528,2.876-2.158c0.567-0.312,1.177-0.589,1.899-0.791
			c0.694-0.218,1.555-0.306,2.462-0.176c0.911,0.124,1.856,0.605,2.495,1.223c0.157,0.155,0.325,0.312,0.46,0.475l0.352,0.501
			l0.085,0.127l0.041,0.063l0.133,0.218l0.079,0.183l0.149,0.37c0.144,0.422,0.347,1.006,0.34,1.409
			c0.012,0.217,0.018,0.432,0.019,0.644c-0.023,0.21-0.053,0.418-0.09,0.624c-0.159,0.814-0.513,1.517-0.936,2.075
			c-0.861,1.12-1.906,1.818-2.949,2.355c-1.049,0.536-2.11,0.925-3.182,1.241c-1.069,0.323-2.153,0.566-3.257,0.713
			c-2.193,0.316-4.488,0.401-6.785,0.024c-1.143-0.195-2.296-0.464-3.384-0.908c-1.108-0.405-2.137-0.981-3.133-1.606
			c-0.475-0.338-0.961-0.67-1.429-1.022c-0.449-0.37-0.913-0.731-1.351-1.117c-0.424-0.397-0.856-0.792-1.267-1.204
			c-0.396-0.421-0.789-0.849-1.175-1.282l4.52-0.722l-0.344,1.225l-0.325,1.274c-0.206,0.847-0.393,1.689-0.533,2.5
			c-0.059,0.406-0.127,0.799-0.168,1.185c-0.037,0.379-0.045,0.74-0.05,1.07c0.009,0.312,0.028,0.62,0.075,0.807
			c0.023,0.238,0.074,0.293,0.072,0.395c0.028,0.005-0.007,0.091,0.046,0.11c0.017,0.019,0.031,0.044,0.048,0.077
			c0.036,0.017,0.077,0.034,0.116,0.058c0.062,0.062,0.198,0.081,0.328,0.112c0.117,0.049,0.29,0.044,0.457,0.052
			c0.32,0.044,0.737-0.013,1.131-0.04c0.413-0.076,0.83-0.123,1.265-0.247c0.873-0.176,1.76-0.468,2.668-0.752
			c0.447-0.157,0.913-0.286,1.369-0.45C898.838,320.847,899.299,320.711,899.757,320.565z M900.077,320.967
			c-0.663,0.741-1.342,1.482-2.108,2.128c-0.369,0.341-0.763,0.663-1.176,0.961c-0.399,0.314-0.832,0.601-1.277,0.883
			c-0.431,0.292-0.937,0.513-1.424,0.762c-0.247,0.121-0.53,0.211-0.799,0.316c-0.264,0.109-0.555,0.2-0.872,0.254
			c-0.308,0.064-0.609,0.136-0.972,0.141c-0.35,0.019-0.693,0.042-1.097-0.03c-0.194-0.027-0.39-0.056-0.585-0.095
			c-0.203-0.064-0.407-0.135-0.61-0.212c-0.41-0.13-0.787-0.405-1.157-0.662c-0.673-0.573-1.209-1.305-1.493-1.979
			c-0.325-0.697-0.47-1.344-0.594-1.977c-0.11-0.623-0.142-1.219-0.158-1.798c-0.003-0.572,0.006-1.133,0.062-1.678
			c0.097-1.089,0.287-2.129,0.54-3.141c0.119-0.508,0.273-1.003,0.427-1.498c0.156-0.506,0.32-0.96,0.536-1.51l0.028-0.072
			c0.528-1.343,2.045-2.003,3.388-1.476c0.448,0.176,0.827,0.472,1.104,0.826c0.293,0.375,0.58,0.756,0.862,1.144l0.913,1.095
			c0.313,0.355,0.649,0.686,0.974,1.034l1.041,0.96c0.727,0.596,1.469,1.18,2.25,1.721c0.786,0.53,1.6,1.052,2.477,1.476
			c1.737,0.854,3.727,1.417,5.734,1.318c1.992-0.062,4.021-0.756,5.45-2.042c0.7-0.638,1.242-1.42,1.427-2.142
			c0.104-0.354,0.104-0.674,0.03-0.911c-0.023-0.059-0.036-0.114-0.046-0.167c-0.034-0.05-0.062-0.096-0.085-0.142
			c-0.048-0.126-0.094-0.027-0.104-0.104l-0.233-0.324l-0.113-0.164c0.041,0.068-0.101-0.166,0.09,0.149l-0.005-0.003l-0.01-0.007
			l-0.02-0.014l-0.038-0.029c-0.099-0.089-0.188-0.158-0.257-0.185c-0.156-0.064-0.193-0.087-0.338-0.079
			c-0.246-0.051-0.967,0.067-1.716,0.415c-1.54,0.696-3.208,1.872-4.851,3.066l-2.516,1.854c-0.848,0.631-1.713,1.266-2.622,1.882
			c-0.016,0.011-0.03,0.023-0.042,0.037L900.077,320.967z"/>
	</g>
	<g>
		<path fill="#D8D1CA" d="M977.724,318.827c0.759-0.804,1.59-1.5,2.457-2.15c0.874-0.671,1.803-1.261,2.771-1.802
			c0.968-0.544,1.983-1.018,3.059-1.419c1.08-0.394,2.219-0.714,3.492-0.855c0.646-0.064,1.314-0.08,2.058,0.019
			c0.725,0.072,1.55,0.329,2.334,0.805c0.789,0.472,1.47,1.286,1.813,2.104c0.084,0.205,0.178,0.415,0.237,0.618l0.126,0.6
			l0.028,0.149l-0.062,0.075L996,317.222v0.199l0.066,0.399c-0.033,0.445-0.038,1.062-0.203,1.429
			c-0.074,0.204-0.135,0.405-0.217,0.6c-0.104,0.184-0.204,0.364-0.318,0.538c-0.467,0.687-1.062,1.194-1.671,1.541
			c-1.231,0.692-2.463,0.924-3.634,1.008c-1.175,0.081-2.303,0.022-3.412-0.108c-1.109-0.123-2.203-0.324-3.275-0.622
			c-2.142-0.571-4.285-1.394-6.249-2.642c-0.974-0.627-1.93-1.328-2.755-2.163c-0.86-0.808-1.581-1.741-2.251-2.708
			c-0.305-0.498-0.621-0.993-0.913-1.501c-0.268-0.517-0.553-1.031-0.804-1.558c-0.233-0.531-0.476-1.064-0.692-1.604
			c-0.199-0.543-0.392-1.09-0.577-1.641l4.441,1.11l-0.798,0.991l-0.799,1.044c-0.522,0.698-1.025,1.399-1.473,2.09
			c-0.213,0.351-0.43,0.685-0.619,1.023c-0.184,0.334-0.332,0.663-0.466,0.965c-0.115,0.291-0.218,0.581-0.249,0.771
			c-0.071,0.229-0.046,0.299-0.088,0.392c0.024,0.016-0.042,0.081-0.001,0.119c0.008,0.024,0.012,0.053,0.014,0.089
			c0.027,0.03,0.058,0.062,0.085,0.099c0.032,0.081,0.149,0.152,0.257,0.232c0.089,0.091,0.25,0.155,0.4,0.228
			c0.277,0.167,0.684,0.277,1.057,0.407c0.409,0.092,0.812,0.213,1.259,0.27c0.873,0.181,1.803,0.261,2.749,0.356
			c0.473,0.032,0.952,0.096,1.436,0.124C976.768,318.725,977.245,318.781,977.724,318.827z M977.86,319.322
			c-0.9,0.421-1.815,0.836-2.774,1.129c-0.474,0.169-0.961,0.311-1.459,0.422c-0.49,0.133-1,0.227-1.521,0.311
			c-0.512,0.099-1.062,0.104-1.609,0.142c-0.274,0.014-0.57-0.014-0.858-0.022c-0.285-0.004-0.589-0.034-0.901-0.109
			c-0.309-0.062-0.614-0.114-0.95-0.252c-0.328-0.12-0.654-0.233-0.996-0.458c-0.169-0.102-0.336-0.205-0.501-0.317
			c-0.162-0.138-0.321-0.284-0.478-0.435c-0.326-0.281-0.565-0.682-0.805-1.062c-0.395-0.791-0.601-1.675-0.597-2.407
			c-0.025-0.769,0.096-1.42,0.229-2.051c0.143-0.616,0.348-1.177,0.561-1.716c0.222-0.527,0.45-1.04,0.716-1.519
			c0.518-0.964,1.101-1.845,1.729-2.676c0.31-0.42,0.646-0.815,0.981-1.21c0.343-0.404,0.672-0.757,1.086-1.178l0.055-0.055
			c1.013-1.028,2.667-1.04,3.694-0.027c0.344,0.338,0.576,0.759,0.692,1.193c0.121,0.46,0.235,0.923,0.343,1.39l0.41,1.366
			c0.149,0.45,0.328,0.886,0.489,1.333l0.58,1.292c0.435,0.833,0.888,1.661,1.394,2.466c0.516,0.796,1.059,1.596,1.698,2.33
			c1.263,1.468,2.871,2.767,4.757,3.463c1.856,0.725,3.995,0.883,5.814,0.262c0.895-0.312,1.699-0.819,2.152-1.41
			c0.235-0.285,0.36-0.579,0.386-0.826c0.002-0.063,0.012-0.119,0.023-0.172c-0.012-0.059-0.02-0.113-0.022-0.163
			c0.006-0.135-0.075-0.062-0.055-0.137l-0.088-0.389l-0.039-0.195c0.011,0.078-0.028-0.191,0.023,0.172l-0.003-0.005l-0.007-0.011
			L992,317.77l-0.023-0.042c-0.056-0.121-0.11-0.218-0.164-0.271c-0.117-0.121-0.144-0.157-0.279-0.206
			c-0.206-0.143-0.915-0.318-1.74-0.292c-1.689,0.036-3.686,0.461-5.665,0.915l-3.041,0.717c-1.028,0.247-2.072,0.492-3.15,0.701
			c-0.02,0.004-0.037,0.01-0.054,0.017L977.86,319.322z"/>
	</g>
	<g>
		<path fill="#D8D1CA" d="M1047.701,315.812c0.762-0.8,1.597-1.492,2.467-2.137c0.878-0.667,1.81-1.252,2.78-1.789
			c0.97-0.539,1.987-1.007,3.065-1.403c1.082-0.389,2.222-0.703,3.496-0.838c0.646-0.061,1.314-0.073,2.058,0.029
			c0.724,0.076,1.548,0.337,2.329,0.816c0.788,0.476,1.464,1.293,1.804,2.114c0.083,0.205,0.176,0.415,0.234,0.619l0.123,0.6
			l-0.04,0.15L1066,314.3v0.199l0.057,0.398c-0.035,0.444-0.047,1.061-0.214,1.428c-0.075,0.204-0.139,0.403-0.222,0.598
			c-0.104,0.184-0.207,0.363-0.322,0.537c-0.469,0.685-1.068,1.188-1.678,1.533c-1.235,0.686-2.469,0.912-3.641,0.991
			c-1.175,0.075-2.303,0.011-3.411-0.125c-1.109-0.128-2.2-0.335-3.272-0.639c-2.139-0.582-4.277-1.416-6.236-2.673
			c-0.971-0.632-1.922-1.338-2.744-2.177c-0.856-0.812-1.571-1.75-2.237-2.719c-0.302-0.499-0.616-0.997-0.905-1.506
			c-0.266-0.518-0.548-1.034-0.796-1.562c-0.231-0.532-0.471-1.066-0.684-1.607c-0.197-0.544-0.387-1.092-0.569-1.644l4.435,1.133
			l-0.802,0.987l-0.805,1.04c-0.525,0.695-1.031,1.394-1.482,2.083c-0.215,0.349-0.434,0.683-0.624,1.021
			c-0.186,0.333-0.336,0.662-0.472,0.962c-0.116,0.291-0.221,0.58-0.252,0.771c-0.072,0.228-0.048,0.299-0.09,0.391
			c0.023,0.016-0.043,0.081-0.002,0.12c0.008,0.023,0.011,0.053,0.013,0.089c0.027,0.03,0.058,0.062,0.084,0.099
			c0.032,0.082,0.149,0.153,0.257,0.233c0.088,0.091,0.248,0.156,0.398,0.229c0.276,0.168,0.683,0.281,1.055,0.412
			c0.408,0.094,0.811,0.217,1.258,0.276c0.871,0.186,1.801,0.27,2.746,0.37c0.473,0.034,0.952,0.101,1.436,0.131
			C1046.745,315.707,1047.222,315.765,1047.701,315.812z M1047.834,316.309c-0.902,0.417-1.819,0.827-2.779,1.115
			c-0.475,0.167-0.963,0.306-1.461,0.416c-0.491,0.13-1.002,0.221-1.522,0.303c-0.512,0.097-1.062,0.099-1.609,0.133
			c-0.274,0.013-0.571-0.017-0.859-0.027c-0.285-0.005-0.588-0.037-0.9-0.113c-0.309-0.064-0.613-0.117-0.948-0.257
			c-0.328-0.121-0.653-0.236-0.994-0.462c-0.168-0.103-0.335-0.206-0.5-0.32c-0.16-0.139-0.319-0.285-0.475-0.437
			c-0.325-0.282-0.562-0.685-0.8-1.066c-0.391-0.793-0.591-1.678-0.584-2.41c-0.021-0.769,0.103-1.419,0.239-2.05
			c0.146-0.615,0.354-1.175,0.569-1.713c0.226-0.525,0.456-1.037,0.725-1.515c0.521-0.961,1.108-1.839,1.743-2.667
			c0.311-0.418,0.649-0.812,0.986-1.205c0.345-0.402,0.676-0.754,1.092-1.172l0.055-0.055c1.019-1.022,2.673-1.026,3.695-0.008
			c0.342,0.34,0.571,0.762,0.686,1.196c0.119,0.46,0.231,0.924,0.337,1.392l0.402,1.368c0.147,0.451,0.324,0.887,0.483,1.336
			l0.573,1.295c0.431,0.835,0.88,1.666,1.382,2.473c0.512,0.798,1.05,1.601,1.687,2.338c1.255,1.474,2.856,2.781,4.739,3.487
			c1.853,0.734,3.99,0.903,5.812,0.291c0.896-0.308,1.704-0.81,2.16-1.399c0.236-0.284,0.363-0.578,0.39-0.824
			c0.002-0.063,0.012-0.119,0.024-0.172c-0.012-0.059-0.02-0.113-0.022-0.164c0.007-0.134-0.074-0.061-0.054-0.138l-0.086-0.39
			l-0.038-0.195c0.011,0.078-0.027-0.192,0.022,0.172l-0.003-0.005l-0.007-0.011l-0.012-0.021l-0.023-0.042
			c-0.055-0.121-0.108-0.219-0.162-0.271c-0.117-0.121-0.143-0.157-0.278-0.207c-0.205-0.144-0.914-0.322-1.739-0.301
			c-1.69,0.028-3.688,0.443-5.67,0.887l-3.045,0.702c-1.028,0.242-2.074,0.481-3.153,0.685c-0.02,0.004-0.037,0.009-0.054,0.017
			L1047.834,316.309z"/>
	</g>
	<g>
		<g>
			<path fill="#60504D" d="M1101.371,155.482c0,0-3.148-5.17-8.072-2.365c-4.924,2.805-9.267,5.091-9.267,5.091
				s-2.639,3.095-1.214,6.613c0,0,9.109,11.632,15.959,8.027S1101.371,155.482,1101.371,155.482z"/>
		</g>
		<g>
			<path fill="#60504D" d="M1033.181,179.118c0,0-0.803-6-6.439-5.412c-5.636,0.588-10.531,0.934-10.531,0.934
				s-3.661,1.772-3.771,5.566c0,0,3.662,14.313,11.384,13.768C1031.543,193.429,1033.181,179.118,1033.181,179.118z"/>
		</g>
		<g>
			<path fill="#60504D" d="M954.32,186.464c0,0-0.608-6.022-6.262-5.616c-5.651,0.406-10.556,0.594-10.556,0.594
				s-3.717,1.653-3.949,5.442c0,0,3.198,14.424,10.934,14.127C952.222,200.714,954.32,186.464,954.32,186.464z"/>
		</g>
		<g>
			<g>
				<path fill="#60504D" d="M776.746,157.482c0,0,3.148-5.17,8.072-2.365c4.924,2.805,9.267,5.091,9.267,5.091
					s2.639,3.095,1.214,6.613c0,0-9.109,11.632-15.959,8.027S776.746,157.482,776.746,157.482z"/>
			</g>
			<g>
				<path fill="#60504D" d="M844.937,181.118c0,0,0.803-6,6.439-5.412c5.636,0.588,10.531,0.934,10.531,0.934
					s3.661,1.772,3.771,5.566c0,0-3.662,14.313-11.384,13.768C846.574,195.429,844.937,181.118,844.937,181.118z"/>
			</g>
		</g>
	</g>
	<g>
		<g>
			<path fill="#696057" d="M961.183,487.276c-11.493,0-24.23-1.742-38.045-5.243c-7.804-1.978-15.138-4.298-21.649-6.611
				c-10.354-3.31-19.797-7.53-27.88-11.764c-1.465-0.768-2.033-2.575-1.27-4.042c0.763-1.467,2.568-2.04,4.039-1.28
				c0.313,0.162,11.994,6.114,28.68,11.917c19.599,5.996,42.361,8.448,64.994,0.902c1.728-0.576,3.388-1.188,4.978-1.826
				c-16.486,3.48-35.076,2.872-55.102-1.91c-5.549-1.325-10.766-2.858-15.538-4.449c-10.508-2.386-20.253-6.552-29.064-12.479
				c-1.337-0.9-1.725-2.696-0.876-4.067c0.848-1.372,2.629-1.829,4.03-1.032c0.285,0.161,11.635,6.479,28.393,11.99
				c21.121,4.46,42.503,0.576,59.56-4.999c-11.3,0.737-24.371,0.282-39.172-1.364c-26.879-2.99-49.878-9.022-50.106-9.083
				c-1.602-0.423-2.557-2.065-2.134-3.667c0.424-1.602,2.068-2.555,3.667-2.134c0.847,0.223,80.562,20.957,116.743,3.738
				c3.614-1.97,5.685-3.291,5.802-3.367c1.371-0.892,3.203-0.518,4.118,0.836c0.916,1.354,0.578,3.193-0.759,4.134
				c-1.779,1.252-3.721,2.399-5.824,3.442c-7.215,3.999-20.688,10.688-37.402,15.357c-7.61,2.126-15.051,3.583-22.272,4.376
				c20.697,2.387,43.564,0.22,63.223-13.132c1.251-0.851,2.938-0.635,3.937,0.498c0.999,1.134,0.999,2.835-0.001,3.968
				c-0.481,0.545-12.041,13.441-34.302,20.861c-6.112,2.037-12.229,3.391-18.284,4.173c18.198,1.237,36.133-1.514,49.442-12.346
				c1.286-1.048,3.173-0.852,4.221,0.433c1.046,1.285,0.852,3.175-0.434,4.221C995.501,482.6,980.013,487.276,961.183,487.276z"/>
		</g>
		<g>
			<path fill="#696057" d="M808.031,514.87c-1.649,0-2.832-0.27-3.758-0.613c-2.116-0.787-3.555-2.319-4.158-4.433
				c-0.607-2.125-0.29-4.321,0.941-6.527c5.872-10.519,35.042-21.039,51.058-26.144c-15.349-4.591-38.217-8.717-58.069-1.341
				c-1.554,0.572-3.28-0.214-3.857-1.768c-0.577-1.553,0.215-3.28,1.768-3.857c13.691-5.084,28.405-5.22,41.45-3.402
				c-13.252-8.106-19.668-14.739-19.069-19.716c0.827-6.875,11.724-6.287,15.826-6.065c20.207,1.092,31.565,10.037,37.536,17.348
				c4.693,5.746,6.865,11.367,7.738,14.184c12.643,3.003,26.691-0.412,26.838-0.448c1.61-0.396,3.235,0.58,3.636,2.186
				c0.4,1.607-0.576,3.234-2.183,3.636c-0.686,0.171-16.949,4.145-31.552-0.026c-1.073-0.307-1.888-1.184-2.113-2.277
				c-0.231-1.083-6.105-26.768-40.225-28.612c-7.023-0.379-9.07,0.62-9.526,0.929c0.26,1.323,3.648,6.139,16.841,14.117
				c9.803,5.929,20.905,10.979,26.4,12.009c0.832,0.156,1.532,0.647,1.968,1.321c3.95,1.56,6.394,2.736,6.796,2.932
				c0.969,0.473,1.609,1.43,1.678,2.506s-0.446,2.106-1.349,2.698c-0.134,0.088-13.61,8.914-28.423,17.059
				C823.13,512.167,813.251,514.87,808.031,514.87z M861.885,480.448c-4.112,1.215-14.23,4.31-24.768,8.323
				c-23.296,8.873-29.311,14.742-30.822,17.45c-0.641,1.148-0.468,1.755-0.41,1.954c0.054,0.188,0.089,0.312,0.479,0.457
				c6.988,2.594,36.757-13.431,58.29-27.107C863.82,481.191,862.896,480.829,861.885,480.448z"/>
		</g>
	</g>
</g>
<g>
	<g>
		<ellipse fill="#CAC8C8" cx="1202.371" cy="873.858" rx="142.514" ry="27.003"/>
	</g>
	<g>
		<g>
			<path fill="#453635" d="M1288.391,872.177l-27.269-182.589l-55.312,14.304l-55.271-14.304l-27.022,182.589
				c4.986,20.923,76.484,22.694,82.484,22.814V895c0,0-0.168-0.001,0-0.004c0.17,0.003,0,0.004,0,0.004v-0.009
				C1214,894.871,1283.402,893.1,1288.391,872.177z"/>
		</g>
	</g>
	<g>
		<g>
			<g>
				<path fill="#382E2B" d="M1180.831,697.426l-30.288-7.838l-27.246,182.589c1.979,8.303,14.276,13.587,28.812,16.951
					L1180.831,697.426z"/>
			</g>
		</g>
	</g>
	<g>
		<g>
			<path fill="#E3B7A5" d="M1206,878.086v0.007c0,0,0.17,0,0-0.002c-0.168,0.002,0,0.002,0,0.002V878.086
				c-6-0.114-68.107-1.662-80.561-18.777l-1.812,12.868c4.987,20.923,76.372,22.694,82.372,22.814V895c0,0-0.168-0.001,0-0.004
				c0.17,0.003,0,0.004,0,0.004v-0.009c8-0.12,77.402-1.892,82.391-22.814l-1.943-12.866C1273.98,876.425,1213,877.972,1206,878.086
				z"/>
		</g>
	</g>
	<g>
		<path fill="#584545" d="M1047.18,510c0.467,6,0.739,12.227,0.739,17.516c0,39.068,92.498,197.377,155.273,196.433
			c75.604,4.239,155.317-157.304,155.317-196.372c0-5.289,0.272-11.576,0.741-17.576H1047.18z"/>
	</g>
	<g>
		<path fill="#493939" d="M1090.919,527.516c0-5.289-0.272-11.516-0.739-17.516h-43c0.467,6,0.739,12.227,0.739,17.516
			c0,37.934,87.204,188.279,149.732,196.113C1144.154,678.508,1090.919,558.936,1090.919,527.516z"/>
	</g>
	<g>
		<g>
			<path fill="#B3A7A1" d="M1354.006,499.196l-10.874-16.143l-47.552-0.498c-25.957-3.725-58.03-5.929-92.751-5.929
				c-28.682,0-55.556,1.505-78.67,4.126l-58.963-0.62l-13.13,18.767c-3.73,2.606-5.732,5.353-5.732,8.192
				c0,16.826,70.064,30.464,156.495,30.464s156.495-13.638,156.495-30.464C1359.324,504.36,1357.467,501.715,1354.006,499.196z"/>
		</g>
	</g>
	<g>
		<g>
			<ellipse fill="#C7BBB6" cx="1203.747" cy="483.053" rx="139.385" ry="30.466"/>
		</g>
	</g>
	<g>
		<path fill="#DBD9D6" d="M1201.085,545.204c-24.062,0-45.479-1.97-63.458-4.639c-56.599-8.4-91.378-24.91-92.831-25.608
			c-2.737-1.316-3.89-4.604-2.573-7.341c1.316-2.735,4.601-3.887,7.338-2.574l0,0c0.344,0.165,35.043,16.592,90.117,24.707
			c50.727,7.475,129.653,9.227,217.584-24.877c2.835-1.098,6.019,0.308,7.117,3.139c1.099,2.832-0.307,6.019-3.139,7.117
			C1302.042,538.088,1246.8,545.204,1201.085,545.204z"/>
	</g>
	<g>
		<path fill="#DBD9D6" d="M1201.085,577.204c-24.062,0-45.479-1.97-63.458-4.639c-56.599-8.4-91.378-24.91-92.831-25.608
			c-2.737-1.316-3.89-4.604-2.573-7.341c1.316-2.735,4.601-3.887,7.338-2.574l0,0c0.344,0.165,35.043,16.592,90.117,24.707
			c50.727,7.476,129.653,9.227,217.584-24.877c2.835-1.098,6.019,0.308,7.117,3.139c1.099,2.832-0.307,6.019-3.139,7.117
			C1302.042,570.088,1246.8,577.204,1201.085,577.204z"/>
	</g>
	<g>
		<path fill="#DBD9D6" d="M1201.086,588.704c-23.921,0-45.219-1.959-63.092-4.611c-56.224-8.346-91.762-25.22-92.114-25.389
			c-1.493-0.719-2.121-2.51-1.404-4.003c0.719-1.493,2.511-2.123,4.004-1.405c0.346,0.166,35.239,16.707,90.634,24.896
			c51.07,7.553,130.527,9.344,219.053-24.989c1.545-0.602,3.282,0.167,3.882,1.712s-0.167,3.283-1.712,3.882
			C1301.466,581.63,1246.542,588.704,1201.086,588.704z"/>
	</g>
	<g>
		<g>
			<path fill="#C6B200" d="M1202,541.5c0,0,1-11,10-11s9,10.5,9,10.5s0.5,47.5-8.5,47S1202,541.5,1202,541.5z"/>
		</g>
		<g>
			<circle fill="#94842B" cx="1211.5" cy="541.5" r="4.5"/>
		</g>
	</g>
	<g>
		<g>
			<path fill="#C6B200" d="M1279,533.5c0,0,1-11,10-11s9,10.5,9,10.5s0.5,47.5-8.5,47S1279,533.5,1279,533.5z"/>
		</g>
		<g>
			<circle fill="#94842B" cx="1288.5" cy="533.5" r="4.5"/>
		</g>
	</g>
	<g>
		<g>
			<path fill="#C6B200" d="M1117,535.5c0,0,1-11,10-11s9,10.5,9,10.5s0.5,47.5-8.5,47S1117,535.5,1117,535.5z"/>
		</g>
		<g>
			<circle fill="#94842B" cx="1126.5" cy="535.5" r="4.5"/>
		</g>
	</g>
	<g>
		<g>
			<path fill="#C6B200" d="M1046,519.5c0,0,1-11,10-11s9,10.5,9,10.5s0.5,47.5-8.5,47S1046,519.5,1046,519.5z"/>
		</g>
		<g>
			<circle fill="#94842B" cx="1055.5" cy="519.5" r="4.5"/>
		</g>
	</g>
	<g>
		<g>
			<path fill="#C6B200" d="M1345,513.5c0,0,1-11,10-11s9,10.5,9,10.5s0.5,47.5-8.5,47S1345,513.5,1345,513.5z"/>
		</g>
		<g>
			<circle fill="#94842B" cx="1354.5" cy="513.5" r="4.5"/>
		</g>
	</g>
	<g>
		<g>
			<g>
				<path fill="#696057" d="M1251.335,789.667c0,0,8,25.999,22,29.333C1273.335,819,1274.669,796.334,1251.335,789.667z"/>
			</g>
			<g>
				<path fill="#696057" d="M1252.649,810.672c0,0,1.507,20.655,12.733,19.104C1276.61,828.226,1252.649,810.672,1252.649,810.672z"
					/>
			</g>
		</g>
		<g>
			<g>
				<path fill="#696057" d="M1201.335,789.667c0,0,8,25.999,22,29.333C1223.335,819,1224.669,796.334,1201.335,789.667z"/>
			</g>
			<g>
				<path fill="#696057" d="M1202.649,810.672c0,0,1.507,20.655,12.733,19.104C1226.61,828.226,1202.649,810.672,1202.649,810.672z"
					/>
			</g>
		</g>
		<g>
			<g>
				<path fill="#696057" d="M1147.335,789.667c0,0,8,25.999,22,29.333C1169.335,819,1170.669,796.334,1147.335,789.667z"/>
			</g>
			<g>
				<path fill="#696057" d="M1148.649,810.672c0,0,1.507,20.655,12.733,19.104C1172.61,828.226,1148.649,810.672,1148.649,810.672z"
					/>
			</g>
		</g>
		<g>
			<path fill="#696057" d="M1164.667,791c0,0,25.334,3.333,29,17.333s-20.333,9.333-18,20s19-5.999,26,0.667s9.667,9.334,16,7
				c0,0-9.333-2.334-13-7.667S1193,822,1186,826c0,0-3.666-0.667,5.667-4.667s9.332-16.334-2.334-24.667S1164.667,791,1164.667,791z
				"/>
		</g>
		<g>
			<path fill="#696057" d="M1214.667,791c0,0,25.334,3.333,29,17.333s-20.333,9.333-18,20s19-5.999,26,0.667s9.667,9.334,16,7
				c0,0-9.333-2.334-13-7.667S1243,822,1236,826c0,0-3.666-0.667,5.667-4.667s9.332-16.334-2.334-24.667S1214.667,791,1214.667,791z
				"/>
		</g>
		<g>
			<g>
				<path fill="#696057" d="M1134.298,797.388l-0.628,4.191c1.881,1.914,3.314,4.148,3.997,6.754
					c1.607,6.139-2.104,8.688-6.583,10.516l-0.791,5.284c0.902-0.676,2.533-1.582,5.374-2.8
					C1144.734,817.447,1144.988,805.695,1134.298,797.388z"/>
			</g>
			<g>
				<path fill="#696057" d="M1148.667,828.333c-3.665-5.329-11.656-6.331-18.653-2.341l-0.713,4.764
					c5.713-2.019,12.508-5.431,16.366-1.756c7,6.666,9.667,9.334,16,7C1161.667,836,1152.334,833.666,1148.667,828.333z"/>
			</g>
		</g>
	</g>
</g>
<g>
	<g>
		<ellipse fill="#CAC8C8" cx="585.808" cy="917.362" rx="171.017" ry="28.503"/>
	</g>
	<g>
		<path fill="#894727" d="M675.845,937.495l-26.472-232.461L583.312,705l0,0h-1.42h-1.86l0,0l-66.11,0.034L487.78,937.495
			c0,0,62.15,5.945,94.101,3.834C613.827,943.44,675.845,937.495,675.845,937.495z"/>
	</g>
	<g>
		<g>
			<path fill="#965135" d="M621.019,705.036l20.618,235.117c19.122-1.212,34.208-2.658,34.208-2.658l-26.472-232.461L583.312,705
				h-1.42h-1.86l-7.577,0.004L621.019,705.036z"/>
		</g>
		<g>
			<path fill="#965135" d="M493.973,882.426l-6.193,55.069c0,0,0.498,0.048,1.413,0.132L493.973,882.426z"/>
		</g>
	</g>
	<g>
		<path fill="#6B3F23" d="M553.487,705.038l48.951-0.028L583.312,705l0,0h-1.42h-1.86l0,0l-66.11,0.034L487.78,937.495
			c0,0,19.241,1.84,41.801,3.108L553.487,705.038z"/>
	</g>
	<g>
		<g>
			<path fill="#BC6124" d="M579.235,674.002l-132.58-11.484c0,0-5.519,65.782-5.519,96.265c0,30.461,35.178,118.826,140.204,115.605
				c105.027,3.221,138.975-88.835,138.975-119.296c0-30.482-8.432-92.574-8.432-92.574L579.235,674.002z"/>
		</g>
	</g>
	<g>
		<g>
			<path fill="#B7991C" d="M605.474,674.002l106.708-9.239c-0.191-1.447-0.299-2.245-0.299-2.245l-119.525,10.349L605.474,674.002z"
				/>
		</g>
		<g>
			<path fill="#A05320" d="M467.375,758.782c0-27.127,4.371-82.213,5.333-94.008l-26.053-2.257c0,0-5.519,65.782-5.519,96.265
				c0,24.391,22.565,85.905,85.482,107.798C483.534,834.319,467.375,779.422,467.375,758.782z"/>
		</g>
	</g>
	<g>
		<g>
			<path fill="#F4DBB2" d="M706.752,655.844l-9.192-32.506l-40.199,18.438c-21.943-3.149-49.058-5.012-78.409-5.012
				c-24.246,0-46.965,1.271-66.505,3.488l-49.845-19.384l-11.1,34.724c-3.154,2.203-4.846,4.526-4.846,6.926
				c0,14.225,59.232,25.754,132.297,25.754s132.296-11.529,132.296-25.754C711.248,660.209,709.679,657.973,706.752,655.844z"/>
		</g>
	</g>
	<g>
		<g>
			<path fill="#F4E3C9" d="M698.38,626.045c0,21.786-53.047,30.028-118.483,30.028c-65.435,0-118.481-8.242-118.481-30.028
				c0-21.783,53.047-39.444,118.481-39.444C645.333,586.601,698.38,604.262,698.38,626.045z"/>
		</g>
	</g>
</g>
<g>
	<path fill="#60504D" d="M575.645,789.987c-12.878,0-26.119-0.534-39.669-1.605c-55.883-4.417-98.279-16.622-98.701-16.745
		c-1.855-0.54-2.922-2.482-2.382-4.338c0.541-1.855,2.483-2.926,4.338-2.383c0.416,0.121,42.244,12.151,97.444,16.499
		c50.737,3.999,123.493,2.14,181.978-29.403c1.7-0.917,3.824-0.283,4.741,1.419c0.918,1.701,0.282,3.824-1.419,4.741
		c-26.552,14.321-58.075,23.93-93.693,28.561C611.598,788.901,593.992,789.987,575.645,789.987z"/>
</g>
<g>
	<path fill="#60504D" d="M571.966,717.451c-15.635,0-30.146-0.81-43.007-1.994c-52.2-4.806-89.269-16.659-89.637-16.778
		c-1.839-0.595-2.848-2.567-2.253-4.407c0.595-1.838,2.569-2.851,4.407-2.253c0.362,0.117,36.833,11.765,88.304,16.484
		c47.367,4.343,117.513,3.542,182.697-24.941c1.773-0.773,3.835,0.034,4.608,1.806c0.774,1.771-0.034,3.835-1.806,4.608
		C666.433,711.32,614.963,717.451,571.966,717.451z"/>
</g>
<g>
	<g>
		<path fill="#60504D" d="M509.034,862.937c-0.561,0-1.128-0.135-1.656-0.419c-29.513-15.892-48.818-49.089-55.828-96.003
			c-5.236-35.044-1.903-64.948-1.758-66.204c0.221-1.92,1.953-3.301,3.876-3.076c1.92,0.221,3.298,1.956,3.078,3.876
			c-0.034,0.3-3.376,30.37,1.75,64.52c4.664,31.076,17.507,72.043,52.201,90.724c1.702,0.917,2.339,3.039,1.422,4.741
			C511.486,862.269,510.28,862.937,509.034,862.937z"/>
	</g>
	<g>
		<path fill="#60504D" d="M517.613,868.298c-0.716,0-1.439-0.219-2.062-0.674c-23.941-17.496-39.029-50.508-44.844-98.119
			c-4.285-35.085-1.647-65.584-1.621-65.889c0.172-1.925,1.878-3.335,3.797-3.175c1.925,0.172,3.347,1.872,3.176,3.797
			c-0.105,1.182-9.897,118.623,43.622,157.733c1.561,1.141,1.901,3.331,0.761,4.892
			C519.757,867.801,518.692,868.298,517.613,868.298z"/>
	</g>
	<g>
		<path fill="#60504D" d="M529.834,870.08c-0.843,0-1.688-0.303-2.359-0.915c-17.386-15.876-28.517-47.92-33.083-95.24
			c-3.362-34.848-1.738-65.592-1.721-65.898c0.105-1.931,1.748-3.393,3.686-3.304c1.93,0.106,3.409,1.757,3.303,3.687
			c-0.017,0.302-1.613,30.596,1.708,64.93c3.024,31.278,10.828,72.396,30.826,90.656c1.428,1.304,1.528,3.518,0.225,4.945
			C531.729,869.696,530.784,870.08,529.834,870.08z"/>
	</g>
	<g>
		<path fill="#60504D" d="M541.214,875.806c-1.124,0-2.227-0.539-2.903-1.54c-27.128-40.15-24.326-157.929-24.193-162.923
			c0.051-1.933,1.649-3.475,3.591-3.406c1.932,0.052,3.457,1.659,3.406,3.592c-0.032,1.201-2.88,120.521,22.996,158.817
			c1.083,1.603,0.661,3.777-0.94,4.86C542.569,875.611,541.888,875.806,541.214,875.806z"/>
	</g>
	<g>
		<path fill="#60504D" d="M551.936,876.879c-1.428,0-2.769-0.88-3.288-2.299c-16.155-44.157-9.094-155.44-8.785-160.156
			c0.126-1.929,1.768-3.413,3.721-3.264c1.929,0.126,3.39,1.792,3.264,3.721c-0.075,1.141-7.275,114.521,8.374,157.295
			c0.664,1.815-0.269,3.825-2.084,4.489C552.741,876.81,552.334,876.879,551.936,876.879z"/>
	</g>
	<g>
		<path fill="#60504D" d="M564.5,879.5c-1.933,0-3.5-1.567-3.5-3.5V715c0-1.933,1.567-3.5,3.5-3.5s3.5,1.567,3.5,3.5v161
			C568,877.933,566.433,879.5,564.5,879.5z"/>
	</g>
</g>
<g>
	<g>
		<path fill="#60504D" d="M646.787,862.937c-1.246,0-2.452-0.668-3.084-1.842c-0.917-1.702-0.28-3.824,1.422-4.741
			c34.69-18.679,47.534-60.808,52.2-92.859c5.127-35.224,1.783-66.377,1.749-66.688c-0.213-1.921,1.172-3.651,3.093-3.864
			c1.917-0.212,3.65,1.171,3.864,3.092c0.145,1.299,3.475,32.23-1.758,68.32c-7.005,48.324-26.311,82.269-55.83,98.163
			C647.915,862.802,647.347,862.937,646.787,862.937z"/>
	</g>
	<g>
		<path fill="#60504D" d="M638.207,868.298c-1.079,0-2.144-0.497-2.829-1.435c-1.141-1.561-0.8-3.751,0.761-4.892
			c53.551-39.134,43.728-156.551,43.622-157.732c-0.172-1.926,1.25-3.626,3.175-3.798c1.923-0.158,3.625,1.25,3.797,3.175
			c0.027,0.305,2.664,30.804-1.621,65.889c-5.815,47.611-20.903,80.623-44.844,98.119
			C639.646,868.079,638.923,868.298,638.207,868.298z"/>
	</g>
	<g>
		<path fill="#60504D" d="M625.986,870.08c-0.949,0-1.895-0.384-2.585-1.14c-1.304-1.428-1.203-3.642,0.225-4.945
			c38.659-35.301,32.599-154.387,32.534-155.586c-0.106-1.93,1.373-3.58,3.303-3.687c1.925-0.088,3.58,1.373,3.686,3.304
			c0.276,5.03,6.282,123.622-34.803,161.139C627.674,869.777,626.829,870.08,625.986,870.08z"/>
	</g>
	<g>
		<path fill="#60504D" d="M614.606,875.806c-0.674,0-1.356-0.194-1.957-0.6c-1.602-1.083-2.023-3.258-0.94-4.86
			c25.884-38.308,23.028-157.584,22.996-158.785c-0.052-1.934,1.473-3.561,3.406-3.561c0.031,0,0.063,0,0.095,0
			c1.89,0,3.446,1.475,3.497,3.375c0.133,4.994,2.936,122.756-24.193,162.906C616.833,875.283,615.729,875.806,614.606,875.806z"/>
	</g>
	<g>
		<path fill="#60504D" d="M603.884,876.879c-0.399,0-0.805-0.068-1.202-0.214c-1.815-0.664-2.749-2.674-2.084-4.489
			c15.652-42.783,8.449-156.155,8.375-157.295c-0.126-1.929,1.335-3.595,3.264-3.721c1.919-0.152,3.595,1.335,3.721,3.264
			c0.308,4.716,7.369,115.999-8.786,160.156C606.653,875.999,605.312,876.879,603.884,876.879z"/>
	</g>
	<g>
		<path fill="#60504D" d="M591.5,879.5c-1.933,0-3.5-1.567-3.5-3.5V715c0-1.933,1.567-3.5,3.5-3.5s3.5,1.567,3.5,3.5v161
			C595,877.933,593.433,879.5,591.5,879.5z"/>
	</g>
</g>
<g>
	<g>
		<circle fill="#B3A7A1" cx="580.75" cy="689.25" r="10.25"/>
	</g>
	<g>
		<circle fill="#E2C5AC" cx="580.75" cy="689.25" r="6.75"/>
	</g>
</g>
<g>
	<g>
		<circle fill="#B3A7A1" cx="632.75" cy="689.25" r="10.25"/>
	</g>
	<g>
		<circle fill="#E2C5AC" cx="632.75" cy="689.25" r="6.75"/>
	</g>
</g>
<g>
	<g>
		<circle fill="#B3A7A1" cx="683.75" cy="676.25" r="10.25"/>
	</g>
	<g>
		<circle fill="#E2C5AC" cx="683.75" cy="676.25" r="6.75"/>
	</g>
</g>
<g>
	<g>
		<circle fill="#B3A7A1" cx="525.75" cy="689.25" r="10.25"/>
	</g>
	<g>
		<circle fill="#E2C5AC" cx="525.75" cy="689.25" r="6.75"/>
	</g>
</g>
<g>
	<g>
		<circle fill="#B3A7A1" cx="473.75" cy="679.25" r="10.25"/>
	</g>
	<g>
		<circle fill="#E2C5AC" cx="473.75" cy="679.25" r="6.75"/>
	</g>
</g>
</svg>
