<svg width="1139" height="419" xmlns="http://www.w3.org/2000/svg" xmlns:xlink="http://www.w3.org/1999/xlink" overflow="hidden"><defs><clipPath id="clip0"><path d="M71 311 1210 311 1210 730 71 730Z" fill-rule="evenodd" clip-rule="evenodd"/></clipPath></defs><g clip-path="url(#clip0)" transform="translate(-71 -311)"><path d="M89.0986 320.611C89.4939 319.228 93.1398 320.133 95.0267 319.426 96.3609 318.926 97.2318 317.506 98.5835 317.056 100.864 316.296 103.34 316.342 105.697 315.87 107.295 315.551 108.859 315.08 110.44 314.685L170.906 315.87C227.87 315.87 214.16 317.482 242.042 313.5 249.946 313.895 257.886 313.843 265.754 314.685 269.696 315.107 274.738 316.889 278.796 318.241 295.395 317.846 312.005 317.792 328.592 317.056 329.84 317 331.031 316.429 332.149 315.87 333.423 315.233 334.52 314.29 335.706 313.5 342.226 315.673 336.384 313.38 342.819 317.056 344.354 317.932 346.027 318.549 347.562 319.426 348.799 320.133 349.844 321.159 351.118 321.796 352.236 322.355 353.49 322.586 354.675 322.982 360.998 322.586 367.367 322.652 373.645 321.796 376.122 321.459 378.679 320.812 380.759 319.426L387.872 314.685C398.148 315.08 408.441 315.138 418.698 315.87 425.054 316.324 431.305 317.887 437.668 318.241L459.009 319.426C473.835 323.131 455.402 318.396 467.308 321.796 477.729 324.773 467.08 321.325 475.607 324.167 481.536 323.772 487.531 323.958 493.392 322.982 494.797 322.747 495.597 321.062 496.948 320.611 499.229 319.851 501.673 319.691 504.062 319.426 516.723 318.02 530.728 317.649 543.187 317.056 547.7 316.153 554.293 314.685 558.6 314.685 569.278 314.685 579.941 315.475 590.612 315.87 600.409 319.135 585.066 314.312 606.025 318.241 608.481 318.701 613.138 320.611 613.138 320.611 623.018 320.216 632.914 320.106 642.778 319.426 644.404 319.314 645.923 318.56 647.521 318.241 653.78 316.989 661.61 316.091 667.676 315.87 685.058 315.239 702.454 315.08 719.843 314.685L741.184 315.87C750.272 316.314 759.376 316.43 768.453 317.056 770.851 317.221 773.164 318.181 775.567 318.241 805.201 318.972 834.847 319.031 864.487 319.426 866.415 319.811 876.012 321.796 877.529 321.796 885.838 321.796 894.126 320.972 902.427 320.611L932.067 319.426C939.118 318.016 942.829 317.056 951.037 317.056 957.373 317.056 963.684 317.846 970.007 318.241 971.192 318.636 972.446 318.867 973.564 319.426 978.36 321.823 977.242 323.73 984.234 324.167L1003.2 325.352C1009.13 324.957 1015.11 325.007 1020.99 324.167 1023.46 323.813 1025.68 322.402 1028.1 321.796 1029.68 321.401 1031.24 320.879 1032.84 320.611 1058.69 316.306 1030.12 321.866 1048.26 318.241L1145.48 319.426C1147.88 319.481 1150.19 320.456 1152.59 320.611 1162.46 321.248 1172.35 321.401 1182.23 321.796 1182.63 336.809 1183.14 351.818 1183.42 366.833 1184 398.276 1180.75 427.903 1185.79 458.093 1186.12 460.08 1186.58 462.043 1186.97 464.019 1187.37 475.87 1187.54 487.732 1188.16 499.574 1188.33 502.755 1188.51 505.983 1189.34 509.056 1189.72 510.43 1190.93 511.426 1191.72 512.611 1194.5 526.549 1192.59 520.722 1196.46 530.389 1196.85 532.364 1197.11 534.371 1197.64 536.315 1198.3 538.725 1199.52 540.976 1200.02 543.426 1201.48 550.766 1201.28 549.196 1202.39 557.648 1203.21 563.965 1204.18 570.267 1204.76 576.611 1206.06 590.892 1204.56 585.509 1207.13 593.204 1207.78 603.696 1209.5 629.404 1209.5 638.241 1209.5 652.073 1209.02 665.907 1208.31 679.722 1208.23 681.349 1207.86 683.006 1207.13 684.463 1205.85 687.011 1202.39 691.574 1202.39 691.574 1184.27 745.91 1202.51 698.665 1050.63 699.87L1039.96 701.056 1028.1 702.241C1024.93 702.592 1021.79 703.129 1018.62 703.426 1009.14 704.314 990.162 705.796 990.162 705.796 988.976 706.191 987.818 706.679 986.605 706.982 936.938 719.394 907.074 708.165 838.404 706.982 830.5 706.586 822.545 706.778 814.692 705.796 809.841 705.19 805.258 703.199 800.465 702.241 798.489 701.846 796.504 701.492 794.537 701.056 792.946 700.702 791.392 700.19 789.794 699.87 785.461 699.004 781.085 698.366 776.752 697.5 775.155 697.181 773.536 696.887 772.01 696.315 770.355 695.694 768.848 694.735 767.268 693.944 757.783 694.34 748.177 693.57 738.813 695.13 736.002 695.598 734.248 698.596 731.699 699.87 730.242 700.599 728.523 700.608 726.957 701.056 717.744 703.687 724.242 704.245 705.616 705.796 695.668 706.625 680.603 707.996 671.233 708.167L560.971 709.352C557.893 710.378 554.322 711.49 551.486 712.907 549.425 713.938 547.698 715.607 545.558 716.463 543.687 717.211 541.606 717.253 539.63 717.648 536.864 718.833 534.023 719.858 531.331 721.204 529.27 722.234 527.509 723.824 525.403 724.759 523.914 725.421 522.248 725.578 520.661 725.944 507.993 728.867 512.632 727.985 500.505 729.5L450.71 728.315C433.782 727.61 453.685 727.194 436.482 723.574 431.44 722.513 426.212 722.717 421.069 722.389L380.759 720.019C379.573 719.624 378.351 719.325 377.202 718.833 375.577 718.137 374.12 717.067 372.459 716.463 369.756 715.48 366.89 715.002 364.16 714.093 362.141 713.42 360.288 712.27 358.232 711.722 354.338 710.684 350.328 710.142 346.376 709.352 321.795 704.438 364.51 712.863 332.149 706.982 330.545 706.69 329.028 705.958 327.406 705.796 310.03 704.059 271.401 703.686 261.012 703.426 258.246 703.031 255.389 703.043 252.713 702.241 251.348 701.831 250.577 699.972 249.156 699.87 244.802 699.559 240.467 700.729 236.114 701.056 182.683 705.062 218.756 701.879 188.69 704.611 165.083 710.511 181.822 706.767 124.667 704.611 123.418 704.564 122.33 703.697 121.11 703.426 118.763 702.905 116.393 702.432 113.996 702.241 106.501 701.641 98.9786 701.451 91.4698 701.056 89.727 695.829 89.2913 695.297 89.0986 688.019 87.2064 616.52 86.2484 544.999 84.3562 473.5 84.217 468.243 81.8394 456.741 80.7993 452.167 79.716 447.402 78.117 442.752 77.2425 437.944 73.814 419.094 73.8018 414.566 72.5001 397.648 72.8953 388.562 72.3227 379.381 73.6857 370.389 74.3233 366.182 77.0821 362.574 78.4282 358.537 78.8234 357.352 79.1215 356.13 79.6138 354.982 80.31 353.358 81.3285 351.881 81.9849 350.241 82.9132 347.921 82.9697 345.209 84.3562 343.13L89.0986 336.019C89.4939 334.438 89.6424 332.775 90.2843 331.278 90.8455 329.969 92.3098 329.104 92.6554 327.722 93.1346 325.806 88.7034 321.994 89.0986 320.611Z" stroke="#2F528F" stroke-miterlimit="8" fill-rule="evenodd"/></g></svg>