<svg width="1077" height="84" xmlns="http://www.w3.org/2000/svg" xmlns:xlink="http://www.w3.org/1999/xlink" overflow="hidden"><defs><clipPath id="clip0"><path d="M67 278 1144 278 1144 362 67 362Z" fill-rule="evenodd" clip-rule="evenodd"/></clipPath></defs><g clip-path="url(#clip0)" transform="translate(-67 -278)"><path d="M68 345.509C83.3106 343.604 76.5648 296.533 79.2806 286.551 81.9963 276.569 82.6379 285.968 84.2943 285.615 85.5647 285.344 86.8011 284.991 88.0545 284.679 91.8148 284.991 95.6034 285.151 99.3353 285.615 100.639 285.777 101.996 286.004 103.096 286.551 110.387 290.18 102.621 289.886 114.376 290.294 129.824 290.831 145.294 290.918 160.753 291.23 166.739 292.347 166.573 292.215 173.287 294.038 177.247 295.113 183.01 297.174 187.074 297.781L193.342 298.717C197.937 298.405 202.561 298.268 207.129 297.781 211.146 297.353 211.127 296.408 214.65 294.973 217.93 293.637 221.132 292.112 224.677 291.23 241.794 286.97 224.301 291.618 237.211 287.487 238.426 287.098 239.79 286.992 240.971 286.551 242.319 286.048 243.384 285.182 244.732 284.679 246.735 283.931 251.632 283.207 253.506 282.808 254.776 282.536 255.991 282.131 257.266 281.872 260.59 281.195 267.293 280 267.293 280L362.553 280.936C366.335 281.002 370.071 281.576 373.834 281.872 378.009 282.2 382.18 282.576 386.368 282.808 393.463 283.2 400.573 283.431 407.676 283.743 408.929 284.055 410.146 284.465 411.436 284.679 413.917 285.091 416.568 284.967 418.957 285.615 429.756 288.547 420.469 288.673 431.491 289.358 439.413 289.851 447.367 289.982 455.306 290.294 488.732 295.286 463.298 291.83 545.552 290.294 550.998 290.193 556.412 289.638 561.846 289.358L581.901 288.423C584.826 288.111 587.778 287.919 590.675 287.487 592.745 287.178 599.722 284.945 600.702 284.679 603.186 284.005 605.716 283.431 608.223 282.808 609.476 282.496 610.701 282.111 611.983 281.872L616.997 280.936C633.291 281.248 649.598 281.306 665.88 281.872 668.76 281.972 671.878 283.225 674.654 283.743 676.721 284.129 678.832 284.367 680.921 284.679 682.174 285.303 683.297 286.108 684.681 286.551 686.264 287.058 687.979 287.37 689.695 287.487 697.196 287.996 704.736 288.111 712.256 288.423L769.914 287.487C779.111 287.285 788.308 287.008 797.489 286.551 800.85 286.384 804.181 285.971 807.516 285.615 813.129 285.016 815.906 284.549 821.304 283.743 836.345 284.055 851.4 284.104 866.427 284.679 867.746 284.73 868.899 285.393 870.187 285.615 874.339 286.33 878.588 286.715 882.721 287.487L892.748 289.358C913.362 288.503 922.537 287.566 944.138 289.358 945.996 289.513 947.403 290.74 949.152 291.23 950.765 291.682 952.495 291.854 954.166 292.166 955.419 292.79 956.443 293.842 957.926 294.038 963.701 294.799 969.646 294.49 975.474 294.973 977.186 295.115 978.816 295.597 980.488 295.909 981.304 296.214 987.533 298.76 989.261 298.717 1000.57 298.435 1023.1 296.845 1023.1 296.845L1029.37 295.909C1031.87 295.57 1022.91 294.621 1036.89 294.973 1050.88 295.326 1122.03 289.355 1113.28 298.025 1069.21 341.706 1234.32 349.59 1060.41 357.688 886.506 365.785 400.039 350.304 69.8538 346.611" stroke="#000000" stroke-width="2" stroke-miterlimit="8" fill-rule="evenodd"/></g></svg>