<?xml version="1.0" encoding="UTF-8" standalone="no"?>
<svg
   xmlns:vectornator="http://vectornator.io"
   xmlns:dc="http://purl.org/dc/elements/1.1/"
   xmlns:cc="http://creativecommons.org/ns#"
   xmlns:rdf="http://www.w3.org/1999/02/22-rdf-syntax-ns#"
   xmlns:svg="http://www.w3.org/2000/svg"
   xmlns="http://www.w3.org/2000/svg"
   xmlns:sodipodi="http://sodipodi.sourceforge.net/DTD/sodipodi-0.dtd"
   xmlns:inkscape="http://www.inkscape.org/namespaces/inkscape"
   version="1.0"
   id="Layer_1"
   x="0px"
   y="0px"
   viewBox="0 0 30.284822 96.23632"
   xml:space="preserve"
   sodipodi:docname="foreleg_right.svg"
   width="30.284821"
   height="96.23632"
   inkscape:version="1.0.2-2 (e86c870879, 2021-01-15)"><metadata
   id="metadata180"><rdf:RDF><cc:Work
       rdf:about=""><dc:format>image/svg+xml</dc:format><dc:type
         rdf:resource="http://purl.org/dc/dcmitype/StillImage" /><dc:title></dc:title></cc:Work></rdf:RDF></metadata><defs
   id="defs178" /><sodipodi:namedview
   pagecolor="#ffffff"
   bordercolor="#666666"
   borderopacity="1"
   objecttolerance="10"
   gridtolerance="10"
   guidetolerance="10"
   inkscape:pageopacity="0"
   inkscape:pageshadow="2"
   inkscape:window-width="703"
   inkscape:window-height="480"
   id="namedview176"
   showgrid="false"
   inkscape:zoom="0.87511551"
   inkscape:cx="178.12434"
   inkscape:cy="-21.128733"
   inkscape:window-x="0"
   inkscape:window-y="0"
   inkscape:window-maximized="0"
   inkscape:current-layer="Layer_1" />
<g
   id="Calque_1"
   vectornator:layerName="Calque 1"
   transform="translate(-417.22563,-647.69631)">
	<path
   style="stroke:#000000;stroke-linejoin:round"
   d="m 443.8,648.2 c -0.4,2 -4.7,-2.1 -4,1.7 3.6,21.2 -8.9,62.8 -9.1,83.3 -0.1,7.4 6.3,2.1 6.3,2.1 0,0 3.7,-76.5 10.1,-85.7"
   id="path170" />
	<path
   style="stroke:#000000;stroke-linejoin:round"
   d="m 437.3,735.3 c 0,0 -5,2.1 -9,4.1 -1.2,0.6 -6.2,-1.3 -8.6,-0.3 -2.4,1 -2.5,4.1 -0.9,4.2 2.7,0.2 8.7,0.2 13,-0.2 2.4,-0.2 4.2,-0.5 4.6,-1 3.3,-3.5 0.9,-6.8 0.9,-6.8 z"
   id="path172" />
</g>
</svg>
