<?xml version="1.0" encoding="UTF-8" standalone="no"?>
<svg
   xmlns:vectornator="http://vectornator.io"
   xmlns:dc="http://purl.org/dc/elements/1.1/"
   xmlns:cc="http://creativecommons.org/ns#"
   xmlns:rdf="http://www.w3.org/1999/02/22-rdf-syntax-ns#"
   xmlns:svg="http://www.w3.org/2000/svg"
   xmlns="http://www.w3.org/2000/svg"
   xmlns:sodipodi="http://sodipodi.sourceforge.net/DTD/sodipodi-0.dtd"
   xmlns:inkscape="http://www.inkscape.org/namespaces/inkscape"
   version="1.0"
   id="Layer_1"
   x="0px"
   y="0px"
   viewBox="0 0 22.876637 95.24189"
   xml:space="preserve"
   sodipodi:docname="foreleg_left.svg"
   width="22.876637"
   height="95.24189"
   inkscape:version="1.0.2-2 (e86c870879, 2021-01-15)"><metadata
   id="metadata156"><rdf:RDF><cc:Work
       rdf:about=""><dc:format>image/svg+xml</dc:format><dc:type
         rdf:resource="http://purl.org/dc/dcmitype/StillImage" /><dc:title></dc:title></cc:Work></rdf:RDF></metadata><defs
   id="defs154" /><sodipodi:namedview
   pagecolor="#ffffff"
   bordercolor="#666666"
   borderopacity="1"
   objecttolerance="10"
   gridtolerance="10"
   guidetolerance="10"
   inkscape:pageopacity="0"
   inkscape:pageshadow="2"
   inkscape:window-width="689"
   inkscape:window-height="480"
   id="namedview152"
   showgrid="false"
   inkscape:zoom="0.87511551"
   inkscape:cx="21.469296"
   inkscape:cy="-47.687397"
   inkscape:window-x="0"
   inkscape:window-y="0"
   inkscape:window-maximized="0"
   inkscape:current-layer="Layer_1" />
<g
   id="Calque_1"
   vectornator:layerName="Calque 1"
   transform="translate(-573.88068,-651.5204)">
	<path
   style="stroke:#000000;stroke-linejoin:round"
   d="m 578.2,651.7 c 0.2,2 5.5,-1.6 4.3,2.1 -6.3,20.8 3.3,63.4 1.3,83.8 -0.7,7.4 -7.5,1.5 -7.5,1.5 0,0 4.3,-76.5 -2,-86.2"
   id="path146" />
	<path
   style="stroke:#000000;stroke-linejoin:round"
   d="m 576.3,739.5 c 0,0 5.2,1.1 9.4,2.2 1.3,0.3 5.6,-2.5 8,-2 2.5,0.5 3.3,3.5 1.8,4 -3.9,1.2 -15.5,3.3 -16.8,2.3 -4,-2.8 -2.4,-6.5 -2.4,-6.5 z"
   id="path148" />
</g>
</svg>
