<svg width="1178" height="395" xmlns="http://www.w3.org/2000/svg" xmlns:xlink="http://www.w3.org/1999/xlink" overflow="hidden"><defs><clipPath id="clip0"><path d="M71 313 1249 313 1249 708 71 708Z" fill-rule="evenodd" clip-rule="evenodd"/></clipPath></defs><g clip-path="url(#clip0)" transform="translate(-71 -313)"><path d="M93.2429 333.449C93.6379 319.04 97.3253 331.277 99.1677 329.896 106.269 324.573 99.148 327.534 106.277 325.159 107.462 324.369 108.531 323.368 109.832 322.79 112.115 321.776 114.864 321.806 116.942 320.421 118.127 319.632 119.196 318.631 120.497 318.053 122.78 317.039 125.237 316.474 127.607 315.684L131.162 314.5C138.271 314.895 145.425 314.802 152.491 315.684 154.97 315.994 157.11 317.861 159.6 318.053 164.735 318.448 169.858 319.047 175.005 319.237 189.831 319.786 269.102 321.369 280.466 321.606 286.818 323.722 281.366 322.069 289.946 323.974 291.535 324.327 293.12 324.712 294.685 325.159 295.887 325.502 297.029 326.04 298.24 326.343 303.669 327.699 307.888 327.992 313.645 328.711 337.587 334.694 321.015 330.992 378.817 328.711 388.716 328.321 408.441 326.343 408.441 326.343 432.639 321.506 401.762 327.321 466.504 323.974 480.655 323.243 478.856 322.415 487.833 320.421 489.799 319.985 491.783 319.632 493.758 319.237 507.978 319.632 522.209 319.711 536.417 320.421 537.26 320.464 543.529 322.199 544.711 322.79 545.985 323.427 546.905 324.74 548.266 325.159 552.116 326.343 556.119 327.028 560.116 327.527 575.096 329.399 566.419 328.485 586.185 329.896 588.196 330.398 592.401 331.32 594.479 332.264 597.696 333.725 600.532 336.145 603.959 337.001L613.439 339.37 618.179 340.554C626.473 340.16 634.803 340.224 643.063 339.37 646.302 339.035 649.291 337.193 652.542 337.001L672.687 335.817C675.057 335.423 677.407 334.884 679.796 334.633 684.918 334.094 690.069 333.876 695.201 333.449L708.235 332.264C710.21 331.87 712.28 331.803 714.16 331.08 717.457 329.813 723.64 326.343 723.64 326.343 730.749 326.738 737.85 327.367 744.969 327.527 835.185 329.553 801.307 323.156 835.026 329.896 836.606 330.685 838.073 331.757 839.765 332.264 842.067 332.954 844.497 333.109 846.875 333.449 867.636 336.413 846.501 332.992 863.465 335.817 866.642 335.553 876.399 335.868 881.239 333.449 882.513 332.812 883.46 331.58 884.794 331.08 889.605 329.277 906.737 328.752 907.308 328.711 937.681 329.926 934.73 330.632 964.186 328.711 973.285 328.118 991.44 326.343 991.44 326.343 997.76 326.738 1004.1 326.853 1010.4 327.527 1015.18 328.039 1019.84 329.365 1024.62 329.896 1040.4 331.648 1031.72 330.806 1050.69 332.264 1083.08 331.475 1115.9 335.219 1147.85 329.896 1163.54 327.282 1152.56 328.82 1181.03 327.527 1189.98 325.739 1191.59 325.159 1203.55 325.159 1207.52 325.159 1211.45 325.948 1215.4 326.343 1216.58 327.132 1217.57 328.366 1218.95 328.711 1222.42 329.578 1226.06 329.478 1229.62 329.896L1239.1 331.08C1239.89 332.659 1240.96 334.126 1241.47 335.817 1242.16 338.117 1242.13 340.579 1242.65 342.923 1242.92 344.142 1243.44 345.292 1243.84 346.476 1247.3 370.705 1243.84 344.26 1246.21 398.585 1246.36 402.156 1247 405.69 1247.39 409.243 1247.1 424.474 1251.79 457.922 1243.84 479.116 1243.09 481.107 1242.42 483.136 1241.47 485.038 1240.83 486.311 1239.89 487.406 1239.1 488.591 1238.7 489.775 1238.35 490.975 1237.91 492.144 1237.16 494.134 1236.17 496.033 1235.54 498.065 1234.58 501.176 1233.17 507.539 1233.17 507.539 1233.57 513.856 1233.69 520.194 1234.36 526.488 1234.49 527.729 1235.24 528.83 1235.54 530.041L1237.91 539.515C1238.44 543.185 1240.28 555.479 1240.28 558.464 1240.28 575.049 1239.83 591.636 1239.1 608.204 1239.04 609.451 1238.21 610.546 1237.91 611.757 1236.22 618.518 1237.37 616.337 1235.54 622.415 1234.82 624.807 1233.17 629.521 1233.17 629.521 1233.57 641.759 1232.92 654.074 1234.36 666.234 1234.55 667.898 1237.08 668.333 1237.91 669.787 1253.21 696.551 1226.15 655.116 1241.47 678.077 1243.43 683.955 1243.9 681.469 1235.54 685.183 1231.49 686.983 1226.79 687.209 1222.51 687.551 1215.8 688.088 1209.09 688.615 1202.36 688.736L1090.98 689.92C1087.82 690.315 1084.68 690.912 1081.5 691.104 1071.63 691.702 1061.71 691.394 1051.87 692.289 1048.63 692.583 1045.6 694.075 1042.39 694.657 1036.9 695.656 1031.33 696.236 1025.8 697.026 1023.43 697.815 1021.14 698.871 1018.69 699.394 1015.58 700.061 1012.37 700.158 1009.21 700.579L1000.92 701.763C977.615 701.368 954.29 701.652 931.007 700.579 928.512 700.464 926.303 698.883 923.897 698.21 916.424 696.119 909.038 693.564 901.383 692.289 899.013 691.894 896.675 691.16 894.273 691.104 862.681 690.37 831.076 690.315 799.477 689.92 776.202 686.597 773.959 685.92 750.894 683.999 739.844 683.078 728.757 682.633 717.715 681.63L704.68 680.446C684.141 680.84 663.554 680.167 643.063 681.63 641.093 681.771 640.243 684.722 638.323 685.183 630.175 687.137 613.439 688.736 613.439 688.736 599.14 693.499 611.731 689.821 587.37 693.473L563.671 697.026C559.697 697.688 555.729 698.418 551.821 699.394 547.82 700.394 544.059 702.402 539.971 702.947 532.131 703.992 524.172 703.737 516.272 704.131L445.175 702.947C441.6 702.844 438.082 701.575 434.51 701.763 423.011 702.368 411.626 704.398 400.147 705.316 391.869 705.978 383.557 706.105 375.263 706.5L302.98 705.316C300.967 705.255 299.042 704.462 297.055 704.131 293.742 703.58 280.623 701.798 278.096 701.763L119.312 700.579C117.732 699.789 116.07 699.146 114.572 698.21 107.787 693.972 112.129 695.631 106.277 692.289 104.744 691.413 103.242 690.384 101.538 689.92 98.8431 689.185 96.0078 689.13 93.2429 688.736 84.7822 685.917 88.2118 687.752 82.5783 683.999 81.7883 681.63 80.6192 679.356 80.2085 676.893 79.4185 672.156 79.3581 667.237 77.8385 662.681L75.4686 655.576C72.8674 629.579 72.8202 633.974 75.4686 591.624 75.5788 589.862 77.1427 588.509 77.8385 586.887 78.3306 585.739 78.7426 584.55 79.0235 583.334 84.3042 560.463 78.6114 581.222 83.7633 563.201 84.2015 545.244 84.0959 518.426 86.1332 498.065 86.7066 492.334 88.2904 487.073 89.6881 481.485 90.4781 470.826 91.2776 460.168 92.0579 449.509 92.4625 443.983 91.8983 438.304 93.2429 432.929 93.6379 431.35 94.1366 429.793 94.4279 428.192 96.6065 416.216 94.3643 423.646 96.7978 416.349 98.041 340.555 92.8479 347.858 93.2429 333.449Z" stroke="#000000" stroke-miterlimit="8" fill-rule="evenodd"/></g></svg>