<svg width="171" height="209" xmlns="http://www.w3.org/2000/svg" xmlns:xlink="http://www.w3.org/1999/xlink" overflow="hidden"><defs><clipPath id="clip0"><path d="M942 425 1113 425 1113 634 942 634Z" fill-rule="evenodd" clip-rule="evenodd"/></clipPath></defs><g clip-path="url(#clip0)" transform="translate(-942 -425)"><path d="M1040.09 523.838C1041.92 524.754 1053.47 541.984 1052.45 550.544 1051.43 559.103 1043.54 574.896 1033.95 575.196 1024.37 575.496 990.042 570.228 994.942 552.345 999.841 534.461 1044.48 471.932 1063.35 467.895 1082.22 463.858 1101.95 503.284 1108.16 528.121 1114.36 552.958 1111.59 599.661 1100.56 616.92 1089.53 634.178 1063.53 633.014 1041.97 631.673 1020.42 630.332 987.347 623.557 971.244 608.875 955.141 594.193 938.503 572.228 945.359 543.581 952.215 514.934 994.819 456.076 1012.38 436.99 1029.94 417.904 1046.5 429.415 1050.72 429.066 1054.95 428.717 1049.57 421.012 1037.71 434.896 1025.85 448.781 987.169 486.421 979.575 512.374 971.981 538.327 978.509 574.724 992.146 590.614 1005.78 606.503 1045.48 615.648 1061.39 607.712 1077.31 599.776 1086.58 560.555 1087.63 542.997 1088.69 525.44 1073.62 509.699 1067.72 502.368 1061.82 495.037 1060.87 492.947 1052.24 499.01 1043.61 505.073 1020.78 528.618 1015.94 538.747 1011.1 548.876 1018.95 558.736 1023.2 559.786 1027.45 560.835 1038.56 550.824 1041.46 545.046 1044.35 539.268 1038.26 522.922 1040.09 523.838Z" stroke="#2F528F" stroke-width="1.33333" stroke-miterlimit="8" fill="#4472C4" fill-rule="evenodd"/></g></svg>