<svg width="252" height="315" xmlns="http://www.w3.org/2000/svg" xmlns:xlink="http://www.w3.org/1999/xlink" overflow="hidden"><defs><clipPath id="clip0"><path d="M499 157 751 157 751 472 499 472Z" fill-rule="evenodd" clip-rule="evenodd"/></clipPath></defs><g clip-path="url(#clip0)" transform="translate(-499 -157)"><path d="M743.898 286.946C734.188 324.215 711.698 454.426 672.049 468.825 632.4 483.223 526.208 424.035 506.003 373.336 485.796 322.637 515.095 192.539 550.812 164.629 586.529 136.718 714.274 201.341 720.305 205.871 726.337 210.4 619.044 171.462 587.002 191.805 554.959 212.149 522.725 290.673 528.05 327.935 533.375 365.197 592.911 399.004 618.95 415.376 644.989 431.748 667.161 447.829 684.282 426.168 701.403 404.507 736.962 308.907 721.678 285.41 706.394 261.913 613.47 276.194 592.578 285.186 571.685 294.177 584.058 324.866 596.322 339.359 608.585 353.851 655.742 375.297 666.157 372.142 676.572 368.987 662.61 324.211 658.81 320.43 655.009 316.649 651.194 350.331 643.353 349.456 635.512 348.581 604.003 322.679 611.762 315.181 619.522 307.682 680.696 290.897 689.912 304.466 699.128 318.035 689.459 392.509 667.057 396.594 644.655 400.679 567.99 357.534 555.501 328.977 543.012 300.42 562.987 239.21 592.121 225.249 621.256 211.289 704.851 234.089 730.308 245.215 755.765 256.341 753.608 249.678 743.898 286.946Z" fill="#C55A11" fill-rule="evenodd"/></g></svg>