<svg width="286" height="236" xmlns="http://www.w3.org/2000/svg" xmlns:xlink="http://www.w3.org/1999/xlink" overflow="hidden"><defs><clipPath id="clip0"><path d="M753 88 1039 88 1039 324 753 324Z" fill-rule="evenodd" clip-rule="evenodd"/></clipPath></defs><g clip-path="url(#clip0)" transform="translate(-753 -88)"><path d="M1034.72 182.01C1029.47 210.437 1024.48 309.475 980.569 321.341 936.66 333.206 803.112 291.05 771.266 253.201 739.42 215.351 752.376 116.231 789.493 94.2424 826.61 72.2537 986.192 117.991 993.968 121.268 1001.74 124.546 870.214 97.7327 836.149 113.908 802.085 130.083 777.289 190.267 789.581 218.319 801.872 246.372 876.849 270.477 909.899 282.22 942.949 293.963 971.441 305.581 987.882 288.777 1004.32 271.972 1030.21 198.791 1008.55 181.394 986.881 163.998 880.798 177.085 857.89 184.399 834.982 191.713 854.424 214.621 871.096 225.281 887.768 235.941 946.285 251.002 957.921 248.359 969.557 245.717 945.963 212.194 940.912 209.428 935.861 206.661 936.906 232.231 927.615 231.762 918.324 231.293 877.336 212.476 885.166 206.614 892.996 200.752 961.629 186.552 974.594 196.588 987.56 206.625 988.43 263.191 962.961 266.832 937.491 270.472 841.008 239.725 821.777 218.433 802.547 197.14 815.865 150.353 847.578 139.077 879.292 127.802 980.541 142.991 1012.06 150.78 1043.57 158.569 1039.97 153.583 1034.72 182.01Z" fill="#FFC000" fill-rule="evenodd"/></g></svg>