<?xml version="1.0" encoding="utf-8"?>
<!-- Generator: Adobe Illustrator 21.1.0, SVG Export Plug-In . SVG Version: 6.00 Build 0)  -->
<svg version="1.0" id="Layer_1" xmlns:vectornator="http://vectornator.io"
	 xmlns="http://www.w3.org/2000/svg" xmlns:xlink="http://www.w3.org/1999/xlink" x="0px" y="0px" viewBox="0 0 1190.7 842"
	 style="enable-background:new 0 0 1190.7 842;" xml:space="preserve">
<g id="Calque_1" vectornator:layerName="Calque 1">
	<path style="stroke:#000000;stroke-linejoin:round;" d="M570.4,138.1L570.4,138.1c24.1,0,43.7,20.5,43.7,45.8l0,0
		c0,25.3-19.5,45.8-43.7,45.8l0,0c-24.1,0-43.7-20.5-43.7-45.8l0,0C526.7,158.6,546.2,138.1,570.4,138.1z"/>
	<path style="stroke:#000000;stroke-linejoin:round;" d="M565.7,232.2l5.2-0.2c3.4,0,3.3,5.6,3.3,12.6v7.2c0,7-0.6,11.9-2.8,12.8
		l-6.1,0.1c-3.4,0-3.5-6-3.5-13v-7.2C561.8,237.6,562.3,232.2,565.7,232.2z"/>
</g>
</svg>
