<?xml version="1.0" encoding="utf-8"?>
<!-- Generator: Adobe Illustrator 21.1.0, SVG Export Plug-In . SVG Version: 6.00 Build 0)  -->
<svg version="1.0" id="Layer_1" xmlns:vectornator="http://vectornator.io"
	 xmlns="http://www.w3.org/2000/svg" xmlns:xlink="http://www.w3.org/1999/xlink" x="0px" y="0px" viewBox="0 0 1190.7 842"
	 style="enable-background:new 0 0 1190.7 842;" xml:space="preserve">
<g id="Calque_1" vectornator:layerName="Calque 1">
	<path style="stroke:#000000;stroke-linejoin:round;" d="M431.8,567c4.2-60.9,113.9-159.3,113.9-159.3s30.5,130.1,66.6,170.5"/>
	<path style="stroke:#000000;stroke-linejoin:round;" d="M472.9,262.9c15.1-6.1,182.3-11.6,181,7.9c-1.3,19.5-97.4,131.8-109,137.3"
		/>
	<path style="stroke:#000000;stroke-linejoin:round;" d="M570.4,138.1L570.4,138.1c24.1,0,43.7,20.5,43.7,45.8l0,0
		c0,25.3-19.5,45.8-43.7,45.8l0,0c-24.1,0-43.7-20.5-43.7-45.8l0,0C526.7,158.6,546.2,138.1,570.4,138.1z"/>
	<path style="stroke:#000000;stroke-linejoin:round;" d="M565.7,232.2l5.2-0.2c3.4,0,3.3,5.6,3.3,12.6v7.2c0,7-0.6,11.9-2.8,12.8
		l-6.1,0.1c-3.4,0-3.5-6-3.5-13v-7.2C561.8,237.6,562.3,232.2,565.7,232.2z"/>
	<path style="stroke:#000000;stroke-linejoin:round;" d="M506.8,510.1c0-8.2,0.2-16.3,0.2-24.5"/>
	<path style="stroke:#000000;stroke-linejoin:round;" d="M650.5,270.8c8.9,6.2,22,18.4,34.8,31.1c21.3,21.2,41.9,44.1,41.9,44.1
		s-3.2,12.6-7.4,8.2c-18.2-19-51.8-62.9-76.2-73"/>
	<path style="stroke:#000000;stroke-linejoin:round;" d="M479.6,262c-20.8,14.7-67.2,67.2-67.2,67.2s2.8,11.2,6.5,7.3
		c16-17,45.4-56.2,66.9-65.2"/>
	<path style="stroke:#000000;stroke-linejoin:round;" d="M727.2,345.5c6.9,6.8,10.5,24.6,15.2,40.2c6,19.8,9.9,39,9.9,39
		s-7.4,2.1-8.6-2.3c-5.1-19-10.1-56-25.5-70.2"/>
	<path style="stroke:#000000;stroke-linejoin:round;" d="M414,326.2c-6.7,6.8-10.2,24.6-14.7,40.2c-5.8,19.8-9.6,39-9.6,39
		s7.1,2.1,8.3-2.3c4.9-19,9.7-56,24.6-70.2"/>
	<path style="stroke:#000000;stroke-linejoin:round;" d="M472.7,568.9c0,0-25.9,53.8-32.5,76.3c-2.1,7.1,7.3,3.5,7.3,3.5
		s22.9-73,36-78.6"/>
	<path style="stroke:#000000;stroke-linejoin:round;" d="M550.1,572.4c0,0,24.8,53.8,31.3,76.3c2,7.1-7,3.5-7,3.5s-22-73-34.6-78.6"
		/>
	<path style="stroke:#000000;stroke-linejoin:round;" d="M578.2,651.7c0.2,2,5.5-1.6,4.3,2.1c-6.3,20.8,3.3,63.4,1.3,83.8
		c-0.7,7.4-7.5,1.5-7.5,1.5s4.3-76.5-2-86.2"/>
	<path style="stroke:#000000;stroke-linejoin:round;" d="M443.8,648.2c-0.4,2-4.7-2.1-4,1.7c3.6,21.2-8.9,62.8-9.1,83.3
		c-0.1,7.4,6.3,2.1,6.3,2.1s3.7-76.5,10.1-85.7"/>
	<path style="stroke:#000000;stroke-linejoin:round;" d="M576.3,739.5c0,0,5.2,1.1,9.4,2.2c1.3,0.3,5.6-2.5,8-2
		c2.5,0.5,3.3,3.5,1.8,4c-3.9,1.2-15.5,3.3-16.8,2.3C574.7,743.2,576.3,739.5,576.3,739.5z"/>
	<path style="stroke:#000000;stroke-linejoin:round;" d="M437.3,735.3c0,0-5,2.1-9,4.1c-1.2,0.6-6.2-1.3-8.6-0.3
		c-2.4,1-2.5,4.1-0.9,4.2c2.7,0.2,8.7,0.2,13-0.2c2.4-0.2,4.2-0.5,4.6-1C439.7,738.6,437.3,735.3,437.3,735.3z"/>
</g>
</svg>
