<?xml version="1.0" encoding="utf-8"?>
<!-- Generator: Adobe Illustrator 21.1.0, SVG Export Plug-In . SVG Version: 6.00 Build 0)  -->
<svg version="1.0" id="Layer_1" xmlns:vectornator="http://vectornator.io"
	 xmlns="http://www.w3.org/2000/svg" xmlns:xlink="http://www.w3.org/1999/xlink" x="0px" y="0px" viewBox="0 0 1190.7 842"
	 style="enable-background:new 0 0 1190.7 842;" xml:space="preserve">
<g id="Calque_1" vectornator:layerName="Calque 1">
	<path style="stroke:#000000;stroke-linejoin:round;" d="M443.8,648.2c-0.4,2-4.7-2.1-4,1.7c3.6,21.2-8.9,62.8-9.1,83.3
		c-0.1,7.4,6.3,2.1,6.3,2.1s3.7-76.5,10.1-85.7"/>
	<path style="stroke:#000000;stroke-linejoin:round;" d="M437.3,735.3c0,0-5,2.1-9,4.1c-1.2,0.6-6.2-1.3-8.6-0.3
		c-2.4,1-2.5,4.1-0.9,4.2c2.7,0.2,8.7,0.2,13-0.2c2.4-0.2,4.2-0.5,4.6-1C439.7,738.6,437.3,735.3,437.3,735.3z"/>
</g>
</svg>
